<svg xmlns="http://www.w3.org/2000/svg" viewBox="0 0 249 143"><path fill="#F6EEE4" fill-rule="nonzero" d="M43.319 62.275c.285.314.669.52 1.088.585a15.018 15.018 0 0 1 10.312 11.483c1.29 5.61.45 10.852-3.367 15.382a17.688 17.688 0 0 1-6.315 4.65 28.604 28.604 0 0 1-11.85 2.64c-10.665.083-21.33 0-31.995 0-.3 0-.593-.037-.87-.06-.36-1.305-.45-62.932-.105-65.07a3.709 3.709 0 0 1 1.74-.15h28.942a28.95 28.95 0 0 1 14.678 3.57c9.405 5.393 9.06 16.305 4.725 21.885a14.25 14.25 0 0 1-5.423 4.328l-1.56.757ZM16.627 83.53c.189.081.388.137.592.165h13.155c8.453-.262 8.603-13.02.158-13.41H18.044c-.465 0-.967-.127-1.395.278l-.022 12.967Zm0-25.942c.282.058.568.098.855.12h11.685a9.945 9.945 0 0 0 2.302-.323c3.008-.599 5.097-3.412 4.8-6.465-.15-3.075-2.062-5.107-5.295-5.61a10.962 10.962 0 0 0-1.792-.12H17.864c-.397 0-.847-.127-1.237.315v12.083ZM211.642 47.41l10.05 28.5a1.013 1.013 0 0 0 1.305.615.998.998 0 0 0 .615-.615c1.665-4.372 2.955-8.82 4.365-13.23 1.62-5.07 3.202-10.147 4.815-15.27a1.03 1.03 0 0 1 .975-.75h13.777a1.01 1.01 0 0 1 1.005 1.005v.015a.935.935 0 0 1-.075.383c-6.645 17.74-13.292 35.472-19.942 53.197a29.835 29.835 0 0 1-3.75 7.148 17.262 17.262 0 0 1-12.54 7.222c-5.67.63-10.988-.382-15.713-3.787l-1.012-.75-.705-.533 6.135-10.612a1.02 1.02 0 0 1 1.395-.368l.142.098c.173.142.33.3.503.42a8.685 8.685 0 0 0 4.312 1.65 6.013 6.013 0 0 0 6-3.083c.09-.15.158-.315.24-.465a5.89 5.89 0 0 0 .233-5.137 7009.419 7009.419 0 0 1-17.55-42.915c-.375-.93-.75-1.86-1.133-2.79-.082-.218-.15-.518.045-.645a.534.534 0 0 1 .285-.06h15.218c.468-.009.885.305 1.005.757Zm-61.83 33.473 6.547 6.795a1.416 1.416 0 0 1 0 1.98 25.452 25.452 0 0 1-15.84 7.702 32.559 32.559 0 0 1-12.877-.81c-9.263-2.443-16.057-10.451-16.958-19.987-.547-4.823-.405-9.6 1.178-14.25 3.21-9.263 9.877-14.513 19.582-16.013a30.063 30.063 0 0 1 11.25.465 20.615 20.615 0 0 1 14.43 11.43c2.633 5.25 3.248 10.86 3.113 16.785a1.41 1.41 0 0 1-1.388 1.373c-1.44.037-2.842 0-4.245 0h-22.11c-1.282 0-2.557-.045-3.915 0a1.423 1.423 0 0 0-1.387 1.417v.03c.002.17.035.337.097.495a10.144 10.144 0 0 0 2.79 4.013c3.495 3.052 7.5 3.24 11.693 2.025a14.869 14.869 0 0 0 5.602-3.128l.495-.42a1.424 1.424 0 0 1 1.943.098Zm-6.75-13.718c.782 0 1.425-.643 1.425-1.425a.76.76 0 0 0 0-.135 8.42 8.42 0 0 0-6.593-7.545c-6-1.312-10.012 3-11.115 7.373a1.406 1.406 0 0 0 1.035 1.695c.115.018.231.018.345 0l14.903.037Zm-45.383 13.68 6.555 6.84a1.4 1.4 0 0 1 0 1.905 23.707 23.707 0 0 1-7.747 5.55 30.61 30.61 0 0 1-14.363 2.445 27.582 27.582 0 0 1-8.595-1.65c-8.182-3.075-13.012-9.067-14.662-17.55a30.579 30.579 0 0 1 1.035-16.5c3.42-9.322 10.222-14.355 19.972-15.585a30.235 30.235 0 0 1 11.25.653c6.533 1.612 11.183 5.542 14.1 11.565 2.633 5.445 3.158 11.25 2.888 17.197a2.73 2.73 0 0 1-.248.653H76.417c-.753 0-1.372.619-1.372 1.372 0 .205.046.408.134.593.113.232.233.457.338.682a10.655 10.655 0 0 0 10.56 6 15.678 15.678 0 0 0 9.682-4.215 1.379 1.379 0 0 1 1.92.045ZM74.204 67.06c2.43.428 17.138.3 18.323-.135-.135-3.075-1.11-5.782-3.75-7.56a8.583 8.583 0 0 0-9-.6c-3.39 1.68-4.853 4.74-5.573 8.295Z"/><path fill="#F6EEE4" fill-rule="nonzero" d="M197.324 29.943c-.607 3.652-1.185 7.17-1.777 10.74a.995.995 0 0 1-1.125.817h-.09c-.93-.24-1.77-.457-2.61-.697a5.935 5.935 0 0 0-.495-.12c-3.114-.477-6.07 1.687-6.555 4.8a5.226 5.226 0 0 0-.068.96v1.567a.987.987 0 0 0 .975.968h8.475a.984.984 0 0 1 .975.855c.269 3.11.309 6.236.12 9.352a.987.987 0 0 1-.952.908c-2.813.067-5.663 0-8.648 0a.994.994 0 0 0-.96.982v34.883a.987.987 0 0 1-.982.975h-13.995a.98.98 0 0 1-.975-.975V61.113a.994.994 0 0 0-.908-.975c-1.59-.143-3.12 0-4.657-.075a.988.988 0 0 1-.908-1.013v-9.045a.994.994 0 0 1 .96-.982c1.583-.113 3.12 0 4.628-.045a.972.972 0 0 0 .907-.87 9.477 9.477 0 0 1 0-1.118 45.955 45.955 0 0 1 .203-5.565c1.08-7.125 5.512-11.895 12.51-13.605 5.16-1.252 10.17-.682 15.3 1.028.453.157.73.621.652 1.095Z"/></svg>