<svg xmlns="http://www.w3.org/2000/svg" xml:space="preserve" fill-rule="evenodd" stroke-linejoin="round" stroke-miterlimit="2" clip-rule="evenodd" viewBox="0 0 559 191"><path fill="#c4baae" fill-rule="nonzero" d="M0 97.63v-4.28C.45 90.24.65 87.1.82 84c3-26.34 15.53-47.35 36-63.8A87.7 87.7 0 0 1 80 1.17c26.36-3.71 50.81 1.18 72.29 17.52C169.72 32 182 49 187.67 70.35a97.274 97.274 0 0 1 2.79 32.81c-1.16 15.1-5.33 29.25-13.55 42-14.49 22.49-34.38 37.9-60.86 43.17-37.71 7.51-69.47-3.43-94.49-32.87a88.528 88.528 0 0 1-20-43.21c-.3-1.74-.5-3.48-.74-5.23L0 97.63Zm180.25-2.5c.3-5.191-.06-10.399-1.07-15.5a81.537 81.537 0 0 0-9.55-26.19A91.53 91.53 0 0 0 147.42 28a79.587 79.587 0 0 0-28.15-14.48 70.919 70.919 0 0 0-18.58-3c-1.51 0-3-.5-4.51-.29a33.47 33.47 0 0 1-5.48.3 40.21 40.21 0 0 0-6.66.64 87.802 87.802 0 0 0-23.61 6.71 85.136 85.136 0 0 0-43.87 45.7 83.524 83.524 0 0 0-6 26.71 85.961 85.961 0 0 0 .8 17.19 82.297 82.297 0 0 0 6.42 22.72c6.22 13.86 15.86 25.08 27.92 34.14 14.38 10.8 30.86 15.66 48.73 16.07 2.71.06 5.4-.15 8.11-.36a83.078 83.078 0 0 0 10.17-1.34 78.904 78.904 0 0 0 23.72-8.7 89.356 89.356 0 0 0 29.06-26.28 77.276 77.276 0 0 0 10.85-21.53 75.188 75.188 0 0 0 3.91-27.07Z"/><path fill="#f6eee4" fill-rule="nonzero" d="M285.26 92.3c.38.418.892.694 1.45.78a20.024 20.024 0 0 1 13.75 15.31c1.72 7.48.6 14.47-4.49 20.51a23.572 23.572 0 0 1-8.42 6.2 38.124 38.124 0 0 1-15.8 3.52c-14.22.11-28.44 0-42.66 0-.4 0-.79-.05-1.16-.08-.48-1.74-.6-83.91-.14-86.76a4.937 4.937 0 0 1 2.32-.2h38.59a38.588 38.588 0 0 1 19.57 4.76c12.54 7.19 12.08 21.74 6.3 29.18a19.007 19.007 0 0 1-7.23 5.77l-2.08 1.01Zm-35.59 28.34c.252.108.518.182.79.22H268c11.27-.35 11.47-17.36.21-17.88h-16.65c-.62 0-1.29-.17-1.86.37l-.03 17.29Zm0-34.59c.376.078.757.131 1.14.16h15.58a13.207 13.207 0 0 0 3.07-.43c4.01-.799 6.796-4.55 6.4-8.62-.2-4.1-2.75-6.81-7.06-7.48a14.701 14.701 0 0 0-2.39-.16h-15.09c-.53 0-1.13-.17-1.65.42v16.11Zm260.02-13.57c4.487 12.72 8.953 25.387 13.4 38a1.352 1.352 0 0 0 1.74.82 1.33 1.33 0 0 0 .82-.82c2.22-5.83 3.94-11.76 5.82-17.64 2.16-6.76 4.27-13.53 6.42-20.36a1.372 1.372 0 0 1 1.3-1h18.37c.735 0 1.34.605 1.34 1.34v.02c.003.175-.031.349-.1.51-8.86 23.653-17.723 47.297-26.59 70.93a39.739 39.739 0 0 1-5 9.53 23.013 23.013 0 0 1-16.72 9.63c-7.56.84-14.65-.51-20.95-5.05l-1.35-1-.94-.71 8.18-14.15a1.36 1.36 0 0 1 1.86-.49l.19.13c.23.19.44.4.67.56a11.577 11.577 0 0 0 5.75 2.2 8.014 8.014 0 0 0 8-4.11c.12-.2.21-.42.32-.62a7.857 7.857 0 0 0 .31-6.85 9337.249 9337.249 0 0 1-23.4-57.22c-.5-1.24-1-2.48-1.51-3.72-.11-.29-.2-.69.06-.86a.735.735 0 0 1 .38-.08h20.29a1.363 1.363 0 0 1 1.34 1.01Zm-82.44 44.63 8.73 9.06a1.889 1.889 0 0 1 0 2.64 33.938 33.938 0 0 1-21.12 10.27 43.41 43.41 0 0 1-17.17-1.08c-12.35-3.257-21.409-13.934-22.61-26.65-.73-6.43-.54-12.8 1.57-19C380.93 80 389.82 73 402.76 71a40.071 40.071 0 0 1 15 .62A27.489 27.489 0 0 1 437 86.86c3.51 7 4.33 14.48 4.15 22.38a1.879 1.879 0 0 1-1.85 1.83c-1.92.05-3.79 0-5.66 0h-29.48c-1.71 0-3.41-.06-5.22 0a1.898 1.898 0 0 0-1.85 1.89v.04c.003.226.047.45.13.66a13.51 13.51 0 0 0 3.72 5.35c4.66 4.07 10 4.32 15.59 2.7a19.83 19.83 0 0 0 7.47-4.17l.66-.56a1.898 1.898 0 0 1 2.59.13Zm-9-18.29a1.91 1.91 0 0 0 1.9-1.9c.005-.06.005-.12 0-.18a11.226 11.226 0 0 0-8.79-10.06c-8-1.75-13.35 4-14.82 9.83a1.875 1.875 0 0 0 1.38 2.26c.152.025.308.025.46 0l19.87.05Zm-60.51 18.24 8.74 9.12a1.868 1.868 0 0 1 0 2.54 31.615 31.615 0 0 1-10.33 7.4 40.821 40.821 0 0 1-19.15 3.26 36.801 36.801 0 0 1-11.46-2.2c-10.91-4.1-17.35-12.09-19.55-23.4a40.772 40.772 0 0 1 1.38-22C311.93 79.35 321 72.64 334 71a40.293 40.293 0 0 1 15 .87c8.71 2.15 14.91 7.39 18.8 15.42 3.51 7.26 4.21 15 3.85 22.93a3.62 3.62 0 0 1-.33.87h-41.929c-1.004 0-1.83.826-1.83 1.83 0 .273.061.543.179.79.15.31.31.61.45.91a14.205 14.205 0 0 0 14.08 8 20.908 20.908 0 0 0 12.91-5.62 1.838 1.838 0 0 1 2.56.06Zm-31.3-18.38c3.24.57 22.85.4 24.43-.18-.18-4.1-1.48-7.71-5-10.08a11.445 11.445 0 0 0-12-.8c-4.52 2.24-6.47 6.32-7.43 11.06Z"/><path fill="#f6eee4" fill-rule="nonzero" d="M490.6 49.19c-.81 4.87-1.58 9.56-2.37 14.32a1.327 1.327 0 0 1-1.5 1.09h-.12c-1.24-.32-2.36-.61-3.48-.93-.22-.06-.44-.12-.66-.16-4.152-.636-8.093 2.25-8.74 6.4-.07.423-.1.851-.09 1.28v2.09a1.316 1.316 0 0 0 1.3 1.29h11.3a1.314 1.314 0 0 1 1.3 1.14c.358 4.147.412 8.315.16 12.47a1.315 1.315 0 0 1-1.27 1.21c-3.75.09-7.55 0-11.53 0a1.326 1.326 0 0 0-1.28 1.31v46.51a1.316 1.316 0 0 1-1.31 1.3h-18.66c-.713 0-1.3-.587-1.3-1.3V90.75a1.325 1.325 0 0 0-1.21-1.3c-2.12-.19-4.16 0-6.21-.1a1.316 1.316 0 0 1-1.21-1.35V75.94a1.326 1.326 0 0 1 1.28-1.31c2.11-.15 4.16 0 6.17-.06a1.295 1.295 0 0 0 1.21-1.16c-.03-.496-.03-.994 0-1.49a61.27 61.27 0 0 1 .27-7.42c1.44-9.5 7.35-15.86 16.68-18.14 6.88-1.67 13.56-.91 20.4 1.37.604.21.973.829.87 1.46ZM180.25 95.13a75.193 75.193 0 0 1-3.92 27.07 77.276 77.276 0 0 1-10.85 21.53A89.411 89.411 0 0 1 136.42 170a78.904 78.904 0 0 1-23.72 8.7 83.02 83.02 0 0 1-10.17 1.3c-2.71.21-5.4.42-8.11.36-17.87-.41-34.35-5.27-48.73-16.07-12.06-9.01-21.69-20.23-27.92-34.09a82.297 82.297 0 0 1-6.42-22.72 85.961 85.961 0 0 1-.8-17.19 83.524 83.524 0 0 1 6-26.71 85.176 85.176 0 0 1 43.88-45.73A88.265 88.265 0 0 1 84 11.14a40.21 40.21 0 0 1 6.66-.64 33.47 33.47 0 0 0 5.48-.3c1.46-.21 3 .27 4.51.29a70.919 70.919 0 0 1 18.58 3A79.585 79.585 0 0 1 147.42 28a91.36 91.36 0 0 1 22.21 25.47 81.537 81.537 0 0 1 9.55 26.19 61.29 61.29 0 0 1 1.07 15.47ZM65.12 59.64h-18.7c-4.21 0-6.18 2-6.3 6.14a16.72 16.72 0 0 0 1.28 6.77 29.569 29.569 0 0 0 7.29 10.86c2.5 2.36 5.017 4.693 7.55 7a8.715 8.715 0 0 1 3 7c-.15 9.11 0 18.23 0 27.35-.04 1.76.07 3.519.33 5.26 2.109 12.944 13.386 22.556 26.5 22.59 5.52.07 11 0 16.55 0a27.609 27.609 0 0 0 6.41-.73c12.091-2.783 20.76-13.593 20.85-26 .09-9.92.07-19.84 0-29.75a6.374 6.374 0 0 1 1.73-4.56c.81-.88 1.7-1.7 2.58-2.5a91.611 91.611 0 0 0 8.54-8.41 26.678 26.678 0 0 0 5.64-11c.476-1.783.575-3.646.29-5.47a5.16 5.16 0 0 0-4.16-4.39 11.019 11.019 0 0 0-2.62-.2h-13.67c-.6 0-1.29.25-1.84-.43v-5.45a18.584 18.584 0 0 0-.49-4.52c-1.39-5.13-6.18-8.45-12-8.36-5.291-.014-9.955 3.588-11.28 8.71a18.704 18.704 0 0 0-.41 4.28 30.91 30.91 0 0 1-.19 5.77h-6.32a31.457 31.457 0 0 1-6.47-.21v-7.31a10.704 10.704 0 0 0-3-7.39 12.463 12.463 0 0 0-13.88-3c-4.44 1.71-7.14 5.74-7.23 10.86-.01 2.27.02 4.5.02 7.09Z"/><path fill="#030202" fill-rule="nonzero" d="M65.12 59.64v-7c.09-5.12 2.79-9.15 7.23-10.86a12.463 12.463 0 0 1 13.88 3 10.704 10.704 0 0 1 3 7.39v7.31c2.21.45 4.35.15 6.47.21s4.13 0 6.32 0c.24-1.91.3-3.839.18-5.76a18.704 18.704 0 0 1 .41-4.28c1.325-5.122 5.989-8.724 11.28-8.71 5.84-.09 10.63 3.23 12 8.36.348 1.481.512 2.999.49 4.52v5.45c.55.68 1.24.43 1.84.43h13.67c.878-.038 1.758.029 2.62.2a5.16 5.16 0 0 1 4.16 4.39 13.267 13.267 0 0 1-.29 5.47 26.678 26.678 0 0 1-5.64 11 91.611 91.611 0 0 1-8.54 8.41c-.88.8-1.77 1.62-2.58 2.5a6.374 6.374 0 0 0-1.73 4.56c.06 9.91.08 19.83 0 29.75-.085 12.426-8.776 23.251-20.89 26.02a27.609 27.609 0 0 1-6.41.73c-5.52 0-11 .07-16.55 0-13.153-.051-24.437-9.737-26.48-22.73-.26-1.741-.37-3.5-.33-5.26 0-9.12-.16-18.24 0-27.35a8.715 8.715 0 0 0-3-7 8692.73 8692.73 0 0 1-7.55-7 29.597 29.597 0 0 1-7.28-10.84 16.72 16.72 0 0 1-1.28-6.77c.12-4.12 2.09-6.1 6.3-6.14h18.7Zm18.75 11.87a1.922 1.922 0 0 0-1.55-.39H64.1c-2.94 0-4.1 1.35-3.62 4.24a11.84 11.84 0 0 0 3.25 6.55c1.34 1.36 2.68 2.74 4.11 4a8.005 8.005 0 0 1 2.79 6.57c-.12 5.51 0 11 0 16.54v16.07c-.003.121-.004.242-.004.364 0 8.491 6.884 15.524 15.374 15.706h1c5.43-.2 10.86 0 16.3-.07a15.467 15.467 0 0 0 14.1-9.79c1.56-3.91 1.06-8 1-11.8-22.53-8.44-34.53-24.05-34.53-47.99Zm28.6 35.1c2.809 0 5.12-2.311 5.12-5.12s-2.311-5.12-5.12-5.12-5.12 2.311-5.12 5.12 2.311 5.12 5.12 5.12Zm5.82-47c0-2.59.1-5 0-7.51-.1-1.94-1.47-3-3.57-3.13-2.42-.14-4.11.82-4.32 2.82-.27 2.6-.27 5.22 0 7.82h7.89Zm-37.41 0c.12-.23.25-.36.25-.5 0-1.9.09-3.81.09-5.71a7.73 7.73 0 0 0-.22-1.91c-.49-1.82-2.07-2.75-4.28-2.57-2 .16-3.38 1.3-3.46 3.22-.11 2.45 0 4.9 0 7.45l7.62.02Z"/><path fill="#f6eee4" fill-rule="nonzero" d="M83.87 71.51c0 23.94 12 39.55 34.48 48 0 3.84.53 7.89-1 11.8a15.467 15.467 0 0 1-14.1 9.79c-5.44.08-10.87-.13-16.3.07-8.593.359-15.964-6.407-16.34-15V109c0-5.51-.08-11 0-16.54a8.005 8.005 0 0 0-2.79-6.57c-1.43-1.28-2.77-2.66-4.11-4a11.84 11.84 0 0 1-3.25-6.55c-.48-2.89.68-4.23 3.62-4.24h18.21a1.902 1.902 0 0 1 1.58.41Zm2 30.06.001-.109c0-2.803-2.307-5.11-5.11-5.11-2.803 0-5.11 2.307-5.11 5.11 0 2.758 2.232 5.044 4.989 5.109 2.74.118 5.092-2.04 5.21-4.78v-.22h.02Zm26.6 5.04c-2.809 0-5.12-2.311-5.12-5.12s2.311-5.12 5.12-5.12 5.12 2.311 5.12 5.12-2.311 5.12-5.12 5.12Zm5.82-47.03h-7.9c-.27-2.6-.27-5.22 0-7.82.21-2 1.9-3 4.32-2.82 2.1.12 3.47 1.19 3.57 3.13.11 2.46.01 4.93.01 7.51Zm-37.41.01h-7.65c0-2.55-.08-5 0-7.45.08-1.92 1.42-3.06 3.46-3.22 2.21-.18 3.79.75 4.28 2.57.153.618.226 1.253.22 1.89 0 1.9 0 3.81-.09 5.71.03.14-.1.27-.22.5Z"/><path fill="#030202" fill-rule="nonzero" d="M85.85 101.57c-.043 2.773-2.336 5.03-5.109 5.03-2.804 0-5.11-2.307-5.11-5.11 0-2.803 2.306-5.11 5.11-5.11h.029l.081-.001c2.713 0 4.956 2.208 4.999 4.921v.27Z"/></svg>