<svg xmlns="http://www.w3.org/2000/svg" viewBox="0 0 144 143"><path fill="#c4baae" fill-rule="nonzero" d="M0 73.225v-3.21c.338-2.333.488-4.688.615-7.013 2.25-19.755 11.648-35.512 27-47.85A65.777 65.777 0 0 1 60 .88c19.77-2.783 38.108.885 54.218 13.14 13.072 9.982 22.282 22.732 26.534 38.745a72.95 72.95 0 0 1 2.093 24.607c-.87 11.325-3.998 21.938-10.162 31.5-10.868 16.868-25.786 28.425-45.646 32.378-28.282 5.632-52.102-2.573-70.867-24.653a66.394 66.394 0 0 1-15-32.407c-.225-1.305-.375-2.61-.555-3.923L0 73.225Zm135.188-1.875c.224-3.893-.045-7.8-.803-11.625a61.139 61.139 0 0 0-7.163-19.643 68.65 68.65 0 0 0-16.657-19.08 59.694 59.694 0 0 0-21.113-10.86 53.23 53.23 0 0 0-13.935-2.25c-1.132 0-2.25-.375-3.382-.217a25.218 25.218 0 0 1-4.11.225 30.221 30.221 0 0 0-4.995.48 65.863 65.863 0 0 0-17.708 5.032A63.856 63.856 0 0 0 12.42 47.687a62.66 62.66 0 0 0-4.5 20.033 64.425 64.425 0 0 0 .6 12.892 61.755 61.755 0 0 0 4.815 17.04c4.665 10.395 11.895 18.81 20.94 25.605 10.785 8.1 23.145 11.745 36.547 12.053 2.033.045 4.05-.113 6.083-.27a62.33 62.33 0 0 0 7.627-1.005 59.17 59.17 0 0 0 17.79-6.525 66.997 66.997 0 0 0 21.795-19.71 57.958 57.958 0 0 0 8.138-16.148 56.354 56.354 0 0 0 2.932-20.302Z"/><path fill="#f6eee4" fill-rule="nonzero" d="M135.188 71.35a56.4 56.4 0 0 1-2.94 20.302 58.012 58.012 0 0 1-8.138 16.148 67.057 67.057 0 0 1-21.795 19.702 59.154 59.154 0 0 1-17.79 6.525c-2.52.482-5.067.808-7.627.975-2.033.158-4.051.315-6.083.27-13.403-.307-25.763-3.952-36.548-12.052-9.045-6.758-16.267-15.173-20.94-25.568a61.755 61.755 0 0 1-4.815-17.04 64.573 64.573 0 0 1-.6-12.892 62.686 62.686 0 0 1 4.5-20.033 63.887 63.887 0 0 1 32.91-34.297A66.24 66.24 0 0 1 63 8.357a30.33 30.33 0 0 1 4.995-.48 24.997 24.997 0 0 0 4.11-.225c1.095-.157 2.25.203 3.382.218a53.19 53.19 0 0 1 13.935 2.25 59.704 59.704 0 0 1 21.143 10.882 68.527 68.527 0 0 1 16.657 19.103 61.125 61.125 0 0 1 7.163 19.642 45.993 45.993 0 0 1 .803 11.603ZM48.84 44.732H34.815c-3.158 0-4.635 1.5-4.725 4.605a12.54 12.54 0 0 0 .96 5.078 22.19 22.19 0 0 0 5.467 8.145c1.875 1.77 3.763 3.52 5.663 5.25a6.537 6.537 0 0 1 2.25 5.25c-.113 6.832 0 13.672 0 20.512-.03 1.32.053 2.64.247 3.945 1.583 9.708 10.04 16.917 19.875 16.943 4.14.052 8.25 0 12.413 0a20.688 20.688 0 0 0 4.807-.548c9.069-2.087 15.57-10.194 15.638-19.5.067-7.44.052-14.88 0-22.312a4.782 4.782 0 0 1 1.297-3.42c.608-.66 1.275-1.275 1.935-1.875a68.715 68.715 0 0 0 6.405-6.308 19.984 19.984 0 0 0 4.23-8.25 9.96 9.96 0 0 0 .218-4.102 3.873 3.873 0 0 0-3.12-3.293 8.303 8.303 0 0 0-1.965-.15H96.157c-.45 0-.967.188-1.38-.322v-4.088a13.918 13.918 0 0 0-.367-3.39c-1.043-3.847-4.635-6.337-9-6.27a8.738 8.738 0 0 0-8.46 6.533 14.02 14.02 0 0 0-.308 3.21c.088 1.444.04 2.893-.142 4.327h-4.74a23.58 23.58 0 0 1-4.853-.157v-5.483a8.024 8.024 0 0 0-2.25-5.542 9.347 9.347 0 0 0-10.41-2.25c-3.33 1.282-5.355 4.305-5.422 8.145-.008 1.702.015 3.375.015 5.317Z"/><path fill="#030202" fill-rule="nonzero" d="M48.84 44.732v-5.25c.068-3.84 2.093-6.862 5.423-8.145a9.35 9.35 0 0 1 10.41 2.25 8.033 8.033 0 0 1 2.25 5.543v5.482c1.657.338 3.262.113 4.852.158 1.59.045 3.098 0 4.74 0 .18-1.433.225-2.879.135-4.32a14.02 14.02 0 0 1 .308-3.21 8.736 8.736 0 0 1 8.46-6.533c4.38-.067 7.972 2.423 9 6.27.26 1.111.384 2.25.367 3.39v4.088c.413.51.93.322 1.38.322h10.252a8.312 8.312 0 0 1 1.966.15 3.873 3.873 0 0 1 3.12 3.293 9.96 9.96 0 0 1-.218 4.102 19.984 19.984 0 0 1-4.23 8.25 68.838 68.838 0 0 1-6.405 6.308c-.66.6-1.327 1.215-1.935 1.875a4.773 4.773 0 0 0-1.297 3.42c.045 7.432.06 14.872 0 22.312-.064 9.32-6.583 17.439-15.668 19.515-1.576.37-3.189.554-4.807.548-4.14 0-8.25.052-12.413 0-9.864-.038-18.328-7.303-19.86-17.048a23.036 23.036 0 0 1-.247-3.945c0-6.84-.12-13.68 0-20.512a6.54 6.54 0 0 0-2.25-5.25 6939.244 6939.244 0 0 1-5.663-5.25 22.212 22.212 0 0 1-5.46-8.13 12.54 12.54 0 0 1-.96-5.078c.09-3.09 1.568-4.575 4.725-4.605H48.84Zm14.063 8.903a1.442 1.442 0 0 0-1.163-.293H48.075c-2.205 0-3.075 1.013-2.715 3.18a8.877 8.877 0 0 0 2.438 4.913c1.005 1.02 2.01 2.055 3.082 3a6.006 6.006 0 0 1 2.093 4.927c-.09 4.133 0 8.25 0 12.405V93.82a8.284 8.284 0 0 0-.004.273c0 6.368 5.164 11.643 11.531 11.779h.75c4.073-.15 8.145 0 12.225-.052a11.599 11.599 0 0 0 10.575-7.343c1.17-2.932.795-6 .75-8.85-16.897-6.33-25.897-18.037-25.897-35.992Zm21.45 26.325c2.106 0 3.839-1.734 3.839-3.84 0-2.107-1.733-3.84-3.839-3.84a3.858 3.858 0 0 0-3.84 3.84 3.858 3.858 0 0 0 3.84 3.84Zm4.365-35.25c0-1.943.075-3.75 0-5.633-.075-1.455-1.103-2.25-2.678-2.347-1.815-.105-3.082.615-3.24 2.115a28.457 28.457 0 0 0 0 5.865h5.918Zm-28.058 0c.09-.173.188-.27.188-.375-.001-1.425.067-2.858.067-4.283a5.808 5.808 0 0 0-.165-1.432c-.367-1.365-1.552-2.063-3.21-1.928-1.5.12-2.535.975-2.595 2.415-.082 1.838 0 3.675 0 5.588l5.715.015Z"/><path fill="#f6eee4" fill-rule="nonzero" d="M62.903 53.635c0 17.955 9 29.662 25.86 36-.001 2.88.397 5.917-.751 8.85a11.596 11.596 0 0 1-10.574 7.342c-4.08.06-8.153-.097-12.225.053-6.446.269-11.974-4.806-12.255-11.25V81.752c0-4.132-.06-8.25 0-12.405a6.006 6.006 0 0 0-2.093-4.927c-1.073-.96-2.078-1.995-3.083-3a8.882 8.882 0 0 1-2.437-4.913c-.36-2.167.51-3.172 2.715-3.18h13.657c.421-.081.857.032 1.185.308Zm1.501 22.545v-.082a3.85 3.85 0 0 0-3.832-3.832c-2.103 0-3.833 1.73-3.833 3.832a3.85 3.85 0 0 0 3.742 3.832c2.055.088 3.819-1.53 3.907-3.585v-.165h.016Zm19.949 3.78a3.858 3.858 0 0 1-3.84-3.84 3.858 3.858 0 0 1 3.84-3.84c2.106 0 3.839 1.733 3.839 3.84a3.858 3.858 0 0 1-3.84 3.84Zm4.365-35.273h-5.924a28.387 28.387 0 0 1-.001-5.865c.158-1.5 1.426-2.25 3.241-2.115 1.575.09 2.602.893 2.677 2.348.082 1.845.008 3.697.008 5.632Zm-28.058.008h-5.737c0-1.913-.06-3.75 0-5.588.06-1.44 1.065-2.295 2.595-2.415 1.657-.135 2.842.563 3.21 1.928.114.464.169.94.165 1.417 0 1.425 0 2.858-.068 4.283.023.105-.075.202-.165.375Z"/><path fill="#030202" fill-rule="nonzero" d="M64.388 76.18a3.851 3.851 0 0 1-3.833 3.772 3.85 3.85 0 0 1-3.832-3.832c0-2.103 1.73-3.833 3.832-3.833h.083a3.768 3.768 0 0 1 3.75 3.69l-.001.203Z"/></svg>