<svg width="30" height="34" viewBox="0 0 30 34" fill="none" xmlns="http://www.w3.org/2000/svg"><path d="M27.633 5.87493L27.8056 6.88599C27.8056 6.94377 27.9782 8.04149 27.9782 9.74584C27.9782 11.3635 27.8344 13.5879 27.2301 16.0144C26.6546 18.3254 25.6187 21.0986 23.7484 23.814C21.878 26.5294 19.1444 29.1871 15.2022 31.3247L14.7131 31.5847L14.2239 31.3247C10.253 29.1871 7.54814 26.5005 5.67778 23.814C3.80742 21.0986 2.77152 18.3543 2.19603 16.0144C1.59176 13.5879 1.44788 11.3635 1.44788 9.74584C1.44788 8.04149 1.62053 6.94377 1.62053 6.88599L1.79318 5.87493C1.85073 5.52828 1.62053 5.21052 1.27524 5.15275C0.929938 5.09497 0.613415 5.32607 0.555866 5.67272L0.383217 6.68378C0.354442 6.79933 0.181793 7.95482 0.181793 9.74584C0.181793 11.4502 0.354442 13.7612 0.987488 16.3322C1.53421 18.7876 2.62765 21.7052 4.61311 24.5651C6.59857 27.4249 9.47605 30.2559 13.6196 32.4802L14.3965 32.9135C14.598 33.0291 14.7994 33.0291 15.0008 32.9135L15.7777 32.4802C19.9213 30.2559 22.7988 27.4249 24.7842 24.5651C26.7697 21.7052 27.8631 18.7876 28.4674 16.3611C29.1005 13.7901 29.2731 11.508 29.2731 9.77473C29.2731 7.98371 29.1005 6.82822 29.0717 6.71267L28.899 5.70161C28.8415 5.35496 28.525 5.12386 28.1797 5.18163C27.8056 5.21052 27.5754 5.52828 27.633 5.87493Z" fill="#171921" stroke="#171921" stroke-width="0.3" stroke-miterlimit="10"></path><path d="M5.24615 5.18145L14.7131 2.29271L24.3814 5.26811C24.7267 5.38366 25.072 5.18145 25.1871 4.8348C25.3022 4.48815 25.1008 4.1415 24.7555 4.02595L14.8857 1.02167C14.7706 0.992778 14.6267 0.992778 14.5116 1.02167L4.87208 3.96818C4.52678 4.08373 4.35413 4.43038 4.44046 4.77703C4.55555 5.09479 4.90085 5.297 5.24615 5.18145Z" fill="#171921" stroke="#171921" stroke-width="0.3" stroke-miterlimit="10"></path><path d="M0.584664 6.07717L14.1376 32.6247C14.2527 32.8269 14.4541 32.9713 14.6843 32.9713C14.9145 32.9713 15.1447 32.8558 15.2598 32.6247L23.5182 17.1122V17.0833L28.8415 6.04828C28.9854 5.73052 28.8703 5.35499 28.5538 5.21055C28.2372 5.06611 27.8632 5.18166 27.7193 5.49942L22.396 16.5344L14.7131 30.9781L1.70688 5.49942C1.53423 5.18166 1.16016 5.06611 0.843637 5.21055C0.555889 5.38388 0.412015 5.75941 0.584664 6.07717Z" fill="#171921" stroke="#171921" stroke-width="0.3" stroke-miterlimit="10"></path><path d="M7.05898 17.8921H22.137C22.4823 17.8921 22.77 17.6033 22.77 17.2566C22.77 16.91 22.4823 16.6211 22.137 16.6211H7.05898C6.71368 16.6211 6.42593 16.91 6.42593 17.2566C6.42593 17.6033 6.71368 17.8921 7.05898 17.8921Z" fill="#171921" stroke="#171921" stroke-width="0.3" stroke-miterlimit="10"></path></svg>
