<svg xmlns="http://www.w3.org/2000/svg" width="80" height="80" fill="none"><g clip-path="url(#a)"><path fill="#000" d="M68 0H12C5.373 0 0 5.373 0 12v56c0 6.627 5.373 12 12 12h56c6.627 0 12-5.373 12-12V12c0-6.627-5.373-12-12-12Z"/><g fill="#fff" fill-rule="evenodd" clip-path="url(#b)" clip-rule="evenodd"><path d="m62.273 20.687.29 1.795c.218 1.651.328 3.302.291 4.99 0 3.697-.435 7.358-1.307 10.948a42.13 42.13 0 0 1-5.99 13.641c-3.232 4.739-7.916 9.37-14.706 13.175l-.835.466-.835-.466c-6.79-3.734-11.473-8.4-14.705-13.175-2.832-4.164-4.829-8.759-5.99-13.64a46.322 46.322 0 0 1-1.308-10.95c0-1.65.073-3.338.291-4.99l.254-1.794a.866.866 0 0 0 0-.43c-.036-.145-.072-.288-.181-.396a1.1 1.1 0 0 0-.29-.287c-.11-.072-.255-.108-.364-.144a.895.895 0 0 0-.436 0 1.35 1.35 0 0 0-.4.18c-.108.072-.217.18-.29.287a2.008 2.008 0 0 0-.145.43l-.29 1.796A43.613 43.613 0 0 0 15 27.47c0 3.877.472 7.719 1.38 11.488a45.15 45.15 0 0 0 2.505 7.466 42.687 42.687 0 0 0 3.812 6.893c3.413 5.025 8.351 9.943 15.468 13.82l1.343.754c.181.072.363.108.545.108.181 0 .363-.036.544-.108l1.344-.754c7.08-3.913 12.054-8.83 15.467-13.82a43.138 43.138 0 0 0 6.318-14.36 48.95 48.95 0 0 0 1.343-11.486c0-1.795-.109-3.59-.327-5.385l-.29-1.795a2.008 2.008 0 0 0-.145-.43 1.1 1.1 0 0 0-.291-.288 1.348 1.348 0 0 0-.4-.18.895.895 0 0 0-.435 0c-.145.037-.29.072-.436.144-.109.072-.218.18-.29.287a1.317 1.317 0 0 0-.182.395v.467Z"/><path d="m23.823 19.466 16.266-5.061 16.593 5.17c.145.035.29.035.436.035.145 0 .29-.036.435-.108a.92.92 0 0 0 .363-.287.573.573 0 0 0 .182-.395c.036-.143.036-.287.036-.43a.947.947 0 0 0-.109-.431 1.293 1.293 0 0 0-.254-.36.586.586 0 0 0-.4-.179l-16.955-5.312a1.018 1.018 0 0 0-.654 0l-16.556 5.169c-.145.036-.254.107-.4.18-.108.107-.217.215-.254.358a.947.947 0 0 0-.109.431c0 .144 0 .287.037.43.036.144.109.288.181.396a.988.988 0 0 0 .363.287.78.78 0 0 0 .436.107c.073.036.218.036.363 0Z"/><path d="m15.799 21.01 23.273 46.38c.073.179.218.323.364.43.363.216.798.216 1.161 0 .182-.107.327-.251.436-.43L55.23 40.287l.036-.036 9.077-19.277a.947.947 0 0 0 .109-.43c0-.144 0-.288-.073-.431a.853.853 0 0 0-.218-.395c-.072-.108-.217-.216-.326-.287a.78.78 0 0 0-.436-.108c-.145 0-.29 0-.436.036a.868.868 0 0 0-.4.215c-.108.108-.217.216-.253.36L53.233 39.21 40.017 64.446 17.723 19.933c-.072-.107-.181-.251-.254-.359a.868.868 0 0 0-.4-.215.613.613 0 0 0-.435-.036.976.976 0 0 0-.436.108c-.109.071-.254.18-.326.287a1.318 1.318 0 0 0-.182.395c-.036.143-.073.287-.036.43.036.18.072.323.145.467Z"/><path d="M26.945 41.687H52.87c.146 0 .29-.036.436-.072a.578.578 0 0 0 .327-.251.744.744 0 0 0 .218-.359 1.177 1.177 0 0 0 0-.861c-.037-.144-.146-.252-.218-.36a1.989 1.989 0 0 0-.327-.25c-.145-.037-.29-.073-.436-.073H26.945c-.145 0-.29.036-.435.072a.579.579 0 0 0-.327.252.743.743 0 0 0-.218.359 1.177 1.177 0 0 0 0 .861.743.743 0 0 0 .218.359c.109.108.218.18.327.251.145.036.29.036.435.072Z"/></g></g><defs><clipPath id="a"><path fill="#fff" d="M0 0h80v80H0z"/></clipPath><clipPath id="b"><path fill="#fff" d="M15 12h50.105v56H15z"/></clipPath></defs></svg>