<?xml version="1.0" encoding="UTF-8" standalone="no"?>
<!-- Generator: Adobe Illustrator 19.0.0, SVG Export Plug-In . SVG Version: 6.00 Build 0)  -->

<svg
   version="1.1"
   id="Layer_1"
   x="0px"
   y="0px"
   viewBox="0 0 600 600"
   style="enable-background:new 0 0 600 600;"
   xml:space="preserve"
   sodipodi:docname="connextxerc20.svg"
   inkscape:version="1.3 (0e150ed6c4, 2023-07-21)"
   xmlns:inkscape="http://www.inkscape.org/namespaces/inkscape"
   xmlns:sodipodi="http://sodipodi.sourceforge.net/DTD/sodipodi-0.dtd"
   xmlns="http://www.w3.org/2000/svg"
   xmlns:svg="http://www.w3.org/2000/svg"><defs
   id="defs32" /><sodipodi:namedview
   id="namedview32"
   pagecolor="#ffffff"
   bordercolor="#000000"
   borderopacity="0.25"
   inkscape:showpageshadow="2"
   inkscape:pageopacity="0.0"
   inkscape:pagecheckerboard="0"
   inkscape:deskcolor="#d1d1d1"
   inkscape:zoom="1.2126881"
   inkscape:cx="97.30449"
   inkscape:cy="336.44264"
   inkscape:window-width="3840"
   inkscape:window-height="2321"
   inkscape:window-x="0"
   inkscape:window-y="0"
   inkscape:window-maximized="1"
   inkscape:current-layer="Layer_1" />&#10;<style
   type="text/css"
   id="style1">&#10;	.st0{fill:url(#XMLID_2_);}&#10;	.st1{fill:url(#XMLID_3_);}&#10;	.st2{fill:url(#XMLID_4_);}&#10;	.st3{fill:url(#XMLID_5_);}&#10;</style>&#10;<g
   id="XMLID_965_"
   transform="matrix(1.7734781,0,0,1.7734781,-232.67234,-232.27264)">&#10;	<g
   id="XMLID_2341_">&#10;		<linearGradient
   id="XMLID_2_"
   gradientUnits="userSpaceOnUse"
   x1="147.3687"
   y1="234.46471"
   x2="446.45731"
   y2="427.42499">&#10;			<stop
   offset="0"
   style="stop-color:#29C1FC"
   id="stop1" />&#10;			<stop
   offset="0.5022"
   style="stop-color:#AB00FF"
   id="stop2" />&#10;			<stop
   offset="0.5082"
   style="stop-color:#AC03FC"
   id="stop3" />&#10;			<stop
   offset="0.6406"
   style="stop-color:#C840B8"
   id="stop4" />&#10;			<stop
   offset="0.7601"
   style="stop-color:#DE7082"
   id="stop5" />&#10;			<stop
   offset="0.8629"
   style="stop-color:#EE935B"
   id="stop6" />&#10;			<stop
   offset="0.9448"
   style="stop-color:#F7A844"
   id="stop7" />&#10;			<stop
   offset="0.9956"
   style="stop-color:#FBB03B"
   id="stop8" />&#10;		</linearGradient>&#10;		<path
   id="XMLID_2343_"
   class="st0"
   d="m 244.8,171.1 c 0,0 -14,14 -30.4,30.4 L 148.3,267 c -27,27.5 -16.4,55.5 2.4,74.3 l 54,54 c 4.8,4.8 23.6,24.6 38.6,9.2 8.7,-8.7 6.8,-22.2 1.9,-27.5 L 183,315.3 c -11.1,-11.1 -5.8,-21.2 5.3,-31.8 l 53.1,-53.1 33.3,33.3 c 11.6,11.6 26,15.9 38.1,3.9 12.1,-12.1 4.8,-23.6 -6.8,-35.2 l -36.7,-36.7 z"
   style="fill:url(#XMLID_2_)" />&#10;		<linearGradient
   id="XMLID_3_"
   gradientUnits="userSpaceOnUse"
   x1="193.02119"
   y1="163.7034"
   x2="492.10971"
   y2="356.6637">&#10;			<stop
   offset="0"
   style="stop-color:#29C1FC"
   id="stop9" />&#10;			<stop
   offset="0.5022"
   style="stop-color:#AB00FF"
   id="stop10" />&#10;			<stop
   offset="0.5082"
   style="stop-color:#AC03FC"
   id="stop11" />&#10;			<stop
   offset="0.6406"
   style="stop-color:#C840B8"
   id="stop12" />&#10;			<stop
   offset="0.7601"
   style="stop-color:#DE7082"
   id="stop13" />&#10;			<stop
   offset="0.8629"
   style="stop-color:#EE935B"
   id="stop14" />&#10;			<stop
   offset="0.9448"
   style="stop-color:#F7A844"
   id="stop15" />&#10;			<stop
   offset="0.9956"
   style="stop-color:#FBB03B"
   id="stop16" />&#10;		</linearGradient>&#10;		<path
   id="XMLID_2342_"
   class="st1"
   d="m 247.7,173.5 c -8.7,-8.7 -21.2,-13.5 -33.3,-1.4 -12.1,12.1 -5.8,25.6 1.9,33.3"
   style="fill:url(#XMLID_3_)" />&#10;	</g>&#10;	<g
   id="XMLID_2338_">&#10;		<linearGradient
   id="XMLID_4_"
   gradientUnits="userSpaceOnUse"
   x1="177.40781"
   y1="187.9041"
   x2="476.49631"
   y2="380.8645">&#10;			<stop
   offset="0"
   style="stop-color:#29C1FC"
   id="stop17" />&#10;			<stop
   offset="0.5022"
   style="stop-color:#AB00FF"
   id="stop18" />&#10;			<stop
   offset="0.5082"
   style="stop-color:#AC03FC"
   id="stop19" />&#10;			<stop
   offset="0.6406"
   style="stop-color:#C840B8"
   id="stop20" />&#10;			<stop
   offset="0.7601"
   style="stop-color:#DE7082"
   id="stop21" />&#10;			<stop
   offset="0.8629"
   style="stop-color:#EE935B"
   id="stop22" />&#10;			<stop
   offset="0.9448"
   style="stop-color:#F7A844"
   id="stop23" />&#10;			<stop
   offset="0.9956"
   style="stop-color:#FBB03B"
   id="stop24" />&#10;		</linearGradient>&#10;		<path
   id="XMLID_2340_"
   class="st2"
   d="m 354.8,428.7 c 0,0 14,-14 30.4,-30.4 l 66.1,-66.1 c 27.5,-27.5 16.9,-55.5 -2.4,-74.3 l -54,-53.5 c -4.8,-4.8 -23.6,-24.6 -38.6,-9.2 -8.7,8.7 -6.8,22.2 -1.9,27.5 l 62.2,61.7 c 11.1,11.1 5.8,21.2 -5.3,31.8 L 358.2,369.3 324.9,336 c -11.6,-11.6 -26,-15.9 -38.1,-3.9 -12.1,12 -4.8,23.6 6.8,35.2 l 36.7,36.7 z"
   style="fill:url(#XMLID_4_)" />&#10;		<linearGradient
   id="XMLID_5_"
   gradientUnits="userSpaceOnUse"
   x1="131.6312"
   y1="258.85779"
   x2="430.71979"
   y2="451.81812">&#10;			<stop
   offset="0"
   style="stop-color:#29C1FC"
   id="stop25" />&#10;			<stop
   offset="0.5022"
   style="stop-color:#AB00FF"
   id="stop26" />&#10;			<stop
   offset="0.5082"
   style="stop-color:#AC03FC"
   id="stop27" />&#10;			<stop
   offset="0.6406"
   style="stop-color:#C840B8"
   id="stop28" />&#10;			<stop
   offset="0.7601"
   style="stop-color:#DE7082"
   id="stop29" />&#10;			<stop
   offset="0.8629"
   style="stop-color:#EE935B"
   id="stop30" />&#10;			<stop
   offset="0.9448"
   style="stop-color:#F7A844"
   id="stop31" />&#10;			<stop
   offset="0.9956"
   style="stop-color:#FBB03B"
   id="stop32" />&#10;		</linearGradient>&#10;		<path
   id="XMLID_2339_"
   class="st3"
   d="m 351.9,426.2 c 8.7,8.7 21.2,14 33.3,1.9 12.1,-12.1 5.8,-25.6 -1.9,-33.3"
   style="fill:url(#XMLID_5_)" />&#10;	</g>&#10;</g>&#10;</svg>
