<svg xmlns="http://www.w3.org/2000/svg" xml:space="preserve" style="enable-background:new 0 0 600 600" viewBox="0 0 600 600"><g transform="matrix(1.77348 0 0 1.77348 -232.672 -232.273)"><linearGradient id="a" x1="147.369" x2="446.457" y1="234.465" y2="427.425" gradientUnits="userSpaceOnUse"><stop offset="0" style="stop-color:#29c1fc"/><stop offset=".502" style="stop-color:#ab00ff"/><stop offset=".508" style="stop-color:#ac03fc"/><stop offset=".641" style="stop-color:#c840b8"/><stop offset=".76" style="stop-color:#de7082"/><stop offset=".863" style="stop-color:#ee935b"/><stop offset=".945" style="stop-color:#f7a844"/><stop offset=".996" style="stop-color:#fbb03b"/></linearGradient><path d="m244.8 171.1-30.4 30.4-66.1 65.5c-27 27.5-16.4 55.5 2.4 74.3l54 54c4.8 4.8 23.6 24.6 38.6 9.2 8.7-8.7 6.8-22.2 1.9-27.5L183 315.3c-11.1-11.1-5.8-21.2 5.3-31.8l53.1-53.1 33.3 33.3c11.6 11.6 26 15.9 38.1 3.9 12.1-12.1 4.8-23.6-6.8-35.2l-36.7-36.7z" style="fill:url(#a)"/><linearGradient id="b" x1="193.021" x2="492.11" y1="163.703" y2="356.664" gradientUnits="userSpaceOnUse"><stop offset="0" style="stop-color:#29c1fc"/><stop offset=".502" style="stop-color:#ab00ff"/><stop offset=".508" style="stop-color:#ac03fc"/><stop offset=".641" style="stop-color:#c840b8"/><stop offset=".76" style="stop-color:#de7082"/><stop offset=".863" style="stop-color:#ee935b"/><stop offset=".945" style="stop-color:#f7a844"/><stop offset=".996" style="stop-color:#fbb03b"/></linearGradient><path d="M247.7 173.5c-8.7-8.7-21.2-13.5-33.3-1.4-12.1 12.1-5.8 25.6 1.9 33.3" style="fill:url(#b)"/></g><g transform="matrix(1.77348 0 0 1.77348 -232.672 -232.273)"><linearGradient id="c" x1="177.408" x2="476.496" y1="187.904" y2="380.865" gradientUnits="userSpaceOnUse"><stop offset="0" style="stop-color:#29c1fc"/><stop offset=".502" style="stop-color:#ab00ff"/><stop offset=".508" style="stop-color:#ac03fc"/><stop offset=".641" style="stop-color:#c840b8"/><stop offset=".76" style="stop-color:#de7082"/><stop offset=".863" style="stop-color:#ee935b"/><stop offset=".945" style="stop-color:#f7a844"/><stop offset=".996" style="stop-color:#fbb03b"/></linearGradient><path d="m354.8 428.7 30.4-30.4 66.1-66.1c27.5-27.5 16.9-55.5-2.4-74.3l-54-53.5c-4.8-4.8-23.6-24.6-38.6-9.2-8.7 8.7-6.8 22.2-1.9 27.5l62.2 61.7c11.1 11.1 5.8 21.2-5.3 31.8l-53.1 53.1-33.3-33.3c-11.6-11.6-26-15.9-38.1-3.9-12.1 12-4.8 23.6 6.8 35.2l36.7 36.7z" style="fill:url(#c)"/><linearGradient id="d" x1="131.631" x2="430.72" y1="258.858" y2="451.818" gradientUnits="userSpaceOnUse"><stop offset="0" style="stop-color:#29c1fc"/><stop offset=".502" style="stop-color:#ab00ff"/><stop offset=".508" style="stop-color:#ac03fc"/><stop offset=".641" style="stop-color:#c840b8"/><stop offset=".76" style="stop-color:#de7082"/><stop offset=".863" style="stop-color:#ee935b"/><stop offset=".945" style="stop-color:#f7a844"/><stop offset=".996" style="stop-color:#fbb03b"/></linearGradient><path d="M351.9 426.2c8.7 8.7 21.2 14 33.3 1.9 12.1-12.1 5.8-25.6-1.9-33.3" style="fill:url(#d)"/></g></svg>