<svg width="94" height="24" viewBox="0 0 94 24" fill="none" xmlns="http://www.w3.org/2000/svg">
<g clip-path="url(#clip0_155_29)">
<path d="M2.18409 6.35333C-0.72803 9.28999 -0.72803 14.0621 2.18409 16.9987C5.09621 19.9354 9.82841 19.9354 12.7405 16.9987L10.4864 14.7256C8.82037 16.4057 6.11826 16.4057 4.45219 14.7256C2.78612 13.0455 2.78612 10.3206 4.45219 8.64054L2.18409 6.35333Z" fill="white"/>
<path d="M4.453 8.62639C4.439 8.64051 4.411 8.66875 4.397 8.68287L2.12891 6.40978C2.14291 6.39566 2.17091 6.36743 2.18491 6.35331C5.09703 3.41665 9.82923 3.41665 12.7414 6.35331L10.4873 8.62639C8.82119 6.94629 6.11907 6.94629 4.453 8.62639Z" fill="url(#paint0_linear_155_29)"/>
<path d="M86.5385 7.3699C88.8906 7.3699 90.8087 9.29002 90.8087 11.676C90.8087 14.0479 88.9046 15.9822 86.5385 15.9822C84.1864 15.9822 82.2683 14.0621 82.2683 11.676H79.0762C79.0762 15.8269 82.4223 19.2012 86.5385 19.2012C90.6547 19.2012 94.0008 15.8269 94.0008 11.676C94.0008 7.52521 90.6547 4.15088 86.5385 4.15088V7.3699Z" fill="white"/>
<path d="M15.9473 4.64502V18.7635H19.1954V7.59579H22.8636L24.3476 4.64502H15.9473Z" fill="white"/>
<path d="M38.671 4.64502L33.9668 13.8926L29.0246 4.64502H25.3145L32.1888 17.4082L28.9966 23.7333H32.6508L42.3252 4.64502H38.671Z" fill="white"/>
<path d="M50.9222 4.15088C47.9541 4.15088 46.008 4.57443 43.7539 5.05446V23.7474H47.002V18.9047C48.1641 19.0741 49.4101 19.2294 50.9222 19.1871C55.3324 19.06 58.0065 16.194 58.0065 11.7043C58.0065 7.18636 55.1644 4.15088 50.9222 4.15088ZM52.4483 15.7422C50.9082 16.3916 48.5281 15.9681 47.016 15.7422V7.52521C48.5281 7.28519 50.8662 6.8334 52.4203 7.48285C53.9183 8.11818 54.7724 9.57239 54.7724 11.676C54.7864 13.7656 53.9323 15.1209 52.4483 15.7422Z" fill="white"/>
<path d="M76.2892 4.64502H73.041V18.7635H76.2892V4.64502Z" fill="white"/>
<path d="M69.2753 15.9116C68.5753 16.0245 67.9733 16.0669 67.4413 16.0669C66.1252 16.0669 65.3972 15.6574 65.3972 13.455V7.58165H69.9054V4.645H65.3972V0H62.149V4.645H58.0469L59.6149 7.59577H62.149V13.6385C62.149 17.3234 63.8291 19.1871 67.1333 19.1871C68.3373 19.1871 69.1073 19.06 70.1154 18.8059L70.7314 18.6506L69.2753 15.9116Z" fill="white"/>
<path d="M82.2683 11.676C82.2683 11.7043 82.2683 11.7325 82.2683 11.7607L79.0762 11.7325C79.0762 11.7184 79.0762 11.6901 79.0762 11.676C79.0762 7.52521 82.4223 4.15088 86.5385 4.15088V7.3699C84.1724 7.3699 82.2683 9.30414 82.2683 11.676Z" fill="url(#paint1_linear_155_29)"/>
</g>
<defs>
<linearGradient id="paint0_linear_155_29" x1="12.7118" y1="6.42037" x2="4.40873" y2="6.42037" gradientUnits="userSpaceOnUse">
<stop offset="0.0587508" stop-color="white" stop-opacity="0"/>
<stop offset="0.4516" stop-color="white" stop-opacity="0.35"/>
<stop offset="0.9658" stop-color="white"/>
</linearGradient>
<linearGradient id="paint1_linear_155_29" x1="85.6179" y1="3.58492" x2="81.0644" y2="11.4254" gradientUnits="userSpaceOnUse">
<stop offset="0.0564" stop-color="white" stop-opacity="0"/>
<stop offset="0.4497" stop-color="white" stop-opacity="0.35"/>
<stop offset="0.9656" stop-color="white"/>
</linearGradient>
<clipPath id="clip0_155_29">
<rect width="94" height="24" fill="white"/>
</clipPath>
</defs>
</svg>
