<svg xmlns="http://www.w3.org/2000/svg" width="80" height="80" fill="none"><g clip-path="url(#a)"><path fill="#FE815F" d="M68 0H12C5.373 0 0 5.373 0 12v56c0 6.627 5.373 12 12 12h56c6.627 0 12-5.373 12-12V12c0-6.627-5.373-12-12-12Z"/><path fill="#fff" fill-rule="evenodd" d="M61.484 49.804c0 8.136-6.695 14.732-14.953 14.732H18.286v-9.822H46.53c2.752 0 4.984-2.198 4.984-4.91s-2.232-4.91-4.984-4.91h-9.97v-9.822h9.97c2.752 0 4.984-2.199 4.984-4.911 0-2.712-2.232-4.91-4.984-4.91H18.286v-9.822H46.53c8.258 0 14.953 6.595 14.953 14.732 0 3.773-1.44 7.215-3.808 9.821a14.555 14.555 0 0 1 3.808 9.822Z" clip-rule="evenodd" opacity=".8"/><path fill="#000" d="M18.286 54.715h24.26c-5.154 5.963-13.358 9.821-22.599 9.821-.558 0-1.112-.014-1.661-.042v-9.78Zm29.341-9.822h-9.404v-9.821h9.404c.37 1.586.565 3.229.565 4.91 0 1.682-.194 3.324-.565 4.911ZM42.545 25.25h-24.26v-9.78a33.02 33.02 0 0 1 1.662-.041c9.24 0 17.445 3.857 22.598 9.821Z" opacity=".12"/><path fill="#fff" d="M18.286 15.429c13.764 0 24.922 10.993 24.922 24.553 0 13.561-11.158 24.554-24.922 24.554v-9.822c8.258 0 14.953-6.595 14.953-14.732 0-8.136-6.695-14.732-14.953-14.732V15.43Z"/></g><defs><clipPath id="a"><path fill="#fff" d="M0 0h80v80H0z"/></clipPath></defs></svg>