<?xml version="1.0" encoding="UTF-8" standalone="no"?>
<!-- Generator: Adobe Illustrator 26.0.3, SVG Export Plug-In . SVG Version: 6.00 Build 0)  -->

<svg
   version="1.0"
   id="Layer_1"
   x="0px"
   y="0px"
   viewBox="0 0 167 189.89999"
   xml:space="preserve"
   sodipodi:docname="debank.svg"
   width="167"
   height="189.89999"
   inkscape:version="1.3 (0e150ed6c4, 2023-07-21)"
   xmlns:inkscape="http://www.inkscape.org/namespaces/inkscape"
   xmlns:sodipodi="http://sodipodi.sourceforge.net/DTD/sodipodi-0.dtd"
   xmlns="http://www.w3.org/2000/svg"
   xmlns:svg="http://www.w3.org/2000/svg"><defs
   id="defs1" /><sodipodi:namedview
   id="namedview1"
   pagecolor="#ffffff"
   bordercolor="#000000"
   borderopacity="0.25"
   inkscape:showpageshadow="2"
   inkscape:pageopacity="0.0"
   inkscape:pagecheckerboard="0"
   inkscape:deskcolor="#d1d1d1"
   inkscape:zoom="1.8770521"
   inkscape:cx="368.66318"
   inkscape:cy="164.61983"
   inkscape:window-width="3840"
   inkscape:window-height="2321"
   inkscape:window-x="0"
   inkscape:window-y="0"
   inkscape:window-maximized="1"
   inkscape:current-layer="Layer_1" />&#10;<style
   type="text/css"
   id="style1">&#10;	.st0{fill:#2F3541;}&#10;	.st1{opacity:0.8;fill:#FE815F;enable-background:new    ;}&#10;	.st2{opacity:0.12;enable-background:new    ;}&#10;	.st3{fill:#FF6238;}&#10;</style>&#10;&#10;<g
   id="sidebar"
   transform="translate(-61,-179.1)">&#10;	<g
   id="mini-sidebar">&#10;		<g
   id="sidebar-small">&#10;			<g
   id="logo-mini">&#10;				<path
   id="Path"
   class="st1"
   d="m 228,312.1 c 0,31.4 -25.9,56.9 -57.8,56.9 H 61 v -38 h 109.2 c 10.5,0 19,-8.5 19,-19 0,-10.5 -8.5,-19 -19,-19 v 0 h -38.5 v -37.9 h 38.5 c 10.5,0 19,-8.5 19,-19 0,-10.5 -8.5,-19 -19,-19 H 61 v -38 h 109.2 c 31.9,0.1 57.8,25.6 57.8,57 0,14.1 -5.2,27.6 -14.7,38 9.5,10.4 14.7,24 14.7,38 z" />&#10;				<path
   id="Shape"
   class="st2"
   d="m 61,331 h 93.8 c -19.9,23 -51.6,38 -87.3,38 -2.2,0 -4.3,-0.1 -6.4,-0.2 C 61,368.9 61,331 61,331 Z m 113.4,-38 h -36.3 v -37.9 h 36.3 c 2.9,12.5 2.9,25.5 0,37.9 z M 154.8,217.1 H 61 v -37.8 c 2.1,-0.1 4.3,-0.2 6.4,-0.2 35.7,0.1 67.4,15 87.4,38 z" />&#10;				<path
   id="Path-2"
   class="st3"
   d="m 61,179.2 c 53.2,0 96.3,42.5 96.3,94.9 0,52.4 -43.1,94.9 -96.3,94.9 v -38 c 31.9,0 57.8,-25.5 57.8,-56.9 0,-31.4 -25.9,-56.9 -57.8,-56.9 z" />&#10;			</g>&#10;		</g>&#10;	</g>&#10;</g>&#10;</svg>
