<svg xmlns="http://www.w3.org/2000/svg" width="256" height="256"><g fill="none" fill-rule="evenodd"><circle cx="128" cy="128" r="128" fill="#FFF"/><g transform="translate(26.764 55.855)"><path fill="#217F52" d="M20.35 60.057A17.915 17.915 0 0 0 30.877 49.55a13.772 13.772 0 0 1 2.352-16.33 13.767 13.767 0 0 1 16.328-2.353 16.69 16.69 0 0 0 6.395-4.105 16.822 16.822 0 0 0 4.104-6.403A13.765 13.765 0 0 1 63.374 3.15a13.76 13.76 0 0 1 17.523 0 13.765 13.765 0 0 1 3.318 17.21c.86 2.42 2.264 4.61 4.104 6.402a16.71 16.71 0 0 0 6.402 4.105c1.231.048 9.432.513 14.76 7.409a19.375 19.375 0 0 1 3.92 11.274 17.867 17.867 0 0 0 10.534 10.507 13.76 13.76 0 0 1 17.206 3.319 13.766 13.766 0 0 1 0 17.526 13.76 13.76 0 0 1-17.206 3.318 17.915 17.915 0 0 0-10.513 10.514 13.772 13.772 0 0 1-2.353 16.33 13.767 13.767 0 0 1-16.327 2.353 17.867 17.867 0 0 0-10.513 10.515 13.765 13.765 0 0 1-3.318 17.209 13.76 13.76 0 0 1-17.524 0 13.765 13.765 0 0 1-3.317-17.21 17.915 17.915 0 0 0-10.513-10.514 13.76 13.76 0 0 1-16.333-2.342 13.766 13.766 0 0 1-2.347-16.334A17.963 17.963 0 0 0 20.35 84.227a13.76 13.76 0 0 1-17.202-3.324 13.766 13.766 0 0 1 0-17.522 13.76 13.76 0 0 1 17.202-3.324Zm5.472 5.473a13.78 13.78 0 0 1 0 13.196 17.963 17.963 0 0 0 10.533 10.536 13.76 13.76 0 0 1 16.34 2.34 13.766 13.766 0 0 1 2.34 16.342A17.915 17.915 0 0 0 65.55 118.46a13.774 13.774 0 0 1 13.194 0 17.915 17.915 0 0 0 10.513-10.515 13.772 13.772 0 0 1 2.353-16.33 13.767 13.767 0 0 1 16.327-2.352 17.915 17.915 0 0 0 10.513-10.515 13.814 13.814 0 0 1 0-13.196 17.867 17.867 0 0 0-10.513-10.515 22.283 22.283 0 0 1-10.602-4.556 23 23 0 0 1-8.078-14.092 17.867 17.867 0 0 0-10.513-10.536 13.808 13.808 0 0 1-13.194 0 17.867 17.867 0 0 0-10.514 10.515 13.772 13.772 0 0 1-2.366 16.314 13.767 13.767 0 0 1-16.314 2.355A17.915 17.915 0 0 0 25.822 65.53Z"/><path fill="#2DB269" d="M94.547 55.022a17.87 17.87 0 0 0-10.516 10.515 13.81 13.81 0 0 1 0 13.196 16.712 16.712 0 0 0 4.106 6.404 16.086 16.086 0 0 0 7.28 4.364c2.374.575.684 3.906-.767 5.343-1.45 1.436-4.79 3.14-5.343.766a16.083 16.083 0 0 0-4.366-7.279 16.715 16.715 0 0 0-6.404-4.104 13.767 13.767 0 0 1-17.206-3.324 13.763 13.763 0 0 1 0-17.522 13.767 13.767 0 0 1 17.206-3.324 17.87 17.87 0 0 0 10.516-10.514 13.763 13.763 0 0 1 2.349-16.334 13.767 13.767 0 0 1 16.337-2.342 16.872 16.872 0 0 0 6.404-4.105 16.746 16.746 0 0 0 4.105-6.403 13.763 13.763 0 0 1 3.318-17.209c5.088-4.2 12.441-4.2 17.529 0a13.763 13.763 0 0 1 3.319 17.21 16.685 16.685 0 0 0 4.105 6.402 16.797 16.797 0 0 0 6.397 4.105 13.767 13.767 0 0 1 16.337 2.342 13.763 13.763 0 0 1 2.348 16.334 17.87 17.87 0 0 0 10.516 10.514 13.767 13.767 0 0 1 17.207 3.324 13.763 13.763 0 0 1 0 17.522 13.767 13.767 0 0 1-17.207 3.324 17.87 17.87 0 0 0-10.516 10.514 13.763 13.763 0 0 1-2.348 16.334 13.767 13.767 0 0 1-16.337 2.342 17.966 17.966 0 0 0-10.516 10.515 13.763 13.763 0 0 1-3.319 17.209 13.767 13.767 0 0 1-17.528 0 13.763 13.763 0 0 1-3.319-17.21 16.774 16.774 0 0 0-4.105-6.396 16.12 16.12 0 0 0-7.28-4.364c-2.374-.582-.684-3.906.767-5.343 1.45-1.437 4.789-3.14 5.343-.773a16.096 16.096 0 0 0 4.365 7.286 16.75 16.75 0 0 0 6.404 4.104 13.781 13.781 0 0 1 13.198 0 17.918 17.918 0 0 0 10.516-10.514 13.77 13.77 0 0 1 2.354-16.33 13.774 13.774 0 0 1 16.332-2.353 17.918 17.918 0 0 0 10.516-10.515 13.776 13.776 0 0 1 0-13.196 17.918 17.918 0 0 0-10.516-10.515 13.774 13.774 0 0 1-16.332-2.353 13.77 13.77 0 0 1-2.354-16.33 17.918 17.918 0 0 0-10.516-10.514 13.781 13.781 0 0 1-13.198 0 16.75 16.75 0 0 0-6.404 4.105 16.87 16.87 0 0 0-4.105 6.403 13.763 13.763 0 0 1-2.342 16.335 13.767 13.767 0 0 1-16.336 2.348l.006.006Z"/><circle cx="102.4" cy="101.042" r="13.964" fill="#217F52" fill-rule="nonzero"/></g></g></svg>