<?xml version="1.0" encoding="UTF-8" standalone="no"?>
<!-- Generator: Adobe Illustrator 26.0.3, SVG Export Plug-In . SVG Version: 6.00 Build 0)  -->

<svg
   version="1.0"
   id="katman_1"
   x="0px"
   y="0px"
   viewBox="0 0 92.656403 165.84198"
   xml:space="preserve"
   sodipodi:docname="layerzero-network-seeklogo.com.svg"
   width="92.656403"
   height="165.84198"
   inkscape:version="1.3 (0e150ed6c4, 2023-07-21)"
   xmlns:inkscape="http://www.inkscape.org/namespaces/inkscape"
   xmlns:sodipodi="http://sodipodi.sourceforge.net/DTD/sodipodi-0.dtd"
   xmlns="http://www.w3.org/2000/svg"
   xmlns:svg="http://www.w3.org/2000/svg"><defs
   id="defs2" /><sodipodi:namedview
   id="namedview2"
   pagecolor="#ffffff"
   bordercolor="#000000"
   borderopacity="0.25"
   inkscape:showpageshadow="2"
   inkscape:pageopacity="0.0"
   inkscape:pagecheckerboard="0"
   inkscape:deskcolor="#d1d1d1"
   inkscape:zoom="11.333333"
   inkscape:cx="32.558825"
   inkscape:cy="88.500005"
   inkscape:window-width="3840"
   inkscape:window-height="2321"
   inkscape:window-x="0"
   inkscape:window-y="0"
   inkscape:window-maximized="1"
   inkscape:current-layer="katman_1" />&#10;<style
   type="text/css"
   id="style1">&#10;	.st0{fill:#1D1D1B;}&#10;</style>&#10;<path
   class="st0"
   d="m 46.3564,0 c -6.1,0 -12.1,1.3 -17.8,3.6 -5.6,2.4 -10.7,5.8 -15,10.2 -4.3,4.4 -7.7,9.5 -10,15.2 -2.3,5.7 -3.5,11.8 -3.4,17.9 v 15.5 h 37.5 V 39.9 c 0,-1.1 0.2,-2.1 0.6,-3.1 0.4,-1 1,-1.9 1.7,-2.6 0.7,-0.7 1.6,-1.3 2.6,-1.7 1,-0.4 2,-0.6 3.1,-0.6 h 1.4 c 1,0 2.1,0.2 3.1,0.6 1,0.4 1.9,1 2.6,1.7 0.7,0.7 1.3,1.6 1.7,2.6 0.4,1 0.6,2 0.6,3.1 v 60.2 c 4.9,0 9.8,-1 14.4,-2.9 4.6,-1.9 8.7,-4.7 12.2,-8.2 3.5,-3.5 6.3,-7.7 8.1,-12.2 1.9,-4.6 2.9,-9.5 2.9,-14.4 V 46.9 c 0,-12.4 -4.8,-24.4 -13.5,-33.2 -4.3,-4.4 -9.4,-7.8 -15,-10.2 -5.7,-2.3 -11.7,-3.5 -17.8,-3.5 z"
   id="path1" /><path
   class="st0"
   d="m 46.3,165.84198 c 6.1,0 12.1,-1.3 17.8,-3.6 5.6,-2.4 10.7,-5.8 15,-10.2 4.3,-4.4 7.7,-9.5 10,-15.2 2.3,-5.7 3.5,-11.8 3.4,-17.9 v -15.5 H 55 v 22.5 c 0,1.1 -0.2,2.1 -0.6,3.1 -0.4,1 -1,1.9 -1.7,2.6 -0.7,0.7 -1.6,1.3 -2.6,1.7 -1,0.4 -2,0.6 -3.1,0.6 h -1.4 c -1,0 -2.1,-0.2 -3.1,-0.6 -1,-0.4 -1.9,-1 -2.6,-1.7 -0.7,-0.7 -1.3,-1.6 -1.7,-2.6 -0.4,-1 -0.6,-2 -0.6,-3.1 v -60.2 c -4.9,0 -9.8,1 -14.4,2.9 -4.6,1.9 -8.7,4.7 -12.2,8.2 -3.5,3.5 -6.3,7.7 -8.1,12.2 -1.9,4.6 -2.9,9.5 -2.9,14.4 v 15.5 c 0,12.4 4.8,24.4 13.5,33.2 4.3,4.4 9.4,7.8 15,10.2 5.7,2.3 11.7,3.5 17.8,3.5 z"
   id="path1-3"
   style="fill:#1d1d1b" />&#10;&#10;</svg>
