<svg xmlns="http://www.w3.org/2000/svg" xml:space="preserve" id="katman_1" width="92.656" height="165.842" x="0" y="0" version="1.0"><style id="style1" type="text/css">.st0{fill:#1d1d1b}</style><path id="path1" d="M46.356 0c-6.1 0-12.1 1.3-17.8 3.6-5.6 2.4-10.7 5.8-15 10.2-4.3 4.4-7.7 9.5-10 15.2-2.3 5.7-3.5 11.8-3.4 17.9v15.5h37.5V39.9c0-1.1.2-2.1.6-3.1.4-1 1-1.9 1.7-2.6.7-.7 1.6-1.3 2.6-1.7 1-.4 2-.6 3.1-.6h1.4c1 0 2.1.2 3.1.6 1 .4 1.9 1 2.6 1.7.7.7 1.3 1.6 1.7 2.6.4 1 .6 2 .6 3.1v60.2c4.9 0 9.8-1 14.4-2.9s8.7-4.7 12.2-8.2c3.5-3.5 6.3-7.7 8.1-12.2 1.9-4.6 2.9-9.5 2.9-14.4V46.9c0-12.4-4.8-24.4-13.5-33.2-4.3-4.4-9.4-7.8-15-10.2-5.7-2.3-11.7-3.5-17.8-3.5z" class="st0"/><path id="path1-3" d="M46.3 165.842c6.1 0 12.1-1.3 17.8-3.6 5.6-2.4 10.7-5.8 15-10.2 4.3-4.4 7.7-9.5 10-15.2 2.3-5.7 3.5-11.8 3.4-17.9v-15.5H55v22.5c0 1.1-.2 2.1-.6 3.1-.4 1-1 1.9-1.7 2.6-.7.7-1.6 1.3-2.6 1.7-1 .4-2 .6-3.1.6h-1.4c-1 0-2.1-.2-3.1-.6-1-.4-1.9-1-2.6-1.7-.7-.7-1.3-1.6-1.7-2.6-.4-1-.6-2-.6-3.1v-60.2c-4.9 0-9.8 1-14.4 2.9s-8.7 4.7-12.2 8.2c-3.5 3.5-6.3 7.7-8.1 12.2-1.9 4.6-2.9 9.5-2.9 14.4v15.5c0 12.4 4.8 24.4 13.5 33.2 4.3 4.4 9.4 7.8 15 10.2 5.7 2.3 11.7 3.5 17.8 3.5z" class="st0" style="fill:#1d1d1b"/></svg>