<svg id="Layer_1" data-name="Layer 1" xmlns="http://www.w3.org/2000/svg" viewBox="0 0 406 406"><defs><style>.cls-1{fill:#09b781;}</style></defs><path class="cls-1" d="M391.78,288.36a40.12,40.12,0,1,0-55.71-57.74,40.12,40.12,0,0,0,55.71,57.74Z"/><path class="cls-1" d="M118.15,392a40.11,40.11,0,1,0,57.73-55.71A40.11,40.11,0,0,0,118.15,392Z"/><path class="cls-1" d="M15,116.3A40.12,40.12,0,1,0,70.75,174,40.12,40.12,0,0,0,15,116.3Z"/><path class="cls-1" d="M290.32,14.33A40.12,40.12,0,1,0,232.58,70a40.12,40.12,0,0,0,57.74-55.71Z"/><path class="cls-1" d="M376.28,138.16a38.21,38.21,0,0,0,11.05-29l0-.3c-1.81-33-41.8-48.28-65.16-24.93l-37.8,38.48c-12.1,12.1-40.07,14-54.44-.42l-90.43-91.5A38.16,38.16,0,0,0,112,18.86C78,18.87,61,60,85,84.08l38.12,36.8c13.86,15.09,12.35,41.67,0,54l-91.6,91.77a38.18,38.18,0,0,0-11.18,26.56v.86c-.41,34.25,41,51.69,65.22,27.46l38.06-38.23c13.24-13.25,40.79-13.39,54.67.48l90,90.57a38.17,38.17,0,0,0,28.14,11.18h.12c33.49-1,49.58-41.52,25.89-65.2L286.14,283.6c-13.49-13.49-14.51-39.53-.1-53.94ZM233.55,232.7A42.18,42.18,0,0,1,175,172a42.18,42.18,0,1,1,58.57,60.7Z"/></svg>