<?xml version="1.0" encoding="UTF-8" standalone="no"?>
<!-- Generator: Adobe Illustrator 25.4.1, SVG Export Plug-In . SVG Version: 6.00 Build 0)  -->

<svg
   version="1.0"
   id="katman_1"
   x="0px"
   y="0px"
   viewBox="0 0 574 574"
   xml:space="preserve"
   sodipodi:docname="qidao.svg"
   width="574"
   height="574"
   inkscape:version="1.3 (0e150ed6c4, 2023-07-21)"
   xmlns:inkscape="http://www.inkscape.org/namespaces/inkscape"
   xmlns:sodipodi="http://sodipodi.sourceforge.net/DTD/sodipodi-0.dtd"
   xmlns="http://www.w3.org/2000/svg"
   xmlns:svg="http://www.w3.org/2000/svg"><defs
   id="defs5" /><sodipodi:namedview
   id="namedview5"
   pagecolor="#ffffff"
   bordercolor="#000000"
   borderopacity="0.25"
   inkscape:showpageshadow="2"
   inkscape:pageopacity="0.0"
   inkscape:pagecheckerboard="0"
   inkscape:deskcolor="#d1d1d1"
   inkscape:zoom="0.8575"
   inkscape:cx="-205.24781"
   inkscape:cy="270.55394"
   inkscape:window-width="3840"
   inkscape:window-height="2321"
   inkscape:window-x="0"
   inkscape:window-y="0"
   inkscape:window-maximized="1"
   inkscape:current-layer="katman_1" />&#10;<style
   type="text/css"
   id="style1">&#10;	.st0{fill:#F87171;}&#10;	.st1{fill:#0A0A1E;}&#10;	.st2{fill:#1D1D1B;}&#10;</style>&#10;<path
   class="st0"
   d="M 287,574 C 445.5,574 574,445.5 574,287 574,128.5 445.5,0 287,0 128.5,0 0,128.5 0,287 0,445.5 128.5,574 287,574 Z"
   id="path1" />&#10;<path
   class="st1"
   d="m 287,208.6 c -7.4,-6.6 -22.1,-15.7 -47.6,-15.6 -25.5,0.1 -21.3,13 -21.3,13 0,0 -0.5,10.5 16.1,10.8 16.6,0.3 34.5,1 49,6.3 14.5,5.3 11.3,-7.9 3.8,-14.5 z"
   id="path2" />&#10;<path
   class="st1"
   d="m 226.8,232.5 c -1.5,0.9 -1.9,3.4 -0.1,3.8 10.1,1.8 26,5.1 43.8,2.3 1.7,-0.3 1.4,-2.5 0.2,-3.7 -6.4,-6.1 -23.3,-14.5 -43.9,-2.4 z"
   id="path3" />&#10;<path
   class="st1"
   d="m 436.3,401.3 c -0.2,-0.3 -0.6,-0.6 -0.9,-0.7 -0.4,-0.2 -0.8,-0.2 -1.2,-0.1 -0.4,0.1 -0.8,0.2 -1.1,0.5 -0.3,0.3 -0.5,0.6 -0.7,1 -10.4,30.1 -18.8,22.8 -22.8,16.3 -1.4,-2.3 -2.4,-4.8 -3,-7.3 -9.9,-38.5 -0.8,-74 -0.8,-74 5.4,16.4 19.5,21.3 26.7,22.7 0.4,0.1 0.8,0 1.2,-0.1 0.4,-0.1 0.7,-0.4 1,-0.7 0.2,-0.3 0.4,-0.7 0.4,-1.1 0,-0.4 -0.1,-0.8 -0.3,-1.2 -27.7,-53.1 -11.3,-75.7 -11.3,-75.7 4.8,5.2 12.6,5.7 17.6,5.4 0.4,0 0.8,-0.2 1.2,-0.4 0.3,-0.2 0.6,-0.6 0.8,-0.9 0.2,-0.4 0.2,-0.8 0.1,-1.2 -0.1,-0.4 -0.3,-0.8 -0.5,-1.1 -20.1,-21.7 -21.6,-29.1 -22.4,-65.8 -0.4,-20.4 -7.7,-31.1 -14.5,-36.6 -7.8,-6.4 -14,-14.5 -17.4,-23.9 C 361.3,81.9 310.6,72 263.6,74.8 c -58.4,3.5 -89.5,47.2 -104.2,69 -15.6,23 -27.8,57.1 -27,67.5 0.8,10.4 10.7,8.8 10.7,20.8 0,12.1 -19,22.1 -11.5,56 3.3,14.9 16.7,26.1 10.7,60.2 -10.8,61.3 37.2,135.8 49.2,146.9 1.4,1.3 4,0.3 3.7,-1.7 -1.9,-13.7 0.9,-32.7 0.9,-32.7 24,50.4 91.3,41.1 112.4,36.8 0.4,-0.1 0.9,-0.3 1.2,-0.6 0.3,-0.3 0.5,-0.7 0.6,-1.2 0.1,-0.4 0,-0.9 -0.2,-1.3 -0.2,-0.4 -0.5,-0.7 -0.9,-0.9 -21.3,-11.1 -26.1,-33.5 -26.1,-33.5 21.2,9.8 34.7,8.2 41.3,6.1 0.4,-0.1 0.7,-0.4 1,-0.7 0.3,-0.3 0.4,-0.7 0.5,-1.1 0.1,-0.4 0,-0.8 -0.2,-1.2 -0.2,-0.4 -0.5,-0.7 -0.8,-0.9 -6.4,-3.9 -16.1,-20.1 -23.5,-35.9 -3,-6.5 -4.1,-13.8 -3.1,-20.9 1,-7.1 4,-13.8 8.7,-19.3 8.6,-10 19.9,-24.1 32.7,-39 2.7,-3.1 6.4,-0.1 7.8,3.3 18.7,45.9 43.1,80.6 59.9,90.1 12.2,7.4 25.5,8.7 31.5,4.1 16.5,-13 3.4,-35 -2.6,-43.4 z m -203,-42.7 c -20.1,1.2 -15.5,-24.4 -30.3,-23.8 -15.8,0.7 -11.1,20.2 -21.7,21.4 -10.6,1.2 -9.4,-28.6 -1.9,-32.1 11.7,-5.4 25.5,-6.7 36.5,-6.4 13,0.4 25.5,-0.1 31.3,12.2 6.9,14.5 6.2,27.5 -13.9,28.7 z M 360.5,175.8 c -26.7,15.5 -28.3,23.2 -32.1,50.6 -0.8,6 -1.7,13 1.1,17 6.3,9 18.4,15.6 15.1,30.8 -7.9,36.1 -28.7,78.3 -56.6,91.6 -3.4,1.6 -7.2,-1.6 -8,-5.2 -3.1,-14.3 -10.5,-40.3 -12.5,-48.8 -9.9,-48.6 -57.3,-49.3 -58.6,-40 -0.4,2.8 9.6,6.4 15.9,8.4 5.8,1.9 6,10 0.2,11.9 -1.5,0.5 -3.1,0.7 -4.7,0.7 -11.7,-0.8 -26.6,0.1 -33.3,0.6 -2.2,0.2 -4.5,-0.5 -6.2,-1.8 -1.8,-1.4 -3,-3.3 -3.3,-5.5 -2.6,-14.9 2,-20.2 7.6,-34.3 2.8,-7 6.4,-21.2 7.6,-28.5 0.6,-3.9 0.4,-8.6 -0.1,-12.1 -0.5,-4.1 -0.7,-8.3 -0.6,-12.5 0.4,-13.5 1.8,-24.5 12.3,-24.5 18.9,0 58.9,0.1 65.2,-9 6.6,-9.5 -30.4,-0.3 -70.2,-1.5 -0.8,0 -1.5,-0.3 -2.1,-0.8 -0.6,-0.5 -0.9,-1.2 -1,-2 0,-0.2 0,-0.5 -0.1,-0.7 -0.1,-0.7 0,-1.4 0.2,-2 0.2,-0.6 0.6,-1.2 1,-1.7 0.5,-0.5 1,-0.9 1.7,-1.2 0.6,-0.3 1.3,-0.4 2,-0.4 21.3,-0.3 37.5,-1.7 41.7,-7.8 4.3,-6.2 -17.2,-3.4 -41.5,-3.2 -3.1,0 -5.7,0 -5.5,-3.1 v -0.3 c 0.1,-1.2 0.6,-2.4 1.5,-3.2 0.9,-0.9 2,-1.4 3.3,-1.4 14.3,-0.9 20.4,-2 21,-6.5 0.6,-4.5 -1.5,-4 -17.3,-3.1 -3.4,0.2 -2.5,-2.4 -0.5,-5.2 4.9,-7.1 27.1,-27.7 76,-26.2 83.8,2.6 81.2,60.7 83.8,74.8 0.2,1.2 0,2.4 -0.5,3.5 -0.6,1.1 -1.5,2 -2.5,2.6 z"
   id="path4" />&#10;&#10;</svg>
