<svg xmlns="http://www.w3.org/2000/svg" xml:space="preserve" id="katman_1" width="574" height="574" x="0" y="0" version="1.0"><style id="style1" type="text/css">.st1{fill:#0a0a1e}</style><path id="path1" d="M287 574c158.5 0 287-128.5 287-287S445.5 0 287 0 0 128.5 0 287s128.5 287 287 287Z" style="fill:#f87171"/><path id="path2" d="M287 208.6c-7.4-6.6-22.1-15.7-47.6-15.6-25.5.1-21.3 13-21.3 13s-.5 10.5 16.1 10.8c16.6.3 34.5 1 49 6.3s11.3-7.9 3.8-14.5z" class="st1"/><path id="path3" d="M226.8 232.5c-1.5.9-1.9 3.4-.1 3.8 10.1 1.8 26 5.1 43.8 2.3 1.7-.3 1.4-2.5.2-3.7-6.4-6.1-23.3-14.5-43.9-2.4z" class="st1"/><path id="path4" d="M436.3 401.3c-.2-.3-.6-.6-.9-.7-.4-.2-.8-.2-1.2-.1-.4.1-.8.2-1.1.5-.3.3-.5.6-.7 1-10.4 30.1-18.8 22.8-22.8 16.3-1.4-2.3-2.4-4.8-3-7.3-9.9-38.5-.8-74-.8-74 5.4 16.4 19.5 21.3 26.7 22.7.4.1.8 0 1.2-.1.4-.1.7-.4 1-.7.2-.3.4-.7.4-1.1 0-.4-.1-.8-.3-1.2-27.7-53.1-11.3-75.7-11.3-75.7 4.8 5.2 12.6 5.7 17.6 5.4.4 0 .8-.2 1.2-.4.3-.2.6-.6.8-.9.2-.4.2-.8.1-1.2-.1-.4-.3-.8-.5-1.1-20.1-21.7-21.6-29.1-22.4-65.8-.4-20.4-7.7-31.1-14.5-36.6-7.8-6.4-14-14.5-17.4-23.9-27.1-74.5-77.8-84.4-124.8-81.6-58.4 3.5-89.5 47.2-104.2 69-15.6 23-27.8 57.1-27 67.5.8 10.4 10.7 8.8 10.7 20.8 0 12.1-19 22.1-11.5 56 3.3 14.9 16.7 26.1 10.7 60.2-10.8 61.3 37.2 135.8 49.2 146.9 1.4 1.3 4 .3 3.7-1.7-1.9-13.7.9-32.7.9-32.7 24 50.4 91.3 41.1 112.4 36.8.4-.1.9-.3 1.2-.6.3-.3.5-.7.6-1.2.1-.4 0-.9-.2-1.3s-.5-.7-.9-.9c-21.3-11.1-26.1-33.5-26.1-33.5 21.2 9.8 34.7 8.2 41.3 6.1.4-.1.7-.4 1-.7.3-.3.4-.7.5-1.1.1-.4 0-.8-.2-1.2-.2-.4-.5-.7-.8-.9-6.4-3.9-16.1-20.1-23.5-35.9-3-6.5-4.1-13.8-3.1-20.9 1-7.1 4-13.8 8.7-19.3 8.6-10 19.9-24.1 32.7-39 2.7-3.1 6.4-.1 7.8 3.3 18.7 45.9 43.1 80.6 59.9 90.1 12.2 7.4 25.5 8.7 31.5 4.1 16.5-13 3.4-35-2.6-43.4zm-203-42.7c-20.1 1.2-15.5-24.4-30.3-23.8-15.8.7-11.1 20.2-21.7 21.4-10.6 1.2-9.4-28.6-1.9-32.1 11.7-5.4 25.5-6.7 36.5-6.4 13 .4 25.5-.1 31.3 12.2 6.9 14.5 6.2 27.5-13.9 28.7zm127.2-182.8c-26.7 15.5-28.3 23.2-32.1 50.6-.8 6-1.7 13 1.1 17 6.3 9 18.4 15.6 15.1 30.8-7.9 36.1-28.7 78.3-56.6 91.6-3.4 1.6-7.2-1.6-8-5.2-3.1-14.3-10.5-40.3-12.5-48.8-9.9-48.6-57.3-49.3-58.6-40-.4 2.8 9.6 6.4 15.9 8.4 5.8 1.9 6 10 .2 11.9-1.5.5-3.1.7-4.7.7-11.7-.8-26.6.1-33.3.6-2.2.2-4.5-.5-6.2-1.8-1.8-1.4-3-3.3-3.3-5.5-2.6-14.9 2-20.2 7.6-34.3 2.8-7 6.4-21.2 7.6-28.5.6-3.9.4-8.6-.1-12.1-.5-4.1-.7-8.3-.6-12.5.4-13.5 1.8-24.5 12.3-24.5 18.9 0 58.9.1 65.2-9 6.6-9.5-30.4-.3-70.2-1.5-.8 0-1.5-.3-2.1-.8-.6-.5-.9-1.2-1-2 0-.2 0-.5-.1-.7-.1-.7 0-1.4.2-2 .2-.6.6-1.2 1-1.7.5-.5 1-.9 1.7-1.2.6-.3 1.3-.4 2-.4 21.3-.3 37.5-1.7 41.7-7.8 4.3-6.2-17.2-3.4-41.5-3.2-3.1 0-5.7 0-5.5-3.1v-.3c.1-1.2.6-2.4 1.5-3.2.9-.9 2-1.4 3.3-1.4 14.3-.9 20.4-2 21-6.5.6-4.5-1.5-4-17.3-3.1-3.4.2-2.5-2.4-.5-5.2 4.9-7.1 27.1-27.7 76-26.2 83.8 2.6 81.2 60.7 83.8 74.8.2 1.2 0 2.4-.5 3.5-.6 1.1-1.5 2-2.5 2.6z" class="st1"/></svg>