<svg xmlns="http://www.w3.org/2000/svg" xml:space="preserve" id="katman_1" width="94.679" height="81.957" x="0" y="0" version="1.0"><style id="style1" type="text/css">.st1,.st2{fill-rule:evenodd;clip-rule:evenodd;fill:url(#SVGID_00000161597173617360504640000012432366591255278478_)}.st2{fill:url(#SVGID_00000021803777515098205300000017382971856690286485_)}.st3{fill:url(#SVGID_00000031192219548086493050000012287181694732331425_)}</style><linearGradient id="SVGID_1_" x1="82.683" x2="148.229" y1="79.844" y2="61.256" gradientTransform="matrix(1 0 0 -1 -54.7 118.993)" gradientUnits="userSpaceOnUse"><stop id="stop1" offset="0" style="stop-color:#8797ff"/><stop id="stop2" offset="1" style="stop-color:#aaa8ff"/></linearGradient><path id="path2" d="M94.2 46.893c3.7-8.3-14.7-31.6-32.3-41.2-11.1-7.5-22.6-6.5-25-3.2-5.1 7.2 17 13.4 31.8 20.5-3.2 1.4-6.2 3.9-7.9 7-5.5-6-17.6-11.2-31.8-7-9.6 2.8-17.5 9.5-20.6 19.5-.7-.3-1.6-.5-2.4-.5-3.3 0-6 2.7-6 6s2.7 6 6 6c.6 0 2.5-.4 2.5-.4l30.8.2c-12.3 19.6-22.1 22.4-22.1 25.8 0 3.4 9.3 2.5 12.8 1.2 16.8-6 34.8-24.9 37.9-30.3 13 1.7 23.9 1.8 26.3-3.6z" style="fill:url(#SVGID_1_)"/><linearGradient id="SVGID_00000044169200580553624300000013345904656810082952_" x1="134.758" x2="87.464" y1="78.377" y2="125.787" gradientTransform="matrix(1 0 0 -1 -54.7 118.993)" gradientUnits="userSpaceOnUse"><stop id="stop3" offset="0" style="stop-color:#3b22a0"/><stop id="stop4" offset="1" style="stop-color:#5156d8;stop-opacity:0"/></linearGradient><path id="path4" d="M68.8 22.993c.7-.3.6-1.3.4-2.1-.4-1.8-7.9-9.2-14.9-12.5-9.6-4.5-16.6-4.3-17.6-2.2 1.9 4 11 7.7 20.4 11.7 3.9 1.6 8 3.3 11.7 5.1z" style="clip-rule:evenodd;fill:url(#SVGID_00000044169200580553624300000013345904656810082952_);fill-rule:evenodd"/><linearGradient id="SVGID_00000011711276424470013000000013596413199536411566_" x1="112.605" x2="67.173" y1="54.086" y2="80.206" gradientTransform="matrix(1 0 0 -1 -54.7 118.993)" gradientUnits="userSpaceOnUse"><stop id="stop5" offset="0" style="stop-color:#3b1e8f"/><stop id="stop6" offset="1" style="stop-color:#6a6ffb;stop-opacity:0"/></linearGradient><path id="path6" d="M56.6 63.193c-1.9-.7-4.1-1.4-6.6-2 2.6-4.7 3.2-11.8.7-16.2-3.5-6.2-7.9-9.5-18.2-9.5-5.6 0-20.8 1.9-21.1 14.6 0 1.3 0 2.5.1 3.7h27.8c-3.7 5.9-7.2 10.3-10.3 13.6 3.7.9 6.7 1.7 9.5 2.5 2.6.7 5.1 1.3 7.6 2 3.8-2.8 7.4-5.8 10.5-8.7z" style="clip-rule:evenodd;fill:url(#SVGID_00000011711276424470013000000013596413199536411566_);fill-rule:evenodd"/><linearGradient id="SVGID_00000132774675072191537280000013935395272828303517_" x1="79.516" x2="110.225" y1="74.453" y2="35.435" gradientTransform="matrix(1 0 0 -1 -54.7 118.993)" gradientUnits="userSpaceOnUse"><stop id="stop7" offset="0" style="stop-color:#8898ff"/><stop id="stop8" offset=".984" style="stop-color:#5f47f1"/></linearGradient><path id="path8" d="M8 52.293c1.1 9.6 6.6 13.4 17.8 14.5 11.2 1.1 17.6.4 26.1 1.1 7.1.6 13.5 4.3 15.8 3 2.1-1.1.9-5.2-1.9-7.8-3.7-3.4-8.8-5.7-17.7-6.6 1.8-4.9 1.3-11.8-1.5-15.5-4-5.4-11.4-7.8-20.8-6.8-9.8 1.2-19.2 6.1-17.8 18.1z" style="fill:url(#SVGID_00000132774675072191537280000013935395272828303517_)"/></svg>