<?xml version="1.0" encoding="UTF-8" standalone="no"?>
<!-- Generator: Adobe Illustrator 26.0.3, SVG Export Plug-In . SVG Version: 6.00 Build 0)  -->

<svg
   version="1.0"
   id="katman_1"
   x="0px"
   y="0px"
   viewBox="0 0 94.678986 81.957184"
   xml:space="preserve"
   sodipodi:docname="rabby.svg"
   width="94.678986"
   height="81.957184"
   inkscape:version="1.3 (0e150ed6c4, 2023-07-21)"
   xmlns:inkscape="http://www.inkscape.org/namespaces/inkscape"
   xmlns:sodipodi="http://sodipodi.sourceforge.net/DTD/sodipodi-0.dtd"
   xmlns="http://www.w3.org/2000/svg"
   xmlns:svg="http://www.w3.org/2000/svg"><defs
   id="defs8" /><sodipodi:namedview
   id="namedview8"
   pagecolor="#ffffff"
   bordercolor="#000000"
   borderopacity="0.25"
   inkscape:showpageshadow="2"
   inkscape:pageopacity="0.0"
   inkscape:pagecheckerboard="0"
   inkscape:deskcolor="#d1d1d1"
   inkscape:zoom="3.3848684"
   inkscape:cx="-25.998056"
   inkscape:cy="-46.973761"
   inkscape:window-width="3840"
   inkscape:window-height="2321"
   inkscape:window-x="0"
   inkscape:window-y="0"
   inkscape:window-maximized="1"
   inkscape:current-layer="katman_1" />&#10;<style
   type="text/css"
   id="style1">&#10;	.st0{fill:url(#SVGID_1_);}&#10;	.st1{fill-rule:evenodd;clip-rule:evenodd;fill:url(#SVGID_00000161597173617360504640000012432366591255278478_);}&#10;	.st2{fill-rule:evenodd;clip-rule:evenodd;fill:url(#SVGID_00000021803777515098205300000017382971856690286485_);}&#10;	.st3{fill:url(#SVGID_00000031192219548086493050000012287181694732331425_);}&#10;</style>&#10;<linearGradient
   id="SVGID_1_"
   gradientUnits="userSpaceOnUse"
   x1="82.682701"
   y1="79.844101"
   x2="148.229"
   y2="61.256401"
   gradientTransform="matrix(1,0,0,-1,-54.7,118.99287)">&#10;	<stop
   offset="0"
   style="stop-color:#8797FF"
   id="stop1" />&#10;	<stop
   offset="1"
   style="stop-color:#AAA8FF"
   id="stop2" />&#10;</linearGradient>&#10;<path
   class="st0"
   d="m 94.2,46.892871 c 3.7,-8.3 -14.7,-31.6 -32.3,-41.2000001 -11.1,-7.5 -22.6,-6.49999999 -25,-3.2 -5.1,7.2 17,13.4000001 31.8,20.5000001 -3.2,1.4 -6.2,3.9 -7.9,7 -5.5,-6 -17.6,-11.2 -31.8,-7 -9.6,2.8 -17.5,9.5 -20.6,19.5 -0.7,-0.3 -1.6,-0.5 -2.4,-0.5 -3.3,0 -6,2.7 -6,6 0,3.3 2.7,6 6,6 0.6,0 2.5,-0.4 2.5,-0.4 l 30.8,0.2 c -12.3,19.6 -22.1,22.4 -22.1,25.8 0,3.4 9.3,2.5 12.8,1.2 16.8,-6 34.8,-24.9 37.9,-30.3 13,1.7 23.9,1.8 26.3,-3.6 z"
   id="path2"
   style="fill:url(#SVGID_1_)" />&#10;<linearGradient
   id="SVGID_00000044169200580553624300000013345904656810082952_"
   gradientUnits="userSpaceOnUse"
   x1="134.7581"
   y1="78.376503"
   x2="87.463501"
   y2="125.7869"
   gradientTransform="matrix(1,0,0,-1,-54.7,118.99287)">&#10;	<stop
   offset="0"
   style="stop-color:#3B22A0"
   id="stop3" />&#10;	<stop
   offset="1"
   style="stop-color:#5156D8;stop-opacity:0"
   id="stop4" />&#10;</linearGradient>&#10;<path
   style="clip-rule:evenodd;fill:url(#SVGID_00000044169200580553624300000013345904656810082952_);fill-rule:evenodd"
   d="m 68.8,22.992871 c 0,0 0,0 0,0 0.7,-0.3 0.6,-1.3 0.4,-2.1 -0.4,-1.8 -7.9,-9.2 -14.9,-12.5000001 -9.6,-4.5 -16.6,-4.3 -17.6,-2.2 1.9,4.0000001 11,7.7000001 20.4,11.7000001 3.9,1.6 8,3.3 11.7,5.1 z"
   id="path4" />&#10;<linearGradient
   id="SVGID_00000011711276424470013000000013596413199536411566_"
   gradientUnits="userSpaceOnUse"
   x1="112.605"
   y1="54.086498"
   x2="67.173302"
   y2="80.206497"
   gradientTransform="matrix(1,0,0,-1,-54.7,118.99287)">&#10;	<stop
   offset="0"
   style="stop-color:#3B1E8F"
   id="stop5" />&#10;	<stop
   offset="1"
   style="stop-color:#6A6FFB;stop-opacity:0"
   id="stop6" />&#10;</linearGradient>&#10;<path
   style="clip-rule:evenodd;fill:url(#SVGID_00000011711276424470013000000013596413199536411566_);fill-rule:evenodd"
   d="m 56.6,63.192871 c -1.9,-0.7 -4.1,-1.4 -6.6,-2 2.6,-4.7 3.2,-11.8 0.7,-16.2 -3.5,-6.2 -7.9,-9.5 -18.2,-9.5 -5.6,0 -20.8,1.9 -21.1,14.6 0,1.3 0,2.5 0.1,3.7 h 27.8 c -3.7,5.9 -7.2,10.3 -10.3,13.6 3.7,0.9 6.7,1.7 9.5,2.5 2.6,0.7 5.1,1.3 7.6,2 3.8,-2.8 7.4,-5.8 10.5,-8.7 z"
   id="path6" />&#10;<linearGradient
   id="SVGID_00000132774675072191537280000013935395272828303517_"
   gradientUnits="userSpaceOnUse"
   x1="79.516403"
   y1="74.4534"
   x2="110.2249"
   y2="35.435001"
   gradientTransform="matrix(1,0,0,-1,-54.7,118.99287)">&#10;	<stop
   offset="0"
   style="stop-color:#8898FF"
   id="stop7" />&#10;	<stop
   offset="0.9839"
   style="stop-color:#5F47F1"
   id="stop8" />&#10;</linearGradient>&#10;<path
   style="fill:url(#SVGID_00000132774675072191537280000013935395272828303517_)"
   d="m 8,52.292871 c 1.1,9.6 6.6,13.4 17.8,14.5 11.2,1.1 17.6,0.4 26.1,1.1 7.1,0.6 13.5,4.3 15.8,3 2.1,-1.1 0.9,-5.2 -1.9,-7.8 -3.7,-3.4 -8.8,-5.7 -17.7,-6.6 1.8,-4.9 1.3,-11.8 -1.5,-15.5 -4,-5.4 -11.4,-7.8 -20.8,-6.8 -9.8,1.2 -19.2,6.1 -17.8,18.1 z"
   id="path8" />&#10;</svg>
