<?xml version="1.0" encoding="UTF-8" standalone="no"?>
<!-- Generator: Adobe Illustrator 25.0.1, SVG Export Plug-In . SVG Version: 6.00 Build 0)  -->

<svg
   version="1.0"
   id="Layer_1"
   x="0px"
   y="0px"
   viewBox="0 0 311.20001 311.20001"
   xml:space="preserve"
   sodipodi:docname="gnosis-safe-multisig-seeklogo.com-3.svg"
   width="311.20001"
   height="311.20001"
   inkscape:version="1.3 (0e150ed6c4, 2023-07-21)"
   xmlns:inkscape="http://www.inkscape.org/namespaces/inkscape"
   xmlns:sodipodi="http://sodipodi.sourceforge.net/DTD/sodipodi-0.dtd"
   xmlns="http://www.w3.org/2000/svg"
   xmlns:svg="http://www.w3.org/2000/svg"><defs
   id="defs19" /><sodipodi:namedview
   id="namedview19"
   pagecolor="#ffffff"
   bordercolor="#000000"
   borderopacity="0.25"
   inkscape:showpageshadow="2"
   inkscape:pageopacity="0.0"
   inkscape:pagecheckerboard="0"
   inkscape:deskcolor="#d1d1d1"
   inkscape:zoom="1.3125"
   inkscape:cx="317.71429"
   inkscape:cy="240"
   inkscape:window-width="3840"
   inkscape:window-height="2321"
   inkscape:window-x="0"
   inkscape:window-y="0"
   inkscape:window-maximized="1"
   inkscape:current-layer="Layer_1" />&#10;<path
   d="M 155.6,0 C 69.6,0 0,69.7 0,155.6 c 0,86 69.7,155.6 155.6,155.6 85.9,0 155.6,-69.7 155.6,-155.6 C 311.2,69.7 241.6,0 155.6,0 Z m 113.9,164.1 h -72.2 c -4.7,23.8 -27.9,39.3 -51.7,34.6 C 121.8,194 106.3,170.8 111,147 c 4.7,-23.8 27.9,-39.3 51.7,-34.6 18.1,3.6 32.1,18.2 34.9,36.4 h 71.9 c 4.2,-0.2 7.8,3.1 7.9,7.4 0.1,4.3 -3.1,7.8 -7.4,7.9 v 0 z"
   id="path1" />&#10;&#10;&#10;&#10;&#10;&#10;&#10;&#10;&#10;&#10;&#10;&#10;&#10;&#10;&#10;&#10;&#10;&#10;&#10;</svg>
