<?xml version="1.0" encoding="UTF-8" standalone="no"?>
<!-- Generator: Adobe Illustrator 22.1.0, SVG Export Plug-In . SVG Version: 6.00 Build 0)  -->

<svg
   version="1.1"
   id="Laag_1"
   x="0px"
   y="0px"
   viewBox="0 0 24.5 27.801639"
   xml:space="preserve"
   sodipodi:docname="shopify.svg"
   width="24.5"
   height="27.80164"
   inkscape:version="1.3 (0e150ed6c4, 2023-07-21)"
   xmlns:inkscape="http://www.inkscape.org/namespaces/inkscape"
   xmlns:sodipodi="http://sodipodi.sourceforge.net/DTD/sodipodi-0.dtd"
   xmlns="http://www.w3.org/2000/svg"
   xmlns:svg="http://www.w3.org/2000/svg"><defs
   id="defs4" /><sodipodi:namedview
   id="namedview4"
   pagecolor="#ffffff"
   bordercolor="#000000"
   borderopacity="0.25"
   inkscape:showpageshadow="2"
   inkscape:pageopacity="0.0"
   inkscape:pagecheckerboard="0"
   inkscape:deskcolor="#d1d1d1"
   inkscape:zoom="18.71"
   inkscape:cx="21.646179"
   inkscape:cy="12.185997"
   inkscape:window-width="3840"
   inkscape:window-height="2321"
   inkscape:window-x="0"
   inkscape:window-y="0"
   inkscape:window-maximized="1"
   inkscape:current-layer="g4" />&#10;<style
   type="text/css"
   id="style1">&#10;	.st0{fill:#8DB849;}&#10;	.st1{fill:#5A863E;}&#10;	.st2{fill:#FFFFFE;}&#10;	.st3{fill:#1A1919;}&#10;</style>&#10;<g
   id="g4"
   transform="translate(0,-0.09836073)">&#10;	<path
   class="st0"
   d="m 11.3,1 c 0.2,0 0.3,0.1 0.5,0.2 C 10.6,1.7 9.4,3 8.8,5.8 L 6.6,6.4 C 7.3,4.4 8.7,1 11.3,1 Z m 1.1,1 c 0.2,0.6 0.4,1.3 0.4,2.4 0,0.1 0,0.1 0,0.2 L 9.9,5.4 C 10.5,3.3 11.5,2.4 12.4,2 Z M 15,3.8 13.7,4.2 c 0,-0.1 0,-0.2 0,-0.3 0,-0.9 -0.1,-1.6 -0.3,-2.2 0.7,0.2 1.3,1.1 1.6,2.1 z m 6.5,1.6 C 21.5,5.3 21.4,5.2 21.3,5.2 21.1,5.2 19,5 19,5 19,5 17.5,3.5 17.3,3.4 17.1,3.2 16.8,3.3 16.7,3.3 c 0,0 -0.3,0.1 -0.8,0.3 C 15.4,2.2 14.5,0.9 13,0.9 c 0,0 -0.1,0 -0.1,0 C 12.5,0.3 11.9,0.1 11.4,0.1 7.8,0 6.1,4.5 5.5,6.8 4.7,7 3.9,7.3 3,7.6 2.2,7.8 2.2,7.9 2.1,8.6 2,9.1 0,24.9 0,24.9 l 15.9,3 8.6,-1.9 c 0,0 -3,-20.4 -3,-20.6 z"
   id="path1" />&#10;	<path
   class="st1"
   d="M 21.2,5.2 C 21.1,5.2 19,5 19,5 19,5 17.5,3.5 17.3,3.4 17.2,3.3 17.2,3.3 17.1,3.3 L 15.9,27.9 24.5,26 c 0,0 -3,-20.4 -3,-20.6 0,-0.1 -0.2,-0.2 -0.3,-0.2"
   id="path2" />&#10;	<path
   class="st2"
   d="m 13,10 -1.1,3.2 c 0,0 -0.9,-0.5 -2.1,-0.5 -1.7,0 -1.8,1 -1.8,1.3 0,1.4 3.8,2 3.8,5.4 0,2.7 -1.7,4.4 -4,4.4 -2.7,0 -4.1,-1.7 -4.1,-1.7 l 0.7,-2.4 c 0,0 1.4,1.2 2.6,1.2 0.8,0 1.1,-0.6 1.1,-1.1 C 8.1,17.9 5,17.8 5,14.7 5,12.1 6.9,9.6 10.6,9.6 12.3,9.5 13,10 13,10"
   id="path3" />&#10;	&#10;</g>&#10;</svg>
