<svg xmlns="http://www.w3.org/2000/svg" xmlns:xlink="http://www.w3.org/1999/xlink" xml:space="preserve" id="katman_1" width="116.3" height="116.3" x="0" y="0" version="1.0"><style id="style1" type="text/css">.st0{clip-path:url(#SVGID_00000158732959586303791290000000902739269291506597_)}.st2{fill-rule:evenodd;clip-rule:evenodd;fill:#010202}.st3{clip-path:url(#SVGID_00000123416899471651815160000009676123665650912419_)}.st4{clip-path:url(#SVGID_00000002351387474892311590000002345620816768836537_)}</style><g id="g12" transform="translate(-69.7 -167.2)"><defs id="defs1"><path id="SVGID_1_" d="M69.7 166h460.8v118.7H69.7z"/></defs><clipPath id="SVGID_00000165927054331117776030000014744084506644721310_"><use xlink:href="#SVGID_1_" id="use1" style="overflow:visible"/></clipPath><g id="g11" clip-path="url(#SVGID_00000165927054331117776030000014744084506644721310_)"><g id="g10"><defs id="defs6"><path id="SVGID_00000127023741319921415970000013792946803286576044_" d="M69.7 167.2H186v116.3H69.7z"/></defs><clipPath id="SVGID_00000037650816062051053160000005373953427672468371_"><use xlink:href="#SVGID_00000127023741319921415970000013792946803286576044_" id="use6" style="overflow:visible"/></clipPath><g id="g9" clip-path="url(#SVGID_00000037650816062051053160000005373953427672468371_)"><g id="g8"><defs id="defs7"><path id="SVGID_00000034066970573764123690000003370518149747061693_" d="M69.7 167.2H186v116.3H69.7z"/></defs><clipPath id="SVGID_00000093159154492938709480000015914418759260463756_"><use xlink:href="#SVGID_00000034066970573764123690000003370518149747061693_" id="use7" style="overflow:visible"/></clipPath><g id="g7" clip-path="url(#SVGID_00000093159154492938709480000015914418759260463756_)"><path id="path7" d="m139.4 171.8 3.1 7.3c6.1 14.2 17.4 25.6 31.7 31.7l7.3 3.1c1.9.8 3.4 2 4.6 3.4-3.6-25.9-24.1-46.4-50-50 1.3 1.1 2.5 2.6 3.3 4.5zm-65.1 42 7.3-3.1c14.2-6.1 25.6-17.4 31.7-31.7l3.1-7.3c.7-1.8 1.9-3.4 3.4-4.6-25.9 3.6-46.4 24.1-50 50 1.1-1.3 2.6-2.5 4.5-3.3zm107.1 23.1-7.3 3.1c-14.2 6.1-25.6 17.4-31.7 31.7l-3.1 7.2c-.7 1.8-1.9 3.4-3.4 4.6 25.9-3.6 46.4-24.1 50-50-1.1 1.5-2.7 2.7-4.5 3.4zm-65.1 42-3.1-7.2c-6.1-14.2-17.4-25.6-31.7-31.7l-7.3-3.1c-1.8-.7-3.4-1.9-4.6-3.4 3.6 25.9 24.1 46.4 50 50-1.4-1.2-2.5-2.8-3.3-4.6z" style="fill:#999"/></g></g><path id="path8" d="m101.5 219.7 3.6-1.5c7-3 12.6-8.6 15.6-15.6l1.5-3.6c2.1-5 9.2-5 11.4 0l1.5 3.6c3 7 8.6 12.6 15.6 15.6l3.6 1.5c5 2.1 5 9.2 0 11.4l-3.6 1.5c-7 3-12.6 8.6-15.6 15.6l-1.5 3.6c-2.1 5-9.2 5-11.4 0l-1.5-3.6c-3-7-8.6-12.6-15.6-15.6l-3.6-1.5c-5-2.2-5-9.3 0-11.4z" style="fill:#010202"/></g></g></g></g></svg>