<?xml version="1.0" encoding="UTF-8" standalone="no"?>
<!-- Generator: Adobe Illustrator 26.0.3, SVG Export Plug-In . SVG Version: 6.00 Build 0)  -->

<svg
   version="1.0"
   id="katman_1"
   x="0px"
   y="0px"
   viewBox="0 0 116.3 116.3"
   xml:space="preserve"
   sodipodi:docname="stargate.svg"
   width="116.3"
   height="116.3"
   inkscape:version="1.3 (0e150ed6c4, 2023-07-21)"
   xmlns:inkscape="http://www.inkscape.org/namespaces/inkscape"
   xmlns:sodipodi="http://sodipodi.sourceforge.net/DTD/sodipodi-0.dtd"
   xmlns:xlink="http://www.w3.org/1999/xlink"
   xmlns="http://www.w3.org/2000/svg"
   xmlns:svg="http://www.w3.org/2000/svg"><defs
   id="defs12" /><sodipodi:namedview
   id="namedview12"
   pagecolor="#ffffff"
   bordercolor="#000000"
   borderopacity="0.25"
   inkscape:showpageshadow="2"
   inkscape:pageopacity="0.0"
   inkscape:pagecheckerboard="0"
   inkscape:deskcolor="#d1d1d1"
   inkscape:zoom="2.2822222"
   inkscape:cx="252.38559"
   inkscape:cy="-0.43816943"
   inkscape:window-width="3840"
   inkscape:window-height="2321"
   inkscape:window-x="0"
   inkscape:window-y="0"
   inkscape:window-maximized="1"
   inkscape:current-layer="g11" />&#10;<style
   type="text/css"
   id="style1">&#10;	.st0{clip-path:url(#SVGID_00000158732959586303791290000000902739269291506597_);}&#10;	.st1{fill:#010202;}&#10;	.st2{fill-rule:evenodd;clip-rule:evenodd;fill:#010202;}&#10;	.st3{clip-path:url(#SVGID_00000123416899471651815160000009676123665650912419_);}&#10;	.st4{clip-path:url(#SVGID_00000002351387474892311590000002345620816768836537_);}&#10;	.st5{fill:#999999;}&#10;</style>&#10;<g
   id="g12"
   transform="translate(-69.699997,-167.2)">&#10;	<defs
   id="defs1">&#10;		<rect
   id="SVGID_1_"
   x="69.699997"
   y="166"
   width="460.79999"
   height="118.7" />&#10;	</defs>&#10;	<clipPath
   id="SVGID_00000165927054331117776030000014744084506644721310_">&#10;		<use
   xlink:href="#SVGID_1_"
   style="overflow:visible"
   id="use1" />&#10;	</clipPath>&#10;	<g
   clip-path="url(#SVGID_00000165927054331117776030000014744084506644721310_)"
   id="g11">&#10;		&#10;		&#10;		&#10;		&#10;		&#10;		&#10;		<g
   id="g10">&#10;			<defs
   id="defs6">&#10;				<rect
   id="SVGID_00000127023741319921415970000013792946803286576044_"
   x="69.699997"
   y="167.2"
   width="116.3"
   height="116.3" />&#10;			</defs>&#10;			<clipPath
   id="SVGID_00000037650816062051053160000005373953427672468371_">&#10;				<use
   xlink:href="#SVGID_00000127023741319921415970000013792946803286576044_"
   style="overflow:visible"
   id="use6" />&#10;			</clipPath>&#10;			<g
   clip-path="url(#SVGID_00000037650816062051053160000005373953427672468371_)"
   id="g9">&#10;				<g
   id="g8">&#10;					<defs
   id="defs7">&#10;						<rect
   id="SVGID_00000034066970573764123690000003370518149747061693_"
   x="69.699997"
   y="167.2"
   width="116.3"
   height="116.3" />&#10;					</defs>&#10;					<clipPath
   id="SVGID_00000093159154492938709480000015914418759260463756_">&#10;						<use
   xlink:href="#SVGID_00000034066970573764123690000003370518149747061693_"
   style="overflow:visible"
   id="use7" />&#10;					</clipPath>&#10;					<g
   clip-path="url(#SVGID_00000093159154492938709480000015914418759260463756_)"
   id="g7">&#10;						<path
   class="st5"
   d="m 139.4,171.8 3.1,7.3 c 6.1,14.2 17.4,25.6 31.7,31.7 l 7.3,3.1 c 1.9,0.8 3.4,2 4.6,3.4 -3.6,-25.9 -24.1,-46.4 -50,-50 1.3,1.1 2.5,2.6 3.3,4.5 z m -65.1,42 7.3,-3.1 c 14.2,-6.1 25.6,-17.4 31.7,-31.7 l 3.1,-7.3 c 0.7,-1.8 1.9,-3.4 3.4,-4.6 -25.9,3.6 -46.4,24.1 -50,50 1.1,-1.3 2.6,-2.5 4.5,-3.3 z m 107.1,23.1 -7.3,3.1 c -14.2,6.1 -25.6,17.4 -31.7,31.7 l -3.1,7.2 c -0.7,1.8 -1.9,3.4 -3.4,4.6 25.9,-3.6 46.4,-24.1 50,-50 -1.1,1.5 -2.7,2.7 -4.5,3.4 z m -65.1,42 -3.1,-7.2 C 107.1,257.5 95.8,246.1 81.5,240 l -7.3,-3.1 c -1.8,-0.7 -3.4,-1.9 -4.6,-3.4 3.6,25.9 24.1,46.4 50,50 -1.4,-1.2 -2.5,-2.8 -3.3,-4.6 z"
   id="path7" />&#10;					</g>&#10;				</g>&#10;				<path
   class="st1"
   d="m 101.5,219.7 3.6,-1.5 c 7,-3 12.6,-8.6 15.6,-15.6 l 1.5,-3.6 c 2.1,-5 9.2,-5 11.4,0 l 1.5,3.6 c 3,7 8.6,12.6 15.6,15.6 l 3.6,1.5 c 5,2.1 5,9.2 0,11.4 l -3.6,1.5 c -7,3 -12.6,8.6 -15.6,15.6 l -1.5,3.6 c -2.1,5 -9.2,5 -11.4,0 l -1.5,-3.6 c -3,-7 -8.6,-12.6 -15.6,-15.6 l -3.6,-1.5 c -5,-2.2 -5,-9.3 0,-11.4 z"
   id="path8" />&#10;			</g>&#10;		</g>&#10;	</g>&#10;</g>&#10;</svg>
