<svg xmlns="http://www.w3.org/2000/svg" width="357.143" height="357.143" class="fill-midnight dark:fill-sand" viewBox="0 0 250 250"><path d="M124.96 38.268c10.555 0 19.111-8.567 19.111-19.134C144.071 8.566 135.515 0 124.96 0c-10.554 0-19.11 8.566-19.11 19.134 0 10.567 8.556 19.134 19.11 19.134zM124.96 250c10.555 0 19.111-8.567 19.111-19.134s-8.556-19.134-19.111-19.134c-10.554 0-19.11 8.567-19.11 19.134S114.406 250 124.96 250zM216.569 100.27l-14.084-14.102a18.803 18.803 0 0 1-5.599-13.678 19.154 19.154 0 0 0-5.385-13.903 19.097 19.097 0 0 0-21.163-4.299 19.136 19.136 0 0 0-11.655 18.202 18.814 18.814 0 0 1-5.554 13.731l-14.04 14.102a19.417 19.417 0 0 1-13.988 5.543 19.113 19.113 0 0 0-17.853 11.89 19.157 19.157 0 0 0-1.424 7.412 19.416 19.416 0 0 1-5.59 13.978L86.15 153.247a19.607 19.607 0 0 1-14.084 5.596h-.15a19.587 19.587 0 0 1-13.952-5.64l-14.04-14.102A19.663 19.663 0 0 1 38.325 125v-.159a19.688 19.688 0 0 1 5.599-14.101l14.04-14.101a18.72 18.72 0 0 1 13.653-5.606 19.091 19.091 0 0 0 10.762-3.003 19.133 19.133 0 0 0 7.246-8.513 19.151 19.151 0 0 0-3.913-21.033 19.089 19.089 0 0 0-20.942-4.252 19.112 19.112 0 0 0-8.618 7.118 19.15 19.15 0 0 0-3.17 10.726 19.471 19.471 0 0 1-5.599 14.145l-14.031 14.102a18.794 18.794 0 0 1-13.662 5.605 19.1 19.1 0 0 0-13.886 5.392A19.129 19.129 0 0 0 0 125.053a19.151 19.151 0 0 0 5.804 13.733 19.1 19.1 0 0 0 13.886 5.392 18.788 18.788 0 0 1 13.662 5.605l14.031 14.102a18.778 18.778 0 0 1 5.608 13.678 19.136 19.136 0 0 0 11.654 18.202 19.094 19.094 0 0 0 21.164-4.299 19.136 19.136 0 0 0 5.385-13.903 18.776 18.776 0 0 1 5.598-13.784l14.084-14.102a19.372 19.372 0 0 1 13.961-5.596 19.086 19.086 0 0 0 13.678-5.604 19.133 19.133 0 0 0 5.591-13.697 19.507 19.507 0 0 1 5.554-13.881l14.085-14.102a19.636 19.636 0 0 1 14.084-5.605h.088a19.631 19.631 0 0 1 14.084 5.605l14.04 14.102A19.672 19.672 0 0 1 211.639 125v.159a19.674 19.674 0 0 1-5.598 14.101l-14.04 13.943a18.722 18.722 0 0 1-13.653 5.605 19.091 19.091 0 0 0-10.762 3.003 19.13 19.13 0 0 0-7.246 8.514 19.16 19.16 0 0 0-1.254 11.115 19.141 19.141 0 0 0 5.167 9.917 19.09 19.09 0 0 0 20.942 4.253 19.117 19.117 0 0 0 8.618-7.118 19.155 19.155 0 0 0 3.17-10.726 19.466 19.466 0 0 1 5.581-13.987l14.084-14.102a18.772 18.772 0 0 1 13.662-5.605 19.085 19.085 0 0 0 13.886-5.391 19.147 19.147 0 0 0 4.293-21.19 19.133 19.133 0 0 0-10.69-10.383 19.085 19.085 0 0 0-7.489-1.286 18.768 18.768 0 0 1-13.741-5.552z" style="fill:#fff"/></svg>