<?xml version="1.0" encoding="UTF-8" standalone="no"?>
<svg
   class="fill-midnight dark:fill-sand"
   width="357.14285"
   height="357.14285"
   viewBox="0 0 250 250"
   version="1.1"
   id="svg3"
   sodipodi:docname="system9.svg"
   inkscape:version="1.3 (0e150ed6c4, 2023-07-21)"
   xmlns:inkscape="http://www.inkscape.org/namespaces/inkscape"
   xmlns:sodipodi="http://sodipodi.sourceforge.net/DTD/sodipodi-0.dtd"
   xmlns="http://www.w3.org/2000/svg"
   xmlns:svg="http://www.w3.org/2000/svg">
  <defs
     id="defs3" />
  <sodipodi:namedview
     id="namedview3"
     pagecolor="#ffffff"
     bordercolor="#000000"
     borderopacity="0.25"
     inkscape:showpageshadow="2"
     inkscape:pageopacity="0.0"
     inkscape:pagecheckerboard="0"
     inkscape:deskcolor="#d1d1d1"
     inkscape:zoom="2.9047947"
     inkscape:cx="111.53973"
     inkscape:cy="158.35887"
     inkscape:window-width="3840"
     inkscape:window-height="2321"
     inkscape:window-x="0"
     inkscape:window-y="0"
     inkscape:window-maximized="1"
     inkscape:current-layer="svg3" />
  <path
     d="m 124.96,38.2677 c 10.555,0 19.111,-8.5665 19.111,-19.1339 C 144.071,8.5665 135.515,0 124.96,0 c -10.554,0 -19.11,8.5665 -19.11,19.1338 0,10.5674 8.556,19.1339 19.11,19.1339 z"
     id="path1"
     style="fill:#ffffff" />
  <path
     d="m 124.96,250 c 10.555,0 19.111,-8.567 19.111,-19.134 0,-10.567 -8.556,-19.134 -19.111,-19.134 -10.554,0 -19.11,8.567 -19.11,19.134 0,10.567 8.556,19.134 19.11,19.134 z"
     id="path2"
     style="fill:#ffffff" />
  <path
     d="M 216.569,100.27 202.485,86.168 c -1.808,-1.782 -3.236,-3.914 -4.199,-6.265 -0.962,-2.351 -1.438,-4.873 -1.4,-7.413 0.078,-2.56 -0.359,-5.11 -1.284,-7.499 -0.925,-2.388 -2.319,-4.566 -4.101,-6.404 -1.781,-1.839 -3.913,-3.301 -6.269,-4.299 -2.357,-0.998 -4.889,-1.512 -7.447,-1.512 -2.559,0 -5.091,0.514 -7.447,1.512 -2.357,0.998 -4.489,2.46 -6.27,4.299 -1.781,1.838 -3.176,4.016 -4.101,6.404 -0.925,2.389 -1.362,4.939 -1.284,7.499 0.051,2.546 -0.414,5.076 -1.369,7.437 -0.955,2.36 -2.379,4.501 -4.185,6.294 l -14.04,14.102 c -1.846,1.809 -4.034,3.231 -6.436,4.183 -2.402,0.952 -4.969,1.414 -7.552,1.36 -2.537,-0.021 -5.053,0.464 -7.402,1.426 -2.348,0.963 -4.482,2.384 -6.276,4.18 -1.795,1.797 -3.214,3.933 -4.175,6.284 -0.961,2.352 -1.446,4.871 -1.424,7.412 0.046,2.585 -0.425,5.153 -1.385,7.554 -0.96,2.4 -2.39,4.584 -4.205,6.424 L 86.15,153.247 c -1.861,1.82 -4.064,3.252 -6.481,4.213 -2.418,0.961 -5.003,1.431 -7.603,1.383 h -0.15 c -2.582,0.026 -5.143,-0.459 -7.538,-1.427 -2.394,-0.968 -4.574,-2.4 -6.414,-4.213 L 43.9239,139.101 c -1.8196,-1.862 -3.2516,-4.067 -4.2127,-6.488 -0.961,-2.421 -1.4321,-5.008 -1.3858,-7.613 v -0.159 c -0.0463,-2.604 0.4248,-5.192 1.3858,-7.613 0.9611,-2.421 2.3931,-4.626 4.2127,-6.488 L 57.964,96.639 c 1.778,-1.811 3.905,-3.242 6.252,-4.206 2.347,-0.963 4.865,-1.44 7.401,-1.4 3.806,0.095 7.553,-0.951 10.762,-3.003 3.208,-2.052 5.731,-5.016 7.246,-8.513 1.514,-3.498 1.951,-7.368 1.254,-11.115 -0.698,-3.748 -2.497,-7.201 -5.167,-9.918 -2.671,-2.717 -6.091,-4.573 -9.822,-5.331 -3.731,-0.757 -7.604,-0.382 -11.12,1.079 -3.517,1.46 -6.518,3.939 -8.618,7.118 -2.1,3.179 -3.204,6.914 -3.17,10.726 0.064,2.613 -0.399,5.213 -1.361,7.643 -0.962,2.431 -2.403,4.642 -4.2377,6.502 L 33.352,100.323 c -1.7816,1.809 -3.9105,3.238 -6.2583,4.201 -2.3479,0.963 -4.8662,1.441 -7.4033,1.404 -2.5573,-0.078 -5.1041,0.359 -7.4894,1.286 -2.3854,0.926 -4.5607,2.322 -6.3971,4.106 -1.8363,1.783 -3.2962,3.918 -4.2932,6.277 C 0.5137,119.956 0,122.491 0,125.053 c 0,2.562 0.5137,5.097 1.5107,7.456 0.997,2.359 2.4569,4.494 4.2932,6.277 1.8364,1.784 4.0117,3.18 6.3971,4.106 2.3853,0.927 4.9321,1.364 7.4894,1.286 2.5371,-0.037 5.0554,0.441 7.4033,1.404 2.3478,0.963 4.4767,2.392 6.2583,4.201 l 14.0313,14.102 c 1.8107,1.781 3.2417,3.912 4.2057,6.263 0.963,2.351 1.44,4.874 1.402,7.415 -0.078,2.56 0.358,5.11 1.284,7.499 0.925,2.388 2.319,4.566 4.101,6.404 1.781,1.839 3.913,3.301 6.269,4.299 2.356,0.998 4.889,1.512 7.447,1.512 2.559,0 5.091,-0.514 7.447,-1.512 2.356,-0.998 4.488,-2.46 6.27,-4.299 1.781,-1.838 3.176,-4.016 4.101,-6.404 0.925,-2.389 1.361,-4.939 1.284,-7.499 -0.055,-2.558 0.413,-5.101 1.376,-7.471 0.963,-2.371 2.4,-4.519 4.222,-6.313 l 14.084,-14.102 c 1.837,-1.817 4.018,-3.249 6.416,-4.21 2.398,-0.961 4.963,-1.432 7.545,-1.386 2.538,0.022 5.054,-0.462 7.402,-1.424 2.349,-0.962 4.482,-2.383 6.276,-4.18 1.794,-1.797 3.212,-3.934 4.172,-6.285 0.96,-2.352 1.442,-4.872 1.419,-7.412 -0.033,-2.566 0.441,-5.114 1.394,-7.496 0.953,-2.382 2.367,-4.552 4.16,-6.385 l 14.085,-14.102 c 1.859,-1.822 4.062,-3.255 6.48,-4.218 2.418,-0.962 5.002,-1.433 7.604,-1.387 h 0.088 c 2.601,-0.046 5.186,0.425 7.604,1.387 2.417,0.963 4.62,2.396 6.48,4.218 l 14.04,14.102 c 1.82,1.862 3.251,4.067 4.213,6.488 0.961,2.421 1.432,5.008 1.385,7.613 v 0.159 c 0.047,2.604 -0.424,5.192 -1.385,7.613 -0.962,2.421 -2.393,4.626 -4.213,6.488 l -14.04,13.943 c -1.778,1.811 -3.905,3.242 -6.252,4.205 -2.347,0.964 -4.865,1.44 -7.401,1.4 -3.806,-0.095 -7.553,0.951 -10.762,3.003 -3.208,2.052 -5.732,5.017 -7.246,8.514 -1.514,3.497 -1.951,7.368 -1.254,11.115 0.697,3.747 2.497,7.201 5.167,9.917 2.671,2.717 6.091,4.573 9.822,5.331 3.731,0.758 7.603,0.382 11.12,-1.078 3.517,-1.46 6.517,-3.939 8.618,-7.118 2.1,-3.18 3.204,-6.915 3.17,-10.726 -0.046,-2.586 0.425,-5.155 1.383,-7.557 0.958,-2.401 2.385,-4.588 4.198,-6.43 l 14.084,-14.102 c 1.781,-1.81 3.909,-3.24 6.257,-4.203 2.349,-0.963 4.867,-1.44 7.405,-1.402 2.557,0.078 5.104,-0.359 7.489,-1.285 2.385,-0.927 4.561,-2.323 6.397,-4.106 1.836,-1.784 3.296,-3.919 4.293,-6.278 0.997,-2.359 1.511,-4.894 1.511,-7.456 0,-2.561 -0.514,-5.097 -1.511,-7.456 -0.997,-2.359 -2.457,-4.494 -4.293,-6.277 -1.836,-1.784 -4.012,-3.18 -6.397,-4.106 -2.385,-0.926 -4.932,-1.364 -7.489,-1.286 -2.547,0.056 -5.079,-0.407 -7.441,-1.361 -2.362,-0.955 -4.506,-2.381 -6.3,-4.191 z"
     id="path3"
     style="fill:#ffffff" />
</svg>
