<svg width="140" height="79" viewBox="0 0 140 79" fill="none" xmlns="http://www.w3.org/2000/svg">
<g clip-path="url(#clip0_155_15)">
<path d="M136.65 33.3L106.05 2.60001L105.95 2.5C105.75 2.3 105.65 2.2 105.45 2C105.35 1.9 105.25 1.90002 105.15 1.80002C105.05 1.70002 104.85 1.6 104.75 1.5C104.65 1.4 104.55 1.40002 104.45 1.30002C104.35 1.20002 104.15 1.10001 104.05 1.10001C103.95 1.00001 103.85 0.999994 103.75 0.899994C103.65 0.799994 103.45 0.800012 103.35 0.700012C103.25 0.700012 103.15 0.600006 103.05 0.600006C102.85 0.500006 102.75 0.499994 102.55 0.399994C102.45 0.399994 102.35 0.300018 102.25 0.300018C102.05 0.300018 101.95 0.200012 101.75 0.200012C101.65 0.200012 101.55 0.200006 101.35 0.100006C101.15 0.100006 101.05 0 100.85 0C100.65 0 100.45 0 100.25 0C100.15 0 100.05 0 99.95 0C99.85 0 99.85 0 99.75 0C99.55 0 99.35 0 99.15 0C99.05 0 98.85 6.10203e-06 98.75 0.100006C98.65 0.100006 98.45 0.100012 98.35 0.200012C98.15 0.200012 98.05 0.300018 97.95 0.300018C97.85 0.300018 97.65 0.399994 97.55 0.399994C97.45 0.399994 97.25 0.5 97.15 0.5C97.05 0.5 96.85 0.600006 96.75 0.600006C96.65 0.700006 96.55 0.700018 96.35 0.800018C96.25 0.900018 96.05 0.9 95.95 1C95.85 1.1 95.75 1.10001 95.65 1.20001C95.55 1.30001 95.35 1.4 95.25 1.5C95.15 1.6 95.05 1.70001 94.95 1.70001C94.85 1.80001 94.75 1.9 94.55 2C94.35 2.1 94.25 2.3 94.05 2.5L93.95 2.60001L47.65 48.9V8.80002C47.65 4.00002 43.75 0 38.85 0C34.05 0 30.05 3.90002 30.05 8.80002V49.2L14.95 34.1C11.55 30.7 5.95 30.7 2.55 34.1C-0.85 37.5 -0.85 43.1 2.55 46.5L32.45 76.4C34.15 78.1 36.45 79 38.65 79H38.75H38.85C41.75 79 44.35 77.6 45.95 75.3L91.35 29.9V70.2C91.35 75 95.25 79 100.15 79C104.95 79 108.95 75.1 108.95 70.2V29.9L124.55 45.5C127.95 48.9 133.55 48.9 136.95 45.5C140.05 42.2 140.05 36.7 136.65 33.3Z" fill="white"/>
</g>
<defs>
<clipPath id="clip0_155_15">
<rect width="139.239" height="79" fill="white"/>
</clipPath>
</defs>
</svg>
