<?xml version="1.0" encoding="UTF-8" standalone="no"?>
<!-- Generator: Adobe Illustrator 25.4.1, SVG Export Plug-In . SVG Version: 6.00 Build 0)  -->

<svg
   version="1.0"
   id="katman_1"
   x="0px"
   y="0px"
   viewBox="0 0 139.2388 79"
   xml:space="preserve"
   sodipodi:docname="transak.svg"
   width="139.2388"
   height="79"
   inkscape:version="1.3 (0e150ed6c4, 2023-07-21)"
   xmlns:inkscape="http://www.inkscape.org/namespaces/inkscape"
   xmlns:sodipodi="http://sodipodi.sourceforge.net/DTD/sodipodi-0.dtd"
   xmlns="http://www.w3.org/2000/svg"
   xmlns:svg="http://www.w3.org/2000/svg"><defs
   id="defs3" /><sodipodi:namedview
   id="namedview3"
   pagecolor="#ffffff"
   bordercolor="#000000"
   borderopacity="0.25"
   inkscape:showpageshadow="2"
   inkscape:pageopacity="0.0"
   inkscape:pagecheckerboard="0"
   inkscape:deskcolor="#d1d1d1"
   inkscape:zoom="3.4233333"
   inkscape:cx="320.74002"
   inkscape:cy="39.727361"
   inkscape:window-width="3840"
   inkscape:window-height="2321"
   inkscape:window-x="0"
   inkscape:window-y="0"
   inkscape:window-maximized="1"
   inkscape:current-layer="g2" />&#10;<style
   type="text/css"
   id="style1">&#10;	.st0{fill-rule:evenodd;clip-rule:evenodd;fill:#1D1D1B;}&#10;	.st1{fill:#1D1D1B;}&#10;</style>&#10;<g
   id="g3"
   transform="translate(-79.25,-260.4)">&#10;	<g
   id="g2">&#10;		&#10;		<path
   class="st1"
   d="M 215.9,293.7 185.3,263 c 0,0 -0.1,-0.1 -0.1,-0.1 -0.2,-0.2 -0.3,-0.3 -0.5,-0.5 -0.1,-0.1 -0.2,-0.1 -0.3,-0.2 -0.1,-0.1 -0.3,-0.2 -0.4,-0.3 -0.1,-0.1 -0.2,-0.1 -0.3,-0.2 -0.1,-0.1 -0.3,-0.2 -0.4,-0.2 -0.1,-0.1 -0.2,-0.1 -0.3,-0.2 -0.1,-0.1 -0.3,-0.1 -0.4,-0.2 -0.1,0 -0.2,-0.1 -0.3,-0.1 -0.2,-0.1 -0.3,-0.1 -0.5,-0.2 -0.1,0 -0.2,-0.1 -0.3,-0.1 -0.2,0 -0.3,-0.1 -0.5,-0.1 -0.1,0 -0.2,0 -0.4,-0.1 -0.2,0 -0.3,-0.1 -0.5,-0.1 -0.2,0 -0.4,0 -0.6,0 -0.1,0 -0.2,0 -0.3,0 -0.1,0 -0.1,0 -0.2,0 -0.2,0 -0.4,0 -0.6,0 -0.1,0 -0.3,0 -0.4,0.1 -0.1,0 -0.3,0 -0.4,0.1 -0.2,0 -0.3,0.1 -0.4,0.1 -0.1,0 -0.3,0.1 -0.4,0.1 -0.1,0 -0.3,0.1 -0.4,0.1 -0.1,0 -0.3,0.1 -0.4,0.1 -0.1,0.1 -0.2,0.1 -0.4,0.2 -0.1,0.1 -0.3,0.1 -0.4,0.2 -0.1,0.1 -0.2,0.1 -0.3,0.2 -0.1,0.1 -0.3,0.2 -0.4,0.3 -0.1,0.1 -0.2,0.2 -0.3,0.2 -0.1,0.1 -0.2,0.2 -0.4,0.3 -0.2,0.1 -0.3,0.3 -0.5,0.5 0,0 -0.1,0.1 -0.1,0.1 l -46.3,46.3 v -40.1 c 0,-4.8 -3.9,-8.8 -8.8,-8.8 -4.8,0 -8.8,3.9 -8.8,8.8 v 40.4 L 94.2,294.5 c -3.4,-3.4 -9,-3.4 -12.4,0 -3.4,3.4 -3.4,9 0,12.4 l 29.9,29.9 c 1.7,1.7 4,2.6 6.2,2.6 0,0 0.1,0 0.1,0 0,0 0.1,0 0.1,0 2.9,0 5.5,-1.4 7.1,-3.7 l 45.4,-45.4 v 40.3 c 0,4.8 3.9,8.8 8.8,8.8 4.8,0 8.8,-3.9 8.8,-8.8 v -40.3 l 15.6,15.6 c 3.4,3.4 9,3.4 12.4,0 3.1,-3.3 3.1,-8.8 -0.3,-12.2 z"
   id="path2" />&#10;	</g>&#10;</g>&#10;</svg>
