<svg width="80" height="80" viewBox="0 0 80 80" fill="none" xmlns="http://www.w3.org/2000/svg">
<rect width="80" height="80" rx="12" fill="#06070A"/>
<g clip-path="url(#clip0_160_76)">
<path d="M24.5164 42.9557L26.1303 30.7052L12.1317 20.8875L24.922 25.2645L27.9427 20.5823L38.9724 13.668L63.2844 27.2001L64.5444 47.8472L53.7132 63.0534L45.1518 64.3787L49.5792 56.1914V48.3093L46.3601 42.1535L43.0891 39.965L38.0576 45.2052V50.7506L34.1307 54.465L29.1423 55.0754L26.9329 56.3396L23.3081 55.1713L21.7978 49.6782L24.5164 45.8156V42.9557Z" fill="white"/>
<path d="M46.8693 20.7829C44.2025 20.2248 41.2854 20.3731 41.2854 20.3731C41.2854 20.3731 40.3274 24.846 34.3896 26.0231C34.4328 26.0231 42.2347 28.7173 46.8693 20.7829ZM49.2858 61.3707C52.5049 58.8247 54.9215 55.3195 56.0348 51.3523C56.0866 51.2041 56.5354 50.9425 56.8374 50.742C57.338 50.4368 57.8472 50.184 57.9421 49.7741C58.1406 48.6058 58.2442 47.3851 58.2442 46.1644C58.2442 45.711 57.7868 45.2489 57.338 44.7955C56.9841 44.4903 56.6303 44.1328 56.6303 43.88C56.1297 39.2501 54.0153 34.9254 50.6408 31.7778L50.2869 32.1352C53.5579 35.2393 55.6723 39.4594 56.1297 43.9323C56.1815 44.3421 56.5785 44.7432 56.9841 45.153C57.338 45.4582 57.7436 45.9203 57.7436 46.1208C57.7436 47.2892 57.6401 48.4576 57.4416 49.6259C57.3898 49.8265 56.941 50.0357 56.5871 50.2363C56.0866 50.4891 55.6292 50.742 55.5342 51.1518C54.326 55.4765 51.5556 59.2432 47.879 61.6845C48.5349 60.2633 50.5976 55.6334 51.7023 53.288L51.5038 45.7633L45.1086 39.5117L41.4839 40.0174L37.5052 46.5306C37.5052 46.5306 39.3694 48.9197 36.7457 51.7185C34.1825 54.4651 32.163 55.0754 32.163 55.0754L30.2988 54.0553C30.8511 53.3403 31.9645 52.2766 32.8189 51.5616C34.2774 50.3409 35.736 50.2363 35.736 48.9197C35.7964 46.1644 32.8707 46.923 32.8707 46.923L31.8091 47.9431L31.3603 51.7098L29.1509 54.5087L28.9007 54.4563L25.2759 53.6455C25.2759 53.6455 27.4939 52.4771 27.8478 51.1518C28.2016 49.8788 27.1401 45.6587 27.0883 45.4058C27.1401 45.4582 28.1498 46.3214 28.5986 47.7426C29.4012 45.5017 30.4628 43.3655 30.7648 43.165C31.0669 42.9645 35.1405 40.776 35.1405 40.776L33.7855 44.3857L34.7953 43.8277L37.2118 37.8289C37.2118 37.8289 39.5765 36.6605 41.3371 36.6605C44.5045 36.6082 49.1908 32.6933 47.0764 25.6743C47.6805 25.9272 58.1493 31.2197 59.9616 41.5956C61.3166 49.5736 56.8374 57.0459 49.2858 61.3707Z" fill="#94A6C3"/>
<path d="M37.3067 21.8989C38.4632 20.5213 38.0144 18.4897 38.0144 18.4897L34.6399 23.5294C34.5881 23.5294 35.8395 23.5817 37.3067 21.8989ZM25.9749 49.4167L26.3805 47.3851C26.3805 47.3851 24.7149 50.3322 24.5682 50.742C24.4128 51.2041 24.6717 52.015 25.319 51.9627C25.9749 51.9104 26.7775 50.9425 26.7775 50.2363C26.7775 49.3208 25.9749 49.4167 25.9749 49.4167Z" fill="#1B314F"/>
<path d="M55.8794 17.0685C55.8794 17.0685 58.3995 17.1731 61.0145 17.4783C55.1199 12.7961 49.536 11.4271 45.0051 11.4271C38.7652 11.4271 34.5363 14.0255 34.2774 14.1737L36.2452 11.0173C36.2452 11.0173 28.3914 10.2501 25.6211 18.6466C24.9134 16.8679 24.2661 14.2696 24.2661 14.2696C24.2661 14.2696 20.1839 17.8881 22.0998 23.8869C17.4135 22.1605 10.7249 19.7627 10.466 19.7191C10.1122 19.6668 10.0086 19.8237 10.0086 19.8237C10.0086 19.8237 9.90503 19.9719 10.2071 20.2335C10.7681 20.6782 21.3404 28.5691 23.662 30.0949C23.1614 31.9259 23.1614 32.7891 23.662 33.6523C24.3697 34.8207 24.4128 35.4311 24.3179 36.2943C24.2143 37.1575 23.3081 44.6385 23.1096 45.554C22.9111 46.4695 20.7967 49.7218 20.8916 50.6896C20.9952 51.6575 22.2983 55.7729 23.4635 56.235C24.3179 56.5402 26.4323 57.2029 27.8391 57.2029C28.3397 57.2029 28.7971 57.0982 28.9956 56.8977C29.85 56.1391 30.1003 55.9822 30.7044 55.9822H30.8511C31.1014 55.9822 31.4035 56.0345 31.7573 56.0345C32.56 56.0345 33.6215 55.8775 34.3723 55.1713C35.477 54.0552 37.393 52.5294 37.9971 51.8144C38.7566 50.8466 39.1536 49.53 38.9551 48.2047C38.7998 46.984 39.4557 45.9115 40.2152 44.8478C41.1731 43.5748 42.9337 41.2903 42.9337 41.2903C46.4118 43.9235 48.5781 47.9431 48.5781 52.416C48.5781 60.3505 41.7341 66.7591 33.2763 66.7591C31.9645 66.7591 30.713 66.6108 29.453 66.3057C33.3281 67.6746 36.599 68.1367 39.2744 68.1367C44.9619 68.1367 47.9826 66.0528 47.9826 66.0528C47.9826 66.0528 46.9296 67.4305 45.2122 68.9999H45.264C54.6798 67.6746 59.2626 59.8448 59.2626 59.8448C59.2626 59.8448 58.9087 62.3908 58.4599 64.1172C70.9827 54.6045 68.8682 42.7029 68.8165 42.3018C68.92 42.45 70.1801 43.9759 70.8274 44.7955C72.8469 23.8345 55.8794 17.0685 55.8794 17.0685ZM36.599 50.5414C36.4005 50.7943 35.5461 51.5615 34.942 52.1196C34.3378 52.6776 33.6819 53.2356 33.1813 53.7501C32.9828 53.9506 32.5772 54.0552 31.9731 54.0552H30.4628C31.2222 53.0351 33.4316 50.6983 34.1911 50.1926C35.0973 49.5823 35.5547 48.9719 34.9937 47.9082C34.4414 46.8357 32.9828 47.0973 32.9828 47.0973C32.9828 47.0973 33.8373 46.7398 34.5967 46.7398C33.6388 46.487 32.4305 46.7398 31.8781 47.2979C31.274 47.8559 31.3776 49.8439 31.1273 51.1081C30.877 52.4335 30.0226 53.0961 28.7108 54.3168C28.0031 54.9795 27.5025 55.18 27.0969 55.18C26.2425 55.0318 25.2327 54.7702 24.525 54.5173C24.0244 53.8547 23.265 51.6662 23.0665 50.7507C23.2132 50.2449 23.8173 49.1725 24.1194 48.5621C24.7235 47.3938 25.0774 46.7311 25.1809 46.1208C25.3794 45.2576 26.0353 39.9127 26.2856 37.6806C26.9415 38.5438 27.8477 39.9737 27.6406 40.8893C29.0991 38.8054 28.0462 36.7651 27.537 35.9542C27.0882 35.1433 26.4841 33.5128 26.9847 31.7864C27.4852 30.06 29.2976 25.2732 29.2976 25.2732C29.2976 25.2732 29.9018 26.3457 30.7562 26.1364C31.6106 25.9359 38.5063 15.4554 38.5063 15.4554C38.5063 15.4554 40.3705 19.5709 38.4028 22.579C36.3919 25.5784 34.4241 26.1364 34.4241 26.1364C34.4241 26.1364 37.1945 26.6421 39.7577 24.7588C40.8107 27.2525 41.8204 29.8421 41.8722 30.1995C41.7169 30.557 39.706 35.4398 39.5075 35.7449C39.4039 35.8496 38.7048 36.0501 38.1956 36.1547C37.3412 36.4076 36.8407 36.5645 36.6335 36.7128C36.2797 37.0179 34.6658 41.4909 33.9149 43.6794C33.0087 43.9323 32.1025 44.4467 31.4466 45.4581C31.8005 45.2053 32.9052 45.0483 33.7164 44.9524C34.4241 44.9001 36.5817 46.0685 37.1427 48.257V48.3616C37.2549 49.1638 37.0046 49.9311 36.599 50.5414ZM31.8695 51.1517C32.3269 50.4891 32.2751 49.373 32.3269 49.0155C32.3787 48.6581 32.4736 47.9954 32.8793 47.8995C33.2849 47.7949 34.2429 47.9518 34.2429 48.6581C34.2429 49.3207 33.5352 49.4689 33.0346 49.9311C32.6721 50.2798 31.9644 51.0471 31.8695 51.1517ZM51.9526 41.4299C52.4531 38.8403 52.5049 36.5994 52.3582 34.7684C54.3173 37.4103 55.5256 40.619 55.8794 43.9235C55.9312 44.3333 56.3282 44.7344 56.7338 45.1442C57.0877 45.4494 57.4933 45.8592 57.4933 46.1121C57.4933 47.2804 57.3897 48.4488 57.1912 49.6259C57.1395 49.7741 56.6907 50.0357 56.3368 50.2362C55.8363 50.4891 55.3789 50.7419 55.2839 51.1517C54.1792 55.0667 51.8058 58.5282 48.6385 60.9695C53.3162 56.0345 55.5774 47.8908 51.9526 41.4299ZM48.7852 61.4229C52.0561 58.8769 54.5762 55.3195 55.6809 51.3C55.7327 51.1517 56.1815 50.8902 56.4835 50.6896C56.9841 50.4368 57.4933 50.1316 57.5882 49.7218C57.7867 48.5534 57.8903 47.3327 57.8903 46.1121C57.8903 45.6587 57.4329 45.1965 56.9841 44.7431C56.7338 44.438 56.3282 44.0805 56.3282 43.8276C55.9226 40.1133 54.464 36.6081 52.2028 33.7047C51.1931 27.6012 47.1713 25.7179 47.0677 25.6656C47.1713 25.8225 49.7863 29.6328 47.9739 34.1057C46.1098 38.631 41.3285 37.9247 40.9229 37.9683C40.5172 37.9683 38.9637 39.9999 36.996 43.7666C36.7457 43.662 35.6842 43.4091 34.4759 43.6184C35.3821 41.0724 36.7457 37.4626 36.996 37.1575C37.0996 37.0528 37.8504 36.8523 38.3596 36.7041C39.3176 36.4512 39.7664 36.2943 39.9217 36.0937C40.0253 35.9368 40.5259 34.7684 41.0264 33.5477C41.4838 33.5477 42.6403 33.4431 42.7352 33.3908C42.8388 33.2861 43.7968 30.8012 43.7968 30.496C43.7968 30.2431 41.8291 25.3081 41.0782 23.4247C41.4321 23.0149 41.7859 22.5092 42.1311 21.9512C52.4531 23.076 60.514 31.9259 60.514 42.6505C60.514 50.8902 55.7327 58.0661 48.7852 61.4229Z" fill="#1B314F"/>
<path d="M35.3908 33.9576C36.3488 32.8415 35.8482 30.7576 34.079 30.4001C34.5364 29.3364 35.1837 27.2002 35.1837 27.2002C35.1837 27.2002 30.0486 35.3352 29.5998 35.4921C29.1424 35.6491 28.6936 33.8617 28.6936 33.8617C27.7356 37.576 30.3075 38.0817 30.6096 36.9134C32.0163 36.5472 34.4329 35.0213 35.3908 33.9576Z" fill="#1B314F"/>
<path d="M31.0065 35.9369L33.6215 31.4116C33.6215 31.4116 35.1318 32.1789 34.3723 33.3996C33.423 34.8208 31.0065 35.9369 31.0065 35.9369Z" fill="#FFD923"/>
<path d="M63.3793 56.8978C62.6199 57.9179 61.7655 58.9817 60.7643 60.0018C67.2544 47.3851 61.0664 35.8409 60.8161 35.3875C61.2735 35.8497 61.7223 36.3554 62.1279 36.8088C67.1077 42.3978 67.7118 50.7943 63.3793 56.8978ZM69.4207 40.6714C67.1509 34.5156 63.9317 29.2754 56.8375 24.5496C49.9935 19.972 42.6404 20.3295 42.2348 20.3818H42.1312C42.3815 20.2772 42.6318 20.2249 42.882 20.1813C44.4441 19.6756 46.455 19.2658 48.4746 19.0129C53.8168 18.2369 59.2022 20.0679 62.8788 23.9916L62.9823 24.0962C67.1595 28.5691 69.3257 34.1581 69.4207 40.6714ZM55.2236 15.4904C47.7237 14.0691 42.8907 14.7754 39.4126 16.1007C39.309 15.6909 38.9552 14.88 38.6531 14.2174C37.6088 15.4904 36.4955 17.0162 35.7964 17.9841C33.8805 19.3094 33.0778 20.5824 33.0778 20.5824C34.1825 16.7634 37.4103 13.9209 41.3372 13.2059C42.4419 13.0054 43.6501 12.9008 44.962 12.9008C48.4314 12.9531 51.9009 13.8163 55.2236 15.4904ZM27.4853 25.2559C21.5994 25.0553 23.5585 18.1323 23.662 17.7312C23.662 17.7835 24.059 23.172 27.4853 25.2559ZM33.2763 12.7961C28.7454 15.5427 29.6516 22.0995 29.6516 22.0995C25.3191 15.4468 32.9225 12.9531 33.2763 12.7961Z" fill="#D82122"/>
<path d="M25.8283 27.0868C26.1303 27.3397 26.4324 27.8018 26.0786 28.4645C25.8801 28.822 25.578 28.7696 25.1206 28.5691C24.5165 28.2639 20.8917 26.1277 17.6207 23.9392C21.3491 25.2645 25.1206 26.6858 25.7247 26.9909C25.7247 26.9909 25.7765 27.0432 25.8283 27.0868Z" fill="white"/>
</g>
<defs>
<clipPath id="clip0_160_76">
<rect width="61" height="58" fill="white" transform="translate(10 11)"/>
</clipPath>
</defs>
</svg>
