<svg width="80" height="80" viewBox="0 0 80 80" fill="none" xmlns="http://www.w3.org/2000/svg">
<rect width="80" height="80" rx="12" fill="#356DF3"/>
<g clip-path="url(#clip0_162_130)">
<path d="M68.0297 18.2083L45.1412 6.1175C42.3303 4.62959 38.9799 4.62959 36.169 6.10499L13.0421 18.2458C9.55361 20.3339 6.29099 22.7971 6.15295 29.974V35.763H15.1503V27.8485L40.6615 14.2947L65.9843 27.8485V35.763H74.9816V29.974C74.831 22.7596 71.5434 20.3089 68.0297 18.2083Z" fill="white"/>
<path d="M65.9717 53.7931L45.1538 65.4086V56.0312C52.4695 54.3182 57.2883 48.3791 57.2883 40.4393C57.2883 30.8118 50.6124 24.3474 40.6615 24.3474C30.7105 24.3474 24.0346 30.8118 24.0346 40.4393C24.0346 48.3915 28.8407 54.3182 36.169 56.0312V65.4212L15.1628 53.7931V45.1407H6.15295V50.9173C6.30354 58.0818 9.55361 60.5574 13.0421 62.6455L36.169 74.7863C38.9799 76.2617 42.3429 76.2617 45.1412 74.7739L68.0173 62.6829C71.5308 60.5949 74.831 58.1318 74.9692 50.9173V45.1407H65.9717V53.7931ZM32.3919 40.4393C32.3919 35.163 35.3282 32.2621 40.6615 32.2621C45.9946 32.2621 48.931 35.163 48.931 40.4393C48.931 45.5534 45.844 48.6167 40.6615 48.6167C35.4788 48.6167 32.3919 45.5657 32.3919 40.4393Z" fill="white"/>
</g>
<defs>
<clipPath id="clip0_162_130">
<rect width="69" height="71" fill="white" transform="translate(6 5)"/>
</clipPath>
</defs>
</svg>
