<svg width="80" height="81" viewBox="0 0 80 81" fill="none" xmlns="http://www.w3.org/2000/svg">
<rect width="80" height="80" rx="12" fill="#2D374B"/>
<path d="M30.1002 61.2945C30.2173 61.3507 30.3483 61.3963 30.4642 61.4631C33.3176 63.102 36.1734 64.7409 39.0175 66.4032C39.6834 66.7907 40.2885 66.7907 40.9498 66.4032C43.2988 65.0207 45.6594 63.6592 48.0154 62.2884C48.143 62.2146 48.2636 62.1303 48.3876 62.0542C49.8471 61.2149 51.3136 60.3791 52.7649 59.5327C53.8709 58.8912 54.9688 58.2368 56.0701 57.5882L58.2213 56.3426C59.5321 55.5876 60.8395 54.8278 62.1562 54.0809C62.4213 53.9441 62.6429 53.7359 62.7962 53.4799C62.9494 53.2238 63.0281 52.9301 63.0234 52.6317C63.0421 51.303 63.0234 49.9743 63.0234 48.6444C63.0234 48.4969 63.0351 48.3483 63.0351 48.2008L63.0351 28.0925C63.0351 27.1969 62.6934 26.5706 61.8975 26.1082C54.9188 22.0944 47.9437 18.0713 40.972 14.0388C40.2546 13.6244 39.5558 13.6197 38.8407 14.0388C31.8675 18.0877 24.8927 22.1331 17.9164 26.1749C17.1521 26.6163 16.801 27.2203 16.8045 28.103C16.8217 34.4105 16.8299 40.7179 16.8291 47.0254C16.8291 47.235 16.8385 47.4445 16.8432 47.6541L16.883 47.7489C16.1538 48.8868 15.4293 50.0281 14.6943 51.1625C14.2121 51.9047 13.7147 52.6364 13.2243 53.3727L13.1318 53.3598L13.1318 27.9485C13.1318 25.7348 14.1454 24.0853 16.0578 22.9814C18.9604 21.3027 21.8618 19.622 24.762 17.9394C28.3973 15.8322 32.0329 13.7215 35.669 11.6073C36.3291 11.2245 36.9693 10.7879 37.6668 10.4882C39.4435 9.72025 41.178 9.88062 42.8552 10.8499C47.955 13.8086 53.0587 16.7566 58.1663 19.6942C60.1091 20.8157 62.0578 21.9278 63.9948 23.061C64.6104 23.4061 65.1508 23.8709 65.5841 24.428C66.0175 24.9851 66.3351 25.6232 66.5182 26.3049C66.6656 26.8202 66.7443 27.3528 66.7523 27.8888C66.7663 36.074 66.7663 44.2592 66.7523 52.4444C66.7523 54.1676 66.1261 55.666 64.7509 56.743C64.0674 57.278 63.2645 57.6631 62.5084 58.1033C58.4433 60.4719 54.3726 62.8378 50.2965 65.201C47.6046 66.7603 44.9315 68.3348 42.229 69.8672C41.3711 70.353 40.4184 70.4631 39.4201 70.3706C38.1443 70.2535 37.1401 69.5581 36.0891 68.9576C33.5084 67.4849 30.9394 65.9923 28.3645 64.5091C28.3119 64.4787 28.2639 64.4389 28.2135 64.4038C28.7238 63.5328 29.2306 62.6595 29.7444 61.792C29.8486 61.6129 29.9808 61.456 30.1002 61.2945Z" fill="white"/>
<path d="M30.0989 61.2942C29.9819 61.4605 29.8473 61.6173 29.7478 61.7929C29.234 62.6604 28.7272 63.5337 28.2169 64.4047C26.9471 63.6812 25.6737 62.9612 24.405 62.2343C23.375 61.6489 22.3497 61.0496 21.3022 60.4443C21.685 59.7946 22.0501 59.1707 22.4223 58.5502C23.7612 56.3213 25.1029 54.0975 26.4473 51.8787C27.6657 49.8675 28.8934 47.8622 30.1118 45.851C32.0867 42.5911 34.058 39.3293 36.0258 36.0655C37.6597 33.3637 39.2959 30.6626 40.9344 27.9623C41.0093 27.8393 41.1826 27.6954 41.3101 27.6942C44.1191 27.679 46.9374 27.6825 49.8166 27.6825C49.7499 27.7995 49.6995 27.9026 49.641 27.9997L44.8365 36.1393C43.1816 38.9488 41.5395 41.7783 39.8846 44.5949C36.6886 50.0306 33.4923 55.464 30.2956 60.895C30.2207 61.0215 30.1633 61.1573 30.0989 61.2942Z" fill="#FEFEFE"/>
<path d="M13.2265 53.3809C13.7169 52.6446 14.2143 51.9129 14.6965 51.1707C15.4315 50.0364 16.156 48.895 16.8851 47.7571L16.9027 47.6845C17.7114 46.4401 18.5249 45.1992 19.3289 43.9513C21.7844 40.1404 24.2368 36.3308 26.686 32.5222C27.0769 31.9147 27.4854 31.3165 27.8564 30.696C28.6453 29.379 29.8356 28.6052 31.2506 28.1206C32.8201 27.5868 34.4458 27.5622 36.0773 27.5985C36.8743 27.616 37.6714 27.6675 38.5199 27.705L18.9919 59.1089L16.0436 57.4033C15.1389 56.88 14.2307 56.3602 13.3307 55.8287C13.2778 55.7981 13.232 55.7566 13.1962 55.7069C13.1605 55.6573 13.1358 55.6007 13.1235 55.5408C13.1118 54.8747 13.1235 54.2086 13.1352 53.5436L13.2265 53.3809Z" fill="#FEFEFE"/>
<path d="M63.028 48.6386C63.028 49.9685 63.0467 51.2972 63.028 52.6259C63.032 52.9237 62.953 53.2167 62.7998 53.472C62.6466 53.7274 62.4253 53.935 62.1608 54.0716C60.8441 54.8185 59.5367 55.5782 58.2259 56.3333L48.906 41.2108C48.2331 40.1186 47.5542 39.0311 46.8941 37.933C46.8554 37.8652 46.8319 37.7897 46.8252 37.7119C46.8185 37.6341 46.8289 37.5557 46.8555 37.4823C48.2494 35.0825 49.6645 32.6908 51.0689 30.2992C51.0998 30.2583 51.1331 30.2192 51.1684 30.1821C51.2562 30.3132 51.3381 30.4303 51.4154 30.5509L62.7939 48.3132C62.8642 48.4256 62.9484 48.5344 63.028 48.6386Z" fill="white"/>
<path d="M56.0712 57.5799C54.9699 58.2284 53.872 58.8828 52.766 59.5243C51.31 60.3707 49.8482 61.2066 48.3887 62.0459C46.9179 59.7226 45.4464 57.3988 43.974 55.0747C42.7467 53.1345 41.515 51.1991 40.2791 49.2683C40.1492 49.0669 40.1269 48.9171 40.2545 48.7028C41.8439 46.0174 43.4274 43.3284 45.0051 40.6359C45.0473 40.5621 45.0988 40.4942 45.1666 40.3936C45.2339 40.4676 45.2964 40.5458 45.3539 40.6277L56.0045 57.4523C56.0267 57.4921 56.0478 57.5366 56.0712 57.5799Z" fill="white"/>
<path d="M14.7868 54.9377L14.6943 55.1004L14.6943 54.9248L14.7868 54.9377Z" fill="#718EA9"/>
<path d="M18.4734 49.2447L18.4525 49.3173L18.4053 49.2225C18.4179 49.2207 18.4309 49.2219 18.4429 49.2258C18.4549 49.2297 18.4654 49.2362 18.4734 49.2447Z" fill="#4D627A"/>
</svg>
