<svg width="80" height="81" viewBox="0 0 80 81" fill="none" xmlns="http://www.w3.org/2000/svg">
<rect width="80" height="80" rx="12" fill="#70D44B"/>
<path d="M40.0002 16.5184C42.1113 16.5184 44.028 17.7128 44.9724 19.6017L60.5835 50.8517C61.9446 53.6017 60.8335 56.9351 58.0835 58.2962C57.3057 58.6851 56.4724 58.8795 55.6113 58.8795L24.3891 58.8795C21.3335 58.8795 18.8335 56.3795 18.8335 53.3239C18.8335 52.4628 19.028 51.6017 19.4168 50.8517L35.028 19.6017C35.9724 17.6851 37.8891 16.4906 40.0002 16.5184ZM40.0002 12.6851C36.4446 12.6851 33.1946 14.6851 31.6113 17.8795L16.0002 49.1295C13.6946 53.7684 15.5557 59.3795 20.1946 61.7128C21.5002 62.3517 22.9446 62.7128 24.3891 62.7128L55.6391 62.7128C60.8057 62.7128 65.028 58.5184 65.028 53.3517C65.028 51.9073 64.6946 50.4628 64.028 49.1573L48.3891 17.8795C46.8057 14.6851 43.5557 12.6851 40.0002 12.6851Z" fill="white"/>
</svg>
