<svg width="80" height="81" viewBox="0 0 80 81" fill="none" xmlns="http://www.w3.org/2000/svg">
<rect width="80" height="80" rx="12" fill="#E74142"/>
<path d="M21.5881 59.0481C19.8261 59.0481 18.064 59.0633 16.3076 59.0377C15.8032 59.0352 15.3016 58.961 14.8179 58.8174C13.5725 58.4283 12.9863 57.3496 13.3226 56.0836C13.4538 55.6098 13.6452 55.1547 13.8921 54.7295C21.4506 41.4446 29.0173 28.1629 36.5924 14.8845C36.9079 14.3303 37.2203 13.7634 37.6159 13.2685C38.2062 12.531 38.9815 12.0585 39.9586 12.3676C40.4063 12.5094 40.8236 12.8281 41.1824 13.1476C41.4723 13.4054 41.683 13.769 41.88 14.1133C43.674 17.2443 45.5065 20.3546 47.2301 23.524C48.7766 26.3708 48.8103 29.3337 47.2061 32.1548C42.9137 39.7024 38.5728 47.2214 34.1832 54.7119C32.5397 57.5146 29.9504 58.9191 26.7083 59.0361C25.0032 59.0985 23.2948 59.0481 21.5881 59.0481Z" fill="#FEFEFE"/>
<path d="M54.7951 59.0465C52.2225 59.0465 49.6484 59.0617 47.0759 59.0337C46.504 59.033 45.936 58.9397 45.3939 58.7574C44.2767 58.365 43.7521 57.3497 44.0324 56.1997C44.1418 55.7477 44.3141 55.3131 44.5442 54.9089C47.1888 50.3023 49.846 45.7024 52.5157 41.1091C52.793 40.64 53.1478 40.2212 53.5649 39.8703C54.3658 39.1977 55.3589 39.1865 56.171 39.8415C56.5862 40.1734 56.9376 40.578 57.2082 41.0354C59.8779 45.6746 62.5319 50.3226 65.1701 54.9794C65.5585 55.6632 65.798 56.3975 65.6306 57.1991C65.4288 58.1697 64.6167 58.8367 63.4682 58.9808C63.1376 59.0221 62.8049 59.0429 62.4718 59.0433C59.9142 59.0492 57.3553 59.0502 54.7951 59.0465Z" fill="#FEFDFD"/>
</svg>
