<svg width="80" height="80" viewBox="0 0 80 80" fill="none" xmlns="http://www.w3.org/2000/svg">
<rect width="80" height="80" rx="12" fill="black"/>
<g clip-path="url(#clip0_160_96)">
<g filter="url(#filter0_d_160_96)">
<path d="M43.4865 35.2628L61.8019 16.9478L54.8534 10L40.0127 24.8406L25.172 10L18.224 16.9478L36.5389 35.2628C37.4982 36.2219 38.7555 36.7017 40.0127 36.7017C41.27 36.7017 42.5272 36.2223 43.4865 35.2628ZM70 54.8283L55.1593 39.9876L70 25.1466L63.0519 18.1988L44.7374 36.5138C44.2816 36.9687 43.9197 37.5099 43.6728 38.1061C43.4259 38.7023 43.2988 39.3418 43.2988 39.9876C43.2988 40.6335 43.4259 41.273 43.6728 41.8692C43.9197 42.4654 44.2816 43.0066 44.7374 43.4615L63.0519 61.7765L70 54.8283ZM39.9873 55.1594L54.828 70L61.7756 63.0522L43.4611 44.7372C41.542 42.8186 38.4322 42.8186 36.513 44.7372L18.1985 63.0522L25.1466 70L39.9873 55.1594ZM35.2626 43.4867C36.1842 42.5651 36.7016 41.3158 36.7016 40.0128C36.7016 38.7098 36.1842 37.4601 35.2626 36.5389L16.9481 18.2239L10 25.1721L24.8407 40.0128L10 54.8539L16.9481 61.8016L35.2626 43.4867Z" fill="white"/>
</g>
</g>
<defs>
<filter id="filter0_d_160_96" x="7.018" y="7.018" width="65.964" height="65.964" filterUnits="userSpaceOnUse" color-interpolation-filters="sRGB">
<feFlood flood-opacity="0" result="BackgroundImageFix"/>
<feColorMatrix in="SourceAlpha" type="matrix" values="0 0 0 0 0 0 0 0 0 0 0 0 0 0 0 0 0 0 127 0" result="hardAlpha"/>
<feOffset/>
<feGaussianBlur stdDeviation="1.491"/>
<feColorMatrix type="matrix" values="0 0 0 0 0 0 0 0 0 0 0 0 0 0 0 0 0 0 0.13 0"/>
<feBlend mode="normal" in2="BackgroundImageFix" result="effect1_dropShadow_160_96"/>
<feBlend mode="normal" in="SourceGraphic" in2="effect1_dropShadow_160_96" result="shape"/>
</filter>
<clipPath id="clip0_160_96">
<rect width="60" height="60" fill="white" transform="translate(10 10)"/>
</clipPath>
</defs>
</svg>
