<svg width="80" height="80" viewBox="0 0 80 80" fill="none" xmlns="http://www.w3.org/2000/svg">
<rect width="80" height="80" rx="12" fill="#181A1F"/>
<path d="M29.521 69.3094L28.9869 68.7624C28.8379 68.9024 28.6871 69.0129 28.5345 69.0939C28.3855 69.175 28.202 69.2155 27.984 69.2155C27.8205 69.2155 27.6697 69.1842 27.5316 69.1215C27.3971 69.0552 27.2809 68.9669 27.1828 68.8564C27.0883 68.7459 27.0138 68.6169 26.9593 68.4696C26.9048 68.3223 26.8775 68.1657 26.8775 68V67.989C26.8775 67.8232 26.9048 67.6685 26.9593 67.5249C27.0138 67.3775 27.0901 67.2486 27.1882 67.1381C27.2863 67.0276 27.4026 66.9411 27.537 66.8785C27.6751 66.8158 27.8241 66.7845 27.984 66.7845C28.1766 66.7845 28.3492 66.8232 28.5018 66.9006C28.658 66.9779 28.8106 67.0847 28.9596 67.221L29.4938 66.5967C29.4065 66.5083 29.3121 66.4273 29.2103 66.3536C29.1086 66.2799 28.9978 66.2173 28.8778 66.1657C28.7579 66.1142 28.6235 66.0737 28.4745 66.0442C28.3292 66.0147 28.1675 66 27.9894 66C27.6951 66 27.4262 66.0534 27.1828 66.1602C26.9393 66.2634 26.7304 66.407 26.5559 66.5912C26.3815 66.7716 26.2453 66.9834 26.1472 67.2265C26.0491 67.4659 26 67.7238 26 68V68.011C26 68.2873 26.0491 68.547 26.1472 68.7901C26.2453 69.0331 26.3815 69.2449 26.5559 69.4254C26.7304 69.6022 26.9375 69.7422 27.1773 69.8453C27.4171 69.9484 27.6769 70 27.9567 70C28.142 70 28.3092 69.9834 28.4582 69.9503C28.6071 69.9208 28.7434 69.8766 28.8669 69.8177C28.9941 69.7551 29.1104 69.6814 29.2158 69.5967C29.3212 69.512 29.4229 69.4162 29.521 69.3094Z" fill="#F3BA2F"/>
<path d="M34.0791 68V67.989C34.0791 67.7127 34.0283 67.4549 33.9265 67.2155C33.8284 66.9724 33.6885 66.7624 33.5068 66.5856C33.3288 66.4052 33.1162 66.2634 32.8691 66.1602C32.622 66.0534 32.3513 66 32.057 66C31.7627 66 31.4902 66.0534 31.2394 66.1602C30.9923 66.2634 30.778 66.407 30.5963 66.5912C30.4182 66.7716 30.2783 66.9834 30.1766 67.2265C30.0749 67.4659 30.024 67.7238 30.024 68V68.011C30.024 68.2873 30.073 68.547 30.1711 68.7901C30.2729 69.0295 30.4128 69.2394 30.5908 69.4199C30.7725 69.5967 30.9869 69.7385 31.234 69.8453C31.4811 69.9484 31.7518 70 32.0461 70C32.3404 70 32.6111 69.9484 32.8582 69.8453C33.1089 69.7385 33.3233 69.5948 33.5014 69.4144C33.6831 69.2302 33.8248 69.0184 33.9265 68.779C34.0283 68.5359 34.0791 68.2762 34.0791 68ZM33.2016 68.011C33.2016 68.1768 33.1725 68.3333 33.1144 68.4807C33.0599 68.6243 32.9818 68.7514 32.88 68.8619C32.7819 68.9724 32.662 69.0589 32.5203 69.1215C32.3786 69.1842 32.2242 69.2155 32.057 69.2155C31.8862 69.2155 31.73 69.1842 31.5883 69.1215C31.4502 69.0552 31.3285 68.9669 31.2231 68.8564C31.1213 68.7459 31.0414 68.6169 30.9833 68.4696C30.9288 68.3223 30.9015 68.1657 30.9015 68V67.989C30.9015 67.8232 30.9288 67.6685 30.9833 67.5249C31.0414 67.3775 31.1195 67.2486 31.2176 67.1381C31.3194 67.0276 31.4393 66.9411 31.5774 66.8785C31.7191 66.8158 31.8753 66.7845 32.0461 66.7845C32.2133 66.7845 32.3677 66.8177 32.5094 66.884C32.6511 66.9466 32.7728 67.0331 32.8746 67.1436C32.98 67.2541 33.0599 67.3831 33.1144 67.5304C33.1725 67.6777 33.2016 67.8343 33.2016 68V68.011Z" fill="#F3BA2F"/>
<path d="M38.2139 69.9337V66.0663H37.3854V68.4475L35.5977 66.0663H34.8237V69.9337H35.6522V67.4751L37.4999 69.9337H38.2139Z" fill="#F3BA2F"/>
<path d="M42.52 69.9337V66.0663H41.6915V68.4475L39.9038 66.0663H39.1298V69.9337H39.9583V67.4751L41.806 69.9337H42.52Z" fill="#F3BA2F"/>
<path d="M46.341 69.9337V69.1768H44.2698V68.3646H46.0685V67.6077H44.2698V66.8232H46.3137V66.0663H43.4359V69.9337H46.341Z" fill="#F3BA2F"/>
<path d="M50.4393 69.3094L49.9052 68.7624C49.7562 68.9024 49.6054 69.0129 49.4528 69.0939C49.3038 69.175 49.1203 69.2155 48.9023 69.2155C48.7388 69.2155 48.588 69.1842 48.4499 69.1215C48.3154 69.0552 48.1992 68.9669 48.1011 68.8564C48.0066 68.7459 47.9321 68.6169 47.8776 68.4696C47.8231 68.3223 47.7958 68.1657 47.7958 68V67.989C47.7958 67.8232 47.8231 67.6685 47.8776 67.5249C47.9321 67.3775 48.0084 67.2486 48.1065 67.1381C48.2046 67.0276 48.3209 66.9411 48.4553 66.8785C48.5934 66.8158 48.7424 66.7845 48.9023 66.7845C49.0949 66.7845 49.2675 66.8232 49.4201 66.9006C49.5763 66.9779 49.7289 67.0847 49.8779 67.221L50.4121 66.5967C50.3249 66.5083 50.2304 66.4273 50.1286 66.3536C50.0269 66.2799 49.9161 66.2173 49.7962 66.1657C49.6762 66.1142 49.5418 66.0737 49.3928 66.0442C49.2475 66.0147 49.0858 66 48.9077 66C48.6134 66 48.3445 66.0534 48.1011 66.1602C47.8576 66.2634 47.6487 66.407 47.4743 66.5912C47.2998 66.7716 47.1636 66.9834 47.0655 67.2265C46.9674 67.4659 46.9183 67.7238 46.9183 68V68.011C46.9183 68.2873 46.9674 68.547 47.0655 68.7901C47.1636 69.0331 47.2998 69.2449 47.4743 69.4254C47.6487 69.6022 47.8558 69.7422 48.0956 69.8453C48.3354 69.9484 48.5952 70 48.875 70C49.0603 70 49.2275 69.9834 49.3765 69.9503C49.5254 69.9208 49.6617 69.8766 49.7853 69.8177C49.9124 69.7551 50.0287 69.6814 50.1341 69.5967C50.2395 69.512 50.3412 69.4162 50.4393 69.3094Z" fill="#F3BA2F"/>
<path d="M54 66.8508V66.0663H50.8387V66.8508H51.9997V69.9337H52.839V66.8508H54Z" fill="#F3BA2F"/>
<g clip-path="url(#clip0_6739_108563)">
<path d="M30.4217 30.9461L40.1021 21.2661L49.7875 30.9512L55.4202 25.3185L40.1021 10L24.7891 25.3134L30.4217 30.9461Z" fill="#F3BA2F"/>
<path d="M26.4441 34.9226L20.8115 29.29L15.1787 34.9229L20.8112 40.5555L26.4441 34.9226Z" fill="#F3BA2F"/>
<path d="M30.4217 38.9007L40.102 48.5806L49.7871 38.896L55.4229 44.5255L55.4201 44.5287L40.102 59.8468L24.7886 44.5338L24.7808 44.5259L30.4217 38.9007Z" fill="#F3BA2F"/>
<path d="M59.393 40.5582L65.0259 34.9253L59.3933 29.2927L53.7604 34.9256L59.393 40.5582Z" fill="#F3BA2F"/>
<path d="M45.8152 34.9203L45.8176 34.9203L40.1018 29.2046L35.8778 33.4286L35.8774 33.4286L35.3924 33.914L34.3912 34.9152L34.3833 34.9231L34.3912 34.9314L40.1018 40.642L45.8176 34.9262L45.8203 34.9231L45.8152 34.9203Z" fill="#F3BA2F"/>
</g>
<defs>
<clipPath id="clip0_6739_108563">
<rect width="50" height="50" fill="white" transform="translate(15 10)"/>
</clipPath>
</defs>
</svg>
