<svg width="80" height="80" viewBox="0 0 80 80" fill="none" xmlns="http://www.w3.org/2000/svg">
<rect width="80" height="80" rx="12" fill="#181A1F"/>
<g clip-path="url(#clip0_6701_86593)">
<path d="M29.272 35.4596L40.1139 24.6181L50.9616 35.4653L57.2702 29.1567L40.1139 12L22.9634 29.151L29.272 35.4596Z" fill="#F3BA2F"/>
<path d="M24.8173 39.9135L18.5088 33.605L12.2 39.9138L18.5085 46.2223L24.8173 39.9135Z" fill="#F3BA2F"/>
<path d="M29.272 44.3691L40.1139 55.2106L50.9612 44.3638L57.2733 50.6688L57.2702 50.6724L40.1139 67.8286L22.9629 50.6781L22.9541 50.6693L29.272 44.3691Z" fill="#F3BA2F"/>
<path d="M61.7205 46.2248L68.0293 39.916L61.7208 33.6075L55.412 39.9163L61.7205 46.2248Z" fill="#F3BA2F"/>
<path d="M46.5132 39.9109L46.5158 39.9109L40.1142 33.5093L35.3833 38.2402L35.3829 38.2402L34.8396 38.7839L33.7183 39.9052L33.7095 39.914L33.7183 39.9233L40.1142 46.3192L46.5158 39.9175L46.5189 39.914L46.5132 39.9109Z" fill="#F3BA2F"/>
</g>
<defs>
<clipPath id="clip0_6701_86593">
<rect width="56" height="56" fill="white" transform="translate(12 12)"/>
</clipPath>
</defs>
</svg>
