<svg width="80" height="80" viewBox="0 0 80 80" fill="none" xmlns="http://www.w3.org/2000/svg">
<g clip-path="url(#clip0_6722_89777)">
<path d="M68 1.48619e-06L12 2.62268e-07C5.37258 1.17422e-07 -1.17422e-07 5.37258 -2.62268e-07 12L-1.48619e-06 68C-1.63103e-06 74.6274 5.37258 80 12 80L68 80C74.6274 80 80 74.6274 80 68L80 12C80 5.37259 74.6274 1.63103e-06 68 1.48619e-06Z" fill="#102749"/>
<path d="M40 69.9996C56.5685 69.9996 70 56.5684 70 39.9999C70 23.4314 56.5685 10 40 10C23.4314 10 10 23.4314 10 39.9999C10 56.5684 23.4314 69.9996 40 69.9996Z" fill="white"/>
<path d="M63.2382 21.2793C61.1577 21.6905 59.1737 22.2712 57.5407 22.6341C53.815 23.4688 50.331 26.3236 49.569 31.5494C48.8915 36.2186 50.464 38.2268 49.7745 43.658C48.565 53.142 39.4682 56.408 35.2222 58.392C32.7666 59.529 26.8028 62.142 22.2061 64.138C27.1899 67.8152 33.3351 69.9927 40.0005 69.9927C56.573 69.9927 70.0002 56.5653 70.0002 39.9928C70.0002 32.9284 67.5567 26.4325 63.468 21.3155C63.3955 21.3035 63.323 21.2914 63.2382 21.2793Z" fill="url(#paint0_linear_6722_89777)"/>
<path d="M36.625 35.5967C38.9355 30.6007 38.1007 30.5886 39.8548 25.8951C42.0685 19.9435 48.9515 21.637 50.8507 21.8911C53.9837 22.3145 54.8065 21.2016 61.4113 20.137C61.7378 20.0887 62.0522 20.0403 62.367 20.004C56.875 13.8709 48.891 10 40 10C28.0605 10 17.754 16.9677 12.9274 27.0685C22.8226 29.5241 33.504 34.8587 36.625 35.5967ZM30.0685 15.2258C30.9395 15.3588 35.1732 20.6209 35.9717 34.1329C35.9717 34.1329 30.5282 32.8265 29.3548 30.0201C28.3871 27.7096 29.6451 24.6733 30.0685 15.2258ZM63.4193 21.262C63.4315 21.2862 63.4555 21.2983 63.4678 21.3225C63.395 21.3104 63.3105 21.3104 63.2377 21.2983C63.2982 21.2742 63.3588 21.2742 63.4193 21.262ZM10 39.9999C10 37.6047 10.2782 35.2822 10.8105 33.0563C11.8992 33.9636 13.0605 34.9676 14.2944 36.1169C22.1089 43.3627 34.8226 49.0844 39.4555 43.7619C39.4678 43.7739 39.4797 43.7739 39.4797 43.7861C38.633 44.8989 35.4032 48.4191 29.2339 47.3304L19.4839 61.8828C13.6532 56.4151 10 48.6369 10 39.9999Z" fill="url(#paint1_linear_6722_89777)"/>
</g>
<defs>
<linearGradient id="paint0_linear_6722_89777" x1="58.0167" y1="29.1366" x2="50.9393" y2="68.1277" gradientUnits="userSpaceOnUse">
<stop stop-color="#FF496A"/>
<stop offset="1" stop-color="#E42648"/>
</linearGradient>
<linearGradient id="paint1_linear_6722_89777" x1="24.4801" y1="54.1916" x2="40.1287" y2="9.99996" gradientUnits="userSpaceOnUse">
<stop offset="0.00181229" stop-color="#1158F1"/>
<stop offset="1" stop-color="#119BED"/>
</linearGradient>
<clipPath id="clip0_6722_89777">
<rect width="80" height="80" fill="white"/>
</clipPath>
</defs>
</svg>
