<svg width="80" height="81" viewBox="0 0 80 81" fill="none" xmlns="http://www.w3.org/2000/svg">
<rect width="80" height="80" rx="12" fill="#EFB90C"/>
<path d="M35.4936 48.7382C35.4936 47.1843 35.4857 45.6304 35.4936 44.0752C35.4936 43.53 35.3488 43.1718 34.8141 42.8702C32.9942 41.8431 31.2256 40.7264 29.4241 39.6636C28.4864 39.1106 27.5067 38.6259 26.5822 38.0518C26.3333 37.8964 26.0752 37.525 26.0673 37.2472C26.0212 35.5853 26.0278 33.9208 26.0673 32.2589C26.0835 32.1046 26.1322 31.9556 26.21 31.8215C26.2878 31.6874 26.3931 31.5712 26.519 31.4806C27.9676 30.5733 29.4293 29.7055 30.9082 28.86C31.0231 28.8102 31.1475 28.7858 31.2727 28.7886C31.398 28.7913 31.5212 28.8211 31.6338 28.8758C33.4419 29.8885 35.2303 30.9367 37.0331 31.9678C38.0866 32.5749 39.1401 33.2149 40.2318 33.743C40.5373 33.8892 41.0773 33.8062 41.3946 33.6271C43.6966 32.33 45.9669 30.9789 48.2491 29.6475C48.7403 29.3617 49.2275 29.0668 49.7385 28.8205C49.8339 28.7753 49.9376 28.7502 50.0431 28.7466C50.1487 28.7429 50.2538 28.7609 50.3522 28.7994C51.8218 29.612 53.302 30.41 54.7111 31.3199C55.0219 31.5214 55.1852 32.1377 55.2036 32.5723C55.2655 34.0103 55.2668 35.4536 55.2102 36.8916C55.1944 37.2709 54.9889 37.7897 54.6966 37.9846C53.3191 38.9064 51.8877 39.744 50.4601 40.5894C49.0326 41.4348 47.6077 42.196 46.225 43.073C45.9616 43.2363 45.801 43.7394 45.7983 44.0857C45.7694 47.1962 45.7759 50.3066 45.7983 53.4171C45.7983 53.9162 45.6587 54.2296 45.2202 54.4811C43.8941 55.2436 42.5864 56.0297 41.2774 56.8278C40.8257 57.1056 40.4794 57.0609 40.0224 56.7725C38.7714 55.9823 37.4861 55.2462 36.1837 54.5456C35.6332 54.2493 35.3935 53.9306 35.4225 53.2696C35.4857 51.7618 35.4423 50.2487 35.4423 48.7395L35.4936 48.7382Z" fill="#FEFEFD"/>
<path d="M54.9723 20.5659C54.8014 20.7217 54.6206 20.8664 54.4311 20.9991C53.0589 21.809 51.6867 22.6202 50.2987 23.4011C50.1954 23.4484 50.0831 23.4729 49.9695 23.4729C49.8558 23.4729 49.7435 23.4484 49.6402 23.4011C47.5477 22.1777 45.4749 20.9148 43.3942 19.6757C42.7358 19.2806 42.0773 18.9119 41.411 18.5445C41.1763 18.4023 40.9063 18.3291 40.6319 18.3333C40.3575 18.3375 40.0899 18.4189 39.8597 18.5682C37.9212 19.702 35.9682 20.8068 34.0258 21.938C33.2515 22.3871 32.4995 22.877 31.7147 23.3063C31.5198 23.4129 31.1879 23.4604 31.0036 23.3629C29.7183 22.6636 28.454 21.9262 27.1846 21.1887C26.9239 21.0146 26.6729 20.8265 26.4326 20.6251C27.5678 19.9232 28.6042 19.2595 29.6616 18.6327C31.5593 17.5081 33.4675 16.4045 35.3743 15.2957C37.0441 14.3252 38.714 13.3547 40.3943 12.3986C40.4781 12.3599 40.5693 12.3398 40.6617 12.3398C40.754 12.3398 40.8452 12.3599 40.929 12.3986C42.3012 13.2059 43.6523 14.0513 45.0232 14.8612C46.3572 15.6513 47.711 16.398 49.0516 17.1749C50.7082 18.1336 52.3596 19.1041 54.015 20.0655C54.281 20.2274 54.5562 20.3525 54.9723 20.5659Z" fill="#FEFDFC"/>
<path d="M16.6733 45.7096C16.6733 43.1246 16.6733 40.5409 16.6799 37.9559C16.6799 37.7966 16.7721 37.6359 16.8208 37.4766C16.9967 37.5196 17.1679 37.58 17.3318 37.657C18.4749 38.3286 19.5955 39.0397 20.7557 39.6797C21.3852 40.0273 21.7026 40.4975 21.6999 41.2336C21.6881 43.7357 21.6999 46.2272 21.6999 48.724C21.6999 48.9426 21.7434 49.1743 21.6907 49.3824C21.3746 50.6045 21.9133 51.3274 22.9615 51.9095C25.4241 53.2764 27.8432 54.7236 30.2874 56.1235C30.7628 56.3961 31.0775 56.7358 31.0775 57.3087C31.0775 58.7098 31.092 60.111 31.0867 61.5121C31.0867 62.2311 30.8721 62.347 30.2663 61.9901C27.5746 60.4037 24.882 58.8174 22.1885 57.231C20.4963 56.238 18.787 55.2754 17.1066 54.2614C16.9922 54.1753 16.8977 54.0656 16.8296 53.9397C16.7614 53.8138 16.7211 53.6747 16.7115 53.5319C16.6826 50.9245 16.6931 48.3184 16.6931 45.711L16.6733 45.7096Z" fill="#FEFDFC"/>
<path d="M50.1455 59.532C50.1455 58.788 50.0995 58.0387 50.1679 57.3012C50.1969 56.9773 50.3813 56.5466 50.6354 56.3794C51.8312 55.6262 53.077 54.9506 54.303 54.2448C55.7766 53.3967 57.2304 52.5131 58.7264 51.7085C59.3098 51.395 59.5732 50.9789 59.5719 50.3613C59.5719 47.2535 59.5455 44.1443 59.5719 41.0365C59.5719 40.7231 59.7444 40.2754 59.9854 40.1213C61.2878 39.2864 62.635 38.52 63.9716 37.7378C64.4154 37.4744 64.5787 37.7075 64.5695 38.1328C64.555 38.8979 64.5037 39.6617 64.5023 40.4255C64.4953 43.9942 64.4953 47.5625 64.5023 51.1304C64.5023 51.9205 64.6037 52.7027 64.5445 53.4797C64.5235 53.6649 64.4652 53.8439 64.3731 54.006C64.281 54.1681 64.1569 54.3098 64.0085 54.4225C62.8509 55.1534 61.6381 55.7921 60.4529 56.4861C58.2524 57.7792 56.061 59.0882 53.8684 60.388C52.8004 61.0201 51.7337 61.6548 50.6565 62.2711C50.2456 62.5055 50.1508 62.2079 50.1455 61.8879C50.1337 61.0978 50.1455 60.3076 50.1455 59.5241L50.1455 59.532Z" fill="#FEFDFC"/>
<path d="M21.6854 35.2595C19.9853 34.2429 18.4472 33.3369 16.9314 32.3953C16.7786 32.2992 16.6904 31.9884 16.6891 31.7777C16.6772 30.179 16.7115 28.5804 16.6891 26.9817C16.6891 26.5168 16.7944 26.2258 17.2159 25.9743C18.6262 25.1473 19.9906 24.2413 21.4102 23.4301C21.6735 23.2799 22.1318 23.355 22.4545 23.463C22.8601 23.5947 23.2209 23.8712 23.5975 24.0911C24.4812 24.6087 25.3661 25.1209 26.2313 25.6595C26.3181 25.7123 26.3937 25.7817 26.4535 25.8637C26.5134 25.9457 26.5565 26.0388 26.5803 26.1376C26.5922 26.2587 26.3775 26.4457 26.2247 26.5326C24.8644 27.3227 23.483 28.0799 22.1424 28.903C22.0171 28.9959 21.9131 29.1144 21.8372 29.2506C21.7614 29.3869 21.7155 29.5377 21.7025 29.6931C21.6577 31.3326 21.6749 32.9734 21.6722 34.6143C21.6841 34.7881 21.6854 34.9672 21.6854 35.2595Z" fill="#FEFDFB"/>
<path d="M45.7848 62.4001C45.7848 62.9479 45.7018 63.5116 45.8045 64.0383C45.9678 64.8758 45.5201 65.3196 44.9143 65.6726C43.6356 66.4153 42.3306 67.1145 41.0492 67.8533C40.6937 68.0587 40.4329 68.0074 40.0932 67.7993C39.0001 67.1277 37.8834 66.4956 36.7706 65.8556C35.9094 65.3605 35.2615 64.8153 35.3866 63.6288C35.5183 62.4212 35.4077 61.1886 35.4235 59.9679C35.4235 59.7664 35.5288 59.5662 35.5854 59.3647C35.7855 59.4113 35.9805 59.4774 36.1675 59.5623C37.3027 60.2089 38.4299 60.8673 39.5559 61.5284C39.7047 61.6166 39.8337 61.7404 39.9747 61.8418C40.4329 62.1749 40.8965 62.1763 41.3811 61.8866C42.6111 61.1386 43.8384 60.3866 45.0684 59.6479C45.5319 59.3713 45.7664 59.4938 45.7835 60.0429C45.8072 60.8331 45.7835 61.6232 45.7835 62.4054L45.7848 62.4001Z" fill="#FEFDFB"/>
<path d="M59.5675 35.2063L59.5675 33.8236C59.5675 32.5067 59.611 31.1977 59.5465 29.8887C59.5008 29.4684 59.3059 29.0782 58.9973 28.7892C58.5706 28.402 58.0149 28.1544 57.5079 27.8568C56.6506 27.3538 55.7854 26.8639 54.9307 26.3569C54.5844 26.1501 54.6937 25.9289 54.9729 25.763C56.0027 25.1493 57.0378 24.5462 58.0715 23.9404C58.1282 23.9075 58.2124 23.9088 58.252 23.8667C59.1237 22.912 59.9112 23.4348 60.7396 23.9628C61.7299 24.5949 62.7505 25.1783 63.7684 25.7669C64.3281 26.0909 64.5586 26.4701 64.5177 27.1931C64.4295 28.6496 64.5507 30.1179 64.527 31.5809C64.527 31.9022 64.3624 32.3552 64.12 32.5146C62.9915 33.256 61.8102 33.9171 60.6448 34.6031C60.3432 34.7822 60.0311 34.9521 59.5675 35.2063Z" fill="#FEFDFC"/>
<path d="M40.5733 23.1929C41.1896 23.4879 41.7743 23.7302 42.3221 24.0396C43.2505 24.5664 44.1566 25.1274 45.0652 25.687C45.1969 25.77 45.3721 25.9241 45.3721 26.0452C45.3721 26.1664 45.2101 26.3402 45.0771 26.4205C43.7931 27.1948 42.5078 27.9692 41.2001 28.7013C40.9657 28.833 40.5549 28.8976 40.3442 28.7804C38.9548 28.01 37.5932 27.1869 36.2315 26.3652C35.8615 26.1413 35.9826 25.9122 36.2973 25.7292C37.3509 25.1146 38.4044 24.4979 39.4579 23.879C39.8319 23.6617 40.1927 23.4286 40.5733 23.1929Z" fill="#FEFDFA"/>
<path d="M50.293 51.4337C50.2469 50.762 50.1771 50.1813 50.1758 49.6006C50.1758 48.5115 50.2034 47.4225 50.2456 46.3334C50.2535 46.1332 50.3272 45.8462 50.4708 45.7553C51.9509 44.8071 53.4509 43.8906 54.9482 42.9648L55.2195 43.0965C55.2195 43.8011 55.2195 44.5043 55.2195 45.2035C55.2274 46.1411 55.2735 47.0801 55.2392 48.0164C55.2287 48.3061 55.097 48.7143 54.881 48.8539C53.655 49.644 52.3895 50.3815 51.1279 51.1202C50.8909 51.2559 50.613 51.3151 50.293 51.4337Z" fill="#FEFDFA"/>
<path d="M26.1285 42.7954C26.729 43.1655 27.2005 43.4538 27.6745 43.7449C28.6464 44.3309 29.638 44.8866 30.5809 45.5174C30.7123 45.619 30.8214 45.7464 30.9016 45.8918C30.9817 46.0372 31.0313 46.1975 31.0471 46.3628C31.0906 47.739 31.0682 49.1177 31.0471 50.4952C31.0471 50.7651 30.9233 51.0311 30.8562 51.2985C30.5928 51.2102 30.3189 51.1602 30.0871 51.0272C29.1416 50.4899 28.2171 49.9158 27.2703 49.3785C26.4801 48.932 25.9534 48.4198 26.0376 47.3715C26.1456 46.0889 26.0679 44.7918 26.0745 43.4999C26.0732 43.3314 26.0969 43.1615 26.1285 42.7954Z" fill="#FEFDFA"/>
</svg>
