<svg width="80" height="80" viewBox="0 0 80 80" fill="none" xmlns="http://www.w3.org/2000/svg">
<g clip-path="url(#clip0_6703_87101)">
<path d="M68 1.48619e-06L12 2.62268e-07C5.37258 1.17422e-07 -1.17422e-07 5.37258 -2.62268e-07 12L-1.48619e-06 68C-1.63103e-06 74.6274 5.37258 80 12 80L68 80C74.6274 80 80 74.6274 80 68L80 12C80 5.37259 74.6274 1.63103e-06 68 1.48619e-06Z" fill="white"/>
<path fill-rule="evenodd" clip-rule="evenodd" d="M15.3335 25.5643L40.0002 11.3335L64.6668 25.5643V54.0258L40.0002 68.2566L15.3335 54.0258V25.5643ZM30.262 23.6372H49.6888L52.0122 33.5196H27.9882L30.262 23.6372ZM35.2051 46.7622L35.8478 40.5856L33.7222 35.0515H46.2779L44.2018 40.5856L44.795 46.7622H39.9506H35.2051ZM49.7383 57.1388H46.2286L42.0268 53.2847V51.3082L46.3768 47.1575V40.5856L52.0616 36.8798L58.5372 41.7715L49.7383 57.1388ZM33.8706 57.1882L38.0723 53.2846V51.3082L33.7223 47.1575V40.5856L27.9882 36.9291L21.4631 41.7715L30.3114 57.1882H33.8706Z" fill="#03316C"/>
</g>
<defs>
<clipPath id="clip0_6703_87101">
<rect width="80" height="80" fill="white"/>
</clipPath>
</defs>
</svg>
