<svg width="80" height="81" viewBox="0 0 80 81" fill="none" xmlns="http://www.w3.org/2000/svg">
<rect width="80" height="80" rx="12" fill="#35CF7F"/>
<path d="M33.8317 69.5728C22.5695 69.5306 12.9315 61.444 10.9915 50.3702C10.1007 45.2799 10.9366 40.038 13.3663 35.4773C15.796 30.9166 19.6801 27.299 24.4013 25.1992C24.6815 25.079 24.9034 24.8538 25.0196 24.572C28.4868 17.232 34.192 12.679 42.1723 11.1998C54.6177 8.89329 66.6872 17.3343 68.9601 29.8034C70.8875 40.3871 65.3758 50.8247 55.5495 55.2124C55.3336 55.3119 55.1565 55.4796 55.0454 55.6899C51.5716 63.0733 45.8372 67.5722 37.8423 69.1865C37.4556 69.2658 37.0648 69.3237 36.6717 69.36C35.7295 69.4401 34.7784 69.5024 33.8317 69.5728ZM33.8184 29.3756L33.8035 29.2725C32.5366 29.452 31.2704 29.6343 30.0028 29.8093C29.7744 29.8405 29.6714 29.945 29.6195 30.1756C29.0887 32.5325 29.0309 34.8991 29.5038 37.2657C31.3942 46.7239 40.5881 52.6871 49.9733 50.5674C50.2083 50.5148 50.3217 50.4236 50.3773 50.1774C50.9007 47.8715 50.9436 45.4825 50.5033 43.1592C49.014 35.2046 41.9492 29.3704 33.8184 29.3756ZM56.9981 47.065C61.7144 43.2549 64.4187 36.4961 62.5884 29.6306C61.6968 26.2848 59.8042 23.2914 57.1642 21.0512C54.5241 18.8111 51.2627 17.4311 47.8168 17.0963C41.2486 16.4483 35.7102 19.775 33.1653 23.184C39.7727 23.1284 45.5001 25.3075 50.1801 29.9821C54.8601 34.6567 57.0537 40.4034 56.9981 47.065ZM22.995 33.3325C18.7761 36.6081 15.6707 43.1133 17.2468 50.1033C18.8836 57.3632 25.179 62.9164 32.9251 63.3286C35.5605 63.476 38.1936 62.9987 40.6096 61.9355C43.0604 60.8664 45.1399 59.2991 46.905 57.1905C40.2123 57.2439 34.4855 55.0626 29.8063 50.385C25.1271 45.7075 22.9439 39.9756 22.995 33.3325Z" fill="#FDFEFE"/>
<path d="M33.8234 29.3736C41.9543 29.3684 49.0206 35.2026 50.5084 43.1572C50.9487 45.4804 50.9058 47.8695 50.3824 50.1754C50.3268 50.4215 50.2133 50.5127 49.9783 50.5654C40.5932 52.6873 31.3993 46.7219 29.5074 37.2637C29.0345 34.8971 29.0923 32.5305 29.6231 30.1735C29.675 29.943 29.778 29.8384 30.0063 29.8073C31.274 29.6323 32.5402 29.4499 33.8071 29.2705L33.8234 29.3736Z" fill="#35CF7F"/>
<path d="M56.9991 47.0648C57.0547 40.4032 54.87 34.6662 50.1789 29.9819C45.4878 25.2977 39.7715 23.1283 33.1641 23.1839C35.709 19.7734 41.2445 16.4482 47.8156 17.0962C51.262 17.4306 54.5238 18.8103 57.1643 21.0505C59.8047 23.2907 61.6976 26.2844 62.5894 29.6305C64.4198 36.496 61.7154 43.2547 56.9991 47.0648Z" fill="#36CF7F"/>
<path d="M22.9947 33.3296C22.9435 39.9727 25.1252 45.7001 29.8059 50.3821C34.4867 55.0641 40.2119 57.2409 46.9046 57.1875C45.1395 59.2991 43.0601 60.8664 40.6093 61.9326C38.1932 62.9957 35.5602 63.4731 32.9247 63.3257C25.1816 62.9135 18.8833 57.3603 17.2464 50.1004C15.6704 43.1111 18.7758 36.6052 22.9947 33.3296Z" fill="#36CF7F"/>
</svg>
