<svg width="80" height="80" viewBox="0 0 80 80" fill="none" xmlns="http://www.w3.org/2000/svg">
<g clip-path="url(#clip0_6703_87067)">
<path d="M68 1.48619e-06L12 2.62268e-07C5.37258 1.17422e-07 -1.17422e-07 5.37258 -2.62268e-07 12L-1.48619e-06 68C-1.63103e-06 74.6274 5.37258 80 12 80L68 80C74.6274 80 80 74.6274 80 68L80 12C80 5.37259 74.6274 1.63103e-06 68 1.48619e-06Z" fill="white"/>
<path d="M39.5671 23.9875L53.0447 31.7773L53.0447 47.3569L39.6908 55.1467L26.2132 47.3569L26.2132 31.7773L39.5671 23.9875ZM39.5672 12.4883L34.6212 15.3322L21.1437 23.122L16.1978 25.9659L16.1978 31.6537L16.1978 47.2333L16.1978 52.921L21.1437 55.7649L34.6212 63.6784L39.5671 66.5223L44.5131 63.6784L58.1143 55.8886L63.0602 53.0447L63.0602 47.3569L63.0602 31.6537L63.0602 25.9659L58.1143 23.122L44.5131 15.3322L39.5672 12.4883Z" fill="#375BD2"/>
</g>
<defs>
<clipPath id="clip0_6703_87067">
<rect width="80" height="80" fill="white"/>
</clipPath>
</defs>
</svg>
