<svg width="80" height="80" viewBox="0 0 80 80" fill="none" xmlns="http://www.w3.org/2000/svg">
<rect width="80" height="80" rx="12" fill="black"/>
<path d="M29.251 16.1807L23.5243 21.9073L11.0726 34.246C5.98646 39.4264 7.98325 44.7009 11.5247 48.2424L21.6971 58.4148C22.6013 59.319 26.1428 63.0488 28.9684 60.1478C30.6073 58.5089 30.2494 55.9659 29.3263 54.9675L17.6093 43.3446C15.5183 41.2536 16.5167 39.351 18.6077 37.3542L28.6105 27.3514L34.8835 33.6244C37.0686 35.8095 39.7813 36.6196 42.0606 34.359C44.34 32.0797 42.9648 29.9133 40.7797 27.7282L33.8662 20.8147L29.251 16.1807Z" fill="url(#paint0_linear_160_76)"/>
<path d="M29.7972 16.6329C28.1583 14.994 25.8036 14.0898 23.5242 16.3692C21.2449 18.6485 22.4317 21.1916 23.8822 22.6421" fill="url(#paint1_linear_160_76)"/>
<path d="M49.9725 64.7066L55.6992 58.9799L68.1509 46.5282C73.3312 41.3478 71.3344 36.0733 67.6988 32.5318L57.5264 22.4536C56.6222 21.5494 53.0807 17.8196 50.2551 20.7206C48.6162 22.3594 48.9741 24.9025 49.8972 25.9009L61.6142 37.5238C63.7052 39.6148 62.7068 41.5174 60.6158 43.5142L50.613 53.517L44.34 47.244C42.1549 45.0589 39.4422 44.2488 37.1629 46.5094C34.8835 48.7699 36.2587 50.955 38.4439 53.1402L45.3573 60.0536L49.9725 64.7066Z" fill="url(#paint2_linear_160_76)"/>
<path d="M49.4263 64.2356C51.0651 65.8745 53.4199 66.8729 55.6992 64.5935C57.9786 62.3141 56.7918 59.7711 55.3413 58.3206" fill="url(#paint3_linear_160_76)"/>
<defs>
<linearGradient id="paint0_linear_160_76" x1="10.8973" y1="28.1172" x2="67.2385" y2="64.4664" gradientUnits="userSpaceOnUse">
<stop stop-color="#29C1FC"/>
<stop offset="0.502" stop-color="#AB00FF"/>
<stop offset="0.508" stop-color="#AC03FC"/>
<stop offset="0.641" stop-color="#C840B8"/>
<stop offset="0.76" stop-color="#DE7082"/>
<stop offset="0.863" stop-color="#EE935B"/>
<stop offset="0.945" stop-color="#F7A844"/>
<stop offset="0.996" stop-color="#FBB03B"/>
</linearGradient>
<linearGradient id="paint1_linear_160_76" x1="19.4969" y1="14.7874" x2="75.8384" y2="51.1368" gradientUnits="userSpaceOnUse">
<stop stop-color="#29C1FC"/>
<stop offset="0.502" stop-color="#AB00FF"/>
<stop offset="0.508" stop-color="#AC03FC"/>
<stop offset="0.641" stop-color="#C840B8"/>
<stop offset="0.76" stop-color="#DE7082"/>
<stop offset="0.863" stop-color="#EE935B"/>
<stop offset="0.945" stop-color="#F7A844"/>
<stop offset="0.996" stop-color="#FBB03B"/>
</linearGradient>
<linearGradient id="paint2_linear_160_76" x1="16.556" y1="19.3462" x2="72.8972" y2="55.6955" gradientUnits="userSpaceOnUse">
<stop stop-color="#29C1FC"/>
<stop offset="0.502" stop-color="#AB00FF"/>
<stop offset="0.508" stop-color="#AC03FC"/>
<stop offset="0.641" stop-color="#C840B8"/>
<stop offset="0.76" stop-color="#DE7082"/>
<stop offset="0.863" stop-color="#EE935B"/>
<stop offset="0.945" stop-color="#F7A844"/>
<stop offset="0.996" stop-color="#FBB03B"/>
</linearGradient>
<linearGradient id="paint3_linear_160_76" x1="7.93268" y1="32.7122" x2="64.2741" y2="69.0614" gradientUnits="userSpaceOnUse">
<stop stop-color="#29C1FC"/>
<stop offset="0.502" stop-color="#AB00FF"/>
<stop offset="0.508" stop-color="#AC03FC"/>
<stop offset="0.641" stop-color="#C840B8"/>
<stop offset="0.76" stop-color="#DE7082"/>
<stop offset="0.863" stop-color="#EE935B"/>
<stop offset="0.945" stop-color="#F7A844"/>
<stop offset="0.996" stop-color="#FBB03B"/>
</linearGradient>
</defs>
</svg>
