<svg width="80" height="80" viewBox="0 0 80 80" fill="none" xmlns="http://www.w3.org/2000/svg">
<g clip-path="url(#clip0_6703_87116)">
<path d="M68 1.48619e-06L12 2.62268e-07C5.37258 1.17422e-07 -1.17422e-07 5.37258 -2.62268e-07 12L-1.48619e-06 68C-1.63103e-06 74.6274 5.37258 80 12 80L68 80C74.6274 80 80 74.6274 80 68L80 12C80 5.37259 74.6274 1.63103e-06 68 1.48619e-06Z" fill="#0D0C2B"/>
</g>
<path fill-rule="evenodd" clip-rule="evenodd" d="M16.3219 42.2207L34.3454 59.9881C36.2178 61.6566 37.9549 61.6566 39.5568 59.9881C46.7207 52.6943 50.3743 48.9744 50.5176 48.8285L50.522 48.824C53.5038 48.7831 55.0692 48.7616 55.2183 48.7596L55.2282 48.7594C55.2295 48.7594 55.2301 48.7594 55.2301 48.7594C45.8821 58.4583 41.2081 63.3078 41.2081 63.3078C38.2334 65.6391 35.421 65.6013 32.7711 63.1946C21.7828 51.8314 16.2886 46.1498 16.2886 46.1498L16.3219 42.2207ZM64.7149 47.4787L48.6932 63.4884H44.7104L60.7341 47.4787H64.7149Z" fill="url(#paint0_linear_6703_87116)"/>
<path fill-rule="evenodd" clip-rule="evenodd" d="M38.3756 15.5478C38.3756 15.5478 32.4923 21.3206 20.7257 32.8661C19.0682 34.4522 19.0682 36.1722 20.7257 38.0262L38.3756 55.8724L34.4725 55.9054C34.4725 55.9054 28.8285 50.4653 17.5404 39.585C15.1496 36.9612 15.1121 34.1765 17.428 31.231C17.428 31.231 22.7983 26.0033 33.5388 15.5478H38.3756ZM41.8514 16.6687C44.4818 14.2838 47.2734 14.2465 50.2263 16.5565C50.2263 16.5565 54.8659 21.3619 64.1451 30.9726C64.1451 30.9726 64.1445 30.9726 64.1432 30.9726L64.1334 30.9724C63.9854 30.9704 62.4315 30.9491 59.4716 30.9086C59.4716 30.9086 59.4713 30.9082 59.4705 30.9075L59.4618 30.8986C59.2507 30.684 55.6258 26.9998 48.5871 19.846C46.997 18.1927 45.2727 18.1927 43.4141 19.846L25.5232 37.4518L25.4901 33.5585C25.4901 33.5585 30.9439 27.9286 41.8514 16.6687ZM47.7735 23.9443L55.2599 30.9448H51.418L43.9255 23.9443H47.7735Z" fill="url(#paint1_linear_6703_87116)"/>
<defs>
<linearGradient id="paint0_linear_6703_87116" x1="56.3906" y1="51.9491" x2="26.2941" y2="64.6056" gradientUnits="userSpaceOnUse">
<stop stop-color="#50D546"/>
<stop offset="0.512485" stop-color="#FFEB17"/>
<stop offset="1" stop-color="#FF8200"/>
</linearGradient>
<linearGradient id="paint1_linear_6703_87116" x1="23.9466" y1="20.6259" x2="61.8064" y2="39.9586" gradientUnits="userSpaceOnUse">
<stop stop-color="#003DE9"/>
<stop offset="0.380035" stop-color="#FF0058"/>
<stop offset="1" stop-color="#81BB47"/>
</linearGradient>
<clipPath id="clip0_6703_87116">
<rect width="80" height="80" fill="white"/>
</clipPath>
</defs>
</svg>
