<svg width="80" height="80" viewBox="0 0 80 80" fill="none" xmlns="http://www.w3.org/2000/svg">
<rect width="80" height="80" rx="12" fill="#03316C"/>
<path d="M66.0556 40.0112C66.0556 44.8989 66.0581 49.787 66.063 54.6757C66.063 54.9604 65.9793 55.1094 65.731 55.2525C57.2517 60.1392 48.7768 65.0323 40.3064 69.9318C40.084 70.0593 39.9239 70.1008 39.6756 69.957C31.1721 65.0397 22.6639 60.1315 14.151 55.2325C13.9286 55.1057 13.8545 54.9759 13.8545 54.7202C13.8619 44.9068 13.8619 35.0931 13.8545 25.2793C13.8545 25.025 13.9331 24.893 14.151 24.7662C22.6619 19.8622 31.1691 14.9518 39.6726 10.035C39.895 9.90602 40.0507 9.90528 40.2738 10.035C48.7565 14.9429 57.2408 19.8445 65.7265 24.7395C65.9681 24.8789 66.066 25.0227 66.0653 25.3126C66.0509 30.2112 66.0477 35.1107 66.0556 40.0112ZM58.32 39.9979C58.32 36.5915 58.3223 33.1846 58.3267 29.7772C58.3267 29.4962 58.2526 29.3383 57.9998 29.1952C52.0931 25.7948 46.1901 22.3876 40.2908 18.9738C40.0603 18.8404 39.8965 18.8322 39.66 18.9686C33.7716 22.376 27.8788 25.776 21.9815 29.1685C21.7131 29.3227 21.6108 29.4821 21.6108 29.798C21.6212 36.6004 21.6212 43.402 21.6108 50.2029C21.6108 50.5076 21.7161 50.6619 21.9659 50.8049C27.8622 54.1975 33.7553 57.5965 39.6452 61.0019C39.8987 61.1501 40.0662 61.1338 40.3071 60.9945C46.198 57.5871 52.0906 54.1869 57.985 50.7938C58.2496 50.6455 58.326 50.4735 58.3245 50.1822C58.3166 46.7877 58.3151 43.3929 58.32 39.9979Z" fill="#FDFDFD"/>
<path d="M58.3162 39.998C58.3162 43.3925 58.3182 46.7873 58.3222 50.1823C58.3222 50.4737 58.248 50.642 57.9827 50.794C52.0873 54.186 46.1947 57.5862 40.3048 60.9946C40.0639 61.134 39.8963 61.1488 39.6428 61.002C33.7544 57.5946 27.8613 54.1957 21.9635 50.8051C21.7137 50.662 21.6077 50.5085 21.6084 50.2031C21.6188 43.4017 21.6188 36.6 21.6084 29.7981C21.6084 29.4823 21.7092 29.3229 21.979 29.1687C27.8759 25.7771 33.7668 22.3771 39.6517 18.9688C39.8882 18.8324 40.052 18.8405 40.2825 18.974C46.1843 22.3878 52.0888 25.7949 57.996 29.1954C58.2451 29.3385 58.3237 29.4964 58.3229 29.7773C58.3125 33.184 58.3162 36.5914 58.3162 39.998ZM52.1172 32.9549C52.0431 32.9097 52.0075 32.8852 51.969 32.863C48.0429 30.5929 44.1172 28.3205 40.1921 26.046C39.9749 25.92 39.8378 25.9867 39.6599 26.0897C35.8 28.3242 31.9359 30.5551 28.0676 32.7822C27.8497 32.9075 27.754 33.0327 27.7548 33.2952C27.7637 37.7642 27.7637 42.2333 27.7548 46.7023C27.7548 46.9418 27.823 47.073 28.0357 47.1975C31.9169 49.4246 35.7933 51.6582 39.6651 53.8981C39.8919 54.0293 40.0439 54.0153 40.2581 53.89C43.5848 51.9624 46.9152 50.0395 50.2493 48.1213C50.8623 47.7677 51.4731 47.411 52.115 47.0389C52.0676 46.9983 52.0181 46.9602 51.9667 46.9247C50.4101 46.0217 48.8535 45.1232 47.2969 44.2113C47.1027 44.0971 46.9693 44.1371 46.7966 44.235C44.6139 45.5057 42.4282 46.7745 40.2395 48.0412C40.055 48.1487 39.9186 48.1895 39.7103 48.0635C37.5394 46.7957 35.3622 45.5376 33.1785 44.2891C32.9324 44.1482 32.8456 43.9926 32.8471 43.7093C32.859 41.2381 32.859 38.769 32.8471 36.3022C32.8471 35.9849 32.9539 35.8263 33.2222 35.6735C35.3629 34.4517 37.4972 33.2183 39.6251 31.9733C39.8652 31.8325 40.0342 31.8191 40.2833 31.9652C42.4529 33.2366 44.6351 34.4858 46.8062 35.7536C47.0071 35.8707 47.1502 35.8589 47.3414 35.7469C48.8417 34.8699 50.3479 34.0032 51.8519 33.1321C51.9319 33.0824 52.0075 33.0261 52.1172 32.9534L52.1172 32.9549Z" fill="#03316C"/>
<path d="M52.1224 32.9543C52.0127 33.0284 51.9371 33.0833 51.8563 33.1307C50.3523 34.0018 48.8461 34.8685 47.3458 35.7456C47.1546 35.8575 47.0115 35.8694 46.8107 35.7522C44.6388 34.4859 42.4566 33.2315 40.2877 31.9638C40.0387 31.8155 39.8697 31.8311 39.6295 31.9719C37.5016 33.215 35.3674 34.4484 33.2267 35.6722C32.9583 35.8249 32.8501 35.9835 32.8516 36.3008C32.8664 38.7721 32.8664 41.2411 32.8516 43.708C32.8516 43.9927 32.9368 44.1469 33.1829 44.2877C35.3661 45.5362 37.5434 46.7943 39.7148 48.0621C39.923 48.1844 40.0594 48.1473 40.244 48.0398C42.4287 46.7691 44.6149 45.5019 46.8025 44.238C46.9752 44.1372 47.1086 44.1002 47.3028 44.2143C48.8543 45.1262 50.4161 46.0248 51.9727 46.9278C52.024 46.9633 52.0735 47.0014 52.1209 47.0419C51.479 47.4126 50.8682 47.7707 50.2552 48.1244C46.9255 50.0465 43.5959 51.9694 40.2662 53.893C40.049 54.0183 39.8956 54.0324 39.6732 53.9012C35.8005 51.6588 31.9233 49.424 28.0417 47.1969C27.8289 47.0753 27.7607 46.9411 27.7607 46.7017C27.7682 42.2326 27.7682 37.7636 27.7607 33.2946C27.7607 33.0321 27.8556 32.9068 28.0735 32.7815C31.9404 30.5574 35.8045 28.3266 39.6658 26.0891C39.8437 25.986 39.9809 25.9193 40.198 26.0453C44.1202 28.3243 48.0458 30.5967 51.9749 32.8623C52.0127 32.8846 52.0505 32.909 52.1224 32.9543Z" fill="#FDFDFD"/>
</svg>
