<svg width="80" height="80" viewBox="0 0 80 80" fill="none" xmlns="http://www.w3.org/2000/svg">
<rect width="80" height="80" rx="12" fill="white"/>
<g clip-path="url(#clip0_162_141)">
<path d="M4.71939 36.0298C2.42687 38.3546 2.42687 42.1326 4.71939 44.4574C7.01191 46.7823 10.7373 46.7823 13.0298 44.4574L11.2553 42.6578C9.9437 43.9879 7.8165 43.9879 6.50492 42.6578C5.19333 41.3278 5.19333 39.1705 6.50492 37.8405L4.71939 36.0298Z" fill="black"/>
<path d="M6.50551 37.8293C6.49448 37.8405 6.47244 37.8628 6.46142 37.874L4.6759 36.0745C4.68692 36.0633 4.70897 36.041 4.71999 36.0298C7.01251 33.7049 10.7379 33.7049 13.0304 36.0298L11.2559 37.8293C9.94429 36.4992 7.81709 36.4992 6.50551 37.8293Z" fill="url(#paint0_linear_162_141)"/>
<path d="M71.126 36.8345C72.9777 36.8345 74.4877 38.3546 74.4877 40.2435C74.4877 42.1213 72.9887 43.6526 71.126 43.6526C69.2744 43.6526 67.7644 42.1325 67.7644 40.2435H65.2515C65.2515 43.5297 67.8856 46.201 71.126 46.201C74.3665 46.201 77.0006 43.5297 77.0006 40.2435C77.0006 36.9575 74.3665 34.2861 71.126 34.2861V36.8345Z" fill="black"/>
<path d="M15.5542 34.6772V45.8544H18.1112V37.0133H20.9989L22.1672 34.6772H15.5542Z" fill="black"/>
<path d="M33.4432 34.6772L29.7399 41.9983L25.8492 34.6772H22.9285L28.3401 44.7814L25.8271 49.7888H28.7039L36.3199 34.6772H33.4432Z" fill="black"/>
<path d="M43.0877 34.2861C40.7511 34.2861 39.2191 34.6214 37.4446 35.0015V49.8001H40.0016V45.9663C40.9164 46.1004 41.8973 46.2233 43.0877 46.1898C46.5596 46.0892 48.6647 43.8203 48.6647 40.2659C48.6647 36.6892 46.4273 34.2861 43.0877 34.2861ZM44.2891 43.4626C43.0767 43.9767 41.203 43.6415 40.0126 43.4626V36.9575C41.203 36.7675 43.0436 36.4098 44.2671 36.9239C45.4463 37.4269 46.1187 38.5782 46.1187 40.2435C46.1297 41.8978 45.4574 42.9708 44.2891 43.4626Z" fill="black"/>
<path d="M63.0575 34.6772H60.5004V45.8544H63.0575V34.6772Z" fill="black"/>
<path d="M57.5359 43.5967C56.9848 43.6861 56.5109 43.7196 56.0921 43.7196C55.056 43.7196 54.4829 43.3954 54.4829 41.6519V37.0021H58.0319V34.6773H54.4829V31H51.9258V34.6773H48.6965L49.9309 37.0133H51.9258V41.7971C51.9258 44.7144 53.2485 46.1898 55.8497 46.1898C56.7975 46.1898 57.4037 46.0892 58.1973 45.888L58.6822 45.7651L57.5359 43.5967Z" fill="black"/>
<path d="M67.7644 40.2435C67.7644 40.2659 67.7644 40.2883 67.7644 40.3106L65.2515 40.2883C65.2515 40.2771 65.2515 40.2547 65.2515 40.2435C65.2515 36.9575 67.8856 34.2861 71.126 34.2861V36.8345C69.2634 36.8345 67.7644 38.3658 67.7644 40.2435Z" fill="url(#paint1_linear_162_141)"/>
</g>
<defs>
<linearGradient id="paint0_linear_162_141" x1="13.0071" y1="36.0829" x2="6.47066" y2="36.0829" gradientUnits="userSpaceOnUse">
<stop offset="0.0587508" stop-opacity="0"/>
<stop offset="0.4516" stop-opacity="0.35"/>
<stop offset="0.9658"/>
</linearGradient>
<linearGradient id="paint1_linear_162_141" x1="70.4013" y1="33.8381" x2="66.7865" y2="40.0275" gradientUnits="userSpaceOnUse">
<stop offset="0.0564" stop-opacity="0"/>
<stop offset="0.4497" stop-opacity="0.35"/>
<stop offset="0.9656"/>
</linearGradient>
<clipPath id="clip0_162_141">
<rect width="74" height="19" fill="white" transform="translate(3 31)"/>
</clipPath>
</defs>
</svg>
