<svg width="80" height="80" viewBox="0 0 80 80" fill="none" xmlns="http://www.w3.org/2000/svg">
<g clip-path="url(#clip0_6703_87106)">
<path d="M68 1.48619e-06L12 2.62268e-07C5.37258 1.17422e-07 -1.17422e-07 5.37258 -2.62268e-07 12L-1.48619e-06 68C-1.63103e-06 74.6274 5.37258 80 12 80L68 80C74.6274 80 80 74.6274 80 68L80 12C80 5.37259 74.6274 1.63103e-06 68 1.48619e-06Z" fill="#2C3851"/>
</g>
<path d="M40.0002 63.2158C36.2589 63.2158 32.7415 61.7585 30.0962 59.1132L19.7469 48.7652C14.2855 43.3038 14.2855 34.4185 19.7469 28.9585L24.9215 23.7838C27.5669 21.1385 31.0842 19.6812 34.8255 19.6812H45.1749C48.9162 19.6812 52.4335 21.1385 55.0789 23.7838L60.2535 28.9585C65.7135 34.4198 65.7135 43.3052 60.2535 48.7652L49.9042 59.1132C47.2589 61.7598 43.7415 63.2158 40.0002 63.2158ZM34.8255 25.2398C32.5695 25.2398 30.4482 26.1185 28.8522 27.7145L23.6775 32.8892C20.3842 36.1825 20.3842 41.5412 23.6775 44.8358L34.0269 55.1838C35.6229 56.7798 37.7442 57.6585 40.0002 57.6585C42.2562 57.6585 44.3775 56.7798 45.9735 55.1838L56.3229 44.8358C59.6162 41.5425 59.6162 36.1838 56.3229 32.8892L51.1482 27.7145C49.5522 26.1185 47.4309 25.2398 45.1749 25.2398H34.8255Z" fill="white"/>
<path d="M40 55.7707C37.8506 55.7707 35.8306 54.9333 34.3106 53.4133L25.6946 44.7973C24.1773 43.28 23.3413 41.26 23.3413 39.1093C23.3413 36.9587 24.1773 34.9387 25.6946 33.4213L30.0026 29.1133C31.5226 27.5933 33.5426 26.7573 35.6906 26.7573H44.3066C46.456 26.7573 48.476 27.5947 49.9946 29.1133L54.3026 33.4213C55.82 34.9387 56.656 36.96 56.656 39.1093C56.656 41.2587 55.82 43.28 54.3026 44.7973L45.6866 53.4133C44.1693 54.9333 42.1493 55.7707 40 55.7707ZM35.692 32.26C35.0026 32.26 34.3813 32.5173 33.8946 33.004L29.5866 37.312C29.108 37.7907 28.844 38.4293 28.844 39.1093C28.844 39.7893 29.108 40.428 29.5853 40.9067L38.2013 49.5227C39.176 50.4973 40.8226 50.4973 41.796 49.5227L50.412 40.9053C50.8906 40.4267 51.1546 39.788 51.1546 39.108C51.1546 38.4267 50.8906 37.7893 50.412 37.3107L46.104 33.0027C45.6173 32.516 44.996 32.2587 44.3066 32.2587H35.692V32.26Z" fill="white"/>
<path d="M40.0005 48.9385L30.5645 39.5025L36.4845 33.5825H43.5178L49.4378 39.5025L40.0005 48.9385Z" fill="white"/>
<defs>
<clipPath id="clip0_6703_87106">
<rect width="80" height="80" fill="white"/>
</clipPath>
</defs>
</svg>
