<svg width="80" height="80" viewBox="0 0 80 80" fill="none" xmlns="http://www.w3.org/2000/svg">
<rect width="80" height="80" rx="12" fill="#1969FF"/>
<path d="M37.5744 12.7203C38.922 12.0099 40.9726 12.0099 42.3202 12.7203L56.0715 19.97C56.8831 20.3978 57.3289 21.0354 57.4087 21.6936L57.4219 21.6936L57.4219 58.1336C57.404 58.8516 56.954 59.5648 56.0715 60.03L42.3202 67.2797C40.9726 67.9901 38.922 67.9901 37.5744 67.2797L23.8232 60.03C22.9443 59.5667 22.5226 58.8486 22.5017 58.1336C22.4995 58.0603 22.4994 57.9998 22.5016 57.95L22.5017 21.939C22.4996 21.8883 22.4996 21.8379 22.5016 21.7876L22.5017 21.6936L22.5078 21.6936C22.5689 21.0281 22.9944 20.4068 23.8232 19.97L37.5744 12.7203ZM55.2344 41.9531L42.316 48.7859C40.9703 49.4977 38.9228 49.4977 37.5771 48.7859L24.6875 41.9684L24.6875 58.021L37.5771 64.8025C38.3388 65.21 39.1308 65.6071 39.9021 65.6244L39.9466 65.625C40.7163 65.6275 41.4636 65.2361 42.2213 64.8656L55.2344 57.9626L55.2344 41.9531ZM20.3456 57.3438C20.3456 58.7407 20.5065 59.6588 20.826 60.3056C21.0908 60.8418 21.4882 61.2515 22.2137 61.7501L22.2551 61.7783C22.4143 61.8867 22.5897 62.0002 22.8032 62.1335L23.055 62.289L23.8281 62.7598L22.7192 64.6094L21.8539 64.0821L21.7085 63.992C21.4583 63.8361 21.2509 63.7023 21.0574 63.5707C18.9897 62.1642 18.2186 60.6308 18.2034 57.4409L18.2031 57.3438L20.3456 57.3438ZM38.9062 32.2656C38.8062 32.3 38.7124 32.3399 38.6269 32.3852L24.8966 39.6581C24.8822 39.6657 24.8685 39.6733 24.8554 39.6807L24.8437 39.6875L24.8653 39.6999L24.8966 39.7169L38.6269 46.9898C38.7124 47.0351 38.8062 47.075 38.9062 47.1094L38.9062 32.2656ZM41.0937 32.2656L41.0937 47.1094C41.1939 47.075 41.2877 47.0351 41.3732 46.9898L55.1033 39.7169C55.1178 39.7093 55.1315 39.7017 55.1446 39.6943L55.1562 39.6875L55.1347 39.6751L55.1033 39.6581L41.3732 32.3852C41.2877 32.3399 41.1939 32.3 41.0937 32.2656ZM55.2344 24.2969L42.8906 30.7813L55.2344 37.2656L55.2344 24.2969ZM24.6875 24.2969L24.6875 37.2656L37.0312 30.7813L24.6875 24.2969ZM41.3611 14.6584C40.6465 14.2805 39.3535 14.2805 38.6389 14.6584L24.8967 21.9237C24.8822 21.9314 24.8685 21.9389 24.8554 21.9464L24.8437 21.9531L24.8653 21.9655L24.8967 21.9825L38.6389 29.2478C39.3535 29.6257 40.6465 29.6257 41.3611 29.2478L55.1033 21.9825C55.1177 21.9749 55.1315 21.9673 55.1446 21.9599L55.1562 21.9531L55.1347 21.9408L55.1033 21.9237L41.3611 14.6584ZM57.2808 15.3906L58.1461 15.9179L58.2915 16.008C58.5417 16.1638 58.7491 16.2977 58.9426 16.4293C61.0103 17.8357 61.7814 19.3692 61.7967 22.5591L61.7969 22.6563L59.6544 22.6563C59.6544 21.2593 59.4935 20.3412 59.174 19.6943C58.9092 19.1582 58.5119 18.7485 57.7864 18.2499L57.7449 18.2216C57.5857 18.1133 57.4103 17.9999 57.1968 17.8665L56.945 17.7109L56.1719 17.2402L57.2808 15.3906Z" fill="white"/>
</svg>
