<svg width="80" height="81" viewBox="0 0 80 81" fill="none" xmlns="http://www.w3.org/2000/svg">
<rect width="80" height="80" rx="12" fill="#071927"/>
<path fill-rule="evenodd" clip-rule="evenodd" d="M39.8492 54.4246C38.2719 54.4246 36.8063 54.1117 35.61 53.5195L22.7282 47.143L18.8681 49.3392C17.0333 50.3828 17.0654 51.9824 18.9396 52.9101L36.7563 61.7296C37.6217 62.1579 38.728 62.3684 39.8492 62.3684C41.1582 62.3684 42.4864 62.0819 43.475 61.5195L60.917 51.5963C62.7518 50.5523 62.7196 48.9523 60.8454 48.0253L57.1415 46.1909L44.7491 53.2417C43.4078 54.0043 41.6677 54.4246 39.8492 54.4246Z" fill="url(#paint0_linear_6696_86363)"/>
<path fill-rule="evenodd" clip-rule="evenodd" d="M60.9598 37.4662L57.8669 35.9126L50.6645 40.0702L49.4278 40.7838L48.192 41.4974L44.8205 43.4437C43.476 44.2206 41.7307 44.6477 39.9078 44.6477C38.3265 44.6477 36.857 44.3293 35.6576 43.7275L31.7948 41.7868L30.5162 41.1452L29.2377 40.5032L22.1201 36.9275L18.8715 38.803C17.0319 39.8652 17.0634 41.4919 18.9426 42.4359L22.6571 44.3014L23.9356 44.9434L25.2135 45.5858L36.807 51.4087C37.674 51.8437 38.7838 52.0578 39.9078 52.0578C41.2197 52.0578 42.5522 51.7665 43.5425 51.1945L54.6887 44.7603L55.9254 44.0467L57.1612 43.3335L61.0314 41.099C62.871 40.0375 62.8388 38.4102 60.9598 37.4662Z" fill="url(#paint1_linear_6696_86363)"/>
<path fill-rule="evenodd" clip-rule="evenodd" d="M60.9598 27.9481L43.0951 19.1321C42.2282 18.7038 41.119 18.4937 39.9942 18.4937C38.6824 18.4937 37.3501 18.7804 36.3596 19.3423L18.8715 29.2622C17.0319 30.3053 17.0634 31.9038 18.9426 32.8314L22.0354 34.358L23.314 34.9889L24.5925 35.6199L31.7101 39.1328L32.9886 39.7632L34.2672 40.3946L36.807 41.6487C37.674 42.0762 38.7838 42.2863 39.9078 42.2863C41.2197 42.2863 42.5522 41.9997 43.5425 41.4378L45.6352 40.2509L46.8714 39.5496L48.1076 38.8484L55.3096 34.7632L56.5463 34.062L57.7821 33.3608L61.0314 31.5179C62.871 30.4748 62.8388 28.8756 60.9598 27.9481Z" fill="url(#paint2_linear_6696_86363)"/>
<defs>
<linearGradient id="paint0_linear_6696_86363" x1="39.8925" y1="19.9039" x2="39.8925" y2="62.3684" gradientUnits="userSpaceOnUse">
<stop stop-color="#B3F9BA"/>
<stop offset="1" stop-color="#F6FB8C"/>
</linearGradient>
<linearGradient id="paint1_linear_6696_86363" x1="39.9512" y1="19.9368" x2="39.9512" y2="61.3916" gradientUnits="userSpaceOnUse">
<stop stop-color="#B1FFBF"/>
<stop offset="1" stop-color="#FFF16D"/>
</linearGradient>
<linearGradient id="paint2_linear_6696_86363" x1="39.9512" y1="18.4937" x2="39.9512" y2="61.5118" gradientUnits="userSpaceOnUse">
<stop stop-color="#B3F9BA"/>
<stop offset="1" stop-color="#F6FB8C"/>
</linearGradient>
</defs>
</svg>
