<svg width="80" height="80" viewBox="0 0 80 80" fill="none" xmlns="http://www.w3.org/2000/svg">
<path d="M68 0H12C5.37258 0 0 5.37258 0 12V68C0 74.6274 5.37258 80 12 80H68C74.6274 80 80 74.6274 80 68V12C80 5.37258 74.6274 0 68 0Z" fill="url(#paint0_linear_6722_89687)"/>
<path d="M54.7661 28.8641C54.7608 29.0397 54.7185 29.2123 54.6421 29.3705C54.5656 29.5287 54.4566 29.669 54.3222 29.7822C54.1878 29.8954 54.0311 29.9791 53.8622 30.0276C53.6934 30.0762 53.5161 30.0886 53.3421 30.0641C51.658 29.8806 49.9592 29.8759 48.2741 30.0501C44.8741 30.4041 42.0341 31.4501 39.4241 32.4241L38.9521 32.5981C36.1801 33.6221 33.6241 34.5041 30.5941 34.5741C29.267 34.5972 27.9414 34.4717 26.6421 34.2001C26.0397 34.0851 25.4847 33.7942 25.0473 33.3643C24.6099 32.9343 24.3095 32.3845 24.1841 31.7841C23.9886 30.7907 23.8901 29.7806 23.8901 28.7681C23.8901 24.6737 25.5166 20.747 28.4118 17.8518C31.307 14.9566 35.2337 13.3301 39.3281 13.3301C43.4226 13.3301 47.3493 14.9566 50.2445 17.8518C53.1396 20.747 54.7661 24.6737 54.7661 28.7681V28.8641Z" fill="url(#paint1_radial_6722_89687)"/>
<path opacity="0.7" d="M25.264 36.5361C24.104 36.2581 23.046 37.5021 23.618 38.5501L38.772 66.3321C38.8272 66.4335 38.9087 66.5182 39.008 66.5772C39.1072 66.6362 39.2206 66.6674 39.336 66.6674C39.4515 66.6674 39.5648 66.6362 39.6641 66.5772C39.7634 66.5182 39.8449 66.4335 39.9 66.3321L56.626 35.6681C56.7695 35.4189 56.8521 35.1393 56.8669 34.8522C56.8818 34.565 56.8285 34.2784 56.7115 34.0157C56.5945 33.7531 56.4171 33.5218 56.1937 33.3408C55.9703 33.1597 55.7072 33.0341 55.426 32.9741C53.1586 32.498 50.8318 32.3712 48.526 32.5981C45.452 32.9201 42.898 33.8661 40.246 34.8481L39.824 35.0041C37.048 36.0301 34.136 37.0581 30.634 37.1381C28.8255 37.1718 27.0202 36.9694 25.264 36.5361Z" fill="url(#paint2_linear_6722_89687)"/>
<path d="M39.3281 35.7261C39.3285 35.5687 39.377 35.4152 39.4671 35.2862C39.5572 35.1571 39.6845 35.0587 39.8321 35.0041L40.2541 34.8481C42.9061 33.8661 45.4541 32.9201 48.5341 32.5981C50.8398 32.3712 53.1667 32.498 55.4341 32.9741C55.7153 33.0341 55.9784 33.1597 56.2018 33.3408C56.4252 33.5218 56.6026 33.7531 56.7196 34.0157C56.8366 34.2784 56.8899 34.565 56.875 34.8522C56.8601 35.1393 56.7776 35.4189 56.6341 35.6681L39.9001 66.3321C39.8447 66.4349 39.7619 66.5205 39.661 66.5794C39.5601 66.6383 39.4449 66.6683 39.3281 66.6661V35.7261Z" fill="url(#paint3_linear_6722_89687)"/>
<defs>
<linearGradient id="paint0_linear_6722_89687" x1="40" y1="80" x2="40" y2="0" gradientUnits="userSpaceOnUse">
<stop stop-color="#FF7284"/>
<stop offset="1" stop-color="#FFD1A8"/>
</linearGradient>
<radialGradient id="paint1_radial_6722_89687" cx="0" cy="0" r="1" gradientUnits="userSpaceOnUse" gradientTransform="translate(50.3886 19.0739) rotate(167.302) scale(59.1161 70.8292)">
<stop/>
<stop offset="0.12" stop-color="#1C0008"/>
<stop offset="1" stop-opacity="0"/>
</radialGradient>
<linearGradient id="paint2_linear_6722_89687" x1="40.16" y1="33.3021" x2="40.16" y2="66.6681" gradientUnits="userSpaceOnUse">
<stop stop-color="#1B0008"/>
<stop offset="1" stop-color="#1B0008" stop-opacity="0.5"/>
</linearGradient>
<linearGradient id="paint3_linear_6722_89687" x1="48.0961" y1="32.4861" x2="48.0961" y2="80.9161" gradientUnits="userSpaceOnUse">
<stop stop-color="#150006"/>
<stop offset="1" stop-color="#1B0008" stop-opacity="0"/>
</linearGradient>
</defs>
</svg>
