<svg width="80" height="80" viewBox="0 0 80 80" fill="none" xmlns="http://www.w3.org/2000/svg">
<g clip-path="url(#clip0_6703_87171)">
<path d="M68 1.48619e-06L12 2.62268e-07C5.37258 1.17422e-07 -1.17422e-07 5.37258 -2.62268e-07 12L-1.48619e-06 68C-1.63103e-06 74.6274 5.37258 80 12 80L68 80C74.6274 80 80 74.6274 80 68L80 12C80 5.37259 74.6274 1.63103e-06 68 1.48619e-06Z" fill="#36312B"/>
<path d="M60.8321 35.9465C57.868 34.8529 55.2946 35.4288 52.9511 36.8944L50.0309 23.8171C49.9242 23.3305 49.7172 22.8714 49.423 22.4692C49.1287 22.067 48.7538 21.7304 48.322 21.481C47.8902 21.2316 47.4111 21.0748 46.9154 21.0207C46.4196 20.9666 45.9179 21.0163 45.4423 21.1667L32.8196 25.1478C31.9073 25.4359 31.0865 25.9578 30.439 26.6614C29.7915 27.3651 29.3399 28.2259 29.1292 29.1582L27.231 37.6272C23.1062 34.6086 19.9305 35.3341 18.2112 36.1689C14.758 37.9225 13.2577 42.0495 14.3528 46.7051C15.7691 52.717 21.3577 58.8053 30.6295 58.8053C39.0251 58.8053 44.5444 52.243 48.9941 46.9967C53.2614 41.9438 56.0392 38.9106 59.2515 40.1136C61.0766 40.7881 61.8067 42.1626 61.4417 44.2005C60.6788 48.4113 55.0719 54.3393 44.9897 54.3393V58.8053C54.0097 58.8053 64.278 53.6393 65.8403 44.9952C66.5886 40.8354 64.6722 37.3647 60.8321 35.9465ZM45.5737 44.113C41.3285 49.1405 36.9335 54.3393 30.6295 54.3393C23.8034 54.3393 19.7151 49.99 18.693 45.677C18.2331 43.7266 18.3536 41.1199 20.2152 40.2084C22.0768 39.297 24.5079 40.9996 26.1287 42.5745L25.0518 47.3577H29.6366L33.3599 30.7368C33.4447 30.3586 33.6271 30.0092 33.889 29.7234C34.1509 29.4375 34.4832 29.225 34.8528 29.1071L44.4093 26.103C44.593 26.0454 44.7865 26.0264 44.9778 26.0473C45.1691 26.0683 45.3539 26.1286 45.5207 26.2245C45.6874 26.3205 45.8324 26.45 45.9465 26.6048C46.0605 26.7596 46.1412 26.9363 46.1833 27.1238L49.1036 40.1355C47.8917 41.375 46.7272 42.7495 45.5737 44.113Z" fill="white"/>
</g>
<defs>
<clipPath id="clip0_6703_87171">
<rect width="80" height="80" fill="white"/>
</clipPath>
</defs>
</svg>
