<svg width="80" height="80" viewBox="0 0 80 80" fill="none" xmlns="http://www.w3.org/2000/svg">
<rect width="80" height="80" rx="12" fill="#133629"/>
<path d="M20.7121 36.9217C20.7121 35.1375 21.2995 33.512 22.3154 32.2253L33.0668 42.9727C31.7566 43.9886 30.1299 44.576 28.369 44.576C24.1231 44.576 20.6899 41.1429 20.7121 36.9217ZM52.6966 44.5526C56.9205 44.5748 60.3532 41.1429 60.3532 36.8984C60.3532 35.1375 59.766 33.512 58.7502 32.2019L47.9988 42.9493C49.2856 43.9664 50.9123 44.5526 52.6966 44.5526ZM40.4995 45.9526L17.0979 22.5614C17.753 21.7266 18.4537 20.9126 19.1765 20.1455C24.5516 14.523 32.1185 11 40.5217 11C48.9247 11 56.5139 14.523 61.8668 20.1442C62.6121 20.8892 63.3124 21.7253 63.8996 22.538L40.4995 45.9526ZM22.3831 22.3582L40.5217 40.4891L58.6603 22.3582C53.8491 17.5041 47.4335 14.8394 40.5217 14.8394C33.6098 14.8394 27.2176 17.5029 22.3831 22.3582ZM40.4995 70C56.785 70 69.999 56.7913 69.999 40.5112C70.0446 34.8887 68.4854 29.6726 65.7755 25.2249L61.0097 29.9891C62.5908 31.8854 63.5391 34.2792 63.5391 36.9439C63.5391 42.9272 58.6822 47.7825 52.6966 47.7825C50.0539 47.7825 47.6367 46.8343 45.7391 45.2532L40.5217 50.4694L35.3042 45.2532C33.4066 46.8343 31.0128 47.7825 28.3468 47.7825C22.3609 47.7825 17.5043 42.9284 17.5043 36.9439C17.5043 34.3026 18.4525 31.8866 20.0336 29.9891L17.5954 27.551L15.2693 25.2249C12.559 29.696 11 34.9109 11 40.5112C10.9988 56.8132 24.213 70 40.4995 70Z" fill="white"/>
</svg>
