<svg width="80" height="81" viewBox="0 0 80 81" fill="none" xmlns="http://www.w3.org/2000/svg">
<rect width="80" height="80" rx="12" fill="#00D8AF"/>
<path d="M43.4722 42.352L36.5058 42.6131L36.5058 43.0862C36.5058 47.0745 36.5296 51.0636 36.4917 55.0512C36.4486 59.5737 33.2761 63.7249 28.9353 65.0102C25.2114 66.1141 21.7475 65.5882 18.6909 63.1507C16.0371 61.036 14.6036 58.2311 14.5969 54.811C14.5694 45.1369 14.6288 35.4627 14.5642 25.7894C14.5322 20.9769 18.2844 16.0215 23.4642 15.1282C27.9752 14.3502 32.4564 16.2477 34.8642 20.0768C35.7657 21.5109 36.3149 23.0692 36.436 24.7629C36.4732 25.2799 36.4992 25.799 36.4999 26.3175C36.5054 30.1323 36.5054 33.9473 36.4999 37.7626L36.4999 38.1472L43.4856 37.8973L43.4856 37.4443C43.4856 33.6042 43.4856 29.7643 43.4856 25.9247C43.4856 20.6719 47.2422 16.0186 52.3871 15.0189C58.7738 13.7782 64.4916 18.1496 65.3321 24.275C65.3882 24.7673 65.4108 25.2628 65.3998 25.7581C65.3998 35.3333 65.3537 44.9078 65.4228 54.4822C65.4577 59.4115 62.0474 63.9927 56.8156 65.1426C55.3812 65.4635 53.8969 65.492 52.4513 65.2263C51.0057 64.9607 49.6283 64.4063 48.4014 63.5964C47.1744 62.7864 46.123 61.7375 45.3099 60.512C44.4967 59.2866 43.9384 57.9098 43.6684 56.4638C43.5417 55.7698 43.479 55.0657 43.4811 54.3602C43.4633 50.4924 43.4722 46.6312 43.4722 42.7671L43.4722 42.352ZM19.0669 43.4395C19.2156 43.3443 19.2966 43.2996 19.3694 43.2409C20.4306 42.3899 21.6137 41.7332 22.8518 41.2006C25.6909 39.9687 28.6724 39.0964 31.7274 38.6039C32.0365 38.5548 32.1235 38.4551 32.1227 38.142C32.1108 34.0547 32.116 29.9667 32.1123 25.8794C32.1123 25.57 32.0952 25.2608 32.061 24.9533C31.5683 20.4592 26.9006 17.9748 22.9864 19.7555C20.3808 20.9412 19.0855 23.0729 19.0736 25.9292C19.0506 31.6514 19.0669 37.3736 19.0669 43.0966L19.0669 43.4395ZM48.0367 42.0084C48.0329 42.0924 48.027 42.1653 48.027 42.2389C48.027 46.4862 48.0218 50.7341 48.0359 54.9813C48.0447 55.4379 48.1048 55.892 48.215 56.3351C48.9946 59.6741 52.185 61.6608 55.3612 61.2398C58.5375 60.8188 61.0189 58.0912 61.0285 54.8712C61.0456 49.0508 61.0337 43.2297 61.0322 37.4093C61.0274 37.3206 61.0177 37.2322 61.0032 37.1445C57.1099 39.9636 52.6301 41.1225 48.0367 42.0084ZM47.862 37.4792C49.0644 37.2085 50.2059 36.9898 51.3259 36.6915C53.9083 36.0028 56.4053 35.1042 58.4996 33.3652C59.6685 32.3945 60.5804 31.2237 60.8152 29.6781C60.9245 28.9633 60.8829 28.2232 60.8769 27.4942C60.8695 26.5436 60.926 25.5789 60.7892 24.6439C60.1404 20.2115 55.3055 17.8558 51.3199 19.937C48.9701 21.1621 47.8687 23.2143 47.862 25.8481C47.8546 29.5747 47.862 33.3005 47.862 37.027L47.862 37.4792ZM32.1695 43.287C32.0952 43.2944 32.0001 43.2981 31.905 43.3153C30.0396 43.6552 28.1892 44.0687 26.4138 44.7419C24.6897 45.3957 22.9759 46.0808 21.5543 47.317C20.2627 48.4372 19.2906 49.7634 19.1442 51.5151C19.0506 52.6309 19.0974 53.7674 19.1175 54.8936C19.1258 55.3756 19.1856 55.8553 19.2958 56.3247C20.0546 59.5231 22.944 61.5768 26.2325 61.2406C28.7302 60.9847 30.5004 59.6785 31.5512 57.401C32.0075 56.4109 32.0818 55.3517 32.0937 54.2814C32.1145 52.3378 32.1524 50.3942 32.168 48.4498C32.1814 46.7435 32.1695 45.0387 32.1695 43.287Z" fill="#F8F9F9"/>
<path d="M19.0618 43.4376L19.0618 43.0939C19.0618 37.371 19.0454 31.6488 19.0685 25.9266C19.0804 23.0711 20.3757 20.9393 22.9812 19.7529C26.8954 17.9722 31.5631 20.4565 32.0559 24.9507C32.09 25.2582 32.1071 25.5673 32.1071 25.8767C32.1109 29.964 32.1071 34.0521 32.1175 38.1394C32.1175 38.4555 32.0313 38.5522 31.7222 38.6013C28.6672 39.094 25.6856 39.9666 22.8467 41.1987C21.6086 41.7313 20.4255 42.3888 19.3642 43.239C19.2914 43.2977 19.2074 43.3424 19.0618 43.4376Z" fill="#01D8B0"/>
<path d="M48.0316 42.0054C52.625 41.1195 57.1048 39.9607 60.9982 37.1416C61.0126 37.2293 61.0223 37.3177 61.0272 37.4064C61.0272 43.2268 61.0405 49.0479 61.0234 54.8683C61.0138 58.0883 58.525 60.8189 55.3561 61.2369C52.1873 61.6549 48.9895 59.6749 48.21 56.3321C48.0997 55.889 48.0397 55.4349 48.0309 54.9784C48.0167 50.7312 48.0219 46.4832 48.0219 42.236C48.0219 42.1624 48.0279 42.0895 48.0316 42.0054Z" fill="#00D8AF"/>
<path d="M47.8607 37.4782L47.8607 37.0282C47.8607 33.3016 47.8555 29.5758 47.8607 25.8493C47.8667 23.2132 48.968 21.1633 51.3164 19.9359C55.3019 17.8533 60.1369 20.2104 60.7857 24.6428C60.9224 25.5778 60.866 26.5425 60.8734 27.4932C60.8793 28.2221 60.9209 28.9622 60.8117 29.677C60.5754 31.2227 59.665 32.3934 58.496 33.3641C56.4018 35.1032 53.9048 36.0017 51.3223 36.6905C50.2031 36.9887 49.0617 37.2074 47.8607 37.4782Z" fill="#01D8AF"/>
<path d="M32.169 43.2842C32.169 45.0344 32.1787 46.7407 32.169 48.447C32.1549 50.3914 32.117 52.335 32.0947 54.2786C32.0828 55.3489 32.0085 56.4081 31.5522 57.3982C30.5014 59.6765 28.7282 60.9819 26.2334 61.2377C22.945 61.574 20.0556 59.518 19.2968 56.3218C19.1866 55.8525 19.1268 55.3728 19.1184 54.8907C19.0984 53.7646 19.0516 52.6318 19.1452 51.5123C19.2938 49.7606 20.2637 48.4344 21.5553 47.3142C22.9769 46.0817 24.6906 45.3929 26.4148 44.7391C28.1916 44.0697 30.0406 43.6524 31.9059 43.3124C31.9996 43.2953 32.0962 43.2916 32.169 43.2842Z" fill="#01D8B0"/>
</svg>
