<svg width="80" height="81" viewBox="0 0 80 81" fill="none" xmlns="http://www.w3.org/2000/svg">
<rect width="80" height="80" rx="12" fill="#02943F"/>
<g clip-path="url(#clip0_6696_86154)">
<path d="M49.5241 17.1799C52.7677 17.1799 55.9175 17.1515 59.0588 17.1955C60.1584 17.2112 61.0478 18.2044 61.0478 19.317C61.0578 24.5973 61.1743 29.8805 61.0123 35.1551C60.7495 43.7646 53.738 51.5884 45.1893 52.9682C43.7032 53.2083 42.1759 53.2439 40.6671 53.2751C38.3043 53.3249 35.9402 53.2893 33.5334 53.2893C33.5178 53.0222 33.4951 52.8147 33.4965 52.6087C33.5121 50.6918 33.4368 48.7721 33.5746 46.8595C33.7821 43.9764 36.2528 41.7838 39.1397 41.7128C40.4369 41.6801 41.7625 41.7128 43.0227 41.457C46.8047 40.6826 49.4971 37.3106 49.5141 33.4485C49.5354 28.3103 49.5141 23.1735 49.5141 18.0353L49.5241 17.1799Z" fill="#FDFDFD"/>
<path d="M46.4433 27.0797C46.4433 29.43 46.6366 31.7163 46.3936 33.9543C46.0995 36.6754 43.6331 38.5923 40.8939 38.6605C39.6152 38.6918 38.3195 38.6605 37.0806 38.9035C33.4107 39.6353 30.6758 42.787 30.5976 46.5241C30.4882 51.7817 30.5536 57.0392 30.5451 62.2968L30.5451 63.1707C30.2737 63.1834 30.0649 63.2019 29.8574 63.2019C27.0405 63.2019 24.2232 63.2019 21.4053 63.2019C19.9008 63.2019 18.9901 62.2783 18.9801 60.7579C18.9716 55.9039 18.9361 51.0499 18.9801 46.1973C19.071 35.7376 27.6695 27.1706 38.1319 27.0868C40.8996 27.0612 43.6686 27.0797 46.4433 27.0797Z" fill="#FDFDFD"/>
<path d="M19.0044 35.085L19.0044 17.2079C19.236 17.1951 19.442 17.1738 19.648 17.1738C22.4412 17.1738 25.2354 17.1738 28.0305 17.1738C29.6018 17.1738 30.504 18.0605 30.5125 19.6264C30.5239 21.4026 30.531 23.1788 30.4983 24.9522C30.4983 25.1866 30.298 25.549 30.0991 25.63C25.4579 27.5397 21.8222 30.6265 19.1919 34.8904C19.1339 34.9594 19.0712 35.0244 19.0044 35.085Z" fill="#FCFDFC"/>
<path d="M61.0375 45.335L61.0375 63.1993L60.3442 63.1993C57.5737 63.1993 54.8042 63.1993 52.0356 63.1993C50.4429 63.1993 49.5336 62.2856 49.5293 60.687C49.5293 58.935 49.5123 57.1829 49.545 55.4294C49.545 55.1936 49.7382 54.8284 49.9343 54.7488C54.5754 52.8447 58.2145 49.7617 60.8514 45.4998C60.9089 45.44 60.9712 45.3848 61.0375 45.335Z" fill="#FCFDFD"/>
</g>
<defs>
<clipPath id="clip0_6696_86154">
<rect width="80" height="80" fill="white" transform="translate(0 0.185059)"/>
</clipPath>
</defs>
</svg>
