<svg width="80" height="80" viewBox="0 0 80 80" fill="none" xmlns="http://www.w3.org/2000/svg">
<g clip-path="url(#clip0_6703_87086)">
<path d="M68 1.48619e-06L12 2.62268e-07C5.37258 1.17422e-07 -1.17422e-07 5.37258 -2.62268e-07 12L-1.48619e-06 68C-1.63103e-06 74.6274 5.37258 80 12 80L68 80C74.6274 80 80 74.6274 80 68L80 12C80 5.37259 74.6274 1.63103e-06 68 1.48619e-06Z" fill="white"/>
<path d="M40 80C62.0914 80 80 62.0914 80 40C80 17.9086 62.0914 1.35705e-06 40 8.74228e-07C17.9086 3.91405e-07 -3.91405e-07 17.9086 -8.74228e-07 40C-1.35705e-06 62.0914 17.9086 80 40 80Z" fill="white"/>
<path fill-rule="evenodd" clip-rule="evenodd" d="M14.7226 36.2225C16.2431 35.6565 17.4433 34.4585 18.0122 32.9389C17.0986 31.263 17.3979 29.1855 18.7474 27.8358C20.0969 26.4861 22.1741 26.1868 23.8497 27.1005C24.6057 26.8323 25.2896 26.3934 25.8483 25.8178C26.4229 25.2575 26.8616 24.573 27.1308 23.8168C26.1432 22.0073 26.5781 19.7515 28.1676 18.439C29.7571 17.1265 32.0542 17.1265 33.6437 18.439C35.2332 19.7515 35.6681 22.0073 34.6804 23.8168C34.9493 24.5731 35.3881 25.2577 35.9629 25.8178C36.5224 26.3935 37.207 26.8324 37.9636 27.1005C38.3484 27.1155 40.9112 27.2608 42.5764 29.4157C43.3452 30.4319 43.7738 31.6648 43.8011 32.9389C44.3689 34.46 45.5705 35.6587 47.0929 36.2225C48.9021 35.2348 51.1577 35.6697 52.47 37.2595C53.7823 38.8492 53.7823 41.1466 52.47 42.7364C51.1577 44.3261 48.9021 44.7611 47.0929 43.7733C45.5736 44.3409 44.3751 45.5396 43.8076 47.0591C44.7212 48.7349 44.4219 50.8124 43.0723 52.1621C41.7228 53.5118 39.6457 53.8112 37.9701 52.8975C36.4496 53.4633 35.2505 54.6626 34.6847 56.1833C35.6724 57.9928 35.2375 60.2486 33.6479 61.5611C32.0584 62.8736 29.7613 62.8736 28.1718 61.5611C26.5823 60.2486 26.1474 57.9928 27.1351 56.1833C26.5676 54.6637 25.369 53.4651 23.8497 52.8975C22.1746 53.8137 20.0961 53.5156 18.7458 52.1656C17.3955 50.8157 17.0968 48.7369 18.0122 47.0612C17.4421 45.5419 16.2425 44.3437 14.7226 43.7754C12.9134 44.762 10.6587 44.3264 9.34704 42.7369C8.03536 41.1473 8.03536 38.8506 9.34704 37.2611C10.6587 35.6716 12.9134 35.236 14.7226 36.2225ZM16.4326 37.9328C17.1336 39.218 17.1336 40.7714 16.4326 42.0566C17.0017 43.5788 18.2024 44.7797 19.7244 45.3488C21.4 44.4314 23.4798 44.7294 24.8305 46.0803C26.1813 47.4312 26.4792 49.5114 25.5619 51.1872C26.1294 52.7067 27.3279 53.9054 28.8472 54.473C30.1322 53.7719 31.6854 53.7719 32.9704 54.473C34.4898 53.9054 35.6883 52.7067 36.2558 51.1872C35.3422 49.5114 35.6415 47.4339 36.991 46.0842C38.3405 44.7345 40.4177 44.4351 42.0933 45.3488C43.6126 44.7813 44.8111 43.5826 45.3786 42.063C44.6796 40.7773 44.6796 39.2249 45.3786 37.9392C44.8128 36.4186 43.6137 35.2193 42.0933 34.6534C40.8831 34.4779 39.7404 33.9869 38.7802 33.2296C37.4311 32.1176 36.5337 30.5519 36.2558 28.8257C35.6915 27.3026 34.4922 26.1008 32.9704 25.5335C31.6849 26.2326 30.1327 26.2326 28.8472 25.5335C27.3268 26.0994 26.1277 27.2987 25.5619 28.8193C26.4718 30.4949 26.1708 32.5696 24.8222 33.9174C23.4736 35.2652 21.399 35.5647 19.7244 34.6534C18.2039 35.218 17.0031 36.4144 16.4326 37.9328Z" fill="#217F52"/>
<path fill-rule="evenodd" clip-rule="evenodd" d="M37.9097 34.6491C36.3888 35.215 35.1894 36.4143 34.6234 37.9349C35.3227 39.2206 35.3227 40.773 34.6234 42.0588C34.8915 42.8155 35.3305 43.5002 35.9063 44.0597C36.5288 44.7099 37.3145 45.1809 38.1812 45.4237C38.9231 45.6033 38.395 46.6444 37.9418 47.0933C37.4885 47.5422 36.4451 48.0746 36.2719 47.3327C36.0291 46.4661 35.558 45.6805 34.9078 45.0581C34.3482 44.4824 33.6633 44.0435 32.9065 43.7754C31.0968 44.762 28.8415 44.3264 27.5294 42.7369C26.2174 41.1473 26.2174 38.8506 27.5294 37.2611C28.8415 35.6716 31.0968 35.236 32.9065 36.2225C34.4274 35.6567 35.6268 34.4573 36.1928 32.9367C35.2771 31.261 35.5759 29.1823 36.9266 27.8323C38.2772 26.4823 40.3563 26.1843 42.0319 27.1005C42.788 26.8308 43.4725 26.3921 44.0332 25.8178C44.6086 25.258 45.0476 24.5734 45.3161 23.8168C44.3281 22.0073 44.7632 19.7515 46.3531 18.439C47.9431 17.1265 50.2408 17.1265 51.8308 18.439C53.4207 19.7515 53.8557 22.0073 52.8678 23.8168C53.1357 24.5737 53.5747 25.2585 54.1507 25.8178C54.7103 26.3925 55.3942 26.8313 56.1498 27.1005C57.8254 26.1843 59.9045 26.4823 61.2552 27.8323C62.6058 29.1823 62.9047 31.261 61.9889 32.9367C62.5549 34.4573 63.7544 35.6567 65.2752 36.2225C67.0849 35.236 69.3402 35.6716 70.6523 37.2611C71.9643 38.8506 71.9643 41.1473 70.6523 42.7369C69.3402 44.3264 67.0849 44.762 65.2752 43.7754C63.7544 44.3413 62.5549 45.5406 61.9889 47.0612C62.9047 48.7369 62.6058 50.8157 61.2552 52.1656C59.9045 53.5156 57.8254 53.8137 56.1498 52.8975C54.6312 53.4667 53.4329 54.6648 52.8635 56.1833C53.8515 57.9928 53.4164 60.2486 51.8265 61.5611C50.2365 62.8736 47.9388 62.8736 46.3488 61.5611C44.7589 60.2486 44.3239 57.9928 45.3118 56.1833C45.0427 55.4276 44.6039 54.7438 44.0289 54.1844C43.4061 53.5347 42.6205 53.0638 41.754 52.8205C41.0121 52.6388 41.5402 51.5998 41.9934 51.1509C42.4467 50.7019 43.4901 50.1696 43.6633 50.9093C43.906 51.7766 44.3771 52.5629 45.0274 53.1861C45.5873 53.7614 46.272 54.2003 47.0287 54.4688C48.3141 53.7676 49.8677 53.7676 51.1531 54.4688C52.6728 53.9012 53.8717 52.7025 54.4393 51.1829C53.5255 49.5071 53.8249 47.4296 55.1747 46.0799C56.5246 44.7302 58.6024 44.4308 60.2785 45.3446C61.7982 44.777 62.9971 43.5783 63.5647 42.0588C62.8635 40.7735 62.8635 39.2201 63.5647 37.9349C62.9971 36.4154 61.7982 35.2167 60.2785 34.6491C58.6024 35.5628 56.5246 35.2635 55.1747 33.9138C53.8249 32.5641 53.5255 30.4866 54.4393 28.8107C53.8717 27.2912 52.6728 26.0925 51.1531 25.5249C49.8677 26.226 48.3141 26.226 47.0287 25.5249C46.272 25.7934 45.5873 26.2322 45.0274 26.8076C44.453 27.3683 44.0143 28.0527 43.7446 28.8086C44.6609 30.484 44.3628 32.5628 43.0126 33.9133C41.6625 35.2638 39.5835 35.5626 37.9075 34.647L37.9097 34.6491Z" fill="#2DB269"/>
<path d="M40.3631 53.3938C42.7731 53.3938 44.7268 51.4401 44.7268 49.0301C44.7268 46.6202 42.7731 44.6665 40.3631 44.6665C37.9532 44.6665 35.9995 46.6202 35.9995 49.0301C35.9995 51.4401 37.9532 53.3938 40.3631 53.3938Z" fill="#217F52"/>
</g>
<defs>
<clipPath id="clip0_6703_87086">
<rect width="80" height="80" fill="white"/>
</clipPath>
</defs>
</svg>
