<svg width="80" height="80" viewBox="0 0 80 80" fill="none" xmlns="http://www.w3.org/2000/svg">
<g clip-path="url(#clip0_6703_87136)">
<path d="M68 1.48619e-06L12 2.62268e-07C5.37258 1.17422e-07 -1.17422e-07 5.37258 -2.62268e-07 12L-1.48619e-06 68C-1.63103e-06 74.6274 5.37258 80 12 80L68 80C74.6274 80 80 74.6274 80 68L80 12C80 5.37259 74.6274 1.63103e-06 68 1.48619e-06Z" fill="white"/>
<path d="M21 47.9531H26.3247V60.8516H21V47.9531ZM53.6753 39.5156H59V52.4141H53.6753V39.5156ZM29.1002 35.2828H34.4249V65H29.1002V35.2828ZM37.3829 36.5141H42.7076V59.3484H37.3813L37.3829 36.5141ZM45.4846 15H50.8093V52.4203H45.4846V15Z" fill="#242424"/>
</g>
<defs>
<clipPath id="clip0_6703_87136">
<rect width="80" height="80" fill="white"/>
</clipPath>
</defs>
</svg>
