<svg width="80" height="80" viewBox="0 0 80 80" fill="none" xmlns="http://www.w3.org/2000/svg">
<rect width="80" height="80" rx="12" fill="black"/>
<g clip-path="url(#clip0_160_96)">
<mask id="mask0_160_96" style="mask-type:luminance" maskUnits="userSpaceOnUse" x="22" y="8" width="37" height="65">
<path d="M59 8H22V73H59V8Z" fill="white"/>
</mask>
<g mask="url(#mask0_160_96)">
<path d="M40.4783 8.08106C38.0461 8.0932 35.6401 8.58746 33.3977 9.53569C31.1553 10.4839 29.1205 11.8676 27.4094 13.6076C25.6983 15.3475 24.3444 17.4097 23.4251 19.6764C22.5059 21.943 22.0392 24.3698 22.0518 26.818V33.0069H37.0234V24.0404C37.0232 23.6193 37.1055 23.2024 37.2654 22.8132C37.4254 22.4241 37.6601 22.0706 37.9559 21.7728C38.2517 21.4751 38.6028 21.239 38.9893 21.0778C39.3758 20.9167 39.7901 20.8338 40.2083 20.8339H40.7481C41.1665 20.8338 41.5808 20.9167 41.9674 21.0778C42.3539 21.239 42.705 21.4751 43.0009 21.7728C43.2967 22.0706 43.5314 22.4241 43.6915 22.8132C43.8516 23.2024 43.9338 23.6193 43.9337 24.0404V48.0776C45.8999 48.0776 47.8468 47.6878 49.6632 46.9304C51.4797 46.1731 53.1303 45.0631 54.5205 43.6636C55.9108 42.2641 57.0136 40.6028 57.7659 38.7743C58.5183 36.9459 58.9054 34.986 58.9054 33.0069V26.818C58.916 21.8575 56.9755 17.0945 53.508 13.5699C51.8066 11.8306 49.7782 10.4495 47.5412 9.5072C45.3042 8.56486 42.9033 8.08003 40.4783 8.08106Z" fill="white"/>
<path d="M40.7492 60.2484H40.2094C39.7911 60.2485 39.3769 60.1656 38.9904 60.0045C38.604 59.8434 38.2528 59.6071 37.9571 59.3094C37.6613 59.0118 37.4267 58.6584 37.2666 58.2694C37.1066 57.8803 37.0243 57.4634 37.0244 57.0423V33.0054C35.0583 33.0053 33.1113 33.3949 31.2948 34.1522C29.4782 34.9095 27.8277 36.0195 26.4375 37.419C25.0472 38.8184 23.9444 40.4799 23.192 42.3084C22.4397 44.1369 22.0526 46.0967 22.0527 48.0758V54.1787C22.0278 56.6304 22.486 59.0629 23.4008 61.3354C24.3157 63.6078 25.669 65.6751 27.3826 67.4177C29.0962 69.1604 31.1359 70.5438 33.384 71.4879C35.632 72.4319 38.0437 72.9182 40.4796 72.9182C42.9154 72.9182 45.327 72.4319 47.5751 71.4879C49.8231 70.5438 51.863 69.1604 53.5765 67.4177C55.29 65.6751 56.6435 63.6078 57.5582 61.3354C58.4731 59.0629 58.9313 56.6304 58.9064 54.1787V48.0758H43.9348V57.0423C43.9348 57.4634 43.8523 57.8803 43.6922 58.2694C43.5321 58.6584 43.2974 59.0119 43.0016 59.3096C42.7059 59.6074 42.3546 59.8434 41.9681 60.0045C41.5817 60.1656 41.1675 60.2485 40.7492 60.2484Z" fill="white"/>
</g>
</g>
<defs>
<clipPath id="clip0_160_96">
<rect width="37" height="65" fill="white" transform="translate(22 8)"/>
</clipPath>
</defs>
</svg>
