<svg width="80" height="80" viewBox="0 0 80 80" fill="none" xmlns="http://www.w3.org/2000/svg">
<g clip-path="url(#clip0_6703_87166)">
<path d="M68 1.48619e-06L12 2.62268e-07C5.37258 1.17422e-07 -1.17422e-07 5.37258 -2.62268e-07 12L-1.48619e-06 68C-1.63103e-06 74.6274 5.37258 80 12 80L68 80C74.6274 80 80 74.6274 80 68L80 12C80 5.37259 74.6274 1.63103e-06 68 1.48619e-06Z" fill="#00A3FF"/>
</g>
<path fill-rule="evenodd" clip-rule="evenodd" d="M39.5418 20.353L48.8589 34.937L39.5414 40.3669L30.2251 34.9368L39.5418 20.353ZM33.0772 34.2471L39.5418 24.1278L46.0066 34.2472L39.5414 38.015L33.0772 34.2471Z" fill="white"/>
<path d="M39.5281 43.5729L28.7203 37.2736L28.4251 37.7356C25.0964 42.9461 25.8398 49.7701 30.2125 54.1423C35.3582 59.2868 43.7008 59.2868 48.8467 54.1423C53.2194 49.7701 53.9624 42.9461 50.634 37.7356L50.3384 37.2734L39.5286 43.5734L39.5281 43.5729Z" fill="white"/>
<defs>
<clipPath id="clip0_6703_87166">
<rect width="80" height="80" fill="white"/>
</clipPath>
</defs>
</svg>
