<svg width="80" height="80" viewBox="0 0 80 80" fill="none" xmlns="http://www.w3.org/2000/svg">
<rect width="80" height="80" rx="12" fill="#F87171"/>
<path d="M39.8463 30.4816C38.9617 29.6937 37.2079 28.6075 34.1648 28.6217C31.1217 28.636 31.6191 30.1712 31.6191 30.1712C31.6191 30.1712 31.5567 31.4239 33.5443 31.463C35.5319 31.5018 37.6628 31.579 39.3915 32.2125C41.1201 32.8459 40.7319 31.268 39.8463 30.4816Z" fill="white"/>
<path d="M32.654 33.3429C32.4711 33.4508 32.4243 33.7544 32.6364 33.7929C33.8382 34.0071 35.7393 34.3969 37.8599 34.062C38.0609 34.0304 38.0308 33.7622 37.8854 33.6232C37.1331 32.9029 35.1127 31.893 32.654 33.3429Z" fill="white"/>
<path d="M57.6596 53.4898C57.6317 53.4514 57.5939 53.421 57.5495 53.4024C57.5055 53.3838 57.4568 53.3776 57.4094 53.3844C57.3616 53.3912 57.317 53.4108 57.2801 53.4408C57.2432 53.4709 57.2153 53.5103 57.2001 53.555C55.9632 57.1534 54.9505 56.2718 54.4826 55.4982C54.3201 55.2247 54.1988 54.9298 54.1226 54.6225C52.9421 50.0257 54.023 45.7915 54.023 45.7915C54.6655 47.7481 56.3505 48.3283 57.2137 48.4979C57.263 48.5078 57.3139 48.5038 57.3607 48.4861C57.4075 48.4688 57.4481 48.4384 57.4782 48.3993C57.508 48.3599 57.526 48.3128 57.5294 48.2641C57.5331 48.2151 57.5226 48.1661 57.4987 48.123C54.1914 41.7795 56.1467 39.0911 56.1467 39.0911C56.716 39.7103 57.6543 39.7658 58.2453 39.7336C58.2953 39.7308 58.3433 39.7143 58.384 39.6861C58.4246 39.6579 58.4562 39.6188 58.4751 39.5739C58.494 39.5286 58.4999 39.4793 58.4915 39.4312C58.4832 39.3832 58.4609 39.3382 58.4277 39.3019C56.0311 36.7125 55.8488 35.834 55.7554 31.4486C55.7043 29.0182 54.8317 27.74 54.0205 27.0743C53.0925 26.3135 52.3517 25.3442 51.9464 24.2257C48.7129 15.3303 42.6627 14.1549 37.0485 14.4877C30.0787 14.9015 26.3677 20.1221 24.6061 22.7234C22.7426 25.4738 21.2904 29.5407 21.3885 30.7851C21.4865 32.0294 22.6599 31.8346 22.6599 33.2731C22.6599 34.7119 20.3882 35.9081 21.2813 39.9525C21.6757 41.7345 23.2726 43.0703 22.5542 47.141C21.2698 54.457 26.9996 63.3463 28.4273 64.6725C28.6004 64.8318 28.9045 64.7032 28.8731 64.4722C28.6502 62.8393 28.9765 60.5739 28.9765 60.5739C31.8472 66.5959 39.8785 65.479 42.3939 64.9624C42.4472 64.9515 42.4959 64.9249 42.5331 64.8861C42.5703 64.8474 42.5945 64.7981 42.6019 64.7453C42.6097 64.6926 42.6004 64.639 42.5756 64.5915C42.5508 64.5441 42.5117 64.5053 42.4636 64.4805C39.9238 63.1602 39.3433 60.4781 39.3433 60.4781C41.8708 61.6489 43.49 61.4526 44.2705 61.2015C44.3179 61.186 44.3598 61.1577 44.3914 61.1196C44.423 61.0818 44.4432 61.0359 44.4491 60.9872C44.4553 60.9385 44.4469 60.8892 44.4255 60.8452C44.4041 60.8008 44.3703 60.7636 44.3278 60.7373C43.5666 60.2697 42.4063 58.3385 41.5284 56.4486C41.1681 55.6687 41.0401 54.8052 41.1598 53.9574C41.2791 53.1094 41.6413 52.3122 42.2041 51.657C43.2311 50.4576 44.5784 48.7835 46.1102 47.0046C46.4305 46.6297 46.876 46.9956 47.0447 47.4018C49.2826 52.8855 52.1939 57.0191 54.2007 58.1587C55.6559 59.038 57.2497 59.1962 57.966 58.643C59.9405 57.119 58.375 54.4898 57.6596 53.4898ZM33.4317 48.3863C31.0314 48.528 31.5784 45.4746 29.8152 45.5494C27.9264 45.6319 28.4924 47.9602 27.2256 48.1019C25.9587 48.2436 26.1066 44.683 26.9958 44.2697C28.3967 43.6207 30.0373 43.4647 31.3508 43.5097C32.9071 43.5621 34.3939 43.5029 35.0916 44.9677C35.9179 46.6957 35.8314 48.2483 33.4317 48.3863ZM48.6116 26.5668C45.4202 28.423 45.2323 29.3405 44.7753 32.6046C44.6742 33.3218 44.5715 34.1615 44.9071 34.6362C45.6646 35.7072 47.1052 36.5004 46.7098 38.3094C45.7678 42.6145 43.2838 47.6619 39.952 49.2393C39.5508 49.4291 39.0912 49.0452 38.9979 48.6191C38.6264 46.9131 37.7424 43.8111 37.5036 42.7984C36.317 36.9968 30.6631 36.9165 30.5045 38.026C30.4578 38.3559 31.6497 38.7906 32.4063 39.0319C33.1009 39.257 33.1247 40.2269 32.4329 40.4563C32.2516 40.5128 32.0627 40.5426 31.8723 40.5447C30.4746 40.4511 28.7015 40.5574 27.9019 40.6145C27.6342 40.634 27.3687 40.5556 27.1572 40.394C26.9456 40.2322 26.8031 39.9993 26.7576 39.7404C26.4451 37.9646 26.9974 37.328 27.6652 35.6415C27.9976 34.8018 28.4243 33.1091 28.5721 32.2408C28.6487 31.7754 28.6157 31.216 28.5659 30.7971C28.5055 30.3017 28.4817 29.8026 28.4947 29.3038C28.5422 27.6943 28.7053 26.3802 29.9576 26.3802C32.2134 26.3802 36.9864 26.3869 37.7424 25.3014C38.5353 24.1649 34.1111 25.2669 29.3571 25.117C29.2642 25.114 29.1755 25.0779 29.1077 25.0155C29.0399 24.9532 28.9976 24.8688 28.9887 24.7782C28.9887 24.7497 28.9834 24.7219 28.9803 24.6935C28.9731 24.6122 28.9832 24.5304 29.0098 24.4532C29.0364 24.3759 29.0789 24.3048 29.1349 24.2444C29.1908 24.1839 29.2588 24.1354 29.3348 24.1019C29.4107 24.0684 29.4929 24.0505 29.5762 24.0495C32.1151 24.0188 34.0469 23.8464 34.5548 23.1222C35.0711 22.3815 32.5052 22.7136 29.5969 22.7399C29.2246 22.7399 28.9167 22.7346 28.9359 22.371L28.9359 22.359C28.9437 22.2148 29.0055 22.0783 29.1094 21.9758C29.2134 21.8732 29.3523 21.8116 29.4996 21.8028C31.2106 21.6926 31.9399 21.5652 32.0119 21.0299C32.0838 20.4946 31.8357 20.5486 29.9438 20.6551C29.5325 20.6776 29.6505 20.3725 29.8841 20.0389C30.4746 19.188 33.1148 16.7336 38.9564 16.9128C48.9641 17.2247 48.6478 24.162 48.9542 25.8472C48.9787 25.987 48.9591 26.1309 48.8981 26.2595C48.837 26.3881 48.7368 26.4954 48.6116 26.5668Z" fill="white"/>
</svg>
