<svg width="80" height="80" viewBox="0 0 80 80" fill="none" xmlns="http://www.w3.org/2000/svg">
<rect width="80" height="80" rx="12" fill="#112434"/>
<path d="M72.9928 40.3528C72.6203 21.9547 57.2896 7.3764 38.8543 8.02055C20.8481 8.64211 6.62376 23.7177 7.00759 41.7541C7.30111 55.078 15.4293 66.379 26.8878 71.3628C28.5135 69.2947 29.8682 65.5767 30.5455 63.5086C31.2229 61.8134 31.9341 60.1635 32.6792 58.5587C36.032 59.7227 40.5251 58.6152 42.9862 55.9369L43.0878 55.8352L43.0765 55.8352C40.0961 54.5243 35.9869 55.2023 33.2775 57.3043C34.2032 55.3944 35.1741 53.5411 36.2014 51.7555C39.4978 53.0777 44.0361 52.1736 46.61 49.6196L46.7116 49.5179L46.7003 49.5179C43.8329 48.094 39.7801 48.546 36.9803 50.4333C37.9964 48.7381 39.0575 47.0995 40.1639 45.5399C43.5732 46.6022 48.0663 45.2913 50.4257 42.4887L50.516 42.3757L50.5048 42.3757C47.7276 41.3021 44.0699 41.9349 41.4734 43.7544C41.5637 43.6301 41.6541 43.5058 41.7444 43.3815C42.4104 42.5113 43.0878 41.675 43.7764 40.85C47.8067 39.7086 51.3966 35.595 51.9724 31.3459L51.9949 31.1763L51.9836 31.1763C47.8179 32.0126 43.957 36.1149 43.1894 40.4545C42.5233 41.2456 41.8798 42.0479 41.2364 42.8842C42.275 40.0589 42.0943 36.6234 40.5703 34.2502L40.5703 34.2163L40.48 34.3293C38.1883 37.2337 37.8157 41.9575 39.5994 45.0879C38.5495 46.5683 37.5448 48.1166 36.5739 49.71C37.1835 46.5005 36.1562 42.7712 33.8984 40.6692L33.8871 40.6579L33.8307 40.7935C32.3405 44.1386 33.142 48.7607 35.5918 51.3713C34.6209 53.0551 33.7065 54.7955 32.8259 56.6036C33.3565 53.2698 32.1711 49.4049 29.7778 47.3142L29.7666 47.3029L29.7101 47.4385C28.3554 50.9531 29.394 55.7109 32.0357 58.2536C31.4599 59.4854 30.9068 60.7511 30.3762 62.0281C30.252 61.8925 30.0826 61.7908 29.8907 61.7343C29.2021 61.5309 28.2538 61.1693 27.2039 60.5477C26.5153 60.1296 25.7815 59.7905 25.0138 59.5419C22.0335 58.57 22.4738 57.1235 20.9158 54.253C20.8142 54.0609 19.5837 52.7839 19.3241 52.5466C19.2563 52.4901 18.4774 52.038 18.071 51.1905C17.7097 50.422 17.4952 49.6987 17.4275 48.9981C17.3259 48.0601 16.9421 47.4498 16.0276 47.1334C11.67 45.6304 13.623 39.9459 13.7811 39.1888C13.9053 38.5446 13.3521 37.132 13.1376 36.3635C13.115 36.2731 13.0925 36.1601 13.0699 36.0132C12.7538 34.4875 13.465 33.1992 13.9843 32.6681C14.5149 32.1369 16.3324 31.2894 16.7163 30.7921C17.0888 30.3062 17.3936 29.7411 17.7775 29.2665C18.2855 28.6336 19.8547 27.3792 21.9545 26.2491C23.2301 25.571 23.4559 23.7855 23.9413 23.2317C24.7767 22.2937 26.0298 22.2937 26.9668 21.4462C27.441 21.0167 28.1183 20.802 28.5586 20.3613C30.7261 18.135 33.6387 17.2309 36.5175 16.6997C38.4592 16.3381 40.6154 16.8919 42.6362 17.2422C42.9297 17.2874 43.212 17.3665 43.4942 17.4456C48.0437 17.6038 53.519 18.5531 55.4946 20.4743C56.7251 21.6835 57.3347 22.9944 57.6282 23.8985C57.9556 24.9156 58.4072 25.8762 58.9716 26.7803L60.1909 28.7579C60.9585 30.0123 61.2182 31.5154 60.8795 32.9506C60.6876 33.7643 60.5973 34.6232 60.8344 35.0978C61.2182 35.8437 62.381 37.0529 63.0809 37.7422C63.4196 38.0813 63.7921 38.3751 64.1985 38.6237C65.1355 39.2114 66.9079 40.3528 66.9079 40.4545C66.9079 40.5901 67.0547 41.1551 66.2644 41.8332C65.4742 42.5113 64.0066 43.5962 64.0066 43.5962C64.0066 43.5962 64.0856 44.0934 64.2888 44.489C64.492 44.8845 65.0113 45.4721 64.8533 46.0146C64.6953 46.557 63.6115 46.9752 63.9163 47.5628C64.2324 48.1618 65.0001 48.3426 64.7743 48.885C64.5485 49.4275 63.476 50.3429 63.5776 50.7497C63.6905 51.1452 64.5598 54.8294 62.539 55.4735C61.015 55.9595 56.838 56.2307 54.8737 56.3324C54.027 56.3776 53.2593 56.8523 52.8529 57.5981C52.5481 58.1519 52.2433 58.9317 52.0965 59.9487C51.7127 62.5593 49.1388 68.5488 49.1388 68.5488C49.1388 68.5488 49.0597 68.6957 48.9469 68.9557C48.7211 69.4981 48.405 70.3457 48.4501 70.6847C48.484 70.9107 48.7775 71.3402 49.2291 71.8713C49.5791 72.2895 50.1548 72.459 50.6854 72.2782C63.905 67.7804 73.2976 55.0893 72.9928 40.3528Z" fill="#00DACC"/>
</svg>
