<svg width="80" height="81" viewBox="0 0 80 81" fill="none" xmlns="http://www.w3.org/2000/svg">
<rect width="80" height="80" rx="12" fill="#211438"/>
<g clip-path="url(#clip0_6696_86404)">
<path d="M39.4747 0.185059L40.5554 0.185059C40.901 0.229514 41.2499 0.242351 41.5977 0.223409C42.8431 0.263669 44.0855 0.368296 45.3201 0.536873C47.6408 0.839107 49.9293 1.35085 52.1577 2.06584C58.9897 4.24929 65.1105 8.22582 69.8814 13.5805C74.6523 18.9353 77.8985 25.4719 79.2813 32.5085C79.6545 34.2834 79.8689 36.0879 79.9217 37.9008C79.9334 38.0909 79.945 38.2809 79.9584 38.4727C79.9524 38.6958 79.9663 38.919 80.0001 39.1396L80.0001 41.9391C79.9901 42.0175 79.9767 42.0959 79.9717 42.1742C79.895 43.8795 79.7016 45.5775 79.393 47.2563C77.4668 57.4556 72.3886 65.749 64.1602 72.0533C57.6561 77.0388 50.2381 79.6765 42.053 80.125C39.1416 80.2805 36.222 80.1128 33.3476 79.6248C30.1295 79.0962 26.9914 78.1617 24.0084 76.8437C15.7199 73.1555 9.33258 67.363 4.95151 59.4164C0.407002 51.1596 -0.965522 42.336 0.653824 33.0721C1.93129 25.7691 5.08826 19.333 9.98299 13.7691C14.4812 8.62361 20.2345 4.7292 26.6834 2.46434C29.1387 1.59128 31.6751 0.965693 34.2548 0.596898C35.6361 0.39104 37.0282 0.26633 38.4241 0.223409C38.7747 0.242861 39.1264 0.230024 39.4747 0.185059V0.185059ZM43.157 34.3026L58.9619 34.3026C59.3049 34.2817 59.6282 34.1357 59.8708 33.8924C60.1049 33.6844 60.2593 33.4015 60.3078 33.0921C60.4449 31.3616 60.3024 29.6202 59.8858 27.935C59.0359 24.4075 57.0903 21.2399 54.3283 18.8863C51.5662 16.5328 48.1295 15.1144 44.5112 14.8345C41.8095 14.6361 39.1746 15.0012 36.6897 16.075C31.3085 18.3938 27.9031 22.4038 26.4733 28.105C26.0914 29.634 26.013 31.1963 26.0347 32.7736C26.048 33.7374 26.6117 34.3126 27.579 34.3126L43.157 34.3026ZM43.0953 40.0217L62.1773 40.0217C62.4135 40.0285 62.6477 39.9769 62.8592 39.8713C63.0706 39.7657 63.2526 39.6095 63.389 39.4165C63.5253 39.2235 63.6119 38.9998 63.6408 38.7653C63.6697 38.5308 63.6402 38.2928 63.5548 38.0725C63.3413 37.4756 62.8193 37.1421 62.0972 37.1421L23.955 37.1421C23.7457 37.1438 23.5393 37.1916 23.3506 37.2822C23.1618 37.3727 22.9954 37.5038 22.8632 37.6661C22.731 37.8284 22.6363 38.0179 22.5857 38.221C22.5352 38.4241 22.5301 38.6359 22.5708 38.8412C22.7059 39.5681 23.2663 40.0217 24.0351 40.0217L43.0953 40.0217ZM41.1758 49.2205L58.3365 49.2205C58.602 49.2353 58.8659 49.1724 59.0961 49.0394C59.3263 48.9064 59.5127 48.7092 59.6323 48.4718C60.1643 47.4714 59.4656 46.341 58.3165 46.341L23.8883 46.341C23.6807 46.3468 23.4772 46.4006 23.2938 46.498C23.1104 46.5955 22.952 46.7341 22.831 46.9029C22.6623 47.1212 22.5607 47.3838 22.5385 47.6588C22.5163 47.9338 22.5745 48.2093 22.7059 48.4518C22.822 48.6948 23.008 48.8976 23.24 49.0342C23.472 49.1709 23.7396 49.2351 24.0084 49.2188L41.1758 49.2205ZM49.491 51.1013L35.3722 51.1013C35.1545 51.0942 34.9381 51.1373 34.7398 51.2273C34.5415 51.3173 34.3666 51.4518 34.2287 51.6203C34.0908 51.7888 33.9936 51.9869 33.9446 52.199C33.8956 52.4112 33.8962 52.6318 33.9463 52.8437C34.0847 53.544 34.6501 53.9808 35.4239 53.9808L63.7282 53.9808C63.9938 53.976 64.2522 53.8935 64.4715 53.7436C64.6908 53.5937 64.8614 53.3828 64.9623 53.1371C65.0654 52.917 65.1105 52.6742 65.0935 52.4317C65.0766 52.1892 64.998 51.9551 64.8652 51.7514C64.7325 51.5477 64.55 51.3813 64.335 51.2678C64.12 51.1544 63.8796 51.0976 63.6365 51.1029L49.491 51.1013ZM30.0572 44.6619L43.8992 44.6619C44.1335 44.668 44.3657 44.6165 44.5755 44.5119C44.7853 44.4073 44.9662 44.2528 45.1023 44.0621C45.2385 43.8713 45.3257 43.65 45.3564 43.4177C45.3871 43.1853 45.3603 42.949 45.2784 42.7295C45.1801 42.4436 44.9921 42.1971 44.7424 42.0267C44.4927 41.8564 44.1946 41.7713 43.8925 41.7841L16.0685 41.7841C15.8231 41.7959 15.5853 41.8733 15.38 42.0082C15.1747 42.1431 15.0093 42.3305 14.9011 42.551C14.7825 42.7728 14.7243 43.0219 14.7324 43.2733C14.7406 43.5246 14.8146 43.7694 14.9473 43.9831C15.0799 44.1968 15.2664 44.3718 15.4881 44.4907C15.7098 44.6095 15.9588 44.668 16.2102 44.6603L30.0572 44.6619ZM39.9967 63.3781L49.516 63.3781C49.7075 63.3822 49.8979 63.3475 50.0756 63.2761C50.2534 63.2047 50.4148 63.0981 50.5503 62.9627C50.6857 62.8273 50.7923 62.6658 50.8637 62.4881C50.935 62.3104 50.9697 62.12 50.9655 61.9286C50.9613 61.7371 50.9184 61.5485 50.8394 61.374C50.7604 61.1996 50.6468 61.0429 50.5056 60.9135C50.3645 60.7841 50.1985 60.6846 50.0178 60.621C49.8371 60.5574 49.6455 60.5311 49.4543 60.5435L30.4141 60.5435C30.2135 60.5501 30.0169 60.6011 29.8384 60.6928C29.6599 60.7845 29.5039 60.9146 29.3818 61.0738C29.2101 61.2801 29.1027 61.5323 29.0731 61.799C29.0434 62.0658 29.0928 62.3354 29.215 62.5744C29.3226 62.8216 29.5026 63.0303 29.7312 63.1732C29.9599 63.3161 30.2264 63.3863 30.4958 63.3747C33.6622 63.3769 36.8292 63.3781 39.9967 63.3781ZM49.8979 55.6182L41.3192 55.6182C41.1084 55.6183 40.9003 55.6658 40.7104 55.7572C40.5204 55.8485 40.3533 55.9814 40.2216 56.1459C40.0898 56.3104 39.9967 56.5025 39.9492 56.7078C39.9016 56.9131 39.9007 57.1265 39.9467 57.3322C40.0935 58.0258 40.6538 58.456 41.416 58.456L58.515 58.456C58.7481 58.4401 58.9738 58.3668 59.1717 58.2425C59.3696 58.1183 59.5337 57.9469 59.6493 57.7439C59.7649 57.5408 59.8284 57.3123 59.8342 57.0787C59.8399 56.8451 59.7878 56.6137 59.6824 56.4051C59.5728 56.1627 59.3933 55.9586 59.1669 55.8189C58.9404 55.6793 58.6774 55.6105 58.4116 55.6215C55.5754 55.617 52.7375 55.6165 49.8979 55.6198L49.8979 55.6182ZM24.6138 51.1413L17.8629 51.1413C17.6686 51.1309 17.4741 51.1605 17.2917 51.2282C17.1093 51.296 16.9427 51.4006 16.8023 51.5354C16.662 51.6702 16.5508 51.8324 16.4758 52.0119C16.4007 52.1914 16.3633 52.3845 16.3659 52.5791C16.3686 52.7736 16.4112 52.9656 16.4911 53.143C16.571 53.3205 16.6865 53.4796 16.8304 53.6106C16.9744 53.7415 17.1437 53.8415 17.3279 53.9043C17.5121 53.9672 17.7073 53.9915 17.9013 53.9758L31.4197 53.9758C31.6207 53.9702 31.8179 53.9196 31.9968 53.8279C32.1757 53.7361 32.3318 53.6055 32.4537 53.4456C32.6279 53.2361 32.736 52.9795 32.7642 52.7085C32.7924 52.4375 32.7395 52.1642 32.6121 51.9233C32.5026 51.6809 32.3231 51.4767 32.0966 51.3371C31.8702 51.1974 31.6072 51.1287 31.3413 51.1396C29.0933 51.138 26.8502 51.1413 24.6138 51.1413ZM21.4735 38.546C21.4705 38.2582 21.3826 37.9776 21.2206 37.7396C21.0587 37.5015 20.83 37.3167 20.5632 37.2082C20.2965 37.0997 20.0037 37.0724 19.7215 37.1298C19.4394 37.1871 19.1804 37.3266 18.9773 37.5306C18.7742 37.7346 18.6358 37.9941 18.5797 38.2765C18.5236 38.5589 18.5523 38.8515 18.662 39.1177C18.7717 39.3838 18.9577 39.6116 19.1965 39.7725C19.4353 39.9333 19.7163 40.02 20.0042 40.0217C20.3945 40.0199 20.7682 39.8637 21.0436 39.5871C21.3189 39.3106 21.4735 38.9362 21.4735 38.546ZM12.0526 41.7824C11.7589 41.7774 11.4704 41.8599 11.2237 42.0193C10.977 42.1788 10.7833 42.4079 10.6672 42.6777C10.5511 42.9475 10.5179 43.2457 10.5718 43.5344C10.6257 43.8231 10.7642 44.0892 10.9698 44.299C11.1754 44.5088 11.4387 44.6527 11.7263 44.7124C12.0139 44.7722 12.3128 44.7451 12.5849 44.6346C12.8571 44.524 13.0902 44.3351 13.2547 44.0918C13.4191 43.8484 13.5075 43.5617 13.5085 43.268C13.5105 43.0749 13.4744 42.8833 13.4023 42.7041C13.3302 42.5249 13.2235 42.3617 13.0883 42.2237C12.9531 42.0858 12.7921 41.9758 12.6144 41.9001C12.4367 41.8243 12.2458 41.7844 12.0526 41.7824ZM21.4735 47.7849C21.4712 47.497 21.3838 47.2162 21.2224 46.9778C21.061 46.7394 20.8327 46.5541 20.5663 46.445C20.2998 46.3359 20.007 46.3079 19.7247 46.3646C19.4425 46.4214 19.1832 46.5602 18.9796 46.7638C18.776 46.9674 18.6371 47.2266 18.5804 47.5088C18.5236 47.791 18.5516 48.0837 18.6607 48.3501C18.7698 48.6166 18.9552 48.8448 19.1937 49.0062C19.4321 49.1675 19.713 49.2549 20.0009 49.2572C20.3906 49.2563 20.7642 49.1014 21.04 48.8262C21.3159 48.551 21.4717 48.1778 21.4735 47.7882L21.4735 47.7849ZM12.7114 52.5302C12.713 52.818 12.7997 53.0989 12.9605 53.3376C13.1213 53.5764 13.349 53.7623 13.6152 53.872C13.8813 53.9818 14.1739 54.0105 14.4563 53.9545C14.7387 53.8986 14.9982 53.7604 15.2023 53.5575C15.4065 53.3546 15.5461 53.0958 15.6036 52.8139C15.6612 52.5319 15.6342 52.2391 15.5259 51.9725C15.4176 51.7058 15.233 51.477 14.9951 51.3149C14.7573 51.1528 14.4768 51.0645 14.1889 51.0613C13.7984 51.0608 13.4235 51.2152 13.1466 51.4905C12.8696 51.7658 12.7131 52.1397 12.7114 52.5302ZM38.9544 57.0321C38.9521 56.7441 38.8647 56.4633 38.7032 56.2249C38.5418 55.9864 38.3134 55.801 38.0468 55.692C37.7803 55.5829 37.4874 55.5551 37.2051 55.6119C36.9227 55.6688 36.6635 55.8078 36.4599 56.0116C36.2564 56.2153 36.1176 56.4746 36.0611 56.757C36.0045 57.0393 36.0327 57.3321 36.1421 57.5985C36.2515 57.8649 36.4372 58.093 36.6758 58.2541C36.9145 58.4153 37.1955 58.5024 37.4835 58.5044C37.8744 58.503 38.2487 58.3468 38.5245 58.0698C38.8002 57.7929 38.9549 57.4179 38.9544 57.0271L38.9544 57.0321ZM28.1543 61.9508C28.1517 61.6629 28.064 61.3823 27.9024 61.144C27.7407 60.9058 27.5122 60.7207 27.2456 60.6119C26.979 60.5031 26.6862 60.4755 26.404 60.5325C26.1217 60.5896 25.8627 60.7287 25.6593 60.9325C25.4559 61.1363 25.3173 61.3957 25.2609 61.678C25.2045 61.9603 25.2327 62.2529 25.3422 62.5192C25.4516 62.7855 25.6373 63.0135 25.8759 63.1746C26.1146 63.3358 26.3955 63.4228 26.6834 63.4247C27.0746 63.4234 27.4492 63.2669 27.725 62.9896C28.0008 62.7123 28.1552 62.3369 28.1543 61.9458L28.1543 61.9508Z" fill="#211438"/>
<path d="M38.4326 0.223416C38.4367 0.21538 38.44 0.207011 38.4426 0.1984C38.4426 0.1984 38.4426 0.1984 38.4426 0.185059L39.4816 0.185059C39.1339 0.22993 38.7827 0.24277 38.4326 0.223416ZM41.5963 0.185059C41.5953 0.193928 41.5953 0.202873 41.5963 0.211742C41.5963 0.211742 41.5963 0.211742 41.6063 0.223416C41.2556 0.242872 40.9039 0.230032 40.5556 0.185059L41.5963 0.185059Z" fill="#776F85"/>
<path d="M43.1572 34.3029L27.5758 34.3029C26.6085 34.3029 26.0448 33.7276 26.0315 32.7639C26.0098 31.1932 26.0882 29.6309 26.4701 28.0953C27.8943 22.4107 31.3009 18.4029 36.6898 16.0719C39.1814 14.9981 41.8097 14.633 44.5114 14.8314C48.1297 15.1113 51.5664 16.5297 54.3284 18.8833C57.0905 21.2368 59.0361 24.4044 59.886 27.9319C60.3026 29.6171 60.445 31.3585 60.3079 33.089C60.2595 33.3984 60.105 33.6813 59.871 33.8894C59.6284 34.1327 59.3051 34.2786 58.9621 34.2995L58.7036 34.2995L43.1572 34.3029ZM43.0955 40.0219L24.0352 40.0219C23.2664 40.0219 22.7011 39.5684 22.571 38.8414C22.5302 38.6361 22.5353 38.4244 22.5859 38.2212C22.6364 38.0181 22.7312 37.8287 22.8634 37.6664C22.9956 37.5041 23.162 37.373 23.3507 37.2824C23.5394 37.1918 23.7458 37.144 23.9552 37.1424L62.0974 37.1424C62.8195 37.1424 63.3415 37.4759 63.555 38.0728C63.6404 38.2931 63.6699 38.5311 63.641 38.7656C63.612 39.0001 63.5255 39.2238 63.3892 39.4168C63.2528 39.6097 63.0708 39.766 62.8594 39.8716C62.6479 39.9771 62.4137 40.0288 62.1774 40.0219L43.0955 40.0219ZM41.176 49.2207L24.0152 49.2207C23.7464 49.2371 23.4789 49.1728 23.2468 49.0362C23.0148 48.8995 22.8288 48.6967 22.7127 48.4538C22.5813 48.2112 22.5231 47.9357 22.5453 47.6607C22.5675 47.3857 22.6691 47.1231 22.8378 46.9048C22.9588 46.736 23.1172 46.5974 23.3006 46.5C23.484 46.4025 23.6875 46.3487 23.8951 46.3429L58.3167 46.3429C59.4624 46.3429 60.1645 47.475 59.6325 48.4738C59.5128 48.7111 59.3265 48.9083 59.0963 49.0413C58.8661 49.1743 58.6021 49.2372 58.3367 49.2224L41.176 49.2224L41.176 49.2207ZM49.4912 51.1015L63.63 51.1015C63.8731 51.0962 64.1135 51.153 64.3285 51.2664C64.5435 51.3799 64.726 51.5463 64.8588 51.75C64.9915 51.9536 65.0701 52.1878 65.0871 52.4303C65.1041 52.6727 65.0589 52.9155 64.9559 53.1357C64.855 53.3814 64.6844 53.5922 64.4651 53.7422C64.2458 53.8921 63.9874 53.9746 63.7218 53.9794L35.424 53.9794C34.6502 53.9794 34.0899 53.5425 33.9464 52.8423C33.8964 52.6304 33.8958 52.4098 33.9448 52.1976C33.9938 51.9854 34.091 51.7874 34.2289 51.6189C34.3668 51.4504 34.5417 51.3159 34.74 51.2259C34.9383 51.1359 35.1547 51.0927 35.3723 51.0999L49.4912 51.1015ZM30.0573 44.6622L16.2153 44.6622C15.9639 44.6699 15.7149 44.6115 15.4932 44.4926C15.2715 44.3738 15.085 44.1987 14.9524 43.985C14.8198 43.7713 14.7457 43.5265 14.7376 43.2752C14.7295 43.0238 14.7876 42.7748 14.9062 42.553C15.0144 42.3325 15.1798 42.145 15.3851 42.0101C15.5905 41.8752 15.8282 41.7978 16.0736 41.786L43.8977 41.786C44.1997 41.7732 44.4978 41.8583 44.7476 42.0287C44.9973 42.199 45.1853 42.4455 45.2835 42.7314C45.3655 42.9509 45.3923 43.1873 45.3616 43.4196C45.3309 43.6519 45.2436 43.8732 45.1075 44.064C44.9713 44.2548 44.7904 44.4092 44.5807 44.5138C44.3709 44.6184 44.1387 44.6699 43.9043 44.6638L30.0573 44.6622ZM39.9969 63.3783L30.4909 63.3783C30.2216 63.3899 29.955 63.3197 29.7264 63.1768C29.4977 63.0339 29.3177 62.8251 29.2101 62.578C29.0879 62.339 29.0386 62.0694 29.0682 61.8026C29.0979 61.5359 29.2052 61.2837 29.3769 61.0774C29.4991 60.9182 29.655 60.7881 29.8335 60.6964C30.012 60.6047 30.2087 60.5537 30.4092 60.5471L49.4545 60.5471C49.6456 60.5347 49.8373 60.561 50.018 60.6246C50.1987 60.6882 50.3646 60.7877 50.5058 60.9171C50.647 61.0465 50.7606 61.2032 50.8396 61.3776C50.9186 61.5521 50.9615 61.7407 50.9657 61.9322C50.9699 62.1236 50.9352 62.314 50.8638 62.4917C50.7925 62.6694 50.6859 62.8309 50.5504 62.9663C50.415 63.1017 50.2535 63.2083 50.0758 63.2797C49.8981 63.3511 49.7077 63.3858 49.5162 63.3816L46.7161 63.3816L39.9969 63.3783ZM49.8981 55.6201L58.4168 55.6201C58.6826 55.6091 58.9456 55.6779 59.1721 55.8175C59.3985 55.9572 59.578 56.1613 59.6876 56.4037C59.793 56.6123 59.8451 56.8437 59.8394 57.0773C59.8336 57.3108 59.7701 57.5394 59.6545 57.7425C59.5389 57.9455 59.3748 58.1168 59.1769 58.2411C58.9789 58.3654 58.7533 58.4387 58.5202 58.4546L41.4161 58.4546C40.654 58.4546 40.0936 58.0244 39.9469 57.3308C39.9009 57.1251 39.9017 56.9117 39.9493 56.7064C39.9969 56.5011 40.09 56.309 40.2218 56.1445C40.3535 55.98 40.5205 55.8471 40.7105 55.7558C40.9005 55.6644 41.1086 55.6169 41.3194 55.6167L45.1184 55.6167L49.8981 55.6201ZM24.6139 51.1415L31.3331 51.1415C31.599 51.1306 31.862 51.1994 32.0885 51.339C32.3149 51.4786 32.4944 51.6828 32.6039 51.9252C32.7313 52.1661 32.7842 52.4394 32.756 52.7104C32.7278 52.9814 32.6197 53.238 32.4455 53.4475C32.3236 53.6074 32.1675 53.738 31.9886 53.8298C31.8097 53.9215 31.6125 53.9721 31.4115 53.9777L17.8931 53.9777C17.6991 53.9934 17.5039 53.9691 17.3197 53.9063C17.1355 53.8434 16.9662 53.7434 16.8222 53.6125C16.6783 53.4815 16.5628 53.3224 16.4829 53.1449C16.403 52.9675 16.3604 52.7756 16.3577 52.581C16.3551 52.3864 16.3925 52.1934 16.4675 52.0138C16.5426 51.8343 16.6538 51.6721 16.7941 51.5373C16.9345 51.4025 17.1011 51.298 17.2835 51.2302C17.4659 51.1624 17.6604 51.1328 17.8547 51.1432L23.6733 51.1432L24.6139 51.1415ZM21.4736 38.5463C21.469 38.8341 21.3795 39.1141 21.2163 39.3511C21.053 39.5882 20.8234 39.7718 20.5562 39.8788C20.289 39.9858 19.9961 40.0116 19.7143 39.9527C19.4325 39.8939 19.1744 39.7531 18.9723 39.5481C18.7703 39.3431 18.6333 39.083 18.5786 38.8004C18.5239 38.5179 18.5539 38.2255 18.6649 37.9599C18.7759 37.6943 18.9628 37.4675 19.2023 37.3078C19.4418 37.1481 19.7232 37.0627 20.0111 37.0623C20.4018 37.0654 20.7753 37.2235 21.0495 37.5017C21.3238 37.78 21.4763 38.1557 21.4736 38.5463ZM12.0527 41.7826C12.3464 41.7787 12.6346 41.8621 12.8807 42.0223C13.1268 42.1825 13.3197 42.4122 13.435 42.6823C13.5502 42.9523 13.5825 43.2506 13.5277 43.539C13.473 43.8275 13.3337 44.0932 13.1276 44.3023C12.9215 44.5115 12.6578 44.6546 12.3701 44.7136C12.0824 44.7725 11.7837 44.7447 11.5119 44.6335C11.2401 44.5223 11.0075 44.3328 10.8437 44.0891C10.6798 43.8454 10.5922 43.5585 10.5918 43.2649C10.5896 42.8749 10.7421 42.4998 11.0159 42.222C11.2898 41.9442 11.6626 41.7862 12.0527 41.7826ZM21.4736 47.7885C21.4684 48.0762 21.3782 48.356 21.2144 48.5927C21.0507 48.8294 20.8206 49.0125 20.5532 49.1189C20.2857 49.2253 19.9927 49.2504 19.7111 49.1909C19.4294 49.1314 19.1716 48.9901 18.9701 48.7846C18.7685 48.5792 18.6321 48.3187 18.578 48.0361C18.524 47.7534 18.5547 47.461 18.6662 47.1957C18.7778 46.9304 18.9653 46.704 19.2051 46.5448C19.445 46.3857 19.7265 46.3009 20.0144 46.3012C20.2079 46.3029 20.3992 46.3428 20.5773 46.4185C20.7554 46.4942 20.9168 46.6043 21.0524 46.7424C21.1879 46.8806 21.2949 47.044 21.3671 47.2235C21.4394 47.403 21.4756 47.595 21.4736 47.7885ZM12.7115 52.5305C12.7174 52.2426 12.8083 51.963 12.9726 51.7266C13.137 51.4903 13.3676 51.3078 13.6354 51.202C13.9032 51.0963 14.1963 51.072 14.4778 51.1322C14.7594 51.1925 15.0168 51.3345 15.2179 51.5406C15.4189 51.7467 15.5546 52.0076 15.6078 52.2905C15.661 52.5734 15.6295 52.8657 15.517 53.1308C15.4046 53.3958 15.2164 53.6217 14.976 53.7801C14.7355 53.9385 14.4537 54.0223 14.1657 54.0211C13.7753 54.0158 13.4029 53.8559 13.1303 53.5764C12.8576 53.297 12.707 52.9208 12.7115 52.5305ZM38.9546 57.0273C38.9493 57.3152 38.8591 57.595 38.6953 57.8317C38.5314 58.0685 38.3013 58.2515 38.0337 58.3579C37.7662 58.4643 37.4731 58.4892 37.1914 58.4296C36.9097 58.37 36.6519 58.2285 36.4504 58.0229C36.2489 57.8172 36.1126 57.5567 36.0588 57.2739C36.0049 56.9911 36.0358 56.6987 36.1477 56.4334C36.2595 56.1681 36.4472 55.9418 36.6873 55.7829C36.9274 55.6239 37.2091 55.5394 37.497 55.54C37.6904 55.5418 37.8817 55.5817 38.0597 55.6574C38.2377 55.7331 38.399 55.8432 38.5344 55.9814C38.6698 56.1195 38.7766 56.283 38.8487 56.4625C38.9208 56.642 38.9568 56.8339 38.9546 57.0273ZM28.1545 61.946C28.1496 62.2338 28.0597 62.5137 27.8962 62.7506C27.7327 62.9875 27.5029 63.1708 27.2355 63.2775C26.9682 63.3842 26.6753 63.4096 26.3935 63.3505C26.1118 63.2913 25.8538 63.1503 25.652 62.945C25.4502 62.7398 25.3135 62.4795 25.2592 62.1969C25.2048 61.9143 25.2351 61.6219 25.3464 61.3565C25.4577 61.091 25.6449 60.8644 25.8846 60.705C26.1243 60.5455 26.4057 60.4605 26.6936 60.4604C27.0843 60.464 27.4576 60.6224 27.7315 60.901C28.0055 61.1795 28.1576 61.5554 28.1545 61.946Z" fill="white"/>
</g>
<defs>
<clipPath id="clip0_6696_86404">
<rect width="80" height="80" fill="white" transform="translate(0 0.185059)"/>
</clipPath>
</defs>
</svg>
