<svg width="80" height="81" viewBox="0 0 80 81" fill="none" xmlns="http://www.w3.org/2000/svg">
<rect width="80" height="80" rx="12" fill="#C3136F"/>
<path d="M18.0796 33.3489C18.1945 26.8985 20.222 21.6596 24.7167 17.4409C27.7917 14.5546 31.3144 12.5772 35.4948 11.8744C43.4433 10.5398 50.2049 12.8041 55.6959 18.7028C58.6567 21.8843 60.3069 25.7271 60.9363 30.0036C61.2558 32.1752 61.1705 34.3609 60.8955 36.537C60.8273 37.0775 60.5441 37.4912 60.103 37.8189C57.2119 39.969 53.9626 40.832 50.3917 40.577C47.3322 40.359 44.593 39.2817 42.1252 37.4778C40.6225 36.379 39.1317 35.2662 37.4445 34.4447C34.5088 33.0137 31.4182 32.5785 28.1935 32.9003C25.1615 33.2028 22.4853 34.3653 20.0915 36.2204C19.709 36.5089 19.2979 36.7573 18.8647 36.9618C18.5125 37.1331 18.388 37.0508 18.3524 36.6652C18.2419 35.4404 18.15 34.2104 18.0796 33.3489Z" fill="#FEFEFE"/>
<path d="M51.691 45.9761C48.4544 45.9146 45.4957 44.9656 42.7818 43.2447C41.3977 42.3669 40.0544 41.4238 38.6874 40.5178C35.9178 38.6813 32.8695 37.9043 29.5588 38.1163C26.7328 38.298 24.1723 39.2388 21.8253 40.7951C21.25 41.1769 20.7007 41.5988 20.1202 41.9687C19.7809 42.1901 19.416 42.3693 19.0334 42.5026C18.5145 42.6753 18.0467 42.467 17.7176 42.0006C17.3884 41.5343 17.3706 40.993 17.6946 40.5541C17.8281 40.3611 17.9921 40.191 18.1802 40.0507C20.078 38.7436 21.9402 37.3556 24.1412 36.589C29.9235 34.5738 35.4093 35.1544 40.5563 38.5686C42.1368 39.6177 43.7003 40.712 45.366 41.6084C49.3417 43.7504 53.4464 43.7793 57.5348 41.9391C58.592 41.4638 59.5298 40.7209 60.5202 40.0981C61.0991 39.7334 61.5439 39.7363 62.0162 40.1182C62.501 40.5104 62.6759 41.1102 62.4313 41.6751C62.3452 41.8786 62.2093 42.057 62.0362 42.1941C59.6091 43.9988 56.9677 45.3303 53.9365 45.7611C53.1922 45.8686 52.439 45.9072 51.691 45.9761Z" fill="#FEFCFD"/>
<path d="M33.1484 54.7392C33.1484 58.6895 33.1467 62.6398 33.1432 66.5901C33.1506 66.9975 33.1098 67.4044 33.0216 67.8023C32.8341 68.5689 32.2395 68.9611 31.5182 68.8603C30.7769 68.7565 30.3566 68.2508 30.3551 67.439C30.3491 63.4398 30.3449 59.4401 30.3425 55.4398C30.3343 51.6764 30.315 47.9122 30.3062 44.148C30.3062 43.4941 30.3336 42.8402 30.3425 42.1855C30.3543 41.3699 30.9489 40.7026 31.6769 40.7026C32.4567 40.7026 33.1054 41.3543 33.1135 42.1892C33.1284 43.7076 33.1247 45.229 33.1254 46.7445C33.1254 49.4136 33.1254 52.0802 33.1254 54.7444L33.1484 54.7392Z" fill="#FEFDFD"/>
<path d="M27.8655 48.7251C27.8655 50.7729 27.8655 52.8209 27.8655 54.8692C27.8684 55.0183 27.8565 55.1673 27.8299 55.3141C27.698 55.9813 27.1064 56.5411 26.5319 56.5493C25.9573 56.5574 25.2568 55.9613 25.1174 55.3259C25.073 55.1213 25.0506 54.9125 25.0507 54.7031C25.0458 50.7795 25.0443 46.8557 25.0463 42.9316C25.0504 42.7097 25.069 42.4883 25.1019 42.2688C25.2027 41.4562 25.7957 40.9372 26.5712 40.9639C27.2621 40.9891 27.824 41.5985 27.8462 42.3933C27.8685 43.1881 27.8566 43.9978 27.8574 44.7992C27.8574 46.1071 27.8574 47.4152 27.8574 48.7236L27.8655 48.7251Z" fill="#FEFDFD"/>
<path d="M48.8157 55.8546C48.8157 57.9884 48.8068 60.123 48.8209 62.2568C48.8253 62.8677 48.5406 63.2673 48.0202 63.5091C47.4998 63.7508 47.0054 63.6499 46.5606 63.3089C46.4008 63.1913 46.2718 63.0368 46.1844 62.8587C46.0971 62.6806 46.0539 62.484 46.0587 62.2857C46.0587 61.5702 46.0483 60.8548 46.0483 60.1356C46.0483 56.6079 46.0483 53.0802 46.0483 49.5526C46.0483 48.7236 46.3901 48.2217 47.0669 48.0297C47.9713 47.7731 48.8105 48.3959 48.8127 49.3383C48.8179 51.5092 48.8127 53.68 48.8127 55.8509L48.8157 55.8546Z" fill="#FEFDFD"/>
<path d="M54.0573 55.3598C54.0573 57.1355 54.0573 58.9112 54.0573 60.6869C54.0573 61.5855 53.5102 62.1572 52.6636 62.1698C51.8526 62.1838 51.2744 61.6159 51.2759 60.7225C51.2828 57.0599 51.3018 53.3975 51.333 49.7354C51.3382 49.0548 51.8593 48.5491 52.5547 48.4965C53.2322 48.4424 53.8809 48.9043 54.0047 49.5538C54.0458 49.8091 54.0631 50.0677 54.0566 50.3263C54.0595 52.0093 54.0573 53.6827 54.0573 55.3598Z" fill="#FDFBFC"/>
<path d="M38.2903 48.8753C38.2903 50.3678 38.3067 51.8602 38.2837 53.3527C38.2718 54.1371 37.9397 54.5249 37.2532 54.6873C36.5119 54.8667 35.8166 54.4285 35.6409 53.6493C35.5873 53.4085 35.5602 53.1626 35.5601 52.916C35.5601 50.2138 35.5645 47.5116 35.5734 44.8093C35.5772 44.5013 35.6127 44.1944 35.6794 43.8937C35.818 43.2442 36.2399 42.8779 36.8403 42.8468C37.4608 42.8142 38.0264 43.17 38.1962 43.7773C38.2863 44.1369 38.3292 44.5068 38.3237 44.8775C38.3378 46.2121 38.3289 47.5467 38.3289 48.8753L38.2903 48.8753Z" fill="#FDFBFC"/>
<path d="M19.8499 49.607C19.8499 48.1523 19.8462 46.6969 19.8543 45.2422C19.8527 45.0337 19.8873 44.8265 19.9566 44.6298C20.1827 44.0367 20.8195 43.6126 21.3229 43.686C21.9701 43.7802 22.5357 44.4015 22.5705 45.0999C22.6076 45.8413 22.6247 46.5827 22.6299 47.3182C22.6427 49.3279 22.6486 51.3377 22.6476 53.3474C22.645 53.6556 22.6265 53.9635 22.592 54.2697C22.509 55.0764 21.9249 55.6206 21.1835 55.5961C20.4422 55.5717 19.8781 55.003 19.8491 54.1934C19.8247 53.5906 19.8454 52.9856 19.8491 52.3814L19.8491 49.607L19.8499 49.607Z" fill="#FEFCFD"/>
<path d="M59.3504 51.0056C59.3504 51.7826 59.3548 52.5626 59.3504 53.3374C59.3423 53.6786 59.2108 54.0052 58.9801 54.2567C58.7494 54.5082 58.4352 54.6673 58.096 54.7046C57.7491 54.7395 57.4018 54.6428 57.1228 54.4336C56.8438 54.2245 56.6535 53.9182 56.5897 53.5754C56.5636 53.4674 56.5479 53.3572 56.543 53.2462C56.5556 51.6685 56.5474 50.09 56.5978 48.513C56.6238 47.6922 57.2198 47.1977 58.0108 47.2273C58.7062 47.2525 59.3341 47.8776 59.3511 48.6012C59.3696 49.4019 59.3511 50.2041 59.3511 51.0056L59.3504 51.0056Z" fill="#FEFCFD"/>
<path d="M40.8203 48.4639C40.8203 48.082 40.8203 47.7002 40.8203 47.3184C40.8203 46.568 41.4371 45.9593 42.2147 45.9341C42.8768 45.9126 43.5425 46.5414 43.558 47.2457C43.5758 48.0828 43.5736 48.9213 43.5462 49.7576C43.5225 50.4991 42.9027 51.0596 42.1554 51.0588C41.4971 51.0588 40.8685 50.4501 40.8359 49.7569C40.8159 49.3269 40.8359 48.8946 40.8359 48.4639L40.8203 48.4639Z" fill="#FDFCFC"/>
</svg>
