<svg width="80" height="80" viewBox="0 0 80 80" fill="none" xmlns="http://www.w3.org/2000/svg">
<rect width="80" height="80" rx="12" fill="url(#paint0_linear_6701_86563)"/>
<path d="M51.775 27.9874C52.2311 27.9848 52.6832 28.0729 53.1049 28.2468C53.5266 28.4206 53.9095 28.6766 54.2312 28.9999L57.9812 32.7499C58.4795 33.2479 59.1519 33.5326 59.8562 33.5437C60.4717 33.5443 61.0666 33.3223 61.5312 32.9187C61.8118 32.6757 62.0368 32.3753 62.191 32.0378C62.3452 31.7003 62.425 31.3335 62.425 30.9624C62.4267 30.6217 62.3601 30.2841 62.2291 29.9696C62.0981 29.6551 61.9055 29.37 61.6625 29.1312L57.9937 25.4374C57.178 24.6192 56.2088 23.9699 55.1416 23.527C54.0745 23.084 52.9304 22.856 51.775 22.856C50.6196 22.856 49.4755 23.084 48.4084 23.527C47.3412 23.9699 46.372 24.6192 45.5562 25.4374L20.7875 50.2062C20.2429 50.7517 19.596 51.1843 18.8838 51.4792C18.1717 51.7742 17.4083 51.9256 16.6375 51.9249C15.1967 51.9332 13.8084 51.3846 12.7625 50.3937C12.2147 49.8712 11.7768 49.2446 11.4746 48.5506C11.1723 47.8566 11.0119 47.1091 11.0025 46.3522C10.9932 45.5953 11.1353 44.8441 11.4203 44.1429C11.7054 43.4416 12.1277 42.8044 12.6625 42.2687L13.75 41.1499L15.8562 43.2624L15.8562 35.1999L7.81874 35.1999L10.1062 37.4999L9.10624 38.4999C7.05099 40.5359 5.88387 43.3018 5.85928 46.1947C5.8347 49.0877 6.95464 51.873 8.97499 53.9437C9.98329 54.9577 11.1821 55.7624 12.5025 56.3115C13.8228 56.8606 15.2387 57.1433 16.6687 57.1433C18.0987 57.1433 19.5146 56.8606 20.835 56.3115C22.1554 55.7624 23.3542 54.9577 24.3625 53.9437L49.325 28.9999C49.6456 28.6768 50.0274 28.4209 50.4481 28.247C50.8687 28.0732 51.3198 27.9849 51.775 27.9874Z" fill="white"/>
<path d="M70.8938 38.4875L69.0188 36.6438L71.3375 34.375L63.275 34.375L63.275 42.4125L65.3813 40.3062L67.3375 42.2625C67.8723 42.7982 68.2946 43.4355 68.5797 44.1367C68.8647 44.838 69.0068 45.5891 68.9975 46.346C68.9881 47.103 68.8276 47.8504 68.5254 48.5444C68.2232 49.2384 67.7853 49.8651 67.2375 50.3875C66.1916 51.3784 64.8033 51.927 63.3625 51.9188C62.5917 51.9195 61.8283 51.768 61.1162 51.4731C60.404 51.1781 59.7571 50.7455 59.2125 50.2L45.9813 36.9688L42.3125 40.625L55.625 53.9563C56.6333 54.9703 57.8321 55.775 59.1525 56.3241C60.4729 56.8732 61.8887 57.1558 63.3187 57.1558C64.7488 57.1558 66.1646 56.8732 67.485 56.3241C68.8054 55.775 70.0042 54.9703 71.0125 53.9563C73.0421 51.8861 74.1691 49.0964 74.1469 46.1974C74.1246 43.2984 72.9549 40.5262 70.8938 38.4875Z" fill="white"/>
<path d="M17.6813 33.6749C18.1435 34.0826 18.74 34.3052 19.3563 34.2999C20.0663 34.2954 20.7462 34.0126 21.2501 33.5124L25.7563 28.9999C26.4077 28.3507 27.2898 27.9862 28.2095 27.9862C29.1291 27.9862 30.0112 28.3507 30.6626 28.9999L33.9938 32.3312L37.6626 28.6624L34.4438 25.4374C33.6281 24.6192 32.6588 23.9699 31.5917 23.527C30.5246 23.084 29.3805 22.856 28.2251 22.856C27.0697 22.856 25.9256 23.084 24.8585 23.527C23.7913 23.9699 22.8221 24.6192 22.0063 25.4374L17.5501 29.8874C17.2999 30.1394 17.1039 30.4399 16.9743 30.7705C16.8447 31.1011 16.7842 31.4547 16.7965 31.8095C16.8088 32.1644 16.8936 32.513 17.0458 32.8338C17.198 33.1546 17.4143 33.4409 17.6813 33.6749Z" fill="white"/>
<defs>
<linearGradient id="paint0_linear_6701_86563" x1="3.98275" y1="41.9914" x2="80.0002" y2="41.9914" gradientUnits="userSpaceOnUse">
<stop stop-color="#734CE2"/>
<stop offset="1" stop-color="#524DFB"/>
</linearGradient>
</defs>
</svg>
