<svg width="80" height="80" viewBox="0 0 80 80" fill="none" xmlns="http://www.w3.org/2000/svg">
<g clip-path="url(#clip0_6703_87081)">
<path d="M68 1.48619e-06L12 2.62268e-07C5.37258 1.17422e-07 -1.17422e-07 5.37258 -2.62268e-07 12L-1.48619e-06 68C-1.63103e-06 74.6274 5.37258 80 12 80L68 80C74.6274 80 80 74.6274 80 68L80 12C80 5.37259 74.6274 1.63103e-06 68 1.48619e-06Z" fill="#21252D"/>
</g>
<g clip-path="url(#clip1_6703_87081)">
<path d="M65.7682 24.6296C62.048 18.3861 56.1898 13.7036 49.28 11.4506C42.3702 9.19757 34.8778 9.52686 28.1923 12.3774C21.5069 15.228 16.082 20.4063 12.9238 26.9521C9.7657 33.4979 9.08859 40.9669 11.0181 47.974C12.9476 54.981 17.3528 61.0505 23.4166 65.0569C29.4805 69.0632 36.7915 70.7345 43.9938 69.7608C51.1961 68.7871 57.8009 65.2345 62.5833 59.7618C67.3657 54.2892 70.0011 47.2678 70.0007 40C69.9952 34.5895 68.5332 29.2803 65.7682 24.6296ZM65.6958 40.7945C65.5115 42.1064 65.0125 43.3542 64.2413 44.4313C63.9772 44.7975 63.6806 45.1392 63.3551 45.4522C63.1066 45.7081 62.84 45.9458 62.5573 46.1634C61.9295 46.6617 61.067 47.1202 60.2166 47.4088C59.5966 47.621 58.9532 47.7573 58.3005 47.8147C57.3858 47.8951 56.4642 47.8219 55.5737 47.598L55.323 47.5338C55.2216 47.5088 54.9978 47.4363 54.8535 47.3825C54.7689 47.3498 54.6612 47.31 54.6099 47.2921C54.16 47.1119 53.7245 46.8975 53.3074 46.6508C52.8656 46.3781 52.4507 46.0639 52.0684 45.7126C51.7669 45.4299 51.482 45.1302 51.2149 44.8148C51.0565 44.616 50.9532 44.5262 50.6627 44.3332C50.1915 44.0076 49.6585 43.7821 49.0967 43.6707C48.1777 43.4896 47.2246 43.6133 46.3822 44.0228C45.9652 44.2221 45.5867 44.4932 45.2638 44.8237C44.482 45.6068 44.078 46.5001 44.0056 47.5973C43.9866 47.8047 43.9903 48.0134 44.0165 48.22C44.0587 48.7518 44.2072 49.2697 44.4532 49.7431C44.7202 50.2722 45.0895 50.7432 45.5395 51.1289C45.5845 51.162 45.6226 51.2037 45.6517 51.2514C45.7467 51.3721 45.8512 51.4851 45.964 51.5893C47.2636 52.8755 48.0939 54.5605 48.3221 56.3746C48.3945 56.9197 48.3894 57.9611 48.3131 58.4505C48.3009 58.5383 48.2752 58.6973 48.2611 58.8019C48.1436 59.4486 47.9554 60.0804 47.7 60.686C47.2815 61.6302 46.6901 62.4878 45.9563 63.2146C45.0002 64.1489 44.0165 64.7575 42.782 65.1775C42.0122 65.4352 41.2085 65.5774 40.397 65.5995C39.6371 65.6111 38.8789 65.5249 38.141 65.343L37.8723 65.2712C37.7408 65.2346 37.5517 65.1699 37.2477 65.0563C36.3606 64.7203 35.5392 64.2313 34.8211 63.6115C34.3704 63.2061 33.9579 62.7602 33.5885 62.2796C33.5071 62.1712 33.2166 61.7345 33.112 61.5652C32.7788 60.9921 32.5135 60.3822 32.3213 59.7478C32.0648 58.8852 31.9366 57.8496 31.9859 57.0249C32.0501 55.9257 32.2636 55.0016 32.6644 54.1032C33.0619 53.1966 33.6222 52.3707 34.3177 51.6663C34.4043 51.5822 34.4845 51.4917 34.5575 51.3957C34.5813 51.354 34.6147 51.3186 34.655 51.2924C34.8742 51.0976 35.0797 50.8878 35.27 50.6646C35.4413 50.4376 35.5974 50.1996 35.7375 49.9521C35.9588 49.5047 36.1032 49.0232 36.1646 48.5278C36.205 48.1071 36.1966 47.6832 36.1395 47.2645C36.0065 46.566 35.7072 45.9098 35.2668 45.3515C35.072 45.1268 34.862 44.9157 34.6383 44.7199C34.3515 44.4865 34.0371 44.2894 33.702 44.1331C33.1989 43.9065 32.6566 43.7798 32.1052 43.7599C31.4391 43.7295 30.7754 43.8602 30.1705 44.1408C29.6164 44.3973 29.1149 44.7615 28.8238 45.1277C28.4495 45.5897 28.0285 46.0117 27.5675 46.3872C27.0586 46.7943 26.5045 47.1414 25.9162 47.4216L25.6276 47.5531C25.1101 47.7897 24.3482 48.0058 23.6877 48.1052C22.5878 48.2778 21.4643 48.2243 20.3857 47.9481C19.6871 47.7699 19.0156 47.4986 18.3894 47.1414C17.7654 46.8008 17.2351 46.3943 16.6483 45.8113C15.8557 45.0232 15.4119 44.3845 14.9226 43.3212C14.595 42.5883 14.381 41.8099 14.2877 41.0126L14.2877 40.9953C14.2141 40.4824 14.199 39.9628 14.2428 39.4466C14.2544 39.2869 14.2685 39.133 14.2865 38.9835C14.3609 38.302 14.5286 37.634 14.7847 36.9981C15.1177 36.159 15.5844 35.3793 16.1667 34.6895C16.5781 34.22 17.0357 33.7931 17.5326 33.4152C17.9432 33.1207 18.3758 32.8583 18.8268 32.6303C19.3048 32.4043 19.8018 32.2208 20.312 32.082C20.3966 32.0602 20.5012 32.0314 20.5467 32.0179C20.6119 32 20.6781 31.9856 20.7448 31.9749L21.1745 31.9025C21.8709 31.78 22.9521 31.78 23.7153 31.9025C24.5446 32.0327 25.3482 32.2931 26.0964 32.6739C26.3452 32.799 26.5959 32.9343 26.6556 32.974C26.7152 33.0138 26.7999 33.0677 26.848 33.0927C26.9365 33.1433 27.2629 33.3742 27.4322 33.5044C27.7265 33.7301 27.9304 33.9174 28.4178 34.4022C29.0764 35.0627 29.1919 35.1583 29.7042 35.4667C30.08 35.6925 30.6444 35.8836 31.1792 35.9689C31.5746 36.0118 31.9734 36.0118 32.3688 35.9689C33.1873 35.8503 33.9542 35.498 34.5774 34.9543C34.8273 34.7214 35.0573 34.4678 35.2648 34.1963C35.5404 33.804 35.7457 33.3668 35.8715 32.9041C35.973 32.5436 36.0258 32.1712 36.0286 31.7966C36.0445 31.4539 36.0121 31.1107 35.9324 30.777C35.7196 29.8969 35.2347 29.1063 34.5466 28.5177C33.9392 27.9987 33.4049 27.3999 32.9581 26.7375C32.2598 25.664 31.8769 24.6104 31.6756 23.2207C31.639 22.97 31.6358 22.8667 31.6358 22.228C31.6358 21.4828 31.6429 21.3725 31.7256 20.8858C31.9712 19.4256 32.5811 18.1154 33.5718 16.9226C34.369 15.9639 35.6349 15.0597 36.8058 14.6172C37.587 14.3062 38.4121 14.1192 39.2511 14.0631L39.4107 14.0529C39.6547 14.0342 39.8996 14.0327 40.1437 14.0484L40.2168 14.0522C40.8178 14.0786 41.4139 14.1724 41.9938 14.3318C43.0655 14.6272 44.0662 15.1368 44.9354 15.8299C45.3162 16.1466 45.6745 16.4894 46.0077 16.8559C46.9373 17.9159 47.5748 19.1998 47.8571 20.5812C47.9745 21.132 47.9995 21.4148 48.0014 22.2056C48.0014 22.6731 47.9963 22.9655 47.9796 23.0989C47.9016 23.7868 47.7399 24.4626 47.498 25.1112C47.4621 25.2049 47.4166 25.3273 47.3973 25.3818C47.3197 25.598 46.9818 26.2553 46.7887 26.5637C46.5319 26.9777 46.2385 27.3679 45.9121 27.7296C45.8159 27.8341 45.6953 27.9733 45.6408 28.0381C45.5647 28.1254 45.4815 28.2063 45.392 28.2798C44.9369 28.6591 44.5621 29.1254 44.2896 29.6515C44.1807 29.8524 44.093 30.0641 44.028 30.2832C43.8809 30.7248 43.8142 31.1892 43.8311 31.6543C43.8436 32.3766 44.0424 33.0835 44.4083 33.7064C44.6426 34.1381 44.9589 34.52 45.3394 34.8306C45.7941 35.2153 46.166 35.4186 46.774 35.6245C47.2016 35.7721 47.6517 35.8435 48.104 35.8355C49.0711 35.8355 49.9028 35.5469 50.6955 34.9479C50.8975 34.7947 51.0635 34.6318 51.3412 34.3143C52.0851 33.4678 52.7867 32.9035 53.7435 32.3905C54.3809 32.0531 55.0604 31.8022 55.7642 31.6447C55.8636 31.6235 55.9938 31.5959 56.0534 31.5805C56.156 31.5568 56.3958 31.5228 56.7588 31.4792C57.2183 31.4457 57.6793 31.4397 58.1395 31.4612C59.769 31.5658 61.3119 32.1564 62.649 33.1927C63.0072 33.4838 63.3449 33.7992 63.6597 34.1367C64.3721 34.9178 64.9948 35.9535 65.318 36.8994C65.6289 37.7651 65.7825 38.6794 65.7714 39.5992C65.7738 39.9989 65.7485 40.3983 65.6958 40.7945Z" fill="#F5F5FF"/>
<path d="M39.4953 17.567C39.1308 17.5899 38.7704 17.6566 38.4218 17.7658C38.0147 17.8744 37.6269 18.0452 37.272 18.2724C36.6423 18.6591 36.1082 19.1833 35.7098 19.8057C35.3114 20.4248 35.0594 21.1266 34.973 21.8578C34.9384 22.2452 34.9416 22.635 34.9826 23.0217C35.1052 23.9626 35.4947 24.8487 36.1049 25.5753C36.4374 25.9724 36.8338 26.3114 37.2778 26.5783C38.2012 27.1434 39.2872 27.3832 40.3627 27.2597C41.4383 27.1362 42.4416 26.6563 43.2129 25.8966C44.0078 25.1256 44.512 24.1037 44.6404 23.0038C44.683 22.5957 44.683 22.1844 44.6404 21.7763C44.5196 20.8981 44.1635 20.0689 43.6098 19.3767C43.2825 18.9855 42.9025 18.6416 42.4805 18.3551C42.2117 18.1882 41.9312 18.0409 41.6411 17.9145C41.3656 17.8064 41.0819 17.7206 40.7927 17.658C40.3656 17.5746 39.9299 17.544 39.4953 17.567ZM40.3886 19.1516C40.792 19.2307 41.1793 19.3765 41.5346 19.5832C41.9667 19.8526 42.335 20.2127 42.6139 20.6387C42.9191 21.1193 43.0955 21.6704 43.1261 22.2389C43.1568 22.8074 43.0407 23.3742 42.789 23.8849C42.6125 24.2667 42.358 24.6073 42.0419 24.8847C41.5533 25.3407 40.9341 25.6323 40.2713 25.7183C39.9442 25.7515 39.6145 25.7482 39.2882 25.7087C38.803 25.6278 38.3411 25.4424 37.9345 25.1655C37.606 24.9218 37.3159 24.6302 37.0738 24.3004C36.7958 23.8847 36.6112 23.4137 36.5326 22.9198C36.4868 22.5559 36.4898 22.1875 36.5416 21.8244C36.6535 21.2275 36.9275 20.6728 37.3336 20.2212C37.651 19.8839 37.7991 19.7595 38.0736 19.5934C38.5098 19.3385 38.9937 19.1759 39.4953 19.1157C39.7936 19.1047 40.0922 19.1165 40.3886 19.1509L40.3886 19.1516Z" fill="white"/>
<path d="M57.334 34.9615C57.2994 34.9647 57.1769 34.9775 57.0634 34.9865C56.3239 35.0624 55.6116 35.307 54.9814 35.7015C54.3513 36.0959 53.82 36.6297 53.4286 37.2618C53.1758 37.6823 52.9817 38.1354 52.8514 38.6085C52.6128 39.5572 52.663 40.5556 52.9957 41.4756C53.1933 42.0008 53.4722 42.4916 53.8223 42.9301C54.0861 43.2451 54.3876 43.5263 54.7201 43.7676C55.3721 44.2414 56.1318 44.5453 56.9307 44.6519C57.3324 44.6923 57.737 44.696 58.1395 44.6628C58.9732 44.5435 59.6144 44.3088 60.2384 43.8933C60.5293 43.7081 60.7959 43.4876 61.0323 43.2366C61.2722 42.9948 61.6223 42.5613 61.698 42.4132C61.7127 42.3831 61.7621 42.2997 61.8064 42.2279C61.9459 41.978 62.0649 41.7172 62.1623 41.4481C62.534 40.3832 62.5313 39.2233 62.1546 38.1602C61.7288 37.0059 60.8444 36.0087 59.7818 35.4912C59.02 35.1192 58.4768 34.9839 57.6797 34.9608C57.5232 34.9576 57.368 34.9576 57.334 34.9615ZM58.0651 36.5454C58.7955 36.6628 59.2989 36.9103 59.853 37.4227C60.1922 37.7409 60.4614 38.1261 60.6437 38.5539C60.9541 39.2812 60.9682 40.245 60.6777 40.9851C60.2666 42.0368 59.4342 42.7807 58.3691 43.0513C57.8417 43.1739 57.2932 43.1739 56.7658 43.0513C56.411 42.9566 56.0727 42.808 55.7629 42.6107C55.3269 42.3306 54.9633 41.9513 54.702 41.5038C54.4406 41.0563 54.2888 40.5533 54.2591 40.036C54.2083 39.3708 54.3651 38.7062 54.708 38.1339C54.8275 37.9221 54.9758 37.7279 55.1485 37.5567C55.4325 37.2459 55.7762 36.9955 56.1592 36.8206C56.4876 36.6665 56.8385 36.5658 57.1987 36.5224C57.4876 36.5025 57.7777 36.5103 58.0651 36.5454Z" fill="white"/>
<path d="M22.1537 35.3218C22.114 35.3256 21.9876 35.3384 21.8735 35.3474C20.9038 35.4539 19.9883 35.8487 19.2453 36.4807C18.5023 37.1128 17.9658 37.9531 17.7051 38.8931C17.5127 39.5517 17.4922 40.427 17.6512 41.185C17.7824 41.8423 18.0551 42.4631 18.4503 43.0044C18.5901 43.2128 18.751 43.4062 18.9306 43.5815C19.5397 44.209 20.3073 44.6598 21.152 44.8859C21.7073 45.0315 22.2834 45.081 22.8553 45.0321C23.258 44.9943 23.485 44.9468 23.9852 44.7955C24.422 44.6672 24.967 44.3645 25.4159 44.0035C25.9751 43.564 26.4331 43.0094 26.7588 42.3772C27.1045 41.692 27.2814 40.9341 27.275 40.1667C27.287 39.4235 27.1147 38.689 26.7735 38.0286C26.3861 37.2413 25.7929 36.5734 25.0568 36.0958C24.7793 35.9269 24.4907 35.7769 24.193 35.6469C23.8141 35.5044 23.4198 35.4069 23.0182 35.3564C22.731 35.3275 22.4423 35.316 22.1537 35.3218ZM22.8065 36.8904C23.0141 36.9097 23.2187 36.9527 23.4164 37.0186C23.9721 37.2022 24.4725 37.5229 24.8715 37.951C25.3189 38.4422 25.6081 39.0567 25.7013 39.7146C25.7339 40.0326 25.7316 40.3532 25.6943 40.6707C25.6449 41.0131 25.5407 41.3452 25.3858 41.6545C25.052 42.3209 24.5061 42.8574 23.8339 43.1794C23.3565 43.4101 22.8298 43.5202 22.2999 43.5001C21.5899 43.4787 20.9059 43.2278 20.3504 42.785C20.1776 42.6562 20.0224 42.5053 19.8887 42.3361C19.7115 42.1375 19.5638 41.9144 19.4501 41.6737C19.2774 41.3446 19.1656 40.987 19.1198 40.6181C19.0681 40.2237 19.0872 39.8233 19.1762 39.4356C19.3253 38.7919 19.6636 38.2075 20.1476 37.7577C20.6316 37.3078 21.2392 37.0131 21.8921 36.9115C22.1941 36.859 22.5024 36.8518 22.8065 36.8904Z" fill="white"/>
<path d="M39.9739 52.7168C39.9489 52.7168 39.8149 52.7328 39.6763 52.7437C39.1875 52.7874 38.709 52.9104 38.2598 53.108C37.4662 53.4467 36.777 53.9904 36.2628 54.6832C35.7486 55.376 35.4279 56.1931 35.3334 57.0507C35.239 57.9083 35.3743 58.7757 35.7255 59.5638C36.0766 60.3519 36.631 61.0324 37.3318 61.5357C37.5343 61.6772 37.7446 61.8074 37.9616 61.9256C38.0898 61.9898 38.4105 62.118 38.5932 62.1873C38.8895 62.2918 39.0177 62.3226 39.541 62.4111C39.7571 62.4489 40.503 62.454 40.7409 62.4201C41.7137 62.2847 42.4877 61.9615 43.1951 61.394C43.5142 61.119 43.8084 60.8165 44.0743 60.4898C44.3122 60.1754 44.5063 59.8303 44.6514 59.4637C44.9197 58.8253 45.049 58.137 45.0307 57.4447C45.0123 56.7524 44.8467 56.072 44.545 55.4487C44.1769 54.6997 43.6254 54.056 42.9418 53.5774C42.2816 53.1292 41.5248 52.8435 40.7332 52.7437C40.4808 52.7205 40.2273 52.7115 39.9739 52.7168ZM40.705 54.3046C40.9209 54.3382 41.1326 54.3945 41.3366 54.4726C42.2569 54.8061 43.02 55.6038 43.3285 56.5587C43.4152 56.8112 43.4646 57.075 43.4753 57.3417C43.5394 58.1517 43.306 58.9276 42.7968 59.6099C42.4897 60.0131 42.0915 60.3379 41.6348 60.5578C41.4347 60.6643 41.2218 60.7449 41.0012 60.7976C40.3862 60.9501 39.741 60.9295 39.137 60.738C38.859 60.6365 38.5918 60.5076 38.3393 60.3532C37.9289 60.0826 37.5839 59.7242 37.3291 59.3038C37.0743 58.8835 36.9161 58.4117 36.866 57.9227C36.8159 57.4338 36.8752 56.9398 37.0395 56.4765C37.2038 56.0132 37.469 55.5923 37.816 55.2441C38.0098 55.0377 38.2338 54.862 38.4804 54.7227C38.8913 54.4886 39.3443 54.3378 39.8136 54.2789C40.1109 54.2592 40.4093 54.2678 40.705 54.3046Z" fill="white"/>
</g>
<defs>
<clipPath id="clip0_6703_87081">
<rect width="80" height="80" fill="white"/>
</clipPath>
<clipPath id="clip1_6703_87081">
<rect width="60" height="60" fill="white" transform="translate(10 10)"/>
</clipPath>
</defs>
</svg>
