<svg width="80" height="81" viewBox="0 0 80 81" fill="none" xmlns="http://www.w3.org/2000/svg">
<rect width="80" height="80" rx="12" fill="#0192F6"/>
<path fill-rule="evenodd" clip-rule="evenodd" d="M62.9884 22.7713C58.6195 17.1885 52.2171 13.647 45.1264 13.647C31.4168 13.647 21.3878 26.3824 21.3878 40.1848C21.3878 49.804 27.7748 57.0029 34.8732 57.0029C35.5382 57.0029 36.1954 56.9411 36.8449 56.8251C32.0895 53.3532 29.0429 47.0358 29.0429 40.1848C29.0429 29.2743 36.4197 20.7686 45.1187 20.7686C54.6064 20.7686 61.2022 30.1868 61.2022 40.1848C61.179 47.5616 58.5499 54.8997 53.9182 60.3124C49.8741 65.037 44.647 68.0372 38.8863 68.9882C38.8863 68.9882 39.3657 69.0269 39.992 69.0269C55.9209 69.0269 68.8341 56.1137 68.8341 40.1848C68.8341 33.6432 66.6536 27.6119 62.9806 22.7713L62.9884 22.7713ZM58.6118 40.1848C58.6118 30.5657 52.2248 23.3667 45.1264 23.3667C44.4614 23.3667 43.8041 23.4286 43.1546 23.5446C47.9101 27.0165 50.9567 33.3339 50.9567 40.1848C50.9567 51.0953 43.5799 59.601 34.8809 59.601C25.3932 59.601 18.7974 50.1829 18.7974 40.1848C18.8206 32.8081 21.4496 25.47 26.0814 20.0573C30.1254 15.3327 35.3603 12.3325 41.1133 11.3814C41.1133 11.3814 40.6338 11.3428 40.0075 11.3428C24.0709 11.3428 11.1577 24.256 11.1577 40.1848C11.1577 46.7265 13.3383 52.7578 17.0112 57.5983C21.38 63.1812 27.7825 66.7226 34.8732 66.7226C48.5828 66.7226 58.6041 53.9873 58.6041 40.1848L58.6118 40.1848Z" fill="white"/>
</svg>
