<svg width="80" height="80" viewBox="0 0 80 80" fill="none" xmlns="http://www.w3.org/2000/svg">
<g clip-path="url(#clip0_6703_87141)">
<path d="M68 1.48619e-06L12 2.62268e-07C5.37258 1.17422e-07 -1.17422e-07 5.37258 -2.62268e-07 12L-1.48619e-06 68C-1.63103e-06 74.6274 5.37258 80 12 80L68 80C74.6274 80 80 74.6274 80 68L80 12C80 5.37259 74.6274 1.63103e-06 68 1.48619e-06Z" fill="black"/>
<path d="M40.2285 38.8317V32.4195C47.3736 30.7706 56.6407 32.7248 59.4652 33.5645C59.6942 33.9462 58.7781 34.0226 60.6102 34.0226C62.4423 34.0226 67.6331 33.2592 69.9995 32.8775V39.0607C68.1674 39.5187 63.3125 40.3432 58.5491 39.9767C51.0377 37.2287 43.2056 38.0684 40.2285 38.8317Z" fill="white"/>
<path d="M40.2285 47.9465V41.5342C47.3736 39.8854 56.6407 41.8396 59.4652 42.6793C59.6942 43.061 58.7781 43.1373 60.6102 43.1373C62.4423 43.1373 67.6331 42.3739 69.9995 41.9923V48.1755C68.1674 48.6335 63.3125 49.4579 58.5491 49.0915C51.0377 46.3434 43.2056 47.1831 40.2285 47.9465Z" fill="white"/>
<path fill-rule="evenodd" clip-rule="evenodd" d="M16.4117 40.2519C16.4117 51.7614 25.742 61.0916 37.2514 61.0916C48.7609 61.0916 58.0911 51.7614 58.0911 40.2519C58.0911 28.7425 48.7609 19.4122 37.2514 19.4122C25.742 19.4122 16.4117 28.7425 16.4117 40.2519ZM37.2514 13C22.2006 13 9.99951 25.2011 9.99951 40.2519C9.99951 55.3027 22.2006 67.5038 37.2514 67.5038C52.3022 67.5038 64.5033 55.3027 64.5033 40.2519C64.5033 25.2011 52.3022 13 37.2514 13Z" fill="white"/>
</g>
<defs>
<clipPath id="clip0_6703_87141">
<rect width="80" height="80" fill="white"/>
</clipPath>
</defs>
</svg>
