<svg width="80" height="80" viewBox="0 0 80 80" fill="none" xmlns="http://www.w3.org/2000/svg">
<rect width="80" height="80" rx="12" fill="#FF0420"/>
<g clip-path="url(#clip0_6701_86440)">
<path d="M40 80C62.0914 80 80 62.0914 80 40C80 17.9086 62.0914 1.35705e-06 40 8.74228e-07C17.9086 3.91405e-07 -3.91405e-07 17.9086 -8.74228e-07 40C-1.35705e-06 62.0914 17.9086 80 40 80Z" fill="#FF0420"/>
<path d="M28.3413 50.6315C25.9595 50.6315 24.0082 50.071 22.487 48.9502C20.9859 47.8094 20.2354 46.1883 20.2354 44.0867C20.2354 43.6463 20.2854 43.1059 20.3854 42.4654C20.6458 41.0244 21.016 39.2931 21.4963 37.2716C22.8573 31.7676 26.3699 29.0156 32.0341 29.0156C33.5752 29.0156 34.9562 29.2758 36.1771 29.7961C37.3981 30.2964 38.3587 31.0571 39.0592 32.0779C39.7597 33.0785 40.1101 34.2795 40.1101 35.6804C40.1101 36.1007 40.06 36.6311 39.9598 37.2716C39.6597 39.0529 39.2994 40.7843 38.879 42.4654C38.1786 45.2075 36.9677 47.259 35.2464 48.6199C33.5251 49.9609 31.2235 50.6315 28.3413 50.6315ZM28.7616 46.3083C29.8825 46.3083 30.8331 45.978 31.6138 45.3175C32.4144 44.6571 32.9848 43.6463 33.325 42.2854C33.7853 40.4039 34.1357 38.7627 34.3758 37.3617C34.4558 36.9414 34.4958 36.5111 34.4958 36.0707C34.4958 34.2494 33.5451 33.3387 31.6438 33.3387C30.5229 33.3387 29.5622 33.6689 28.7616 34.3294C27.9811 34.99 27.4206 36.0007 27.0805 37.3617C26.7202 38.7027 26.3598 40.3439 25.9997 42.2854C25.9195 42.6855 25.8795 43.1059 25.8795 43.5462C25.8795 45.3876 26.8403 46.3083 28.7616 46.3083Z" fill="white"/>
<path d="M41.4882 50.3314C41.2681 50.3314 41.0978 50.2614 40.9778 50.1212C40.8777 49.961 40.8478 49.781 40.8878 49.5809L45.0308 30.0665C45.0708 29.8463 45.1809 29.6662 45.361 29.526C45.5412 29.386 45.7313 29.3159 45.9314 29.3159L53.9174 29.3159C56.139 29.3159 57.9202 29.7762 59.2612 30.6969C60.6223 31.6177 61.3028 32.9486 61.3028 34.6898C61.3028 35.1902 61.2428 35.7106 61.1226 36.251C60.6223 38.5527 59.6116 40.254 58.0905 41.3548C56.5894 42.4556 54.5278 43.006 51.9058 43.006L47.8529 43.006L46.4719 49.5809C46.4318 49.801 46.3217 49.981 46.1417 50.1212C45.9615 50.2614 45.7713 50.3314 45.5713 50.3314L41.4882 50.3314ZM52.1161 38.863C52.9566 38.863 53.6871 38.6327 54.3076 38.1724C54.9481 37.7121 55.3684 37.0516 55.5686 36.191C55.6286 35.8506 55.6586 35.5505 55.6586 35.2903C55.6586 34.7098 55.4886 34.2695 55.1482 33.9694C54.8079 33.649 54.2276 33.489 53.407 33.489L49.8042 33.489L48.6634 38.863L52.1161 38.863Z" fill="white"/>
</g>
<defs>
<clipPath id="clip0_6701_86440">
<rect width="80" height="80" fill="white"/>
</clipPath>
</defs>
</svg>
