<svg width="80" height="80" viewBox="0 0 80 80" fill="none" xmlns="http://www.w3.org/2000/svg">
<rect width="80" height="80" rx="12" fill="url(#paint0_linear_6701_86498)"/>
<g clip-path="url(#clip0_6701_86498)">
<path fill-rule="evenodd" clip-rule="evenodd" d="M39.878 66.8934C31.8351 66.8874 25.3564 64.9865 20.8296 61.5723C16.2486 58.1171 13.8184 53.2137 13.8184 47.6653C13.8184 42.3193 16.2433 38.4644 18.987 35.8587C21.1372 33.8166 23.5101 32.5088 25.1623 31.7565C24.7887 30.6272 24.3225 29.1487 23.9055 27.6216C23.3474 25.5781 22.8 23.1806 22.8 21.4237C22.8 19.3442 23.2603 17.2558 24.5015 15.633C25.8128 13.9185 27.787 13 30.1619 13C32.0181 13 33.5939 13.6781 34.8276 14.848C36.0069 15.9662 36.7917 17.4512 37.3336 18.9992C38.2859 21.7194 38.6567 25.1368 38.7607 28.5473L41.0354 28.5473C41.1396 25.1368 41.5103 21.7194 42.4626 18.9992C43.0045 17.4512 43.7895 15.9662 44.9687 14.848C46.2023 13.6781 47.7781 13 49.6343 13C52.0092 13 53.9835 13.9185 55.2947 15.633C56.5359 17.2558 56.9963 19.3442 56.9963 21.4237C56.9963 23.1806 56.4489 25.5781 55.8906 27.6216C55.4736 29.1487 55.0075 30.6272 54.6339 31.7565C56.2861 32.5088 58.6591 33.8166 60.8093 35.8587C63.5529 38.4644 65.978 42.3193 65.978 47.6653C65.978 53.2137 63.5477 58.1171 58.9667 61.5723C54.4397 64.9865 47.9611 66.8874 39.9182 66.8934L39.878 66.8934Z" fill="#633001"/>
<path d="M30.1615 14.9775C26.6829 14.9775 25.0817 17.5596 25.0817 21.1305C25.0817 23.9689 26.9422 29.6534 27.7055 31.8662C27.8773 32.364 27.6075 32.9093 27.1154 33.1023C24.3275 34.196 16.1001 38.2007 16.1001 47.3723C16.1001 57.0334 24.461 64.318 39.8792 64.3297C39.8854 64.3297 39.8915 64.3294 39.8977 64.3294C39.9038 64.3294 39.9099 64.3297 39.9161 64.3297C55.3344 64.318 63.6951 57.0334 63.6951 47.3723C63.6951 38.2007 55.4678 34.196 52.6799 33.1023C52.1879 32.9093 51.9179 32.364 52.0898 31.8662C52.8531 29.6534 54.7137 23.9689 54.7137 21.1305C54.7137 17.5596 53.1125 14.9775 49.6339 14.9775C44.6266 14.9775 43.3786 22.0348 43.2894 29.6089C43.2834 30.1145 42.8727 30.5248 42.3643 30.5248L37.4309 30.5248C36.9226 30.5248 36.5118 30.1145 36.5059 29.6089C36.4168 22.0348 35.1687 14.9775 30.1615 14.9775Z" fill="#D1884F"/>
<path d="M39.9161 61.2352C28.5875 61.2352 16.1197 55.2016 16.1002 47.3911C16.1001 47.4031 16.1001 47.4153 16.1001 47.4275C16.1001 57.0965 24.4743 64.3848 39.9161 64.3848C55.3578 64.3848 63.7319 57.0965 63.7319 47.4275C63.7319 47.4153 63.7319 47.4031 63.7319 47.3911C63.7123 55.2016 51.2446 61.2352 39.9161 61.2352Z" fill="#FEDC90"/>
<path d="M33.622 44.9918C33.622 47.6289 32.3695 49.0022 30.8244 49.0022C29.2794 49.0022 28.0269 47.6289 28.0269 44.9918C28.0269 42.3548 29.2794 40.9814 30.8244 40.9814C32.3695 40.9814 33.622 42.3548 33.622 44.9918Z" fill="#633001"/>
<path d="M51.8059 44.9918C51.8059 47.6289 50.5536 49.0022 49.0086 49.0022C47.4633 49.0022 46.2109 47.6289 46.2109 44.9918C46.2109 42.3548 47.4633 40.9814 49.0086 40.9814C50.5536 40.9814 51.8059 42.3548 51.8059 44.9918Z" fill="#633001"/>
</g>
<defs>
<linearGradient id="paint0_linear_6701_86498" x1="40" y1="0" x2="40" y2="80" gradientUnits="userSpaceOnUse">
<stop stop-color="#49D9E5"/>
<stop offset="1" stop-color="#1FC7D4"/>
</linearGradient>
<clipPath id="clip0_6701_86498">
<rect width="54" height="54" fill="white" transform="translate(13 13)"/>
</clipPath>
</defs>
</svg>
