<svg width="80" height="80" viewBox="0 0 80 80" fill="none" xmlns="http://www.w3.org/2000/svg">
<rect width="80" height="80" rx="12" fill="#F5C945"/>
<path d="M58.2 19.2611L52.2023 19.2563L53.5318 23.484L53.9802 24.9103L52.8037 25.7896L42.6826 33.3625L51.6259 40.0752L62.2456 32.1303L58.2 19.2611Z" fill="#1A1A1A"/>
<path d="M27.1873 25.7746L26.0128 24.8924L26.4628 23.4684L27.7924 19.2562L21.8165 19.2515L17.7539 32.116L28.3607 40.0774L37.3159 33.3766L27.1873 25.7746Z" fill="#1A1A1A"/>
<path d="M38.9725 26.0684L29.8973 19.2593L28.3657 24.1086L38.9725 32.0699L38.9782 32.0652L38.9782 26.0672L38.9725 26.0684Z" fill="#1A1A1A"/>
<path d="M50.1032 19.2661L41.0161 26.0645L41.0161 32.0625L51.6292 24.1225L50.1032 19.2661Z" fill="#1A1A1A"/>
<path d="M29.5362 41.746L28.3881 42.6062L28.3657 42.676L38.9725 50.6375L38.9782 50.6329L38.9782 34.6816L29.5362 41.746Z" fill="#1A1A1A"/>
<path d="M51.6035 42.6111L50.4493 41.7443L41.0282 34.6729L41.0161 34.6818L41.0161 50.6331L51.6292 42.6927L51.6035 42.6111Z" fill="#1A1A1A"/>
<path d="M38.9708 53.187L37.7963 52.305L30.337 46.7075L28.3657 52.9507L38.9725 60.9119L38.9782 60.9072L38.9782 53.1811L38.9708 53.187Z" fill="#1A1A1A"/>
<path d="M49.6637 46.7114L42.1849 52.3068L41.0161 53.1816L41.0161 60.9077L51.6292 52.9677L49.6637 46.7114Z" fill="#1A1A1A"/>
</svg>
