<svg width="80" height="81" viewBox="0 0 80 81" fill="none" xmlns="http://www.w3.org/2000/svg">
<rect width="80" height="80" rx="12" fill="#8247E4"/>
<path d="M36.8621 33.6766C36.8621 31.8842 36.8394 30.2604 36.8621 28.6382C36.8904 26.9918 36.1972 25.802 34.7867 24.9681C32.6971 23.7302 30.6387 22.4425 28.5492 21.2017C27.1472 20.3679 25.7055 20.2672 24.2567 21.1081C22.0764 22.3745 19.8876 23.6295 17.7201 24.9185C16.552 25.612 15.8261 26.6528 15.8091 28.0383C15.7723 30.8745 15.768 33.6965 15.8304 36.5241C15.8602 37.816 16.5846 38.7832 17.6733 39.4497C19.8493 40.7727 22.0197 42.1029 24.2141 43.3934C25.575 44.1946 26.9771 44.2513 28.3748 43.4345C35.9846 38.9911 43.5924 34.544 51.1983 30.0931C52.8031 29.1515 54.3469 29.0693 55.9927 30.0449C60.0074 32.423 64.0603 34.7388 68.0948 37.0857C69.4855 37.8954 70.2213 39.0568 70.2213 40.7274C70.1882 45.6112 70.1882 50.4956 70.2213 55.3805C70.2326 57.0708 69.5125 58.2521 68.0793 59.0788C64.2219 61.3166 60.3221 63.5146 56.5016 65.8488C55.1776 66.6571 53.8337 66.6443 52.4288 66.5919C52.1652 66.5833 51.8916 66.4217 51.6506 66.2813C47.5102 63.8866 43.3713 61.4867 39.2337 59.0817C37.7594 58.2308 37.0052 56.9744 37.0364 55.2528C37.0619 53.8135 37.0223 52.3727 37.0591 50.9348C37.0676 50.6596 37.2278 50.2668 37.4433 50.1364C39.1983 49.0756 40.9873 48.0631 42.7579 47.0393C42.8697 46.9917 42.9848 46.9524 43.1024 46.9216C43.1024 48.368 43.1577 49.7577 43.0896 51.1347C42.9847 53.2264 43.8112 54.6799 45.6853 55.6612C47.6246 56.6794 49.483 57.8493 51.377 58.954C52.9151 59.8503 54.4305 59.8928 55.9799 58.9384C57.9462 57.726 59.9379 56.5546 61.9339 55.3847C63.3629 54.5452 64.0703 53.3327 64.0532 51.6594C64.0249 49.1834 64.0391 46.7046 64.0532 44.2272C64.0532 42.6205 63.3756 41.4307 61.9793 40.6295C59.8727 39.4213 57.7832 38.1861 55.678 36.9751C54.2604 36.1597 52.8428 36.1001 51.3911 36.9439C43.8079 41.3532 36.2241 45.7592 28.6399 50.1619C27.0961 51.061 25.6048 51.095 24.0355 50.169C20.0794 47.832 16.1045 45.5243 12.1106 43.2459C10.5158 42.3312 9.71482 41.0677 9.74034 39.1646C9.80413 34.3757 9.76869 29.5854 9.75593 24.7951C9.75593 23.3586 10.374 22.3121 11.5988 21.5988C15.7694 19.1568 19.9273 16.695 24.1177 14.2899C25.6658 13.4022 27.3329 13.398 28.8795 14.2899C32.7637 16.5178 36.5955 18.8392 40.477 21.0727C42.1781 22.0483 43.0684 23.3756 42.9564 25.3836C42.8798 26.772 42.928 28.1674 42.9564 29.5599C42.9635 29.9853 42.8529 30.242 42.463 30.4604C40.6301 31.4814 38.8254 32.5436 36.8621 33.6766Z" fill="#FDFDFE"/>
</svg>
