<svg width="80" height="80" viewBox="0 0 80 80" fill="none" xmlns="http://www.w3.org/2000/svg">
<g clip-path="url(#clip0_6739_108543)">
<path d="M68 1.48619e-06L12 2.62268e-07C5.37258 1.17422e-07 -1.17422e-07 5.37258 -2.62268e-07 12L-1.48619e-06 68C-1.63103e-06 74.6274 5.37258 80 12 80L68 80C74.6274 80 80 74.6274 80 68L80 12C80 5.37259 74.6274 1.63103e-06 68 1.48619e-06Z" fill="#121417"/>
<path d="M22.0717 22.835L26.413 20.4569L26.9984 21.4137L43 12.6154L41.8329 11.9741L40.6548 11.3224L40.0695 11L14 25.3587V26L21.4863 21.8713L22.0717 22.835Z" fill="#D6DCE1"/>
<path d="M22.0278 31.9273L34.5033 25.1944L35.0855 26.1432L51 17.5667L49.8392 16.9319L48.6712 16.3073L48.089 16L14 34.3754V35L21.4456 30.9785L22.0278 31.9273Z" fill="#D6DCE1"/>
<path d="M22.0123 37.6646L38.5314 27.9879L39.1197 29.0057L55 19.6952L53.8379 19.0288L52.6757 18.3405L52.091 18L14 40.308V41L21.4313 36.6431L22.0123 37.6646Z" fill="#D6DCE1"/>
<path d="M21.9997 41.7181L42.6763 29.7735L43.2601 30.7725L59 21.6806L57.8433 21.0026L56.6794 20.3354L56.0992 20L14 44.3328V45L21.4195 40.7047L21.9997 41.7181Z" fill="#D6DCE1"/>
<path d="M21.9891 46.7559L46.7015 32.6434L47.2808 33.644L63 24.6523L61.8412 24.0007L60.6824 23.3312L60.0994 23L14 49.3412V50L21.4097 45.7695L21.9891 46.7559Z" fill="#D6DCE1"/>
<path d="M65.1261 25.3424L64.5424 25L14 54.326V55L21.4659 50.6758L22.0496 51.6849L46.9492 37.2477L47.5329 38.2605L66 27.5537V26.1949V25.8561L65.1261 25.3424Z" fill="#D6DCE1"/>
<path d="M17.5686 57L21.7251 54.6561L22.3009 55.631L46.97 41.7084L47.5494 42.6938L66 32.2765V30.9638V29.6511V29L17 56.6762L17.5686 57Z" fill="#D6DCE1"/>
<path d="M20 59.6689L20.5967 60L24.9102 57.5862L25.5106 58.583L46.5215 46.8558L47.1146 47.8562L66 37.3181V35.9901V34.6622V34L20 59.6689Z" fill="#D6DCE1"/>
<path d="M25.5917 62L29.8242 59.5506L30.4051 60.5606L46.9199 51.0227L47.5008 52.0328L66 41.3549V40.0093V38.6746V38L25 61.6573L25.5917 62Z" fill="#D6DCE1"/>
<path d="M29.5822 64L33.8203 61.6309L34.4097 62.6037L46.878 55.6399L47.4602 56.6092L66 46.251V44.9562V43.6509V43L29 63.6781L29.5822 64Z" fill="#D6DCE1"/>
<path d="M33 65.6733L33.58 66L37.8432 63.5926L38.416 64.5904L46.83 59.8217L47.4137 60.8159L66 50.3057V48.9813V47.6569V47L33 65.6733Z" fill="#D6DCE1"/>
<path d="M37.5854 69L41.8467 66.5368L42.4321 67.5496L46.7734 65.0502L47.3588 66.063L66 55.3674V54.0183V52.6691V52L37 68.6672L37.5854 69Z" fill="#D6DCE1"/>
<path d="M47 15.592L45.8293 14.96L44.6623 14.3246L44.0787 14L14 30.368V31L21.4626 26.9482L22.0461 27.8911L30.4583 23.3131L31.0563 24.2731L47 15.592Z" fill="#D6DCE1"/>
</g>
<defs>
<clipPath id="clip0_6739_108543">
<rect width="80" height="80" fill="white"/>
</clipPath>
</defs>
</svg>
