<svg width="80" height="80" viewBox="0 0 80 80" fill="none" xmlns="http://www.w3.org/2000/svg">
<g clip-path="url(#clip0_6722_91023)">
<path d="M68 1.48619e-06L12 2.62268e-07C5.37258 1.17422e-07 -1.17422e-07 5.37258 -2.62268e-07 12L-1.48619e-06 68C-1.63103e-06 74.6274 5.37258 80 12 80L68 80C74.6274 80 80 74.6274 80 68L80 12C80 5.37259 74.6274 1.63103e-06 68 1.48619e-06Z" fill="#181818"/>
<g clip-path="url(#clip1_6722_91023)">
<path d="M14 49.0135H46.0817C51.0655 49.0137 55.8484 47.0411 59.3929 43.5235C62.9373 40.0059 64.9574 35.227 65.015 30.2236C65.0725 25.2203 63.1628 20.3959 59.7002 16.7971C56.2376 13.1982 51.5013 11.1153 46.5188 11L25.3571 11C22.345 11 19.4563 12.2013 17.3264 14.3397C15.1965 16.4781 14 19.3784 14 22.4025H14V49.0135Z" fill="url(#paint0_linear_6722_91023)"/>
<path opacity="0.2" d="M58.2402 44.572C45.9461 32.6903 27.6155 15.3078 27.3542 15.0858C25.847 13.7895 24.3397 12.5915 26.7337 11H25.3571C22.345 11 19.4563 12.2013 17.3264 14.3397C15.1965 16.4781 14 19.3784 14 22.4025H14V49.0109H46.0817C50.5294 49.0185 54.8363 47.4461 58.2402 44.572Z" fill="#7E7F7F"/>
<path d="M25.3571 11C22.345 11 19.4563 12.2013 17.3264 14.3397C15.1965 16.4781 14 19.3784 14 22.4025H14V56.6858C14 59.7101 15.1965 62.6107 17.3263 64.7494C19.4561 66.8882 22.3448 68.0901 25.3571 68.0908H61.2798C65.4499 68.0908 67.5273 63.0112 64.5606 60.0704C51.6133 47.2127 26.3243 23.2827 24.9602 21.9132C21.8904 18.8312 19.21 13.0732 25.3571 11Z" fill="url(#paint1_linear_6722_91023)"/>
<path d="M15.6128 31.3005C15.0121 30.675 14.472 29.9934 14 29.2651V56.6857C14 59.71 15.1965 62.6106 17.3263 64.7494C19.4561 66.8881 22.3448 68.09 25.3571 68.0907H53.829C40.5527 54.9757 16.9291 32.6246 15.6128 31.3005Z" fill="url(#paint2_linear_6722_91023)"/>
<path d="M14 46.5142V56.6859C14 59.7103 15.1965 62.6108 17.3263 64.7496C19.4561 66.8884 22.3448 68.0903 25.3571 68.0909H36.4906C28.6705 60.5119 19.921 52.1612 14 46.5142Z" fill="url(#paint3_linear_6722_91023)"/>
</g>
</g>
<defs>
<linearGradient id="paint0_linear_6722_91023" x1="28.2912" y1="30.0067" x2="60.8779" y2="30.0067" gradientUnits="userSpaceOnUse">
<stop stop-color="#00B9D4"/>
<stop offset="1" stop-color="#00C2FF"/>
</linearGradient>
<linearGradient id="paint1_linear_6722_91023" x1="14" y1="39.5454" x2="60.1871" y2="39.5454" gradientUnits="userSpaceOnUse">
<stop stop-color="#00D4FF"/>
<stop offset="1" stop-color="#0068C9"/>
</linearGradient>
<linearGradient id="paint2_linear_6722_91023" x1="14" y1="48.6779" x2="46.966" y2="48.6779" gradientUnits="userSpaceOnUse">
<stop stop-color="#00D4FF"/>
<stop offset="1" stop-color="#0068C9"/>
</linearGradient>
<linearGradient id="paint3_linear_6722_91023" x1="14" y1="57.3038" x2="33.3505" y2="57.3038" gradientUnits="userSpaceOnUse">
<stop stop-color="#00D4FF"/>
<stop offset="1" stop-color="#0068C9"/>
</linearGradient>
<clipPath id="clip0_6722_91023">
<rect width="80" height="80" fill="white"/>
</clipPath>
<clipPath id="clip1_6722_91023">
<rect width="52" height="57" fill="white" transform="translate(14 11)"/>
</clipPath>
</defs>
</svg>
