<svg width="80" height="80" viewBox="0 0 80 80" fill="none" xmlns="http://www.w3.org/2000/svg">
<rect y="-0.000488281" width="80" height="80" rx="12" fill="#121122"/>
<path fill-rule="evenodd" clip-rule="evenodd" d="M17.6549 31.891C17.2637 34.4082 17.7242 36.9984 18.2024 39.4874C18.3867 39.885 18.7905 40.1528 19.2882 40.3242C18.2674 42.479 17.7063 44.8286 17.7063 47.2882C17.7063 57.7042 27.7899 66.1558 40.2272 66.1558C52.6646 66.1559 62.7552 57.7238 62.7552 47.2882C62.7552 44.8028 62.1828 42.4302 61.1424 40.2578C61.5586 40.0862 61.8906 39.837 62.0532 39.4874C62.5314 36.9984 62.99 34.4082 62.599 31.891C62.2328 28.5132 61.0736 27.4821 57.5928 28.3478C55.822 28.759 53.488 29.8042 51.6932 31.0336C48.3338 29.3666 44.4134 28.41 40.2272 28.41C35.993 28.41 32.0316 29.3896 28.6478 31.0932C26.8424 29.838 24.4608 28.7656 22.6629 28.3478C19.1802 27.4821 18.0229 28.5132 17.6549 31.891ZM30.7676 46.7834C28.1276 45.619 23.6156 45.914 23.6156 45.914C23.6156 45.914 23.8272 50.1612 26.4174 51.603C29.4894 53.3114 35.2014 52.4652 35.2014 52.4652C35.2014 52.4652 34.716 48.515 30.7676 46.7746L30.7676 46.7834ZM45.436 52.4722C45.436 52.4722 51.148 53.3186 54.22 51.61C56.8102 50.1682 57.0218 45.9212 57.0218 45.9212C57.0218 45.9212 52.5098 45.626 49.8698 46.7906C45.9214 48.515 45.436 52.4562 45.436 52.4562L45.436 52.4722ZM39.1 55.466C39.1 55.779 39.6814 56.0332 40.3978 56.0332C41.1142 56.0332 41.6956 55.779 41.6956 55.466C41.6956 55.1532 41.1142 54.9008 40.3978 54.9008C39.6814 54.9008 39.1 55.1442 39.1 55.466Z" fill="#F2F4F8"/>
<path fill-rule="evenodd" clip-rule="evenodd" d="M65.8934 52.8512C63.7854 52.0372 61.5466 51.6156 59.287 51.6068L59.2906 51.6068C58.7182 51.6068 58.7182 50.7178 59.2906 50.7178C61.6304 50.7254 63.9494 51.1598 66.1334 51.9996C66.2438 52.0334 66.3372 52.1084 66.3944 52.2088C66.4516 52.3092 66.4682 52.4278 66.4408 52.54C66.4088 52.6536 66.3334 52.7498 66.231 52.808C66.1284 52.8662 66.0072 52.8818 65.8934 52.8512ZM14.4694 52.0192C16.654 51.1796 18.9734 50.7452 21.3138 50.7374L21.3138 50.7426C21.8863 50.7426 21.8845 51.6316 21.3138 51.6316C19.0537 51.6396 16.8141 52.0614 14.7058 52.876C14.5922 52.906 14.4714 52.8904 14.3693 52.8322C14.2672 52.774 14.192 52.678 14.1601 52.5648C14.1318 52.4516 14.1481 52.3318 14.2057 52.2302C14.2632 52.1286 14.3577 52.053 14.4694 52.0192ZM19.001 54.5666C20.0943 54.2186 21.2314 54.0278 22.3784 53.9996C22.9477 54.0028 22.9466 54.8884 22.3752 54.8884C21.3291 54.9158 20.292 55.09 19.2943 55.4058C18.3663 55.6778 17.305 56.0618 16.6277 56.6894C16.2081 57.0786 15.5788 56.4512 16.0001 56.0618C16.8232 55.301 17.9557 54.8814 19.001 54.5666ZM22.3784 53.9996L22.3788 53.9996L22.3752 53.9996L22.3784 53.9996ZM23.392 56.22C22.5005 56.6016 21.6435 57.059 20.8303 57.5872C20.0088 58.0934 19.286 58.7446 18.6969 59.5088C18.6378 59.6106 18.6213 59.7316 18.6509 59.8454C18.6805 59.9594 18.7539 60.0568 18.8551 60.1168C18.9577 60.1738 19.0782 60.1892 19.1917 60.1596C19.3052 60.1302 19.403 60.0582 19.4649 59.9586C19.9645 59.2688 20.6809 58.7338 21.3903 58.2768C22.1688 57.7828 22.9857 57.3518 23.8329 56.988C23.9341 56.928 24.0075 56.8306 24.0375 56.7168C24.0674 56.603 24.0514 56.482 23.9929 56.38C23.9313 56.2806 23.8339 56.2086 23.7208 56.1788C23.6077 56.149 23.4875 56.1638 23.3849 56.22L23.392 56.22ZM58.2224 54.8706C59.2686 54.8968 60.3058 55.0702 61.3032 55.3862C61.8188 55.5328 62.3222 55.7188 62.809 55.9426C63.2292 56.1264 63.6192 56.372 63.9664 56.6716C64.386 57.0592 65.0152 56.4334 64.5958 56.0422C63.778 55.2832 62.6526 54.8618 61.6002 54.5472C60.5068 54.199 59.3694 54.0088 58.2224 53.9818C57.65 53.9818 57.6482 54.8706 58.2224 54.8706ZM59.2038 58.2502C58.4348 57.7748 57.6308 57.3588 56.7984 57.0058L56.7984 56.997C56.6976 56.9366 56.6244 56.8392 56.5946 56.7256C56.5646 56.612 56.5804 56.491 56.6384 56.389C56.701 56.29 56.7988 56.2186 56.912 56.1892C57.0252 56.1598 57.1454 56.1746 57.2482 56.2308C58.9798 56.9862 60.802 57.957 61.9344 59.5196C61.993 59.6214 62.0094 59.7422 61.9798 59.856C61.9502 59.9698 61.877 60.0672 61.7762 60.1276C61.6738 60.1842 61.5534 60.1992 61.4402 60.1694C61.3268 60.1396 61.2294 60.0674 61.1682 59.9676C60.6562 59.2618 59.9326 58.7142 59.2038 58.2502Z" fill="#F2F4F8"/>
<path d="M11.0916 41.7525C11.5023 41.1125 15.1112 39.1873 19.577 38.0441C20.5408 35.3069 21.7301 32.6541 23.1325 30.1135C23.1147 30.1135 26.7041 23.6708 26.6881 23.6673C25.6588 23.1989 24.6704 22.6452 23.7334 22.0122C23.5747 21.8901 23.431 21.7499 23.305 21.5944C23.2099 21.4374 23.1606 21.257 23.1627 21.0735C23.1627 20.9242 23.3743 20.6575 23.4685 20.5402C23.7089 20.2574 23.9743 19.9968 24.2614 19.7615C24.9458 19.2011 25.6648 18.6846 26.4143 18.2148C26.7699 17.9802 27.1396 17.7508 27.5041 17.5197C30.0641 15.8895 31.4667 14.6628 33.8117 13.3153C36.0517 12.0317 37.1397 11.2406 39.7369 11.374C43.0009 11.374 51.1147 21.71 54.7735 27.0362C56.9671 30.2361 59.9111 35.9979 60.9957 38.1651C61.2551 38.2309 61.4899 38.2931 61.7067 38.3571C65.0347 39.3561 68.2987 40.8211 69.0969 41.7525C69.8081 42.5811 66.7005 42.9509 63.6373 43.4841C60.5743 44.0175 50.1831 44.2823 40.1975 44.3499C30.2117 44.4175 18.5565 44.0833 16.0196 43.6833C13.4827 43.2833 10.5814 42.5509 11.0916 41.7525Z" fill="#6665DD"/>
<path d="M58.2113 32.8243C58.2113 32.8243 51.6335 31.1763 40.0443 31.1763C27.5998 31.1763 21.6069 33.0963 21.6069 33.0963C21.6069 33.0963 20.8958 34.4473 20.5864 35.2295C20.2771 36.0117 19.5767 38.0437 19.5767 38.0437C19.5767 38.0437 28.6309 36.4225 40.2185 36.4225C47.1959 36.4513 54.1599 37.0399 61.0433 38.1825C61.0433 38.1825 59.9927 35.7237 59.3633 34.6749C58.7339 33.6259 58.2113 32.8243 58.2113 32.8243Z" fill="#FF99A5"/>
<path d="M19.0633 18.9203C19.817 18.8101 20.841 21.1177 20.841 21.1177C20.841 21.1177 23.2126 20.4795 23.5824 21.1177C23.9521 21.7559 21.9148 23.2883 21.9148 23.2883C21.9148 23.2883 23.145 25.4519 22.7557 25.9017C22.3664 26.3515 20.1726 24.9861 20.1726 24.9861C20.1726 24.9861 18.4997 26.8705 17.9539 26.5861C17.4081 26.3017 18.0268 23.8465 18.0268 23.8465C18.0268 23.8465 15.6606 22.8403 15.8224 22.243C15.9841 21.6457 18.4499 21.4643 18.4499 21.4643C18.4499 21.4643 18.3113 19.0306 19.0633 18.9203Z" fill="#FFE600"/>
</svg>
