<svg width="80" height="80" viewBox="0 0 80 80" fill="none" xmlns="http://www.w3.org/2000/svg">
<g clip-path="url(#clip0_6722_89781)">
<path d="M68 1.48619e-06L12 2.62268e-07C5.37258 1.17422e-07 -1.17422e-07 5.37258 -2.62268e-07 12L-1.48619e-06 68C-1.63103e-06 74.6274 5.37258 80 12 80L68 80C74.6274 80 80 74.6274 80 68L80 12C80 5.37259 74.6274 1.63103e-06 68 1.48619e-06Z" fill="#151217"/>
<path d="M39.5556 65.5586L39.543 61.234L50.3009 54.8247L50.2629 41.9603L54.1377 39.8984L54.2898 57.0773L39.5556 65.5586Z" fill="#494949"/>
<path d="M42.6958 33.7687L47.1003 31.2441L57.9038 38.0958L57.9621 58.8009L54.29 57.0772L54.1379 39.8984L42.6958 33.7687Z" fill="white"/>
<path d="M39.3887 10L57.8532 20.6424L57.8658 25.0737L39.4089 14.6424L39.3887 10Z" fill="white"/>
<path d="M21.0634 42.4788L21 20.8585L39.3885 10L39.4088 14.6424L24.4516 23.1136L24.3959 39.9847L21.0634 42.4788Z" fill="#494949"/>
<path d="M31.8974 48.512L21.0635 42.4789L24.396 39.9849L42.9594 50.7238L31.9227 57.0238L28.2278 59.106L39.5559 65.5586L54.29 57.0772L57.9621 58.801L39.4646 69.8806L21.1116 59.3374L35.7393 50.6527L31.8974 48.512Z" fill="#B3B3B3"/>
<path d="M24.4517 23.1138L39.4088 14.6426L57.8657 25.0739L47.1002 31.2443L42.6957 33.7688L54.1378 39.8985L50.2629 41.9604L35.577 33.5655L50.2148 24.8782L46.7226 22.8621L39.4189 18.6417L28.5495 24.9417L24.4517 23.1138Z" fill="#B3B3B3"/>
<path d="M28.2275 59.1061L31.9225 57.0239L39.5429 61.2341L39.5556 65.5587L28.2275 59.1061Z" fill="white"/>
<path d="M21.1113 59.3371L21.0986 54.6922L31.897 48.5117L35.739 50.6524L21.1113 59.3371Z" fill="#494949"/>
<path d="M35.5771 33.5652L35.6202 29.1389L46.7228 22.8618L50.215 24.8779L35.5771 33.5652Z" fill="#494949"/>
<path d="M24.396 39.985L24.4517 23.1138L28.5496 24.9417L28.5876 38.1799L42.9441 46.1985L42.9594 50.7239L24.396 39.985Z" fill="white"/>
</g>
<defs>
<clipPath id="clip0_6722_89781">
<rect width="80" height="80" fill="white"/>
</clipPath>
</defs>
</svg>
