<svg width="80" height="80" viewBox="0 0 80 80" fill="none" xmlns="http://www.w3.org/2000/svg">
<g clip-path="url(#clip0_6703_87131)">
<path d="M68 1.48619e-06L12 2.62268e-07C5.37258 1.17422e-07 -1.17422e-07 5.37258 -2.62268e-07 12L-1.48619e-06 68C-1.63103e-06 74.6274 5.37258 80 12 80L68 80C74.6274 80 80 74.6274 80 68L80 12C80 5.37259 74.6274 1.63103e-06 68 1.48619e-06Z" fill="url(#paint0_linear_6703_87131)"/>
<g clip-path="url(#clip1_6703_87131)">
<path d="M25.4168 19.7915L64.1668 46.2498L54.5835 60.4165L15.8335 33.7498L25.4168 19.7915Z" fill="url(#paint1_linear_6703_87131)"/>
<path d="M64.1671 46.25C60.8337 51.0417 49.5837 49.1667 38.9587 41.6667C28.1254 34.375 22.2921 24.5834 25.4171 19.7917C28.7504 15.0001 40.0004 16.8751 50.6254 24.375C61.4587 31.4584 67.2921 41.4584 64.1671 46.25Z" fill="url(#paint2_linear_6703_87131)"/>
<path d="M54.5835 60.2084C51.2502 65 40.0002 63.125 29.3752 55.625C18.7502 48.1251 12.7085 38.5417 16.0419 33.5417C19.3752 28.75 30.6252 30.6251 41.2502 38.1251C51.8752 45.6251 57.7085 55.4167 54.5835 60.2084Z" fill="url(#paint3_linear_6703_87131)"/>
<path d="M64.167 46.2501L54.5837 60.4168C51.2503 65.2084 40.0003 63.1251 29.3753 55.8334C27.292 54.3751 25.417 52.9168 23.542 51.2501C25.0003 51.0418 26.8753 50.2084 28.7503 48.1251C32.0837 44.5834 33.7503 43.7501 35.2087 43.9584C36.667 43.9584 38.3337 45.4168 41.042 48.9584C43.7503 52.5001 47.5003 53.5418 49.792 51.6668C50.0003 51.4584 50.2087 51.4584 50.417 51.2501C52.292 49.7918 52.917 49.1668 56.4587 42.5001C57.292 40.8334 60.2087 38.1251 64.167 39.3751C65.2087 42.0834 65.2087 44.3751 64.167 46.2501Z" fill="#0E0F23"/>
<path fill-rule="evenodd" clip-rule="evenodd" d="M62.7083 45.4165C59.7916 49.5831 49.5833 47.4998 39.7916 40.6248C29.7916 33.7498 23.9583 24.9998 26.875 20.8331C29.7916 16.6665 40 18.7498 49.7916 25.6248C59.5833 32.4998 65.4166 41.2498 62.7083 45.4165ZM53.5416 39.1665C52.0833 41.2498 47.0833 40.2081 42.0833 36.8748C37.2916 33.5415 34.375 29.1665 35.8333 27.0831C37.2916 24.9998 42.2916 26.0415 47.2916 29.3748C52.0833 32.7081 55 37.0831 53.5416 39.1665Z" fill="white"/>
<path d="M24.5833 24.5832C24.5833 24.3749 24.375 24.1665 24.1667 24.3749C23.9583 24.5832 23.75 24.5832 23.75 24.7915C23.9583 25.4165 24.1667 25.8332 24.1667 26.2499C24.1667 26.4582 24.375 26.6665 24.5833 26.4582C24.7917 26.4582 25 26.2499 24.7917 26.0415C24.7917 25.6249 24.7917 25.2082 24.5833 24.5832Z" fill="white"/>
<path d="M25.625 27.9167C25.625 27.7084 25.4167 27.5 25.2083 27.7084C25 27.9167 25 27.9167 25 28.125C27.2917 33.3334 32.0833 38.9584 38.3333 43.125C38.5417 43.3334 38.75 43.125 38.9583 43.125C39.1667 42.9167 38.9583 42.7084 38.9583 42.5C32.5 38.3334 27.9167 32.9167 25.625 27.9167Z" fill="white"/>
<path d="M50.8337 48.3335C50.6253 48.3335 50.417 48.3335 50.417 48.5418C50.417 48.7502 50.417 48.9585 50.6253 48.9585C51.2503 49.1668 52.0837 49.3752 52.7087 49.5835C52.917 49.5835 53.1253 49.5835 53.1253 49.3752C53.1253 49.1668 53.1253 48.9585 52.917 48.9585C52.292 48.7502 51.4587 48.5418 50.8337 48.3335Z" fill="white"/>
<path d="M54.5837 49.1665C54.3753 49.1665 54.167 49.3748 54.167 49.5832C54.167 49.7915 54.3753 49.9998 54.5837 49.9998C56.2503 50.2082 58.1253 50.4165 59.5837 50.2082C59.792 50.2082 60.0003 49.9998 60.0003 49.7915C60.0003 49.5832 59.792 49.3748 59.5837 49.3748C57.917 49.5832 56.2503 49.3748 54.5837 49.1665Z" fill="white"/>
</g>
</g>
<defs>
<linearGradient id="paint0_linear_6703_87131" x1="80" y1="-3.01992e-06" x2="3.01992e-06" y2="80" gradientUnits="userSpaceOnUse">
<stop stop-color="#110F27"/>
<stop offset="1" stop-color="#19244F"/>
</linearGradient>
<linearGradient id="paint1_linear_6703_87131" x1="33.0089" y1="16.0296" x2="40.6935" y2="42.4175" gradientUnits="userSpaceOnUse">
<stop stop-color="#03B8FF"/>
<stop offset="1" stop-color="#FA52A0"/>
</linearGradient>
<linearGradient id="paint2_linear_6703_87131" x1="39.3375" y1="14.1867" x2="47.0223" y2="40.5748" gradientUnits="userSpaceOnUse">
<stop stop-color="#03B8FF"/>
<stop offset="1" stop-color="#FA52A0"/>
</linearGradient>
<linearGradient id="paint3_linear_6703_87131" x1="26.7002" y1="17.8669" x2="34.385" y2="44.2551" gradientUnits="userSpaceOnUse">
<stop stop-color="#03B8FF"/>
<stop offset="1" stop-color="#FA52A0"/>
</linearGradient>
<clipPath id="clip0_6703_87131">
<rect width="80" height="80" fill="white"/>
</clipPath>
<clipPath id="clip1_6703_87131">
<rect width="50" height="50" fill="white" transform="translate(15 15)"/>
</clipPath>
</defs>
</svg>
