<svg width="80" height="80" viewBox="0 0 80 80" fill="none" xmlns="http://www.w3.org/2000/svg">
<g clip-path="url(#clip0_6703_87121)">
<path d="M68 0H12C5.37258 0 0 5.37258 0 12V68C0 74.6274 5.37258 80 12 80H68C74.6274 80 80 74.6274 80 68V12C80 5.37258 74.6274 0 68 0Z" fill="white"/>
<g clip-path="url(#clip1_6703_87121)">
<path d="M26.2343 51.8115C26.4213 48.9355 26.3679 45.9774 26.7018 43.0329C26.8888 41.4306 27.2228 39.842 27.3564 38.2396C27.53 36.0484 27.3163 33.8572 27.2629 31.6523C27.2495 31.0086 27.1827 30.365 27.343 29.7213C27.4231 29.3926 27.5434 29.0502 27.8773 28.9818C28.4517 28.8448 28.2914 28.5161 28.1712 28.16C28.0376 27.7629 27.9174 27.3657 27.7704 26.9823C26.969 24.9691 27.6502 23.1613 28.6253 21.4631C29.4535 20.0115 30.5355 18.7104 31.6709 17.4916C32.9399 16.122 34.5161 15.4373 36.3728 15.4099C36.7201 15.4099 37.0674 15.3962 37.428 15.3688C37.6017 15.3551 37.7753 15.3551 37.9623 15.3414C38.1226 15.3277 38.2963 15.3414 38.4566 15.314C38.51 15.3003 38.5634 15.2866 38.6169 15.2729C38.7104 15.2729 38.8039 15.3003 38.884 15.3003C39.0844 15.3277 39.2714 15.3551 39.4718 15.3962C39.8591 15.4647 40.2465 15.5332 40.6339 15.6153C41.4086 15.766 42.17 15.9577 42.9314 16.1631C43.3455 16.2727 43.7596 16.3959 44.1469 16.6014C44.8549 16.9985 45.3625 17.6696 46.0437 18.1078C46.5113 18.4091 47.0322 18.5872 47.4597 18.9432C47.9405 19.3404 48.2478 19.9019 48.5416 20.4634C48.8622 21.066 49.1828 21.6686 49.3965 22.3259C49.4499 22.4903 49.5034 22.6683 49.5435 22.8326C49.7037 23.5311 49.7839 24.2432 49.864 24.9554C49.9442 25.6538 50.0377 26.366 50.2648 27.037C50.3182 27.2014 50.385 27.3657 50.4518 27.5301C50.4785 27.5985 50.5186 27.667 50.5319 27.7355C50.5319 27.8314 50.5186 27.9272 50.5186 28.0231C50.5052 30.0911 50.3316 32.1453 50.2915 34.2133C50.2247 37.5549 49.9976 40.8965 49.637 44.2244C49.5702 44.8133 49.6503 45.3885 49.7839 45.95C50.1713 47.6208 50.2915 49.2916 50.051 51.0172C49.8507 52.4688 49.8507 53.9616 49.7572 55.4407C49.7171 56.098 49.3698 56.3719 48.742 56.3856C48.0073 56.3993 47.3394 56.0843 46.6048 56.0706C45.5762 56.0433 44.5878 56.2898 43.5859 56.3993C41.9029 56.5637 40.2732 56.2487 38.6169 56.0433C38.323 56.0159 38.0425 55.8789 37.7486 55.8926C37.4414 55.8926 37.1475 55.9063 36.8403 55.8926C36.6934 55.8789 36.5464 55.8789 36.3995 55.8378C36.306 55.8104 36.2392 55.7694 36.1457 55.7557C35.745 55.7146 35.3443 55.7146 34.9435 55.6872C34.5428 55.6735 34.1421 55.6461 33.7413 55.6324C32.9399 55.5913 32.1251 55.5639 31.3236 55.5365C30.5221 55.5091 29.7073 55.4818 28.9058 55.4544C28.7055 55.4544 28.5051 55.4407 28.3048 55.4407C28.1177 55.4407 27.904 55.3996 27.717 55.427C27.6636 55.4407 27.6102 55.4681 27.5701 55.4818C27.3831 55.5365 27.156 55.5091 26.969 55.4681C26.3812 55.3037 26.2343 54.66 26.221 54.1122C26.2076 53.7425 26.2477 53.3727 26.261 53.0029C26.2343 52.6332 26.2343 52.2634 26.2343 51.8115Z" fill="#6B00FA" stroke="black" stroke-width="0.5" stroke-miterlimit="10"/>
<path d="M50.8794 63.3021C50.7725 64.0143 50.866 64.8223 50.6656 65.5892C50.5855 65.8905 50.5187 66.1781 50.1981 66.3014C49.8909 66.4109 49.6772 66.274 49.5302 66.0001C49.4234 65.8083 49.2364 65.822 49.0493 65.8083C47.5399 65.7125 46.0305 65.6166 44.5344 65.5344C39.3784 65.2605 34.2357 64.9866 29.0796 64.7127C27.637 64.6443 26.1944 64.6032 24.7517 64.521C24.3644 64.4936 23.5896 64.521 23.4961 63.9869C23.4694 63.8226 23.3759 63.6856 23.3358 63.5213C23.2423 63.1789 23.229 62.8091 23.229 62.453C23.2022 61.6313 23.1889 60.7959 23.1622 59.9742C23.1622 59.8373 23.1622 59.7003 23.1488 59.5634C23.1488 59.4675 23.1221 59.4127 23.082 59.3443C22.9885 59.1388 23.0687 58.906 23.2022 58.7417C23.3759 58.5225 23.6163 58.4267 23.8701 58.5362C24.6983 58.8512 25.5666 58.7828 26.4081 58.8375C30.362 59.0704 34.3292 59.2484 38.2964 59.4401C41.903 59.6182 45.4962 59.8099 49.1028 60.0016C50.345 60.0701 50.8259 60.5905 50.8259 61.8778C50.8259 62.3298 50.8526 62.7817 50.8794 63.3021Z" fill="#4300BF" stroke="black" stroke-width="0.5" stroke-miterlimit="10"/>
<path d="M39.3786 55.9749C38.1631 55.9338 36.9341 55.879 35.732 55.701C34.9572 55.5777 34.2092 55.3997 33.4344 55.2901C32.6062 55.1806 31.7513 55.1669 30.9232 55.1532C29.6542 55.1258 28.3585 55.1121 27.1296 55.4271C25.9007 55.7421 24.6985 56.4405 24.0439 57.5635C25.2061 58.44 26.7288 58.5496 28.1715 58.6317C29.0531 58.6865 29.9347 58.7276 30.8163 58.7824C37.3215 59.1522 43.8267 59.5219 50.3319 59.5356C50.1315 58.9056 49.9312 58.262 49.7175 57.632C49.5305 57.0705 49.2633 56.4131 48.6221 56.2762C48.4084 56.2351 48.1947 56.2762 47.981 56.2899C47.6069 56.2899 47.2196 56.2625 46.8456 56.2488C45.256 56.194 43.6531 56.1255 42.0635 56.0708C41.1685 56.0434 40.2736 56.0023 39.3786 55.9749Z" fill="#6B00FA" stroke="black" stroke-width="0.5" stroke-miterlimit="10"/>
<path d="M54.1655 54.8244C54.3658 54.7149 54.5929 54.6053 54.7131 54.4136C54.8334 54.2219 54.8467 53.989 54.8601 53.7699C54.9135 52.866 54.9669 51.9759 55.0204 51.072C55.0872 50.0586 55.1406 49.0451 55.1272 48.0317C55.1139 47.073 55.0204 46.1144 55.0738 45.1694C55.1272 44.2929 55.3009 43.4301 55.3944 42.5536C55.7283 39.4586 55.0204 36.3361 55.1539 33.2273C55.2074 32.0769 55.381 30.9265 55.4478 29.7624C55.6482 26.6263 55.1139 23.4353 53.9117 20.5457C53.8048 20.2992 53.698 20.0527 53.4976 19.8883C53.2304 19.6692 52.8698 19.6418 52.5759 19.4638C52.1618 19.2036 52.0015 18.6831 51.7744 18.2312C51.2134 17.1082 50.1448 16.3413 48.9827 15.9167C47.8206 15.4922 46.5917 15.3689 45.3761 15.2457C44.5212 15.1635 43.6663 15.0813 42.8114 14.9855C42.3973 14.9444 41.7962 15.0813 41.863 15.5059C43.0919 16.4508 44.5079 17.1356 45.8036 17.9847C47.0992 18.8338 48.3282 19.9157 48.9426 21.3674C49.2098 21.9837 49.3433 22.6547 49.4769 23.3258C49.8776 25.2431 50.265 27.1604 50.3585 29.1188C50.4253 30.5431 50.3318 31.981 50.2383 33.419C50.1181 35.2952 50.0379 37.1852 49.9578 39.0614C49.8777 40.9376 49.8242 42.8275 49.7975 44.7038C49.7574 46.5937 49.7441 48.4699 49.7574 50.3461C49.7574 51.2911 49.7708 52.2361 49.7841 53.1673C49.7841 53.633 49.7975 54.1123 49.8109 54.5779C49.8242 55.0162 49.7841 55.4955 49.8376 55.9474C49.9311 56.6185 50.6658 56.5226 51.1199 56.3172C51.9481 55.9474 52.7496 55.5092 53.5777 55.0983C53.7247 55.0436 54.0185 54.8244 54.1655 54.8244Z" fill="#4300BF" stroke="black" stroke-width="0.5" stroke-miterlimit="10"/>
<path d="M50.679 59.3713C50.7324 59.4672 50.7992 59.5767 50.906 59.5767C50.9728 59.5767 51.0396 59.5356 51.0931 59.5082C51.7075 59.0837 52.2151 58.5085 52.883 58.1935C53.3371 57.9744 53.8314 57.8922 54.2989 57.7279C54.9668 57.4951 55.5679 57.0979 56.169 56.7144C56.3827 56.5775 56.6231 56.3721 56.5831 56.1119C56.5697 56.016 56.5163 55.9338 56.4628 55.8654C56.1289 55.3997 55.7282 55.0026 55.274 54.6739C55.1805 54.6054 55.087 54.5506 54.9801 54.5369C54.8466 54.5232 54.713 54.5917 54.5928 54.6465C53.6177 55.1395 52.6559 55.6325 51.6941 56.1393C51.2133 56.3858 50.7324 56.646 50.2515 56.8925C49.8508 57.0979 49.5168 57.2486 49.784 57.7416C50.0912 58.2894 50.4118 58.8235 50.679 59.3713Z" fill="#100342" stroke="black" stroke-width="0.5" stroke-miterlimit="10"/>
<path d="M51.1065 65.26C51.1198 65.3559 51.1333 65.4654 51.1867 65.5339C51.3337 65.6982 51.5873 65.6024 51.7743 65.4928C53.3906 64.5616 55.007 63.6303 56.6233 62.699C56.7836 62.6032 56.9573 62.5073 57.0641 62.3429C57.171 62.1649 57.1843 61.9458 57.1977 61.7404C57.2511 60.6311 57.2912 59.5218 57.3446 58.3988C57.358 58.0838 57.3579 57.7414 57.1842 57.4949C56.9972 57.221 56.6365 57.1388 56.316 57.1799C55.9954 57.221 55.7015 57.3853 55.421 57.5497C54.1253 58.2892 52.8297 59.015 51.534 59.7409C51.1066 59.9874 50.5856 60.1517 50.6257 60.7269C50.6658 61.398 50.7725 62.069 50.8393 62.7264C50.8794 63.151 50.9328 63.5618 50.9729 63.9864C51.013 64.4109 51.1065 64.8491 51.1065 65.26Z" fill="#100342" stroke="black" stroke-width="0.5" stroke-miterlimit="10"/>
<path d="M43.7865 22.285C44.0403 22.5041 44.0136 22.9561 43.7464 23.1615C43.4793 23.3669 43.0518 23.23 42.9316 22.915C42.8114 22.6 43.0385 22.2028 43.359 22.148C43.506 22.1344 43.6663 22.1754 43.7865 22.285Z" fill="#4300BF"/>
<path d="M45.9505 24.2161C45.9372 24.2845 45.9238 24.3393 45.9238 24.4078C45.9372 24.531 46.0173 24.6269 46.1242 24.668C46.4047 24.8186 46.8188 24.5995 46.8589 24.2708C46.8856 23.9422 46.5383 23.6272 46.2311 23.723C46.2043 23.7093 46.1643 23.7367 46.1509 23.7641C46.0307 23.9148 46.004 24.0517 45.9505 24.2161Z" fill="#4300BF"/>
<path d="M44.6279 26.147C44.4276 26.147 44.2272 26.147 44.0402 26.147C43.9868 26.147 43.9333 26.147 43.8933 26.1881C43.8665 26.2155 43.8665 26.2566 43.8532 26.2977C43.8265 26.462 43.8131 26.6127 43.7997 26.777C43.7864 26.9688 43.7864 27.2153 43.9467 27.3111C44.0535 27.3659 44.1738 27.3522 44.2806 27.3796C44.3741 27.407 44.4543 27.4618 44.5478 27.4481C44.7348 27.4481 44.855 27.2427 44.8951 27.0509C44.9352 26.8455 44.9485 26.6401 44.855 26.4483C44.7615 26.2566 44.5745 26.1197 44.3741 26.147" fill="#4300BF"/>
<path d="M53.6443 32.1042C53.5107 31.9673 53.3504 31.981 53.1768 32.0358C53.0165 32.0905 52.923 32.2549 52.9363 32.4192C52.9363 32.5562 53.0298 32.6931 53.1233 32.789C53.2703 32.9396 53.5374 32.8027 53.6443 32.6657C53.7779 32.5288 53.7779 32.2686 53.6443 32.1042Z" fill="#6B00FA"/>
<path d="M52.7093 34.4054C52.6959 34.3232 52.6425 34.1862 52.5757 34.1178C52.4955 34.0356 52.3353 34.0767 52.2417 34.1178C52.1616 34.1588 52.0815 34.2136 52.0147 34.2821C51.988 34.3095 51.9612 34.3232 51.9479 34.3643C51.9078 34.4327 51.8944 34.5012 51.8811 34.5834C51.8811 34.6245 51.841 34.8162 51.8811 34.8436C52.0414 34.9532 52.2551 34.9805 52.4421 34.8984C52.6024 34.8025 52.736 34.5971 52.7093 34.4054Z" fill="#6B00FA"/>
<path d="M29.694 51.7158C29.4402 51.7158 29.1998 51.8391 29.0796 52.0582C28.9594 52.2773 28.9994 52.5923 29.1864 52.7566C29.3868 52.9347 30.0413 52.921 30.2283 52.743C30.4153 52.5649 30.1615 52.2499 30.0547 51.9897C29.8944 51.8939 29.7207 51.798 29.5471 51.7158" fill="#4300BF"/>
<path d="M28.5317 47.1824C28.4516 47.4016 28.3848 47.6207 28.3447 47.8535C28.3314 47.8946 28.3314 47.9494 28.3581 47.9905C28.3981 48.0589 28.4783 48.0726 28.5584 48.0863C28.7588 48.1 28.9859 48.1 29.1061 47.9494C29.1462 47.9083 29.1729 47.8398 29.1862 47.785C29.253 47.5659 29.213 47.3057 29.026 47.1824C28.8389 47.0592 28.5451 47.1277 28.505 47.3468" fill="#4300BF"/>
<path d="M31.5106 49.4288C31.4839 49.3603 31.4305 49.2508 31.3637 49.2234C31.3236 49.2097 31.2568 49.2234 31.2034 49.2234C31.15 49.2234 31.1099 49.2234 31.0565 49.2234C31.0164 49.2234 30.9763 49.2234 30.9496 49.2371C30.8962 49.2645 30.8427 49.3466 30.8027 49.3877C30.7759 49.4014 30.7626 49.4151 30.7492 49.4425C30.7092 49.511 30.6958 49.6068 30.6958 49.689C30.6958 49.7164 30.6958 49.9355 30.7225 49.9355C30.8561 49.9629 31.3236 50.004 31.4572 50.0314C31.5373 50.0451 31.3103 50.0725 31.377 50.0177C31.4038 49.9903 31.4305 49.9629 31.4572 49.9218C31.524 49.7575 31.5641 49.5794 31.5106 49.4288Z" fill="#4300BF"/>
<path d="M44.6011 64.1371C44.8549 64.3288 45.269 64.2741 45.4427 64.0002C45.5763 63.7947 45.5495 63.5345 45.5095 63.288C45.4961 63.2195 45.4828 63.1511 45.4427 63.11C45.4026 63.0689 45.3358 63.0552 45.269 63.0552C45.082 63.0278 44.9217 63.0415 44.7347 63.0415C44.708 63.0415 44.6813 63.0415 44.6546 63.0415C44.5878 63.0689 44.521 63.1237 44.4676 63.1785C44.334 63.3154 44.2806 63.4798 44.3206 63.6715C44.3607 63.8495 44.4542 64.0276 44.6011 64.1371Z" fill="#6B00FA"/>
<path d="M42.9047 61.4669C42.7177 61.549 42.6242 61.7819 42.691 61.9736C42.7978 62.0695 42.9314 62.1516 43.0783 62.1653C43.2253 62.179 43.3856 62.0832 43.4123 61.9325C43.439 61.8093 43.3722 61.6997 43.3054 61.5901C43.2386 61.4806 43.1585 61.371 43.0383 61.3299C42.918 61.3025 42.7577 61.4121 42.8112 61.5354" fill="#6B00FA"/>
<path d="M52.2684 51.9621C52.0547 51.8937 51.8142 51.9895 51.6673 52.1539C51.5203 52.3319 51.4536 52.5647 51.4402 52.7838C51.4268 52.9071 51.4402 53.0304 51.507 53.1262C51.6005 53.2495 51.7741 53.2632 51.9211 53.2221C52.2149 53.1673 52.4821 52.9482 52.5622 52.6606C52.6424 52.373 52.4554 52.0032 52.1615 51.9621C52.3752 51.9347 52.1214 51.8115 52.2684 51.9621Z" fill="#6B00FA"/>
<path d="M53.2171 48.4976C52.9365 48.5523 52.6694 48.7578 52.6427 49.0454C52.616 49.333 52.9365 49.6069 53.1903 49.4699C53.4441 49.2234 53.4174 48.7441 53.1503 48.5113" fill="#6B00FA"/>
<path d="M44.4409 20.614C44.2806 20.6551 44.2138 20.8742 44.2806 21.0249C44.3474 21.1755 44.521 21.2577 44.6947 21.2577C44.7748 21.2577 44.8683 21.2303 44.9084 21.1618C44.9218 21.1208 44.9351 21.0797 44.9351 21.0386C44.9351 20.888 44.9351 20.7236 44.895 20.573C44.7481 20.5593 44.6012 20.5593 44.4542 20.5866" fill="#100342"/>
<path d="M42.9718 23.0382C42.8516 23.0519 42.718 23.0656 42.6111 23.1204C42.5043 23.1752 42.4108 23.2984 42.4241 23.4217C42.4375 23.586 42.6111 23.6956 42.7581 23.764C42.8783 23.8188 43.0386 23.8736 43.1454 23.7777C43.2523 23.6819 43.2122 23.5175 43.2924 23.3943C43.3191 23.3532 43.3592 23.3121 43.3725 23.2573C43.3859 23.1615 43.279 23.093 43.1855 23.0793C43.092 23.0656 42.9852 23.0519 42.9451 22.9697" fill="#100342"/>
<path d="M40.9815 20.0801C40.8612 20.1486 40.7277 20.2444 40.6609 20.3677C40.5273 20.6005 40.6342 20.9703 40.888 21.025C41.1417 21.0798 41.3688 20.847 41.5024 20.6142C41.5158 20.5868 41.5291 20.5594 41.5291 20.532C41.5291 20.5046 41.5024 20.4772 41.4757 20.4635C41.3288 20.354 41.1818 20.2444 41.0349 20.1486C40.9948 20.1212 40.928 20.0938 40.9013 20.1486" fill="#100342"/>
<path d="M30.6826 22.4904C30.6158 22.6547 30.5891 22.8464 30.6025 23.0382C30.7227 23.1066 30.8696 23.0929 30.9898 23.0382C31.1101 22.9697 31.2036 22.8738 31.2837 22.7506C31.2971 22.7232 31.3238 22.6958 31.3238 22.6547C31.3238 22.5999 31.2971 22.5451 31.257 22.5041C31.1768 22.4082 31.07 22.3397 30.9498 22.326C30.8295 22.3123 30.696 22.4082 30.6826 22.5177" fill="#100342"/>
<path d="M30.0816 24.723C29.9747 24.7778 29.9613 24.9558 30.0281 25.0516C30.1083 25.1475 30.2419 25.1886 30.3621 25.1749C30.4422 25.1612 30.5357 25.1338 30.5624 25.0654C30.6159 24.9558 30.5357 24.8325 30.4556 24.7504C30.3754 24.6545 30.2552 24.5449 30.1216 24.586" fill="#100342"/>
<path d="M35.4911 17.6836C35.4377 17.8205 35.4377 17.9849 35.4778 18.1355C35.5446 18.2451 35.7049 18.2725 35.8117 18.204C35.9186 18.1355 35.972 17.9986 35.9587 17.8616C35.9319 17.711 35.7717 17.5603 35.6381 17.6288" fill="#100342"/>
<path d="M47.2193 31.0771C47.1258 31.2415 47.1659 31.488 47.3262 31.5976C47.4865 31.7071 47.7269 31.6523 47.8204 31.488C47.8739 31.4058 47.8739 31.2826 47.8472 31.1867C47.7937 31.0498 47.6468 30.9539 47.4999 30.9539C47.3529 30.9402 47.206 31.0087 47.0991 31.1045C47.1526 31.1182 47.1926 31.1456 47.2461 31.1593" fill="#100342"/>
<path d="M46.351 51.1956C46.3376 51.4011 46.2441 51.5928 46.2441 51.7982C46.2441 52.0036 46.3777 52.2365 46.5781 52.2365C46.7517 52.2365 46.872 52.0721 46.9521 51.9215C47.0189 51.8256 47.0723 51.716 47.1257 51.6202C47.1658 51.5654 47.1925 51.4969 47.1658 51.4284C47.1525 51.4011 47.1257 51.3737 47.099 51.36C46.872 51.2093 46.5914 51.1408 46.3109 51.1545" fill="#100342"/>
<path d="M46.351 51.1956C46.3376 51.4011 46.2441 51.5928 46.2441 51.7982C46.2441 52.0036 46.3777 52.2365 46.5781 52.2365C46.7517 52.2365 46.872 52.0721 46.9521 51.9215C47.0189 51.8256 47.0723 51.716 47.1257 51.6202C47.1658 51.5654 47.1925 51.4969 47.1658 51.4284C47.1525 51.4011 47.1257 51.3737 47.099 51.36C46.872 51.2093 46.5914 51.1408 46.3109 51.1545" stroke="black" stroke-width="0.5" stroke-miterlimit="10"/>
<path d="M45.1758 48.826C45.2426 48.9767 45.3494 49.1273 45.4964 49.1684C45.7502 49.2506 46.044 48.9356 45.9372 48.6891C45.8303 48.4426 45.4029 48.4289 45.296 48.6891" fill="#100641"/>
<path d="M39.726 52.4965C39.6325 52.743 39.8328 53.0443 40.0866 53.0854C40.3404 53.1265 40.5943 52.9075 40.6611 52.6473C40.6744 52.6062 40.6744 52.5514 40.6477 52.5103C40.621 52.4692 40.5809 52.4555 40.5275 52.4418C40.3138 52.3871 40.0867 52.3321 39.873 52.2637C39.8463 52.3321 39.8195 52.4143 39.8062 52.4828" fill="#100641"/>
<path d="M29.7476 42.6085C29.7209 42.7318 29.6808 42.855 29.7075 42.9783C29.7209 43.1015 29.801 43.2248 29.9213 43.2522C30.0548 43.2933 30.2018 43.1837 30.2552 43.0468C30.3086 42.9098 30.3086 42.7592 30.2953 42.6222C30.135 42.5948 29.9747 42.5674 29.8278 42.54" fill="#100342"/>
<path d="M28.4787 61.0561C28.4252 61.2342 28.3852 61.467 28.5321 61.5903C28.6924 61.7272 28.9195 61.6039 29.1198 61.645C29.1599 61.4807 29.1733 61.3027 29.1332 61.1383C29.0931 60.974 28.9729 60.8096 28.8126 60.7822C28.6523 60.7412 28.4653 60.8781 28.4787 61.0561C28.5054 61.0561 28.5588 61.0561 28.5989 61.0561L28.4787 61.0561Z" fill="#100641"/>
<path d="M31.5239 62.2471C31.5239 62.4663 31.5239 62.6717 31.5373 62.8908C31.6842 62.9182 31.8445 62.9319 32.0048 62.9593C32.0449 62.9593 32.0983 62.973 32.1384 62.9456C32.1785 62.9182 32.1918 62.8634 32.2052 62.8086C32.2586 62.5758 32.2586 62.3156 32.0983 62.1376C31.938 61.9732 31.5907 62.0143 31.564 62.2471" fill="#100641"/>
<path d="M45.3227 62.631C45.1757 62.7542 45.0956 62.9733 45.1757 63.1514C45.2559 63.3294 45.4963 63.4253 45.6566 63.302C45.7234 63.1514 45.7902 62.987 45.7635 62.8227C45.7368 62.6583 45.523 62.5351 45.3895 62.6446" fill="#100641"/>
<path d="M52.6429 62.6583C52.6161 62.7678 52.6028 62.8911 52.6429 63.0006C52.6829 63.1102 52.8299 63.1787 52.9234 63.1102C52.9634 63.0828 52.9768 63.0417 52.9902 63.0006C53.0436 62.8774 53.0703 62.7541 53.0569 62.6309C53.0436 62.5076 52.9501 62.3844 52.8299 62.3707C52.7096 62.357 52.5761 62.4802 52.6161 62.5898" fill="#100641"/>
<path d="M51.9214 46.1831C51.8947 46.3063 51.8547 46.4296 51.8814 46.5529C51.9081 46.6761 52.0016 46.7994 52.1218 46.7857C52.3088 46.7857 52.389 46.5529 52.4157 46.3611C52.4424 46.1968 52.4424 45.9777 52.2955 45.9092C52.1352 45.8407 51.9882 46.0188 51.8947 46.1557" fill="#100641"/>
<path d="M53.2704 25.5308C53.2437 25.6541 53.2304 25.791 53.2838 25.9006C53.3372 26.0102 53.4842 26.0786 53.591 26.0102C53.6445 25.9828 53.6712 25.928 53.6979 25.8732C53.738 25.7636 53.778 25.6541 53.7513 25.5445C53.7246 25.435 53.6445 25.3254 53.5376 25.3117C53.4307 25.298 53.3105 25.4076 53.3372 25.5171" fill="#100342"/>
<path d="M52.5356 27.3658C52.5356 27.5164 52.5356 27.6534 52.549 27.804C52.7494 27.8314 52.9497 27.6808 52.9764 27.4753C53.0032 27.2699 52.8429 27.0645 52.6425 27.0508C52.6559 27.1466 52.6291 27.2425 52.5891 27.3247" fill="#100342"/>
<path d="M54.2989 27.708C54.2455 27.8586 54.2054 28.023 54.2321 28.1873C54.2589 28.3517 54.4191 28.4886 54.5661 28.4612C54.7664 28.4201 54.8065 28.1325 54.7932 27.9134C54.7798 27.7628 54.7664 27.5847 54.6462 27.5026C54.526 27.4204 54.2989 27.5163 54.3524 27.6532" fill="#100342"/>
<path d="M33.608 43.2934C33.8351 42.4717 33.4077 41.7322 32.7932 40.9926C31.8448 39.8559 30.9766 38.6645 30.7762 37.0758C30.3354 33.4877 32.2856 29.9818 35.5048 28.7081C38.8843 27.366 42.6244 28.5712 44.6414 31.6389C45.5364 32.9947 45.9906 34.4875 45.9906 36.1309C45.9906 37.6373 45.5231 38.9384 44.4945 40.0203C44.0003 40.527 43.5862 41.1159 43.0652 41.5952C42.5176 42.0882 42.3172 42.6497 42.3573 43.3619C42.384 43.9234 42.3172 44.4849 42.3306 45.0464C42.3306 45.0875 42.3306 45.1286 42.3306 45.1559C42.3306 45.2107 42.3172 45.2518 42.3172 45.2929C42.3172 45.3203 42.3172 45.5805 42.3306 45.5805C42.2371 45.5805 42.1436 45.5805 42.0634 45.5942C41.9566 45.5942 41.8497 45.6079 41.7428 45.5942C41.5425 45.5668 41.3555 45.5668 41.1551 45.5531C41.115 45.5531 41.0749 45.5531 41.0215 45.5394C40.9414 45.5394 40.8746 45.5257 40.7944 45.5257C40.7677 45.5257 40.741 45.512 40.7009 45.512C40.6609 45.512 40.6208 45.512 40.5807 45.512C40.4338 45.512 40.2735 45.512 40.1132 45.512C40.1132 45.4298 40.0998 45.3477 40.0998 45.2655C40.0865 45.1012 40.0865 44.9368 40.0865 44.7725C40.0865 44.4575 40.0731 44.1425 40.0731 43.8275C40.0731 43.8138 40.0731 43.8001 40.0598 43.7864C40.0464 43.7727 40.033 43.7727 40.0197 43.7727C39.6991 43.7453 39.3785 43.7727 39.0579 43.8138C39.0579 44.0056 39.0579 44.1973 39.0446 44.4027C39.0446 44.4575 39.0446 44.5123 39.0446 44.5671C39.0446 44.6492 39.0446 44.7177 39.0312 44.7999C39.0312 44.8273 39.0179 44.841 39.0179 44.8547C39.0045 44.882 39.0045 44.9231 39.0045 44.9505C38.9911 45.1012 38.9911 45.2655 39.0179 45.4162C38.9244 45.4162 38.8309 45.4162 38.724 45.4162C38.6038 45.4162 38.4702 45.4162 38.35 45.3888C38.203 45.3614 38.0427 45.3751 37.8958 45.3614C37.8424 45.3614 37.7756 45.3614 37.7222 45.3477C37.5752 45.3477 37.4283 45.3203 37.2814 45.3203C37.2012 45.3203 37.1344 45.3203 37.0543 45.3203C37.0409 45.3203 36.8406 45.334 36.8272 45.3477C36.8272 45.2107 36.8406 45.0601 36.8406 44.9231C36.8406 44.8547 36.8406 44.7862 36.8539 44.704C36.8539 44.6355 36.8673 44.5671 36.8673 44.4986C36.8673 44.2247 36.8673 43.9508 36.8539 43.6632C36.5066 43.5947 36.146 43.5673 35.7853 43.5673C35.7719 43.8823 35.7586 44.1973 35.7319 44.5123C35.7185 44.6629 35.7185 44.8273 35.7051 44.9916C35.7051 45.0327 35.7051 45.0738 35.7051 45.1149C35.7051 45.1422 35.7051 45.1696 35.6918 45.1833C35.6784 45.2107 35.6116 45.2107 35.5849 45.2107C35.3979 45.2244 35.1976 45.2107 35.0106 45.197C34.9305 45.197 34.837 45.1833 34.7568 45.1833C34.5431 45.1696 34.3294 45.1696 34.1156 45.1559C34.0488 45.1559 33.9687 45.1422 33.9019 45.1422C33.8618 45.1286 33.8218 45.1149 33.7683 45.1149C33.755 45.1149 33.5413 45.1012 33.5413 45.1012C33.5413 45.0875 33.5413 45.0738 33.5413 45.0601C33.5413 44.9094 33.5413 44.7451 33.5413 44.5808C33.5413 44.5123 33.5279 44.4438 33.5546 44.3753C33.568 44.3479 33.5546 44.3205 33.5546 44.2932C33.5546 44.2247 33.5546 44.1562 33.5546 44.0877C33.5546 43.9097 33.568 43.7453 33.568 43.5673C33.5947 43.5673 33.5947 43.5125 33.608 43.2934ZM37.9359 40.7735C38.0561 40.7872 38.1763 40.7872 38.2965 40.8009C38.4835 40.8146 38.6839 40.8283 38.8709 40.8557C38.8041 40.6503 38.7373 40.4448 38.6572 40.2531C38.6305 40.1709 38.5904 40.1025 38.5637 40.034C38.537 39.9655 38.4969 39.9107 38.4702 39.8422C38.4568 39.8286 38.4568 39.8012 38.4568 39.7875C38.4435 39.719 38.4168 39.6642 38.4034 39.5957C38.3366 39.4314 38.2832 39.2534 38.2164 39.0753C38.1897 38.9932 38.163 38.9247 38.1229 38.8425C38.1229 38.8562 38.0962 38.8973 38.0962 38.8973C38.0828 38.9247 38.0561 38.9521 38.0427 38.9795C37.8691 39.226 37.7088 39.4725 37.5619 39.7327C37.4817 39.8559 37.4149 39.9929 37.3348 40.1298C37.2947 40.1983 37.268 40.2668 37.2279 40.3216C37.2146 40.349 37.2012 40.3764 37.1879 40.4037C37.1745 40.4585 37.1211 40.5133 37.081 40.5681C37.0276 40.6366 36.9741 40.705 36.9341 40.7872C36.9341 40.7872 36.9741 40.7872 36.9875 40.7872C37.0008 40.7872 37.0276 40.7872 37.0409 40.7872C37.081 40.7872 37.1211 40.7872 37.1611 40.7872C37.2413 40.7872 37.3081 40.7872 37.3882 40.7735C37.4149 40.7735 37.455 40.7598 37.4817 40.7598C37.5218 40.7598 37.5619 40.7598 37.6019 40.7735C37.6821 40.7735 37.7489 40.7872 37.829 40.7872C37.8691 40.7598 37.9092 40.7598 37.9359 40.7735Z" fill="#E0E3BD" stroke="black" stroke-width="0.5" stroke-miterlimit="10"/>
<path d="M33.3008 42.9096C33.5145 42.1016 33.1004 41.3757 32.4993 40.6499C31.5643 39.5269 30.7094 38.3628 30.5224 36.8153C30.0949 33.2956 32.0051 29.8719 35.1575 28.6256C38.4702 27.3109 42.1302 28.4887 44.1205 31.5016C44.9888 32.83 45.4429 34.2954 45.4563 35.8977C45.4563 37.3768 45.0021 38.6504 43.987 39.7049C43.5061 40.2117 43.1054 40.7869 42.5844 41.2388C42.0501 41.7181 41.8497 42.2659 41.8898 42.9781C41.9165 43.5259 41.8497 44.0737 41.8631 44.6215C41.8631 44.6626 41.8631 44.69 41.8631 44.731C41.8631 44.7721 41.8497 44.8269 41.8497 44.868C41.8497 44.8954 41.8497 45.1419 41.8631 45.1419C41.7696 45.1419 41.6894 45.1419 41.5959 45.1419C41.4891 45.1419 41.3822 45.1556 41.2753 45.1419C41.0883 45.1145 40.888 45.1145 40.701 45.1008C40.6609 45.1008 40.6208 45.1008 40.5807 45.0871C40.5006 45.0871 40.4338 45.0734 40.3537 45.0734C40.327 45.0734 40.3002 45.0597 40.2735 45.0597C40.2334 45.0597 40.1934 45.0597 40.1533 45.0597C40.0064 45.0597 39.8461 45.0597 39.6991 45.0597C39.6991 44.9776 39.6858 44.9091 39.6858 44.8269C39.6724 44.6626 39.6724 44.5119 39.6724 44.3476C39.6724 44.0326 39.6591 43.7313 39.6591 43.4163C39.6591 43.4026 39.6591 43.3889 39.6457 43.3752C39.6324 43.3615 39.619 43.3615 39.6056 43.3615C39.2984 43.3341 38.9778 43.3615 38.6706 43.4026C38.6706 43.5943 38.6706 43.7861 38.6572 43.9778C38.6572 44.0326 38.6572 44.0874 38.6572 44.1422C38.6572 44.2106 38.6572 44.2928 38.6439 44.375C38.6439 44.4024 38.6305 44.4161 38.6305 44.4297C38.6172 44.4571 38.6172 44.4982 38.6172 44.5256C38.6038 44.6763 38.6038 44.8269 38.6305 44.9776C38.537 44.9776 38.4435 44.9776 38.35 44.9776C38.2298 44.9776 38.1096 44.9776 37.9894 44.9502C37.8424 44.9228 37.6955 44.9365 37.5352 44.9228C37.4818 44.9228 37.415 44.9228 37.3615 44.9091C37.2146 44.9091 37.081 44.8817 36.9341 44.8817C36.854 44.8817 36.7872 44.8817 36.707 44.8817C36.6937 44.8817 36.4933 44.8954 36.4933 44.9091C36.4933 44.7721 36.5067 44.6352 36.5067 44.4845C36.5067 44.4161 36.5067 44.3476 36.52 44.2791C36.52 44.2106 36.5334 44.1422 36.5334 44.0737C36.5334 43.7998 36.5334 43.5259 36.52 43.252C36.1727 43.1972 35.8254 43.1561 35.4781 43.1561C35.4648 43.4711 35.4514 43.7724 35.438 44.0874C35.4247 44.238 35.4247 44.4024 35.4113 44.553C35.4113 44.5941 35.4113 44.6352 35.4113 44.6763C35.4113 44.7037 35.4113 44.731 35.398 44.7447C35.3846 44.7721 35.3178 44.7721 35.2911 44.7721C35.1041 44.7858 34.9171 44.7721 34.7301 44.7584C34.6499 44.7584 34.5564 44.7447 34.4763 44.7447C34.2625 44.731 34.0488 44.731 33.8484 44.7173C33.7817 44.7173 33.7149 44.7037 33.6347 44.7037C33.5946 44.7037 33.5546 44.6763 33.5011 44.6763C33.4878 44.6763 33.2874 44.6626 33.2874 44.6626C33.2874 44.6489 33.2874 44.6352 33.2874 44.6215C33.2874 44.4708 33.2874 44.3065 33.2874 44.1558C33.2874 44.0874 33.2741 44.0189 33.3008 43.9641C33.3141 43.9367 33.3008 43.9093 33.3008 43.8819C33.3008 43.8135 33.3008 43.745 33.3008 43.6765C33.3008 43.5122 33.3141 43.3341 33.3141 43.1698C33.2874 43.1698 33.2874 43.1287 33.3008 42.9096ZM37.5486 40.4308C37.6688 40.4445 37.789 40.4445 37.8959 40.4582C38.0829 40.4719 38.2699 40.4856 38.4569 40.513C38.3901 40.3212 38.3367 40.1158 38.2565 39.9104C38.2298 39.8282 38.1897 39.7597 38.163 39.6912C38.1363 39.6228 38.0962 39.568 38.0695 39.4995C38.0561 39.4858 38.0561 39.4584 38.0561 39.4447C38.0428 39.3763 38.0161 39.3215 38.0027 39.253C37.9359 39.0887 37.8825 38.9106 37.8157 38.7463C37.789 38.6641 37.7623 38.5956 37.7222 38.5135C37.7222 38.5272 37.6955 38.5546 37.6955 38.5683C37.6821 38.5956 37.6554 38.623 37.6421 38.6504C37.4818 38.8969 37.3215 39.1434 37.1745 39.39C37.0944 39.5132 37.0276 39.6502 36.9608 39.7734C36.9207 39.8419 36.894 39.8967 36.854 39.9651C36.8406 39.9925 36.8272 40.0199 36.8139 40.0473C36.8005 40.1021 36.7471 40.1569 36.707 40.198C36.6536 40.2664 36.6135 40.3349 36.5601 40.4034C36.5601 40.4034 36.6002 40.4034 36.6135 40.4034C36.6269 40.4034 36.6536 40.4034 36.6669 40.4034C36.707 40.4034 36.7471 40.4034 36.7872 40.4034C36.8673 40.4034 36.9341 40.4034 37.0142 40.3897C37.041 40.3897 37.081 40.376 37.1077 40.376C37.1478 40.376 37.1879 40.376 37.228 40.3897C37.3081 40.3897 37.3749 40.4034 37.455 40.4034C37.4818 40.4308 37.5218 40.4308 37.5486 40.4308Z" fill="#E0E3BD" stroke="black" stroke-width="0.5" stroke-miterlimit="10"/>
<path d="M42.7179 29.4202C40.2734 27.4207 37.5084 27.092 34.6498 28.4068C30.0681 30.5158 28.8392 36.7606 31.5909 39.8696C31.9783 40.3078 32.2721 40.8145 32.6729 41.2528C33.0335 41.6499 33.1537 42.0745 33.127 42.6086C33.0869 43.3481 33.0202 44.1013 33.127 44.9094L35.478 45.0189L35.5181 43.307L36.4264 43.3344L36.4264 43.3481C36.4264 43.3618 36.4264 43.3755 36.4264 43.3892C36.4264 43.4029 36.4264 43.4303 36.4264 43.444C36.4264 43.4714 36.4264 43.4988 36.4264 43.5125C36.4264 43.5398 36.4264 43.5672 36.4264 43.5946C36.4264 43.622 36.4264 43.6631 36.4264 43.6905C36.4264 43.7316 36.4264 43.759 36.4264 43.8001C36.4264 43.8411 36.4264 43.8822 36.4264 43.9233C36.4264 43.9644 36.4264 44.0055 36.4264 44.0466C36.4264 44.0877 36.4264 44.1287 36.4264 44.1698C36.4264 44.2109 36.4264 44.252 36.4264 44.2931C36.4264 44.3342 36.4264 44.3752 36.4264 44.4163C36.4264 44.4574 36.4264 44.4848 36.4264 44.5259C36.4264 44.5533 36.4264 44.5944 36.4264 44.6355C36.4264 44.6628 36.4264 44.7039 36.4264 44.7313C36.4264 44.7587 36.4264 44.7861 36.4264 44.8135C36.4264 44.8272 36.4264 44.8546 36.4264 44.882C36.4264 44.8957 36.4264 44.9094 36.4264 44.9231C36.4264 44.9641 36.4131 45.0052 36.4131 45.06C36.4264 45.06 36.4264 45.06 36.4398 45.06L36.4531 45.06L36.4665 45.06C36.4799 45.06 36.5066 45.06 36.5199 45.06C36.56 45.06 36.6001 45.06 36.6401 45.06C36.8004 45.06 36.9474 45.0737 37.1077 45.0737C37.2947 45.0874 37.495 45.0874 37.6954 45.1011C37.8691 45.1148 38.0561 45.1148 38.2297 45.1285C38.3366 45.1285 38.4434 45.1422 38.5637 45.1422C38.577 45.1422 38.5904 45.1422 38.6037 45.1422C38.6304 45.1422 38.6438 45.1422 38.6705 45.1285C38.6705 45.0874 38.6839 45.0326 38.6839 44.9915L38.6839 44.9778C38.6839 44.9641 38.6839 44.9367 38.6972 44.9231C38.6972 44.882 38.7106 44.8409 38.7106 44.8135C38.7106 44.7861 38.7106 44.7587 38.7106 44.7313C38.7106 44.7039 38.7106 44.6765 38.7106 44.6628C38.7106 44.6355 38.7106 44.6218 38.7106 44.5944C38.7106 44.567 38.7106 44.5396 38.7106 44.5122C38.7106 44.4848 38.7106 44.4437 38.7106 44.4026C38.7106 44.3616 38.7106 44.3205 38.7106 44.2931C38.7106 44.252 38.7106 44.2109 38.7106 44.1698C38.7106 44.1287 38.7106 44.0877 38.7106 44.0466C38.7106 44.0055 38.7106 43.9644 38.7106 43.9233C38.7106 43.8822 38.7106 43.8411 38.7106 43.8001C38.7106 43.7727 38.7106 43.7316 38.7106 43.6905C38.7106 43.6631 38.7106 43.6357 38.7106 43.6083C38.7106 43.5809 38.7106 43.5672 38.7106 43.5398C38.7106 43.5262 38.7106 43.5125 38.7106 43.4988L38.7106 43.4851L39.6189 43.5125L39.5788 45.2106C39.7258 45.2106 42.05 45.3202 42.05 45.3202C42.05 44.8272 42.05 44.3342 42.05 43.8274C42.05 43.5946 42.05 43.3618 42.05 43.129C42.05 43.0605 42.05 42.992 42.0367 42.9373C42.0367 42.7729 42.0367 42.6086 42.0634 42.4579C42.0901 42.2936 42.1435 42.1156 42.2504 41.9786C42.2771 41.9512 42.3038 41.9101 42.3305 41.8827C42.3706 41.8417 42.3973 41.8143 42.4374 41.7732C42.5042 41.7047 42.571 41.6225 42.6378 41.5541C42.7713 41.4034 42.9049 41.2665 43.0385 41.1158C43.1721 40.9652 43.2923 40.8282 43.4259 40.6776C43.5594 40.5269 43.6797 40.39 43.7999 40.2393C43.9201 40.0887 44.0537 39.9517 44.1739 39.8011C44.2941 39.6504 44.4143 39.5135 44.5345 39.3628C44.6013 39.2944 44.6548 39.2122 44.7216 39.1437C45.1757 38.5685 45.4963 37.9249 45.6032 37.1853C46.084 34.0218 45.1356 31.3923 42.7179 29.4202ZM35.144 42.8551C35.1173 42.8551 35.0906 42.8551 35.0505 42.8551C35.0372 42.8551 35.0238 42.8551 35.0105 42.8551C35.0105 42.9236 35.0105 42.992 35.0105 43.0605C35.0105 43.1975 34.9971 43.3481 34.9971 43.4851C34.9837 43.7727 34.9704 44.074 34.9704 44.3616L33.7815 44.3068C33.7815 44.1835 33.7949 44.0603 33.7949 43.937C33.8083 43.6631 33.8216 43.3892 33.8216 43.1016C33.835 42.814 33.8483 42.5127 33.8483 42.2251C33.8483 42.1156 33.8617 42.006 33.8617 41.8964C33.8617 41.8417 33.8483 41.7869 33.8483 41.7458C33.8483 41.691 33.835 41.6362 33.835 41.5814C33.835 41.5541 33.8216 41.5404 33.8216 41.513C33.8083 41.4993 33.8083 41.4719 33.7949 41.4582C33.7815 41.4171 33.7682 41.376 33.7415 41.3349C33.7014 41.2528 33.6613 41.1706 33.6213 41.0884C33.5812 41.0063 33.5277 40.9378 33.4743 40.8556C33.4476 40.8145 33.4075 40.7597 33.3675 40.7187C32.8064 40.0202 32.2721 39.2944 31.7378 38.5685C30.9764 37.5002 30.8429 36.2541 30.9898 34.9941C31.3237 32.1592 32.7664 30.105 35.3444 29.0504C37.8958 28.0096 40.3135 28.4479 42.3439 30.3241C44.4143 32.2277 45.1757 34.6517 44.5078 37.4866C44.3475 38.2125 43.8934 38.7329 43.4392 39.2533C42.8782 39.8968 42.3038 40.5269 41.7294 41.1569C41.7027 41.1843 41.676 41.198 41.6626 41.2254C41.6626 41.2391 41.6626 41.2391 41.6493 41.2528C41.6359 41.2665 41.6359 41.2802 41.6226 41.2939C41.6092 41.3212 41.5825 41.3486 41.5691 41.376C41.5558 41.3897 41.5558 41.4034 41.5424 41.4171C41.5291 41.4308 41.5291 41.4308 41.5291 41.4445C41.5023 41.4993 41.4756 41.5541 41.4489 41.6088C41.3955 41.7321 41.3688 41.869 41.3421 42.006C41.3287 42.0745 41.3287 42.1429 41.3287 42.2114C41.3287 42.2388 41.3287 42.2799 41.3287 42.3073C41.3287 42.321 41.3287 42.3347 41.3287 42.3621C41.3287 42.3895 41.3287 42.4168 41.3287 42.4442C41.3287 42.4853 41.3287 42.5401 41.3287 42.5812C41.3287 42.6634 41.3287 42.7318 41.3287 42.814C41.3287 42.9647 41.3287 43.129 41.3287 43.2796C41.3287 43.4303 41.3287 43.5946 41.3287 43.7453C41.3287 43.8959 41.3287 44.0603 41.3287 44.2109C41.3287 44.2931 41.3287 44.3616 41.3287 44.4437C41.3287 44.4848 41.3287 44.5259 41.3287 44.567C41.3287 44.5807 41.3287 44.5944 41.3287 44.6081L41.3287 44.6218C41.3153 44.6355 41.302 44.6218 41.302 44.6218C41.2886 44.6218 41.2619 44.6218 41.2485 44.6218C41.1818 44.6218 41.1016 44.6218 41.0348 44.6081C40.741 44.5944 40.4471 44.5807 40.1532 44.567C40.1666 44.3068 40.1666 44.0466 40.1799 43.8001C40.1799 43.7179 40.1933 43.622 40.1933 43.5398C40.1933 43.4303 40.1933 43.3344 40.1933 43.2249C40.1933 43.1838 40.1933 43.1564 40.1933 43.1153L40.0196 43.0879C39.9529 43.0742 39.8861 43.0605 39.8193 43.0605C39.6723 43.0468 39.5388 43.0331 39.3918 43.0194C39.2449 43.0057 39.098 43.0057 38.951 43.0057C38.8041 43.0057 38.6572 43.0057 38.5102 43.0057C38.39 43.0057 38.2564 43.0057 38.1362 43.0057L38.0828 44.5807L36.8939 44.5259L36.9474 42.9783C36.8806 42.9647 36.8004 42.951 36.7336 42.9373C36.5867 42.9099 36.4531 42.8962 36.3062 42.8825C36.1593 42.8688 36.0123 42.8688 35.8654 42.8551C35.7185 42.8551 35.5715 42.8551 35.4246 42.8414C35.3578 42.8414 35.2776 42.8414 35.2108 42.8414" fill="black"/>
<path d="M38.1095 38.2806C38.0961 38.2669 38.0961 38.2396 38.0828 38.2259C38.0561 38.1848 38.0427 38.13 38.016 38.0889C38.0026 38.0615 37.9893 38.0341 37.9759 38.0067C37.9626 37.9794 37.9492 37.9657 37.9359 37.9383C37.8824 37.8561 37.8423 37.7602 37.7889 37.6781C37.7622 37.637 37.7488 37.5959 37.7221 37.5411C37.7221 37.5274 37.7088 37.5137 37.7088 37.5137C37.7088 37.5 37.6954 37.4863 37.6954 37.4863C37.6821 37.4863 37.6821 37.4863 37.6821 37.5C37.6821 37.5137 37.6687 37.5137 37.6687 37.5274C37.6687 37.5411 37.6553 37.5548 37.6553 37.5685C37.642 37.5959 37.6286 37.6233 37.6153 37.637C37.5618 37.7191 37.5084 37.815 37.4683 37.8972C37.4149 37.9794 37.3615 38.0752 37.3214 38.1574C37.2546 38.2669 37.2012 38.3765 37.1344 38.4998C37.1077 38.5409 37.0943 38.5819 37.0676 38.6093C37.0409 38.6504 37.0142 38.6915 37.0008 38.7326C36.9741 38.7737 36.9474 38.8148 36.9207 38.8695C36.894 38.9106 36.8672 38.9654 36.8405 39.0065C36.8138 39.0613 36.7871 39.1024 36.7604 39.1571C36.7337 39.2119 36.7069 39.253 36.6802 39.3078C36.6535 39.3626 36.6268 39.4173 36.6001 39.4584C36.5734 39.5132 36.5467 39.568 36.5199 39.6091C36.4932 39.6638 36.4665 39.7049 36.4398 39.7597C36.4131 39.8145 36.3864 39.8556 36.3596 39.9104C36.3329 39.9651 36.3062 40.0062 36.2795 40.061C36.2528 40.1021 36.2261 40.1569 36.1994 40.198C36.1726 40.239 36.1459 40.2801 36.1326 40.3212C36.1058 40.3623 36.0925 40.4034 36.0658 40.4445C36.0524 40.4856 36.0257 40.5129 36.0123 40.554C35.999 40.5814 35.9723 40.6088 35.9589 40.6499C35.9456 40.6773 35.9322 40.7047 35.9188 40.7321C35.9055 40.7458 35.8921 40.7732 35.8921 40.7868C35.8788 40.8005 35.8788 40.8142 35.8654 40.8279L35.8521 40.8416L35.8654 40.8416C35.9456 40.8416 36.0123 40.8416 36.0925 40.8553C36.1058 40.8553 36.1192 40.8553 36.1459 40.8553C36.1593 40.8553 36.186 40.8553 36.1994 40.8553C36.2127 40.8553 36.2127 40.8553 36.2261 40.8553C36.2394 40.8553 36.2528 40.8553 36.2661 40.8553C36.2795 40.8553 36.2929 40.8553 36.3196 40.8553C36.3329 40.8553 36.3596 40.8553 36.373 40.8553C36.3997 40.8553 36.4264 40.8553 36.4398 40.8553C36.4665 40.8553 36.4932 40.8553 36.5199 40.8553C36.5467 40.8553 36.5734 40.8553 36.6001 40.8553C36.6268 40.8553 36.6669 40.8553 36.6936 40.8553C36.7203 40.8553 36.7604 40.8553 36.7871 40.8553C36.8272 40.8553 36.8539 40.8553 36.894 40.8553C36.934 40.8553 36.9607 40.8553 37.0008 40.8553C37.0409 40.8553 37.081 40.8553 37.1077 40.8553C37.1477 40.8553 37.1878 40.8553 37.2279 40.8553C37.268 40.8553 37.308 40.8553 37.3481 40.8553C37.3882 40.8553 37.4283 40.8553 37.4683 40.8553C37.5084 40.8553 37.5485 40.8553 37.5886 40.8553C37.6286 40.8553 37.6687 40.8553 37.7088 40.8553C37.7488 40.8553 37.7889 40.8553 37.829 40.8553C37.8691 40.8553 37.9091 40.8553 37.9492 40.8553C37.9893 40.8553 38.0294 40.8553 38.0694 40.8553C38.1095 40.8553 38.1496 40.8553 38.1763 40.8553C38.2164 40.8553 38.2431 40.8553 38.2832 40.8553C38.3232 40.8553 38.3499 40.8553 38.39 40.8553C38.4167 40.8553 38.4568 40.8553 38.4835 40.8553C38.5102 40.8553 38.5503 40.8553 38.577 40.8553C38.6037 40.8553 38.6305 40.8553 38.6572 40.8553C38.6839 40.8553 38.7106 40.8553 38.7373 40.8553C38.764 40.8553 38.7774 40.8553 38.8041 40.8553L39.285 40.869C39.2983 40.869 39.2983 40.869 39.2983 40.869C39.2716 40.7868 39.2315 40.7184 39.2048 40.6362C39.1247 40.4445 38.1229 38.308 38.1095 38.2806C38.1095 38.2943 38.1095 38.2943 38.1095 38.2806ZM36.7337 40.3486C37.0542 39.7871 37.3481 39.2804 37.6821 38.6915C37.9091 39.3215 38.0961 39.8145 38.3232 40.4171C37.7756 40.3897 37.3214 40.3623 36.7337 40.3486Z" fill="black"/>
<path d="M29.1597 29.79C29.1597 29.8585 29.173 29.9133 29.173 29.9681L29.1597 29.79ZM29.1597 29.79C29.1597 29.8585 29.173 29.9133 29.173 29.9681L29.1597 29.79Z" fill="#E0E3BD"/>
<path d="M29.1597 29.79C29.1597 29.8585 29.173 29.9133 29.173 29.9681M29.1597 29.79C29.1597 29.8585 29.173 29.9133 29.173 29.9681L29.1597 29.79Z" stroke="black" stroke-width="2" stroke-miterlimit="10"/>
<path d="M57.4382 55.9473C56.7569 55.3858 56.2493 54.6599 55.6082 54.03C55.6482 53.3315 55.7284 52.7015 55.7284 52.0716C55.715 50.346 55.8219 48.6204 55.6883 46.8948C55.6082 45.8403 55.8887 44.8269 56.1692 43.8134C56.7169 41.8824 56.4096 39.8966 56.1291 37.993C55.9287 36.6372 55.902 35.3225 55.9955 33.9804C56.089 32.8026 56.1024 31.6248 56.1959 30.447C56.3161 28.7762 56.4631 27.1328 56.049 25.4483C55.6883 24.024 55.6082 22.5312 55.0471 21.1617C54.6063 20.0935 54.6063 20.0935 53.2438 18.2447C52.0283 16.9299 51.8413 16.9162 50.7994 16.2726C49.9979 15.7796 49.2098 15.3139 48.2347 15.2181C46.9924 15.0948 45.8437 14.5333 44.6148 14.3279C42.4776 13.9718 40.367 14.1635 38.2565 14.4922C35.4247 14.9442 32.6329 15.5057 30.4556 17.7243C29.4271 18.7788 28.3718 19.7785 27.931 21.2439C27.8108 21.6547 27.5437 22.0108 27.3433 22.3806C26.4216 23.9829 26.6353 24.7088 26.5018 26.7904C26.5819 26.9411 26.3147 27.845 26.2212 28.0915C26.101 29.4884 26.0877 28.5982 26.101 29.2008C26.1411 31.0222 26.1545 32.8437 26.1678 34.6514C26.1812 36.2948 26.248 37.9382 25.9541 39.5543C25.6335 41.2661 25.6602 42.9917 25.6469 44.7173C25.6469 45.1008 25.6602 45.4979 25.5667 45.8677C25.2862 47.155 25.353 48.4424 25.4198 49.7297C25.5133 51.4827 25.4331 53.222 25.6335 55.016C24.645 55.8103 23.6699 56.6046 22.6815 57.3716C22.3342 57.6318 22.1338 57.9194 22.1338 58.385C22.1605 60.316 22.1605 62.247 22.1739 64.178C22.1739 64.6984 22.4143 64.986 22.9353 65.0271C25.353 65.1778 27.7574 65.3284 30.1618 65.4928C33.2875 65.6982 36.3998 65.8899 39.5255 66.0953C43.0653 66.3282 46.6051 66.5747 50.1449 66.8075C50.6257 66.8349 51.0665 66.7253 51.4806 66.4651C53.3374 65.3147 55.2074 64.1643 57.0775 63.0413C57.5317 62.7674 57.7053 62.4114 57.7053 61.8773C57.7187 60.1928 57.7587 58.5083 57.7988 56.8375C57.7988 56.4951 57.732 56.1801 57.4382 55.9473ZM26.7021 47.292C26.8624 46.1416 27.0093 45.0049 26.9826 43.8408C26.9426 42.3344 27.1162 40.8553 27.3299 39.3762C27.6238 37.322 27.5169 35.254 27.4769 33.186C27.4635 32.4328 27.4502 31.6796 27.4635 30.94C27.4635 30.7483 27.4769 30.5566 27.4902 30.3649C27.5036 30.2553 27.5169 30.1457 27.5169 30.0225C27.5169 29.9677 27.557 29.9266 27.5971 29.8855C27.6505 29.817 27.7173 29.7486 27.7707 29.6801C27.7841 29.6664 27.7974 29.6527 27.8242 29.639C27.8375 29.639 27.8642 29.639 27.8776 29.6527C28.118 29.7623 28.5321 30.1594 28.5455 30.1868C28.5455 30.2005 29.0264 30.5703 29.0264 30.584C29.0397 30.5977 28.7325 31.2824 28.7325 31.3098C29.3069 31.3098 29.1599 31.1181 29.6275 30.2553C29.6542 30.2005 29.1599 29.8581 29.1599 29.7897C29.0798 29.7075 29.0531 29.5979 29.013 29.5021C28.9729 29.3788 28.9061 29.2692 28.8394 29.1734C28.7993 29.1186 28.7592 29.0775 28.7191 29.0227C28.6791 28.9816 28.639 28.9406 28.5989 28.8995C28.5722 28.8721 28.5588 28.8447 28.5588 28.8036C28.5455 28.7488 28.5188 28.7077 28.5054 28.653C28.452 28.5297 28.3985 28.3928 28.3585 28.2558C28.265 27.9956 28.1848 27.7217 28.1047 27.4478C28.0245 27.1739 27.9444 26.9 27.8509 26.6261C27.7974 26.4754 27.744 26.3385 27.6906 26.1878C27.7841 24.9005 28.0245 23.6679 28.8527 22.6271C29.0397 22.3806 29.1599 22.0656 29.2534 21.778C29.6275 20.5181 30.4556 19.6142 31.404 18.8062C31.9918 18.2995 32.5261 17.6969 33.2073 17.3545C33.2207 17.3408 33.2741 17.3819 33.2875 17.3819C33.3142 17.3956 33.3409 17.4093 33.3676 17.423C33.421 17.4641 33.4611 17.5051 33.4878 17.5599C33.5413 17.6284 33.5546 17.7243 33.5947 17.7927C33.6214 17.8612 33.6481 17.9434 33.6748 18.0119C33.7283 18.1625 33.7817 18.2995 33.8218 18.4501C33.8351 18.4775 33.8351 18.4912 33.8485 18.5049C33.8485 18.5186 33.8618 18.5323 33.8618 18.5323C33.8618 18.5323 33.8886 18.546 33.9019 18.546C33.9553 18.5597 34.0088 18.587 34.0622 18.6007C34.0756 18.6007 34.0088 18.9705 34.0088 18.9979L34.0088 19.0664C34.0088 19.1212 33.9954 19.1896 33.9954 19.2444C33.9821 19.3677 33.9821 19.4909 33.9687 19.6142C33.9687 19.6553 33.9553 19.71 33.9687 19.7511C33.9821 19.7922 33.9954 19.8196 34.0088 19.8607C34.1156 20.0798 34.1691 20.9015 34.1691 20.9015C34.1691 20.9015 34.3427 20.4359 34.3294 20.4085C34.316 20.3674 34.316 20.34 34.3026 20.2989C34.2893 20.2305 34.2759 20.1483 34.2626 20.0798C34.2492 19.9839 34.2359 19.8881 34.2225 19.7785C34.2225 19.7374 34.2091 19.71 34.2091 19.669C34.2091 19.6416 34.1958 19.6279 34.2091 19.6005C34.2225 19.5594 34.2359 19.5183 34.2626 19.4909C34.2759 19.4498 34.3026 19.4088 34.316 19.3677C34.316 19.3677 34.3961 19.3814 34.4095 19.3951C34.4362 19.4088 34.4629 19.4224 34.4897 19.4224C34.5698 19.4361 34.6366 19.4635 34.7034 19.5046C34.7301 19.5183 34.7568 19.532 34.7835 19.5594C34.7969 19.5868 34.8102 19.6142 34.8236 19.6416C34.8904 19.8196 34.9572 20.0113 35.0373 20.1894C35.0507 20.2168 35.064 20.2578 35.0907 20.2852C35.1175 20.3126 35.1442 20.3263 35.1709 20.34C35.3445 20.4496 35.5316 20.5591 35.7052 20.6687C35.6251 20.5318 35.5048 20.4222 35.398 20.2852C35.2377 20.0798 35.1308 19.8333 35.0907 19.5731C35.0774 19.5183 35.0774 19.4635 35.0774 19.4088C34.9438 19.3129 34.8102 19.2307 34.6767 19.1349C34.6232 19.0938 34.5564 19.0664 34.5164 19.0253C34.503 19.0116 34.4897 18.9842 34.4897 18.9568C34.4763 18.9157 34.4629 18.8883 34.4496 18.8473C34.3961 18.6966 34.3561 18.546 34.3026 18.409C34.2893 18.3679 34.2759 18.3131 34.2359 18.2995C34.2225 18.2858 34.1958 18.2858 34.1691 18.2721C34.129 18.2447 34.1156 18.1899 34.1023 18.1488C34.0889 18.094 34.0756 18.0255 34.0622 17.9708C34.0488 17.9297 34.0355 17.8749 34.0355 17.8201L34.0355 17.7653C34.0221 17.6695 33.9954 17.5736 33.9954 17.4777C33.9821 17.2312 34.0355 16.9847 34.1691 16.7656C38.2432 16.1493 42.3573 15.6426 45.9372 18.8609L45.9372 20.7783C45.9372 20.833 45.9372 20.9015 45.9105 20.9563C45.8971 20.97 45.8971 20.9837 45.8838 21.0111C45.8704 21.0522 45.857 21.0932 45.8303 21.1206C45.7903 21.1891 45.7502 21.2576 45.6968 21.3398C45.6433 21.4219 45.5899 21.5041 45.5632 21.6C45.5765 21.5863 45.5899 21.5863 45.6033 21.5726L45.6433 21.5315C45.67 21.5041 45.7101 21.4767 45.7368 21.463C45.8036 21.4219 45.857 21.3672 45.9105 21.3124C45.9372 21.285 45.9506 21.2576 45.9773 21.2165C46.004 21.1754 46.0307 21.1069 46.0574 21.0659C46.0975 21.0248 46.1242 20.9563 46.1376 20.8878C46.1509 20.8604 46.1643 20.8467 46.1643 20.8193C46.1776 20.792 46.1776 20.7646 46.191 20.7235C46.2043 20.655 46.2177 20.6002 46.2311 20.5318C46.2845 20.2578 46.2978 19.9839 46.3379 19.71C46.3513 19.6005 46.378 19.5046 46.4047 19.3951C47.5134 20.2852 48.6622 21.0659 48.8225 22.6271C48.956 23.9418 49.1831 25.2292 49.5438 26.5028C49.6506 26.8726 49.7441 27.256 49.7441 27.6395C49.7441 30.2005 49.8644 32.7478 49.4636 35.2951C49.2499 36.6509 49.2633 38.0615 49.2499 39.4447C49.2499 40.9238 49.1698 42.4028 49.0362 43.8682C48.9026 45.3062 48.9026 46.7305 49.2499 48.1274C49.4369 48.8669 49.3167 49.6065 49.2365 50.3597C49.0762 51.8251 49.0095 53.3041 48.916 54.7832C48.8892 55.1393 48.9026 55.509 48.7557 55.8925C41.4891 55.4816 34.2359 55.0708 26.9426 54.6462C26.9426 54.6462 26.9158 54.4134 26.9158 54.3997C26.9025 54.3039 26.8891 54.208 26.8758 54.1121C26.8491 53.9204 26.8357 53.7424 26.8223 53.5506C26.809 53.3589 26.8223 53.1809 26.8357 53.0028L26.8357 52.9344C26.8357 52.8659 26.8491 52.7837 26.8624 52.7289C26.8758 52.6605 26.8891 52.5783 26.9025 52.5098C26.9426 52.3455 26.9826 52.1811 27.0494 52.0168C27.0628 51.9894 27.0628 51.9757 27.0761 51.9483C27.0895 51.9346 27.1162 51.9209 27.1429 51.9072C27.4902 51.7703 27.8242 51.6333 28.1715 51.4964C28.2115 51.4827 28.2249 51.4279 28.2516 51.3868C28.2783 51.3457 28.305 51.3046 28.3451 51.2636C28.3718 51.2362 28.4119 51.2088 28.4386 51.1814C28.4921 51.1266 28.5188 51.0581 28.5455 50.9897C28.5989 50.8801 28.6523 50.7568 28.6924 50.6473C28.7191 50.5925 28.7458 50.5377 28.7592 50.4966C28.7592 50.4829 28.7592 50.4692 28.7726 50.4556C28.8126 50.3871 28.9061 50.3323 28.9596 50.2912C29.0798 50.1953 29.1867 50.0858 29.2668 49.9625C29.1599 50.0173 29.0798 50.0858 28.9729 50.1543C28.9329 50.1816 28.8794 50.209 28.826 50.2227C28.8126 50.2227 28.7993 50.2227 28.7726 50.2364C28.7592 50.2364 28.7592 50.2501 28.7592 50.2501C28.7325 50.2775 28.7058 50.3186 28.6791 50.3597C28.6256 50.4419 28.5722 50.524 28.5188 50.6062C28.452 50.7021 28.3852 50.7979 28.3184 50.9075C28.2516 51.017 28.2115 51.1266 28.1047 51.1814C28.078 51.1951 28.0379 51.2088 27.9978 51.2225C27.6639 51.332 27.3166 51.4553 26.9826 51.5648C26.9158 51.5922 26.8491 51.6059 26.7823 51.6607L26.7823 51.5238C26.7956 51.4553 26.7823 51.3868 26.7956 51.332L26.7956 51.0581C26.7956 50.8664 26.7823 50.6884 26.7823 50.4966C26.7689 50.1269 26.7422 49.7571 26.7288 49.401C26.622 48.7163 26.6086 48.0041 26.7021 47.292ZM26.4083 56.1801C26.5953 56.0294 26.8357 56.0705 27.0494 56.0842C31.3372 56.3307 35.6251 56.5636 39.9129 56.8101C42.718 56.9744 45.5231 57.1388 48.3416 57.2894C48.4752 57.3031 48.6087 57.3305 48.7557 57.3442C49.0228 57.892 49.2365 58.4535 49.3968 59.1382C41.2086 58.5904 33.0871 58.0563 24.8187 57.5085C25.3797 56.9333 25.914 56.5773 26.4083 56.1801ZM49.8243 65.3421C49.2232 65.438 48.6354 65.3558 48.0878 65.2873C48.0611 65.2873 48.0344 65.2599 48.021 65.2462C47.9943 65.2326 47.9809 65.2189 47.9542 65.1915C47.9141 65.1641 47.8741 65.123 47.834 65.0819C47.7538 64.9997 47.7004 64.8902 47.6203 64.808C47.5935 64.7806 47.5535 64.7532 47.5401 64.7258C47.5134 64.6711 47.5 64.6163 47.4867 64.5615C47.4867 64.5478 47.4867 64.5341 47.4733 64.5067C47.46 64.493 47.4466 64.4793 47.4466 64.4519C47.3798 64.3698 47.3264 64.2876 47.2863 64.1917C47.273 64.1643 47.273 64.1232 47.273 64.0959C47.2863 64.0137 47.2462 63.9315 47.2195 63.863C47.2062 63.7946 47.1928 63.7398 47.1795 63.6713C47.1795 63.6576 47.1661 63.6302 47.1527 63.6165C47.126 63.5754 47.086 63.5481 47.0459 63.5207C46.9524 63.4111 46.8589 63.3152 46.7654 63.2194C46.7253 63.1783 46.6852 63.1509 46.6452 63.1235C46.6719 63.1372 46.6852 63.1783 46.7119 63.2057C46.7253 63.2331 46.752 63.2605 46.7787 63.2878C46.8188 63.3426 46.8589 63.3974 46.8856 63.4796C46.8856 63.507 46.9123 63.5481 46.9257 63.5754C46.9657 63.6576 46.9924 63.7261 47.0058 63.8083C47.0325 63.9178 47.0459 64.0274 47.0459 64.1369C47.0592 64.2328 47.0592 64.3424 47.0726 64.4382C47.0726 64.4382 47.1394 64.4656 47.1527 64.4656C47.1661 64.4793 47.1661 64.5067 47.1661 64.5341C47.1928 64.6026 47.2329 64.6711 47.273 64.7395C47.2863 64.7669 47.2997 64.7943 47.313 64.8217L47.313 65.0545C47.313 65.0819 47.313 65.123 47.2997 65.1504C47.273 65.1915 47.2195 65.2189 47.2329 65.2736C47.1795 65.2736 47.0993 65.2873 47.0459 65.2736C47.0325 65.2736 47.0192 65.2736 47.0058 65.2599C46.9123 65.2462 46.8322 65.2462 46.7387 65.2462C46.565 65.2326 46.3914 65.2189 46.2177 65.2189C44.7083 65.123 43.1989 65.0134 41.6894 64.9176C40.18 64.8217 38.6706 64.7121 37.1612 64.6163C35.6518 64.5204 34.1424 64.4108 32.6329 64.315C31.1235 64.2191 29.6141 64.1096 28.1047 64.0137C27.3433 63.9589 26.5953 63.9178 25.8339 63.863C25.4599 63.8357 25.0725 63.8083 24.6985 63.7946C24.5115 63.7809 24.3245 63.7672 24.1374 63.7535C24.0974 63.7535 23.5898 63.7261 23.5898 63.7124L23.5898 62.3977L23.6031 62.384C23.6165 62.3703 23.6165 62.3703 23.6299 62.3566C23.6432 62.3292 23.6566 62.3155 23.6699 62.2881C23.71 62.2333 23.7367 62.1922 23.7768 62.1375C23.8169 62.0827 23.8703 62.0279 23.9104 61.9731C23.9237 61.9457 23.9371 61.932 23.9504 61.9046C23.9772 61.8773 24.0172 61.8499 24.0439 61.8362C24.084 61.8088 24.1241 61.7951 24.1642 61.7677C24.2443 61.7266 24.3245 61.6855 24.418 61.6581C24.4847 61.6307 24.5515 61.617 24.6183 61.6307C24.6718 61.6444 24.7252 61.6718 24.7653 61.7129C24.9122 61.8225 25.0725 61.932 25.2461 61.9731C25.2862 61.9868 25.2996 61.9457 25.3263 61.932C25.3931 61.8636 25.4732 61.8088 25.54 61.7677C25.5534 61.754 25.5801 61.7403 25.5934 61.7403C25.6335 61.7129 25.6736 61.6992 25.7137 61.6718C25.8739 61.6034 26.0476 61.5897 26.2212 61.576C26.101 61.5349 25.9674 61.5075 25.8205 61.4938C25.7404 61.4938 25.6602 61.4938 25.5934 61.5349C25.5801 61.5486 25.5667 61.5623 25.5667 61.5623C25.5534 61.576 25.5266 61.5897 25.5133 61.6034L25.3931 61.6855C25.3797 61.6855 25.3797 61.6992 25.3664 61.6992C25.3396 61.7129 25.3129 61.7266 25.2996 61.754C25.2862 61.7677 25.2461 61.7951 25.2194 61.7951C25.2061 61.7951 25.1793 61.7814 25.1526 61.7677C25.1393 61.754 25.1126 61.754 25.0992 61.7403C25.0591 61.7129 25.0191 61.6855 24.9923 61.6718C24.8855 61.5897 24.7786 61.4801 24.6718 61.3842C24.6584 61.3705 24.645 61.3705 24.6317 61.3568L24.5782 61.3568C24.5382 61.3705 24.4981 61.3705 24.458 61.3842C24.4313 61.3842 24.418 61.3979 24.3912 61.3979L24.3512 61.3979C24.3111 61.3979 24.271 61.4116 24.2309 61.4116C24.1775 61.4253 24.1107 61.439 24.0573 61.4527C23.8836 61.4938 23.7234 61.5349 23.5497 61.5897L23.5497 58.8369C32.3123 59.4121 41.0483 60.001 49.8243 60.5762L49.8243 65.3421ZM47.3264 18.4364L46.939 17.8749L46.7654 17.8749C46.7387 17.8749 46.7253 17.8475 46.6986 17.8475L46.2978 17.5188C46.0307 17.2997 45.7502 17.0943 45.4697 16.9026C44.9086 16.5054 44.3209 16.1356 43.6931 15.8343C43.4126 15.8069 43.1855 15.67 42.8649 15.4646C43.2122 15.5193 43.4527 15.5604 43.6931 15.6015C44.5213 15.5878 45.296 15.8617 46.0841 16.1082C46.6986 16.3 47.313 16.5054 47.9542 16.5602C48.9293 16.6286 49.6907 17.1628 50.4521 17.6969C51.0532 18.1214 51.2536 18.8199 51.4406 19.4772C51.5741 19.9839 51.1066 20.2031 50.8128 20.4907L50.8128 20.5454C50.8128 20.5728 50.8261 20.6002 50.8261 20.6276C50.8395 20.6824 50.8662 20.7235 50.8795 20.7783C50.933 20.8878 50.9864 20.9837 51.0265 21.0932C51.0532 21.148 51.0665 21.2028 51.0799 21.2576C51.0933 21.3124 51.1066 21.3808 51.0933 21.4356C51.0933 21.463 51.0532 21.4904 51.0398 21.5041C50.9597 21.6137 50.8662 21.7232 50.786 21.8191L51.3471 21.6274C51.3871 21.5863 51.4138 21.5452 51.4539 21.5178C51.494 21.4904 51.5341 21.4493 51.5741 21.4219C51.5341 21.3945 51.5341 21.3808 51.5341 21.3398C51.5207 21.285 51.5073 21.2165 51.494 21.1617C51.4806 21.1069 51.4673 21.0522 51.4539 20.9974C51.4539 20.97 51.4406 20.9426 51.4406 20.9152C51.4406 20.9015 51.4138 20.8467 51.4272 20.833C51.5741 20.5318 51.8947 20.477 52.055 20.2852C53.0435 20.3537 53.5912 20.8878 53.8717 21.8054C54.2323 22.9695 54.3258 24.202 54.6598 25.3661C55.2341 27.4478 54.8735 29.5021 54.7266 31.57C54.6464 32.7615 54.7666 33.9804 54.5395 35.1581C54.446 35.6101 54.3392 36.0346 53.9919 36.2948C53.8717 36.8015 53.9785 37.2672 53.9518 37.7328C53.8984 37.8698 53.7782 37.9793 53.6713 38.0752C53.5778 38.1711 53.4709 38.2532 53.3641 38.3354C53.3641 38.3354 53.3641 38.3354 53.3507 38.3491C53.2572 38.4176 53.1503 38.486 53.0702 38.5682C53.0301 38.6093 52.9901 38.6504 52.95 38.6915C52.9099 38.7326 52.8565 38.7599 52.803 38.801C52.7095 38.8558 52.616 38.9243 52.5225 38.9928C52.4958 39.0201 52.4557 39.0338 52.4424 39.0749L52.389 39.1297C52.3756 39.1434 52.3489 39.1708 52.3355 39.1845C52.3222 39.1982 52.3088 39.2119 52.3088 39.2256C52.3088 39.2393 52.3222 39.2393 52.3222 39.253C52.389 39.3351 52.4157 39.4584 52.4691 39.5543C52.4825 39.5816 52.5092 39.609 52.5225 39.6501C52.5359 39.6638 52.5359 39.6775 52.5359 39.7049C52.5626 39.7597 52.576 39.8145 52.576 39.8692L52.576 39.9514C52.5626 40.0062 52.5893 40.061 52.5493 40.1021C52.4958 40.1568 52.429 40.2116 52.3756 40.2664C52.3489 40.2938 52.3222 40.3212 52.2955 40.3349C52.242 40.3897 52.1752 40.4307 52.1218 40.4855C52.1084 40.4992 52.0951 40.4992 52.0951 40.5129C52.0817 40.5266 52.0817 40.554 52.0951 40.5814C52.1352 40.8827 52.1752 41.1977 52.2153 41.499C52.2153 41.54 52.2287 41.5948 52.2287 41.6496C52.2153 41.6907 52.2153 41.7318 52.2153 41.7866C52.2153 41.9098 52.2287 42.0331 52.242 42.1426L52.4958 40.869C52.6828 40.5129 53.1503 40.4444 53.2706 40.0884C53.2706 39.7734 52.9901 39.6912 52.8965 39.4173C53.3908 39.0475 53.8984 38.6641 54.4594 38.2395C54.4728 37.9656 54.4995 37.6369 54.5128 37.2946C54.6998 37.3357 54.7266 37.4863 54.7399 37.6096C54.8334 39.4584 55.2742 41.3072 54.8868 43.1698C54.7533 43.8408 54.5262 44.4845 54.446 45.1555C54.2323 47.0455 54.5128 48.9217 54.4728 50.7979C54.446 51.7429 54.5663 52.7015 54.259 53.6876C52.9233 54.3997 51.5741 55.0434 50.1181 55.7555C50.1849 54.9201 50.2117 54.1806 50.2918 53.4411C50.412 52.2496 50.3586 51.0307 50.6124 49.853C50.7192 49.3462 50.6792 48.7984 50.559 48.2917C50.1449 46.6483 50.1582 45.0049 50.3586 43.3478C50.5723 41.54 50.5189 39.7186 50.5456 37.8972C50.5723 36.0757 50.8395 34.2816 50.933 32.4602C51.0265 30.5566 51.1868 28.6393 50.8662 26.763C50.6124 25.2703 50.1983 23.8049 50.0246 22.2847C49.8911 21.1617 49.3434 20.2305 48.4885 19.5046C48.1679 19.2307 47.8741 18.9431 47.5535 18.6555C47.4733 18.587 47.4065 18.5186 47.3264 18.4364C47.313 18.4227 47.2997 18.4227 47.2997 18.409C47.273 18.3816 47.273 18.3542 47.2596 18.3131L47.3264 18.4364ZM54.3525 55.8651C54.3525 55.8651 54.3659 55.8788 54.3793 55.8788C54.3926 55.8788 54.3926 55.8788 54.406 55.8925C54.4327 55.8925 54.446 55.9062 54.4594 55.9199C54.4861 55.9473 54.4995 55.9747 54.5128 56.0021C54.5128 56.0431 54.5262 56.0842 54.5262 56.139C54.5262 56.2349 54.5395 56.3444 54.5262 56.4403C54.5262 56.4951 54.5262 56.5362 54.5128 56.5909L54.5128 56.6457C54.5128 56.6731 54.5395 56.6731 54.5663 56.6868C54.6063 56.7005 54.633 56.7416 54.6464 56.769C54.6598 56.7964 54.6731 56.8238 54.6598 56.8512C54.6598 56.8785 54.6464 56.9059 54.633 56.9196C54.6063 56.9744 54.5663 57.0018 54.5128 57.0292C54.3926 57.084 54.2724 57.1524 54.1655 57.2209C53.0969 57.7961 52.0283 58.385 50.9063 58.9876C50.6124 58.4261 50.412 57.8646 50.2117 57.2209C51.6944 56.5088 53.1637 55.7966 54.6464 55.0708C55.1406 55.3858 55.4479 55.8651 55.8085 56.276C55.6082 56.5088 55.3544 56.5773 55.1006 56.7005C55.0739 56.6868 55.0471 56.6731 55.0204 56.6594C54.9937 56.6457 54.9536 56.6183 54.9269 56.6046C54.9002 56.5909 54.8735 56.5636 54.8334 56.5636C54.7933 56.5499 54.7399 56.5225 54.7132 56.4951C54.6998 56.4814 54.6998 56.4677 54.6998 56.4403C54.6865 56.3855 54.6731 56.3444 54.6731 56.2897C54.6598 56.2212 54.6464 56.1664 54.6197 56.0979C54.6063 56.0431 54.5796 55.9747 54.5663 55.9199L54.3525 55.8651ZM55.2609 59.5765L55.2609 59.3711C55.2609 59.33 55.2609 59.2752 55.2876 59.2341C55.3009 59.2067 55.3009 59.193 55.3143 59.1793C55.3143 59.1656 55.3276 59.1656 55.3276 59.1519C55.3677 59.0835 55.4078 59.015 55.4612 58.9465C55.6883 58.6726 55.8219 58.3576 55.7952 57.9742C55.9421 57.8646 56.089 57.7413 56.3428 57.755C56.4363 59.0971 56.3695 60.494 56.3295 61.9183C54.6464 62.9455 52.9633 63.9726 51.2135 65.0271L51.2135 60.3845C52.576 59.645 53.9251 58.9191 55.2876 58.1933C55.3276 58.2481 55.3544 58.3165 55.3677 58.385C55.3811 58.4261 55.3677 58.4809 55.3677 58.522C55.3677 58.5493 55.3544 58.563 55.341 58.5904C55.341 58.6041 55.3276 58.6178 55.3143 58.6452C55.3009 58.6589 55.2742 58.6863 55.2609 58.7C55.2341 58.7137 55.2208 58.7411 55.1941 58.7685C55.1674 58.7959 55.1406 58.8369 55.1273 58.8643C55.1139 58.878 55.1006 58.8917 55.1006 58.9191C55.0872 58.9328 55.0739 58.9602 55.0739 58.9876C55.0338 59.0561 54.9937 59.1382 54.9403 59.2067C54.9136 59.2341 54.8868 59.2752 54.8868 59.3163C54.8868 59.33 54.8868 59.3437 54.9002 59.3574L54.9002 59.8915C54.9002 59.9873 54.9136 60.0695 54.9136 60.1654C54.9136 60.2338 54.9002 60.3297 54.8601 60.3845L54.8201 60.4256C54.8201 60.4256 54.8067 60.4393 54.8067 60.453C54.8067 60.4667 54.7933 60.4667 54.78 60.4804C54.6865 60.5899 54.5663 60.6721 54.446 60.7543C54.5262 60.7406 54.6063 60.7269 54.6731 60.6858C54.7266 60.6584 54.78 60.6173 54.8468 60.5899C54.8601 60.5899 54.8735 60.5625 54.9002 60.5625C54.9002 60.5625 54.9002 60.5625 54.9136 60.5625C54.9403 60.5214 54.9536 60.4804 54.9803 60.4256C54.9937 60.4119 54.9937 60.3845 55.0071 60.3571C55.0204 60.3297 55.0204 60.316 55.0338 60.2886C55.0338 60.2749 55.0471 60.2612 55.0471 60.2475C55.0605 60.1928 55.0739 60.138 55.1006 60.0832C55.1139 60.0558 55.1139 60.0284 55.1273 60.001C55.1273 59.9873 55.1406 59.9736 55.1406 59.9462C55.1406 59.9189 55.1406 59.8915 55.154 59.8778C55.154 59.8504 55.1674 59.823 55.1941 59.8093C55.2074 59.8093 55.2074 59.8093 55.2208 59.8093L55.2609 59.5765Z" fill="#E0E3BD"/>
<path d="M54.5663 55.9199L54.2857 55.8103M47.3264 18.4364L46.939 17.8749L46.7654 17.8749C46.7387 17.8749 46.7253 17.8475 46.6986 17.8475L46.2978 17.5188C46.0307 17.2997 45.7502 17.0943 45.4697 16.9026C44.9087 16.5054 44.3209 16.1356 43.6931 15.8343C43.4126 15.8069 43.1855 15.67 42.8649 15.4646C43.2122 15.5193 43.4527 15.5604 43.6931 15.6015C44.5213 15.5878 45.296 15.8617 46.0841 16.1082C46.6986 16.3 47.313 16.5054 47.9542 16.5602C48.9293 16.6286 49.6907 17.1628 50.4521 17.6969C51.0532 18.1214 51.2536 18.8199 51.4406 19.4772C51.5741 19.9839 51.1066 20.2031 50.8127 20.4907L50.8127 20.5454C50.8127 20.5728 50.8261 20.6002 50.8261 20.6276C50.8395 20.6824 50.8662 20.7235 50.8795 20.7783C50.933 20.8878 50.9864 20.9837 51.0265 21.0932C51.0532 21.148 51.0665 21.2028 51.0799 21.2576C51.0933 21.3124 51.1066 21.3808 51.0933 21.4356C51.0933 21.463 51.0532 21.4904 51.0398 21.5041C50.9597 21.6137 50.8662 21.7232 50.786 21.8191L51.3471 21.6274C51.3871 21.5863 51.4138 21.5452 51.4539 21.5178C51.494 21.4904 51.5341 21.4493 51.5741 21.4219C51.5341 21.3945 51.5341 21.3808 51.5341 21.3398C51.5207 21.285 51.5073 21.2165 51.494 21.1617C51.4806 21.1069 51.4673 21.0522 51.4539 20.9974C51.4539 20.97 51.4406 20.9426 51.4406 20.9152C51.4406 20.9015 51.4138 20.8467 51.4272 20.833C51.5741 20.5317 51.8947 20.477 52.055 20.2852C53.0435 20.3537 53.5911 20.8878 53.8717 21.8054C54.2323 22.9695 54.3258 24.202 54.6598 25.3661C55.2341 27.4478 54.8735 29.5021 54.7266 31.57C54.6464 32.7615 54.7666 33.9804 54.5395 35.1581C54.446 35.6101 54.3392 36.0346 53.9919 36.2948C53.8717 36.8015 53.9785 37.2672 53.9518 37.7328C53.8984 37.8698 53.7782 37.9793 53.6713 38.0752C53.5778 38.1711 53.4709 38.2532 53.3641 38.3354C53.3641 38.3354 53.3641 38.3354 53.3507 38.3491C53.2572 38.4176 53.1503 38.486 53.0702 38.5682C53.0301 38.6093 52.9901 38.6504 52.95 38.6915C52.9099 38.7326 52.8565 38.7599 52.803 38.801C52.7095 38.8558 52.616 38.9243 52.5225 38.9928C52.4958 39.0201 52.4557 39.0338 52.4424 39.0749L52.389 39.1297C52.3756 39.1434 52.3489 39.1708 52.3355 39.1845C52.3222 39.1982 52.3088 39.2119 52.3088 39.2256C52.3088 39.2393 52.3222 39.2393 52.3222 39.253C52.389 39.3351 52.4157 39.4584 52.4691 39.5543C52.4825 39.5816 52.5092 39.609 52.5225 39.6501C52.5359 39.6638 52.5359 39.6775 52.5359 39.7049C52.5626 39.7597 52.576 39.8145 52.576 39.8692L52.576 39.9514C52.5626 40.0062 52.5893 40.061 52.5492 40.1021C52.4958 40.1568 52.429 40.2116 52.3756 40.2664C52.3489 40.2938 52.3222 40.3212 52.2955 40.3349C52.242 40.3897 52.1752 40.4307 52.1218 40.4855C52.1084 40.4992 52.0951 40.4992 52.0951 40.5129C52.0817 40.5266 52.0817 40.554 52.0951 40.5814C52.1352 40.8827 52.1752 41.1977 52.2153 41.499C52.2153 41.54 52.2287 41.5948 52.2287 41.6496C52.2153 41.6907 52.2153 41.7318 52.2153 41.7866C52.2153 41.9098 52.2287 42.0331 52.242 42.1426L52.4958 40.869C52.6828 40.5129 53.1503 40.4444 53.2706 40.0884C53.2706 39.7734 52.9901 39.6912 52.8966 39.4173C53.3908 39.0475 53.8984 38.6641 54.4594 38.2395C54.4728 37.9656 54.4995 37.6369 54.5128 37.2946C54.6998 37.3357 54.7266 37.4863 54.7399 37.6096C54.8334 39.4584 55.2742 41.3072 54.8868 43.1698C54.7533 43.8408 54.5262 44.4845 54.446 45.1555C54.2323 47.0455 54.5128 48.9217 54.4728 50.7979C54.446 51.7429 54.5663 52.7015 54.259 53.6876C52.9233 54.3997 51.5741 55.0434 50.1182 55.7555C50.1849 54.9201 50.2117 54.1806 50.2918 53.4411C50.412 52.2496 50.3586 51.0307 50.6124 49.853C50.7192 49.3462 50.6792 48.7984 50.559 48.2917C50.1449 46.6483 50.1582 45.0049 50.3586 43.3478C50.5723 41.54 50.5189 39.7186 50.5456 37.8972C50.5723 36.0757 50.8395 34.2816 50.933 32.4602C51.0265 30.5566 51.1868 28.6393 50.8662 26.763C50.6124 25.2703 50.1983 23.8049 50.0246 22.2847C49.8911 21.1617 49.3434 20.2305 48.4885 19.5046C48.1679 19.2307 47.8741 18.9431 47.5535 18.6555C47.4733 18.587 47.4065 18.5186 47.3264 18.4364ZM47.3264 18.4364C47.313 18.4227 47.2997 18.4227 47.2997 18.409C47.273 18.3816 47.273 18.3542 47.2596 18.3131L47.3264 18.4364ZM54.5663 55.9199C54.5796 55.9747 54.6063 56.0431 54.6197 56.0979C54.6464 56.1664 54.6598 56.2212 54.6731 56.2897C54.6731 56.3444 54.6865 56.3855 54.6998 56.4403C54.6998 56.4677 54.6998 56.4814 54.7132 56.4951C54.7399 56.5225 54.7933 56.5499 54.8334 56.5636C54.8735 56.5636 54.9002 56.5909 54.9269 56.6046C54.9536 56.6183 54.9937 56.6457 55.0204 56.6594C55.0471 56.6731 55.0739 56.6868 55.1006 56.7005C55.3544 56.5773 55.6082 56.5088 55.8085 56.276C55.4479 55.8651 55.1406 55.3858 54.6464 55.0708C53.1637 55.7966 51.6944 56.5088 50.2117 57.2209C50.412 57.8646 50.6124 58.4261 50.9063 58.9876C52.0283 58.385 53.0969 57.7961 54.1655 57.2209C54.2724 57.1524 54.3926 57.084 54.5128 57.0292C54.5663 57.0018 54.6063 56.9744 54.6331 56.9196C54.6464 56.9059 54.6598 56.8785 54.6598 56.8512C54.6731 56.8238 54.6598 56.7964 54.6464 56.769C54.633 56.7416 54.6063 56.7005 54.5663 56.6868C54.5395 56.6731 54.5128 56.6731 54.5128 56.6457L54.5128 56.5909C54.5262 56.5362 54.5262 56.4951 54.5262 56.4403C54.5395 56.3444 54.5262 56.2349 54.5262 56.139C54.5262 56.0842 54.5128 56.0431 54.5128 56.0021C54.4995 55.9747 54.4861 55.9473 54.4594 55.9199C54.446 55.9062 54.4327 55.8925 54.406 55.8925C54.3926 55.8788 54.3926 55.8788 54.3793 55.8788C54.3659 55.8788 54.3525 55.8651 54.3525 55.8651L54.5663 55.9199ZM57.4382 55.9473C56.7569 55.3858 56.2493 54.6599 55.6082 54.03C55.6482 53.3315 55.7284 52.7015 55.7284 52.0716C55.715 50.346 55.8219 48.6204 55.6883 46.8948C55.6082 45.8403 55.8887 44.8269 56.1692 43.8134C56.7168 41.8824 56.4096 39.8966 56.1291 37.993C55.9287 36.6372 55.902 35.3225 55.9955 33.9804C56.089 32.8026 56.1024 31.6248 56.1959 30.447C56.3161 28.7762 56.4631 27.1328 56.049 25.4483C55.6883 24.024 55.6082 22.5312 55.0471 21.1617C54.6063 20.0935 54.6063 20.0935 53.2438 18.2447C52.0283 16.9299 51.8413 16.9162 50.7994 16.2726C49.9979 15.7796 49.2098 15.3139 48.2347 15.2181C46.9924 15.0948 45.8437 14.5333 44.6148 14.3279C42.4776 13.9718 40.367 14.1635 38.2565 14.4922C35.4247 14.9442 32.6329 15.5057 30.4556 17.7243C29.4271 18.7788 28.3718 19.7785 27.931 21.2439C27.8108 21.6547 27.5437 22.0108 27.3433 22.3806C26.4216 23.9829 26.6353 24.7088 26.5018 26.7904C26.5819 26.9411 26.3147 27.845 26.2212 28.0915C26.101 29.4884 26.0877 28.5982 26.101 29.2008C26.1411 31.0222 26.1545 32.8437 26.1678 34.6514C26.1812 36.2948 26.248 37.9382 25.9541 39.5543C25.6335 41.2661 25.6602 42.9917 25.6469 44.7173C25.6469 45.1008 25.6602 45.4979 25.5667 45.8677C25.2862 47.155 25.353 48.4424 25.4198 49.7297C25.5133 51.4827 25.4331 53.222 25.6335 55.016C24.645 55.8103 23.6699 56.6046 22.6815 57.3716C22.3342 57.6318 22.1338 57.9194 22.1338 58.385C22.1605 60.316 22.1605 62.247 22.1739 64.178C22.1739 64.6984 22.4143 64.986 22.9353 65.0271C25.353 65.1778 27.7574 65.3284 30.1618 65.4928C33.2875 65.6982 36.3998 65.8899 39.5255 66.0953C43.0653 66.3282 46.6051 66.5747 50.1449 66.8075C50.6257 66.8349 51.0665 66.7253 51.4806 66.4651C53.3374 65.3147 55.2074 64.1643 57.0775 63.0413C57.5317 62.7674 57.7053 62.4114 57.7053 61.8773C57.7187 60.1928 57.7587 58.5083 57.7988 56.8375C57.7988 56.4951 57.732 56.1801 57.4382 55.9473ZM26.7021 47.292C26.8624 46.1416 27.0093 45.0049 26.9826 43.8408C26.9426 42.3344 27.1162 40.8553 27.3299 39.3762C27.6238 37.322 27.5169 35.254 27.4769 33.186C27.4635 32.4328 27.4502 31.6796 27.4635 30.94C27.4635 30.7483 27.4769 30.5566 27.4902 30.3649C27.5036 30.2553 27.5169 30.1457 27.5169 30.0225C27.5169 29.9677 27.557 29.9266 27.5971 29.8855C27.6505 29.817 27.7173 29.7486 27.7707 29.6801C27.7841 29.6664 27.7974 29.6527 27.8242 29.639C27.8375 29.639 27.8642 29.639 27.8776 29.6527C28.118 29.7623 28.5321 30.1594 28.5455 30.1868C28.5455 30.2005 29.0264 30.5703 29.0264 30.584C29.0397 30.5977 28.7325 31.2824 28.7325 31.3098C29.3069 31.3098 29.1599 31.1181 29.6275 30.2553C29.6542 30.2005 29.1599 29.8581 29.1599 29.7897C29.0798 29.7075 29.0531 29.5979 29.013 29.5021C28.9729 29.3788 28.9061 29.2692 28.8393 29.1734C28.7993 29.1186 28.7592 29.0775 28.7191 29.0227C28.6791 28.9816 28.639 28.9406 28.5989 28.8995C28.5722 28.8721 28.5588 28.8447 28.5588 28.8036C28.5455 28.7488 28.5188 28.7077 28.5054 28.653C28.452 28.5297 28.3985 28.3928 28.3585 28.2558C28.265 27.9956 28.1848 27.7217 28.1047 27.4478C28.0245 27.1739 27.9444 26.9 27.8509 26.6261C27.7974 26.4754 27.744 26.3385 27.6906 26.1878C27.7841 24.9005 28.0245 23.6679 28.8527 22.6271C29.0397 22.3806 29.1599 22.0656 29.2534 21.778C29.6275 20.5181 30.4556 19.6142 31.404 18.8062C31.9918 18.2995 32.5261 17.6969 33.2073 17.3545C33.2207 17.3408 33.2741 17.3819 33.2875 17.3819C33.3142 17.3956 33.3409 17.4093 33.3676 17.423C33.421 17.4641 33.4611 17.5051 33.4878 17.5599C33.5413 17.6284 33.5546 17.7243 33.5947 17.7927C33.6214 17.8612 33.6481 17.9434 33.6748 18.0119C33.7283 18.1625 33.7817 18.2995 33.8218 18.4501C33.8351 18.4775 33.8351 18.4912 33.8485 18.5049C33.8485 18.5186 33.8618 18.5323 33.8618 18.5323C33.8618 18.5323 33.8886 18.546 33.9019 18.546C33.9553 18.5597 34.0088 18.587 34.0622 18.6007C34.0756 18.6007 34.0088 18.9705 34.0088 18.9979L34.0088 19.0664C34.0088 19.1212 33.9954 19.1896 33.9954 19.2444C33.9821 19.3677 33.9821 19.4909 33.9687 19.6142C33.9687 19.6553 33.9553 19.71 33.9687 19.7511C33.9821 19.7922 33.9954 19.8196 34.0088 19.8607C34.1156 20.0798 34.1691 20.9015 34.1691 20.9015C34.1691 20.9015 34.3427 20.4359 34.3294 20.4085C34.316 20.3674 34.316 20.34 34.3026 20.2989C34.2893 20.2305 34.2759 20.1483 34.2626 20.0798C34.2492 19.9839 34.2359 19.8881 34.2225 19.7785C34.2225 19.7374 34.2091 19.71 34.2091 19.669C34.2091 19.6416 34.1958 19.6279 34.2091 19.6005C34.2225 19.5594 34.2359 19.5183 34.2626 19.4909C34.2759 19.4498 34.3026 19.4088 34.316 19.3677C34.316 19.3677 34.3961 19.3814 34.4095 19.3951C34.4362 19.4088 34.4629 19.4224 34.4897 19.4224C34.5698 19.4361 34.6366 19.4635 34.7034 19.5046C34.7301 19.5183 34.7568 19.532 34.7835 19.5594C34.7969 19.5868 34.8102 19.6142 34.8236 19.6416C34.8904 19.8196 34.9572 20.0113 35.0373 20.1894C35.0507 20.2168 35.064 20.2578 35.0907 20.2852C35.1175 20.3126 35.1442 20.3263 35.1709 20.34C35.3445 20.4496 35.5316 20.5591 35.7052 20.6687C35.6251 20.5318 35.5048 20.4222 35.398 20.2852C35.2377 20.0798 35.1308 19.8333 35.0907 19.5731C35.0774 19.5183 35.0774 19.4635 35.0774 19.4088C34.9438 19.3129 34.8102 19.2307 34.6767 19.1349C34.6232 19.0938 34.5564 19.0664 34.5164 19.0253C34.503 19.0116 34.4897 18.9842 34.4897 18.9568C34.4763 18.9157 34.4629 18.8883 34.4496 18.8473C34.3961 18.6966 34.3561 18.546 34.3026 18.409C34.2893 18.3679 34.2759 18.3131 34.2359 18.2995C34.2225 18.2858 34.1958 18.2858 34.1691 18.2721C34.129 18.2447 34.1156 18.1899 34.1023 18.1488C34.0889 18.094 34.0756 18.0255 34.0622 17.9708C34.0488 17.9297 34.0355 17.8749 34.0355 17.8201L34.0355 17.7653C34.0221 17.6695 33.9954 17.5736 33.9954 17.4777C33.9821 17.2312 34.0355 16.9847 34.1691 16.7656C38.2432 16.1493 42.3573 15.6426 45.9372 18.8609L45.9372 20.7783C45.9372 20.833 45.9372 20.9015 45.9105 20.9563C45.8971 20.97 45.8971 20.9837 45.8838 21.0111C45.8704 21.0522 45.857 21.0932 45.8303 21.1206C45.7903 21.1891 45.7502 21.2576 45.6968 21.3398C45.6433 21.4219 45.5899 21.5041 45.5632 21.6C45.5765 21.5863 45.5899 21.5863 45.6033 21.5726L45.6433 21.5315C45.67 21.5041 45.7101 21.4767 45.7368 21.463C45.8036 21.4219 45.857 21.3672 45.9105 21.3124C45.9372 21.285 45.9506 21.2576 45.9773 21.2165C46.004 21.1754 46.0307 21.1069 46.0574 21.0659C46.0975 21.0248 46.1242 20.9563 46.1376 20.8878C46.1509 20.8604 46.1643 20.8467 46.1643 20.8193C46.1776 20.792 46.1776 20.7646 46.191 20.7235C46.2043 20.655 46.2177 20.6002 46.2311 20.5317C46.2845 20.2578 46.2978 19.9839 46.3379 19.71C46.3513 19.6005 46.378 19.5046 46.4047 19.3951C47.5134 20.2852 48.6622 21.0659 48.8225 22.6271C48.956 23.9418 49.1831 25.2292 49.5438 26.5028C49.6506 26.8726 49.7441 27.256 49.7441 27.6395C49.7441 30.2005 49.8644 32.7478 49.4636 35.2951C49.2499 36.6509 49.2633 38.0615 49.2499 39.4447C49.2499 40.9238 49.1698 42.4028 49.0362 43.8682C48.9026 45.3062 48.9026 46.7305 49.2499 48.1274C49.4369 48.8669 49.3167 49.6065 49.2365 50.3597C49.0762 51.8251 49.0095 53.3041 48.916 54.7832C48.8892 55.1393 48.9026 55.509 48.7557 55.8925C41.4891 55.4816 34.2359 55.0708 26.9426 54.6462C26.9426 54.6462 26.9158 54.4134 26.9158 54.3997C26.9025 54.3039 26.8891 54.208 26.8758 54.1121C26.8491 53.9204 26.8357 53.7424 26.8223 53.5506C26.809 53.3589 26.8223 53.1809 26.8357 53.0028L26.8357 52.9344C26.8357 52.8659 26.8491 52.7837 26.8624 52.7289C26.8758 52.6605 26.8891 52.5783 26.9025 52.5098C26.9426 52.3455 26.9826 52.1811 27.0494 52.0168C27.0628 51.9894 27.0628 51.9757 27.0761 51.9483C27.0895 51.9346 27.1162 51.9209 27.1429 51.9072C27.4902 51.7703 27.8242 51.6333 28.1715 51.4964C28.2115 51.4827 28.2249 51.4279 28.2516 51.3868C28.2783 51.3457 28.305 51.3046 28.3451 51.2636C28.3718 51.2362 28.4119 51.2088 28.4386 51.1814C28.4921 51.1266 28.5188 51.0581 28.5455 50.9897C28.5989 50.8801 28.6523 50.7568 28.6924 50.6473C28.7191 50.5925 28.7458 50.5377 28.7592 50.4966C28.7592 50.4829 28.7592 50.4692 28.7726 50.4556C28.8126 50.3871 28.9061 50.3323 28.9596 50.2912C29.0798 50.1953 29.1867 50.0858 29.2668 49.9625C29.1599 50.0173 29.0798 50.0858 28.9729 50.1543C28.9329 50.1816 28.8794 50.209 28.826 50.2227C28.8126 50.2227 28.7993 50.2227 28.7726 50.2364C28.7592 50.2364 28.7592 50.2501 28.7592 50.2501C28.7325 50.2775 28.7058 50.3186 28.6791 50.3597C28.6256 50.4419 28.5722 50.524 28.5188 50.6062C28.452 50.7021 28.3852 50.7979 28.3184 50.9075C28.2516 51.017 28.2115 51.1266 28.1047 51.1814C28.078 51.1951 28.0379 51.2088 27.9978 51.2225C27.6639 51.332 27.3166 51.4553 26.9826 51.5648C26.9158 51.5922 26.8491 51.6059 26.7823 51.6607L26.7823 51.5238C26.7956 51.4553 26.7823 51.3868 26.7956 51.332L26.7956 51.0581C26.7956 50.8664 26.7823 50.6884 26.7823 50.4966C26.7689 50.1269 26.7422 49.7571 26.7288 49.401C26.622 48.7163 26.6086 48.0041 26.7021 47.292ZM26.4083 56.1801C26.5953 56.0294 26.8357 56.0705 27.0494 56.0842C31.3372 56.3307 35.6251 56.5636 39.9129 56.8101C42.718 56.9744 45.5231 57.1388 48.3416 57.2894C48.4752 57.3031 48.6087 57.3305 48.7557 57.3442C49.0228 57.892 49.2365 58.4535 49.3968 59.1382C41.2086 58.5904 33.0871 58.0563 24.8187 57.5085C25.3797 56.9333 25.914 56.5773 26.4083 56.1801ZM49.8243 65.3421C49.2232 65.438 48.6354 65.3558 48.0878 65.2873C48.0611 65.2873 48.0344 65.2599 48.021 65.2462C47.9943 65.2326 47.9809 65.2189 47.9542 65.1915C47.9141 65.1641 47.8741 65.123 47.834 65.0819C47.7538 64.9997 47.7004 64.8902 47.6203 64.808C47.5935 64.7806 47.5535 64.7532 47.5401 64.7258C47.5134 64.6711 47.5 64.6163 47.4867 64.5615C47.4867 64.5478 47.4867 64.5341 47.4733 64.5067C47.46 64.493 47.4466 64.4793 47.4466 64.4519C47.3798 64.3698 47.3264 64.2876 47.2863 64.1917C47.273 64.1643 47.273 64.1232 47.273 64.0959C47.2863 64.0137 47.2462 63.9315 47.2195 63.863C47.2062 63.7946 47.1928 63.7398 47.1795 63.6713C47.1795 63.6576 47.1661 63.6302 47.1527 63.6165C47.126 63.5754 47.086 63.5481 47.0459 63.5207C46.9524 63.4111 46.8589 63.3152 46.7654 63.2194C46.7253 63.1783 46.6852 63.1509 46.6452 63.1235C46.6719 63.1372 46.6852 63.1783 46.7119 63.2057C46.7253 63.2331 46.752 63.2605 46.7787 63.2878C46.8188 63.3426 46.8589 63.3974 46.8856 63.4796C46.8856 63.507 46.9123 63.5481 46.9257 63.5754C46.9657 63.6576 46.9925 63.7261 47.0058 63.8083C47.0325 63.9178 47.0459 64.0274 47.0459 64.1369C47.0592 64.2328 47.0592 64.3424 47.0726 64.4382C47.0726 64.4382 47.1394 64.4656 47.1527 64.4656C47.1661 64.4793 47.1661 64.5067 47.1661 64.5341C47.1928 64.6026 47.2329 64.6711 47.273 64.7395C47.2863 64.7669 47.2997 64.7943 47.313 64.8217L47.313 65.0545C47.313 65.0819 47.313 65.123 47.2997 65.1504C47.273 65.1915 47.2195 65.2189 47.2329 65.2736C47.1795 65.2736 47.0993 65.2873 47.0459 65.2736C47.0325 65.2736 47.0192 65.2736 47.0058 65.2599C46.9123 65.2462 46.8322 65.2462 46.7387 65.2462C46.565 65.2326 46.3914 65.2189 46.2177 65.2189C44.7083 65.123 43.1989 65.0134 41.6894 64.9176C40.18 64.8217 38.6706 64.7121 37.1612 64.6163C35.6518 64.5204 34.1424 64.4108 32.6329 64.315C31.1235 64.2191 29.6141 64.1096 28.1047 64.0137C27.3433 63.9589 26.5953 63.9178 25.8339 63.863C25.4599 63.8357 25.0725 63.8083 24.6985 63.7946C24.5115 63.7809 24.3245 63.7672 24.1374 63.7535C24.0974 63.7535 23.5898 63.7261 23.5898 63.7124L23.5898 62.3977L23.6031 62.384C23.6165 62.3703 23.6165 62.3703 23.6299 62.3566C23.6432 62.3292 23.6566 62.3155 23.6699 62.2881C23.71 62.2333 23.7367 62.1922 23.7768 62.1375C23.8169 62.0827 23.8703 62.0279 23.9104 61.9731C23.9237 61.9457 23.9371 61.932 23.9504 61.9046C23.9772 61.8773 24.0172 61.8499 24.0439 61.8362C24.084 61.8088 24.1241 61.7951 24.1642 61.7677C24.2443 61.7266 24.3245 61.6855 24.418 61.6581C24.4847 61.6307 24.5515 61.617 24.6183 61.6307C24.6718 61.6444 24.7252 61.6718 24.7653 61.7129C24.9122 61.8225 25.0725 61.932 25.2461 61.9731C25.2862 61.9868 25.2996 61.9457 25.3263 61.932C25.3931 61.8636 25.4732 61.8088 25.54 61.7677C25.5534 61.754 25.5801 61.7403 25.5934 61.7403C25.6335 61.7129 25.6736 61.6992 25.7137 61.6718C25.8739 61.6034 26.0476 61.5897 26.2212 61.576C26.101 61.5349 25.9674 61.5075 25.8205 61.4938C25.7404 61.4938 25.6602 61.4938 25.5934 61.5349C25.5801 61.5486 25.5667 61.5623 25.5667 61.5623C25.5534 61.576 25.5266 61.5897 25.5133 61.6034L25.3931 61.6855C25.3797 61.6855 25.3797 61.6992 25.3664 61.6992C25.3396 61.7129 25.3129 61.7266 25.2996 61.754C25.2862 61.7677 25.2461 61.7951 25.2194 61.7951C25.2061 61.7951 25.1793 61.7814 25.1526 61.7677C25.1393 61.754 25.1126 61.754 25.0992 61.7403C25.0591 61.7129 25.0191 61.6855 24.9923 61.6718C24.8855 61.5897 24.7786 61.4801 24.6718 61.3842C24.6584 61.3705 24.645 61.3705 24.6317 61.3568L24.5782 61.3568C24.5382 61.3705 24.4981 61.3705 24.458 61.3842C24.4313 61.3842 24.418 61.3979 24.3912 61.3979L24.3512 61.3979C24.3111 61.3979 24.271 61.4116 24.2309 61.4116C24.1775 61.4253 24.1107 61.439 24.0573 61.4527C23.8836 61.4938 23.7234 61.5349 23.5497 61.5897L23.5497 58.8369C32.3123 59.4121 41.0483 60.001 49.8243 60.5762L49.8243 65.3421ZM55.2609 59.5765L55.2609 59.371C55.2609 59.33 55.2609 59.2752 55.2876 59.2341C55.3009 59.2067 55.3009 59.193 55.3143 59.1793C55.3143 59.1656 55.3276 59.1656 55.3276 59.1519C55.3677 59.0835 55.4078 59.015 55.4612 58.9465C55.6883 58.6726 55.8219 58.3576 55.7952 57.9742C55.9421 57.8646 56.089 57.7413 56.3428 57.755C56.4363 59.0971 56.3695 60.494 56.3295 61.9183C54.6464 62.9455 52.9633 63.9726 51.2135 65.0271L51.2135 60.3845C52.576 59.645 53.9251 58.9191 55.2876 58.1933C55.3276 58.2481 55.3544 58.3165 55.3677 58.385C55.3811 58.4261 55.3677 58.4809 55.3677 58.522C55.3677 58.5493 55.3544 58.563 55.341 58.5904C55.341 58.6041 55.3276 58.6178 55.3143 58.6452C55.3009 58.6589 55.2742 58.6863 55.2609 58.7C55.2341 58.7137 55.2208 58.7411 55.1941 58.7685C55.1674 58.7959 55.1406 58.8369 55.1273 58.8643C55.1139 58.878 55.1006 58.8917 55.1006 58.9191C55.0872 58.9328 55.0739 58.9602 55.0739 58.9876C55.0338 59.0561 54.9937 59.1382 54.9403 59.2067C54.9136 59.2341 54.8868 59.2752 54.8868 59.3163C54.8868 59.33 54.8868 59.3437 54.9002 59.3574L54.9002 59.8915C54.9002 59.9873 54.9136 60.0695 54.9136 60.1654C54.9136 60.2338 54.9002 60.3297 54.8601 60.3845L54.8201 60.4256C54.8201 60.4256 54.8067 60.4393 54.8067 60.453C54.8067 60.4667 54.7933 60.4667 54.78 60.4804C54.6865 60.5899 54.5663 60.6721 54.446 60.7543C54.5262 60.7406 54.6063 60.7269 54.6731 60.6858C54.7266 60.6584 54.78 60.6173 54.8468 60.5899C54.8601 60.5899 54.8735 60.5625 54.9002 60.5625C54.9002 60.5625 54.9002 60.5625 54.9136 60.5625C54.9403 60.5214 54.9536 60.4804 54.9803 60.4256C54.9937 60.4119 54.9937 60.3845 55.0071 60.3571C55.0204 60.3297 55.0204 60.316 55.0338 60.2886C55.0338 60.2749 55.0471 60.2612 55.0471 60.2475C55.0605 60.1928 55.0739 60.138 55.1006 60.0832C55.1139 60.0558 55.1139 60.0284 55.1273 60.001C55.1273 59.9873 55.1406 59.9736 55.1406 59.9462C55.1406 59.9189 55.1406 59.8915 55.154 59.8778C55.154 59.8504 55.1674 59.823 55.1941 59.8093C55.2074 59.8093 55.2074 59.8093 55.2208 59.8093L55.2609 59.5765Z" stroke="black" stroke-width="2" stroke-miterlimit="10"/>
<path d="M40.006 35.6511C39.6854 36.1441 39.6587 36.8151 39.8858 37.3629C39.9526 37.5273 40.0461 37.6779 40.193 37.7738C40.4869 37.9518 40.8609 37.7875 41.1681 37.6231C41.5689 37.404 41.9829 37.1438 42.1432 36.7056C42.2635 36.3906 42.21 36.0208 42.0631 35.7195C41.9829 35.5278 41.8627 35.3635 41.7292 35.2128C41.6356 35.1169 41.5555 34.9937 41.4086 34.98C41.0746 34.9252 40.714 35.0348 40.4335 35.2128C40.2598 35.3361 40.1129 35.4867 40.006 35.6511Z" fill="#6B00FA" stroke="black" stroke-width="0.5" stroke-miterlimit="10"/>
<path d="M33.9282 35.7473C33.8213 35.939 33.7412 36.1445 33.7278 36.3636C33.7011 36.7334 33.8748 37.0757 34.0351 37.4044C34.0618 37.4729 34.1019 37.5414 34.1553 37.5825C34.2087 37.6235 34.2755 37.6372 34.3423 37.6509C35.0102 37.7468 35.7048 37.4729 36.1322 36.9388C36.2124 36.8292 36.2792 36.7197 36.3193 36.5964C36.3727 36.4047 36.3727 36.2129 36.3593 36.0212C36.346 35.7473 36.3193 35.4323 36.1189 35.2406C36.0254 35.1447 35.9052 35.0763 35.7849 35.0215C35.638 34.9393 35.4644 34.8434 35.304 34.7887C35.1838 34.7613 35.0369 34.8023 34.93 34.8434C34.6495 34.9393 34.4091 35.131 34.2087 35.3502C34.1553 35.4186 34.1019 35.4734 34.0484 35.5419C34.0217 35.583 33.995 35.6104 33.9816 35.6514C33.9683 35.6651 33.9549 35.7199 33.9282 35.7473Z" fill="#6B00FA" stroke="black" stroke-width="0.5" stroke-miterlimit="10"/>
<path d="M34.7833 38.0342C33.7681 38.0342 32.9399 37.1851 32.9399 36.1443C32.9399 35.1035 33.7681 34.2544 34.7833 34.2544C35.7984 34.2544 36.6266 35.1035 36.6266 36.1443C36.6266 37.1851 35.7984 38.0342 34.7833 38.0342ZM34.7833 34.8022C34.062 34.8022 33.4742 35.4048 33.4742 36.1443C33.4742 36.8839 34.062 37.4864 34.7833 37.4864C35.5046 37.4864 36.0923 36.8839 36.0923 36.1443C36.0923 35.4048 35.5046 34.8022 34.7833 34.8022Z" fill="black"/>
<path d="M40.7145 38.1714C39.6993 38.1714 38.8711 37.3224 38.8711 36.2815C38.8711 35.2407 39.6993 34.3916 40.7145 34.3916C41.7296 34.3916 42.5578 35.2407 42.5578 36.2815C42.5578 37.3224 41.7296 38.1714 40.7145 38.1714ZM40.7145 34.9394C39.9931 34.9394 39.4054 35.542 39.4054 36.2815C39.4054 37.0211 39.9931 37.6236 40.7145 37.6236C41.4358 37.6236 42.0235 37.0211 42.0235 36.2815C42.0235 35.542 41.4358 34.9394 40.7145 34.9394Z" fill="black"/>
<path d="M33.9284 37.3635C33.7414 37.0759 33.2871 36.7472 33.2871 36.4185C33.2871 35.4461 33.7413 34.6655 34.6897 34.6655C34.703 34.6655 35.3978 34.6655 35.4111 34.6655C35.518 34.7751 35.6248 34.871 35.705 34.9805C35.5848 34.9531 35.4779 34.9394 35.3577 34.9394C34.5696 34.9394 33.9151 35.5968 33.9151 36.4185C33.9151 36.8157 34.062 37.1717 34.3158 37.4456L33.9284 37.3635Z" fill="black"/>
<path d="M40.2866 37.6099C40.153 37.5962 39.4315 37.3091 39.298 37.2818C39.111 36.9942 39.298 35.9259 39.298 35.5699C39.298 34.6386 40.3934 34.7345 41.2884 34.6797L41.5555 35.09C41.4754 35.0763 41.3819 35.0626 41.2884 35.0626C40.5003 35.0626 39.8458 35.72 39.8458 36.5417C39.8591 36.9662 40.0194 37.336 40.2866 37.6099Z" fill="black"/>
</g>
</g>
<defs>
<clipPath id="clip0_6703_87121">
<rect width="80" height="80" fill="white"/>
</clipPath>
<clipPath id="clip1_6703_87121">
<rect width="35.9322" height="53" fill="white" transform="translate(22 14)"/>
</clipPath>
</defs>
</svg>
