<svg width="80" height="80" viewBox="0 0 80 80" fill="none" xmlns="http://www.w3.org/2000/svg">
<g clip-path="url(#clip0_6703_87096)">
<rect width="80" height="80" rx="12" fill="url(#paint0_linear_6703_87096)"/>
<path d="M65.987 37.3812L54.5465 25.9407L54.5263 25.9206C54.5121 25.9064 54.4954 25.8955 54.4811 25.8821C54.4057 25.8109 54.3287 25.7439 54.2491 25.6819C54.1921 25.6375 54.1343 25.5981 54.0749 25.5546C54.0489 25.5361 54.0213 25.5202 53.9911 25.5035C53.3397 25.0791 52.5528 24.9145 51.7859 25.0422C51.019 25.1698 50.3278 25.5804 49.849 26.1929L32.0599 43.9844V28.1421C32.041 27.3215 31.7017 26.541 31.1147 25.9674C30.5277 25.3938 29.7395 25.0726 28.9188 25.0726C28.098 25.0726 27.3099 25.3938 26.7229 25.9674C26.1358 26.541 25.7966 27.3215 25.7776 28.1421V43.9852L19.2826 37.4901C18.6871 36.9353 17.8995 36.6332 17.0857 36.6476C16.272 36.6619 15.4955 36.9916 14.92 37.5671C14.3445 38.1426 14.0148 38.9191 14.0005 39.7328C13.9861 40.5466 14.2882 41.3342 14.8431 41.9296L26.6974 53.7907C26.7722 53.8655 26.8507 53.9365 26.9327 54.0034C27.012 54.0682 27.0944 54.1288 27.1798 54.1852C27.6043 54.4656 28.0908 54.6381 28.5971 54.6878H28.6105C28.7119 54.6978 28.8132 54.7028 28.9154 54.7028C28.9314 54.7028 28.9464 54.7028 28.9623 54.7028C29.0461 54.7028 29.1299 54.7028 29.2178 54.6911L29.2798 54.6819C29.3636 54.6727 29.4406 54.6618 29.5211 54.6467L29.5579 54.6375C29.6459 54.6191 29.7347 54.5981 29.8218 54.5722L29.8352 54.5672C29.9307 54.5378 30.0236 54.5043 30.1166 54.4666C30.2463 54.4115 30.3722 54.348 30.4936 54.2765L30.5639 54.2346C30.6832 54.1618 30.7974 54.0809 30.9057 53.9925C30.9166 53.9842 30.9258 53.9741 30.9358 53.9649C31.0028 53.9088 31.0699 53.8501 31.1327 53.7873L49.1638 35.7671V51.5692C49.1638 52.4023 49.4947 53.2013 50.0838 53.7904C50.6729 54.3794 51.4718 54.7104 52.3049 54.7104C53.138 54.7104 53.937 54.3794 54.5261 53.7904C55.1151 53.2013 55.4461 52.4023 55.4461 51.5692V35.7269L61.5433 41.8241C61.83 42.1361 62.1769 42.3869 62.5631 42.5614C62.9493 42.7358 63.3668 42.8304 63.7904 42.8393C64.2141 42.8482 64.6352 42.7714 65.0284 42.6133C65.4216 42.4553 65.7788 42.2194 66.0784 41.9197C66.3781 41.6201 66.614 41.2629 66.772 40.8697C66.9301 40.4765 67.0069 40.0554 66.998 39.6318C66.989 39.2081 66.8945 38.7906 66.72 38.4044C66.5456 38.0182 66.2948 37.6713 65.9828 37.3846L65.987 37.3812Z" fill="white"/>
</g>
<defs>
<linearGradient id="paint0_linear_6703_87096" x1="5.35346" y1="19.9967" x2="74.6465" y2="60.0033" gradientUnits="userSpaceOnUse">
<stop offset="0.13" stop-color="#348BED"/>
<stop offset="0.31" stop-color="#2B80E8"/>
<stop offset="0.64" stop-color="#1461DB"/>
<stop offset="0.72" stop-color="#0E57D7"/>
</linearGradient>
<clipPath id="clip0_6703_87096">
<rect width="80" height="80" fill="white"/>
</clipPath>
</defs>
</svg>
