<svg width="80" height="80" viewBox="0 0 80 80" fill="none" xmlns="http://www.w3.org/2000/svg">
<g clip-path="url(#clip0_6703_87151)">
<path d="M68 1.48619e-06L12 2.62268e-07C5.37258 1.17422e-07 -1.17422e-07 5.37258 -2.62268e-07 12L-1.48619e-06 68C-1.63103e-06 74.6274 5.37258 80 12 80L68 80C74.6274 80 80 74.6274 80 68L80 12C80 5.37259 74.6274 1.63103e-06 68 1.48619e-06Z" fill="#2D2D4F"/>
</g>
<path d="M33.8249 29.5407H22.4758C21.7526 29.5407 21.1963 28.9844 21.1963 28.2611V20.6951C21.1963 19.9719 21.7526 19.4155 22.4758 19.4155H54.8541C56.9682 19.4155 58.6928 21.1401 58.6928 23.2542V28.2055C58.6928 28.9287 58.1365 29.4851 57.4133 29.4851H46.0085V61.4739C46.0085 62.1972 45.4522 62.7535 44.729 62.7535H37.6636C35.5496 62.7535 33.8249 61.0289 33.8249 58.9148V29.5407Z" fill="white"/>
<defs>
<clipPath id="clip0_6703_87151">
<rect width="80" height="80" fill="white"/>
</clipPath>
</defs>
</svg>
