<svg width="80" height="80" viewBox="0 0 80 80" fill="none" xmlns="http://www.w3.org/2000/svg">
<g clip-path="url(#clip0_6703_87126)">
<path d="M68 1.48619e-06L12 2.62268e-07C5.37258 1.17422e-07 -1.17422e-07 5.37258 -2.62268e-07 12L-1.48619e-06 68C-1.63103e-06 74.6274 5.37258 80 12 80L68 80C74.6274 80 80 74.6274 80 68L80 12C80 5.37259 74.6274 1.63103e-06 68 1.48619e-06Z" fill="#3375BB"/>
<path d="M40 77C60.4345 77 77 60.4345 77 40C77 19.5655 60.4345 3 40 3C19.5655 3 3 19.5655 3 40C3 60.4345 19.5655 77 40 77Z" fill="#3375BB"/>
<path d="M40.2622 19.1875C47.5745 25.2943 55.9597 24.9178 58.3556 24.9178C57.8314 59.649 53.8384 52.7619 40.2622 62.5006C26.686 52.7619 22.718 59.649 22.1938 24.9178C24.5647 24.9178 32.95 25.2943 40.2622 19.1875Z" stroke="white" stroke-width="4" stroke-miterlimit="10" stroke-linecap="round" stroke-linejoin="round"/>
</g>
<defs>
<clipPath id="clip0_6703_87126">
<rect width="80" height="80" fill="white"/>
</clipPath>
</defs>
</svg>
