<svg width="80" height="80" viewBox="0 0 80 80" fill="none" xmlns="http://www.w3.org/2000/svg">
<rect width="80" height="80" rx="12" fill="#FC72FF"/>
<path fill-rule="evenodd" clip-rule="evenodd" d="M33.3654 32.3582C33.2535 32.7908 33.0584 33.1969 32.7909 33.5537C32.293 34.2044 31.634 34.7118 30.8799 35.0253C30.2018 35.3195 29.4835 35.5098 28.7493 35.5895C28.5984 35.6088 28.442 35.6206 28.2903 35.6322L28.2656 35.6341C27.8006 35.6519 27.3535 35.8192 26.9897 36.1113C26.6259 36.4036 26.3645 36.8054 26.2439 37.2579C26.1887 37.4831 26.1475 37.7114 26.121 37.9419C26.0787 38.2893 26.057 38.645 26.0334 39.0298C26.0166 39.3058 25.9986 39.597 25.9717 39.9107C25.8138 41.1887 25.4466 42.4315 24.8853 43.5885C24.7706 43.8317 24.6537 44.0676 24.5387 44.2992C23.9232 45.5404 23.3671 46.6617 23.5267 48.1634C23.6516 49.3205 24.2403 50.0958 25.0224 50.8955C25.3939 51.278 25.8864 51.6048 26.3976 51.9442C27.8286 52.8937 29.4063 53.9408 28.8864 56.5785C28.4611 58.7159 24.9418 60.9588 19.9952 61.7422C20.475 61.6689 19.4181 59.8531 19.3008 59.6515L19.2937 59.6393C19.1574 59.4243 19.0176 59.2124 18.8783 59.0009C18.4757 58.39 18.0747 57.7823 17.7619 57.1084C16.9355 55.3487 16.5524 53.3128 16.891 51.3845C17.1978 49.6394 18.3437 48.2454 19.4468 46.903C19.6267 46.6842 19.8053 46.4669 19.9791 46.2496C21.4546 44.4045 23.0027 41.9871 23.3452 39.5921C23.3742 39.384 23.4 39.1571 23.4272 38.9184C23.4758 38.4911 23.5285 38.0259 23.6114 37.5624C23.7343 36.7619 23.9835 35.9862 24.3492 35.2647C24.5987 34.7916 24.9274 34.3653 25.3207 34.0043C25.5258 33.8127 25.661 33.5573 25.705 33.2791C25.7487 33.001 25.6986 32.716 25.5626 32.4698L17.6772 18.1888L29.0034 32.2628C29.1324 32.4259 29.2954 32.5585 29.4809 32.6509C29.6665 32.7434 29.87 32.7936 30.0769 32.7981C30.284 32.8026 30.4893 32.7612 30.6786 32.6766C30.868 32.5922 31.0365 32.4668 31.1723 32.3095C31.3158 32.1411 31.3971 31.9279 31.4026 31.7059C31.4082 31.4841 31.3375 31.2671 31.2024 31.0916C30.6758 30.414 30.1278 29.7272 29.5823 29.0434C29.3616 28.7668 29.141 28.4902 28.9227 28.2155L26.0725 24.6637L20.3519 17.5717L14 10L21.0858 16.9365L27.1751 23.7157L30.2129 27.1134C30.492 27.4299 30.7711 27.7436 31.05 28.0571C31.7787 28.8761 32.5075 29.6951 33.2363 30.564L33.4016 30.7669L33.4379 31.0815C33.4869 31.5081 33.4624 31.9401 33.3654 32.3582ZM62.4942 37.1311L62.5062 37.1495C62.5041 35.6352 61.573 33.1367 59.6883 30.7335L59.644 30.6746C59.0634 29.9522 58.4308 29.2738 57.7512 28.6449C57.6242 28.5212 57.4872 28.3993 57.3481 28.2776C56.4773 27.513 55.5256 26.8471 54.51 26.2925L54.4374 26.2559C51.2466 24.5064 47.0943 23.6052 41.9743 24.62C41.2867 23.7794 40.5461 22.9842 39.7571 22.2393C38.5487 21.0797 37.1263 20.1703 35.5706 19.5621C34.0287 18.9938 32.3773 18.7909 30.7449 18.9694C32.3184 19.1121 33.8512 19.5527 35.2621 20.2684C36.6248 21.0036 37.8521 21.9689 38.8903 23.1222C39.9427 24.2995 40.9319 25.5326 41.8535 26.8162L42.0847 27.1194C42.9865 28.302 43.9046 29.5059 45.0483 30.5773C45.6779 31.1738 46.3803 31.6873 47.1386 32.1057C47.3401 32.2092 47.5438 32.3065 47.7434 32.3918C47.9428 32.4771 48.1302 32.5562 48.3319 32.6294C48.7209 32.7814 49.1241 32.9074 49.5272 33.0231C51.1398 33.4859 52.7906 33.6522 54.4032 33.7416C54.6275 33.7534 54.8514 33.7645 55.0744 33.7756C55.6503 33.8042 56.2214 33.8326 56.7837 33.8734C57.554 33.9196 58.3181 34.0405 59.0654 34.2348C60.188 34.5295 61.1762 35.2028 61.8653 36.1426C62.0995 36.4557 62.3098 36.7861 62.4942 37.1311ZM57.774 28.6474C57.693 28.572 57.6105 28.4974 57.5284 28.4229C57.4756 28.3751 57.4229 28.3275 57.3709 28.2799C57.4111 28.3168 57.4513 28.3541 57.4915 28.3916C57.5862 28.4795 57.6806 28.5675 57.774 28.6474ZM55.7584 43.5953C50.5728 41.4765 45.1485 39.26 45.956 33.0394C47.6875 34.9008 50.4052 35.2911 53.3611 35.7158C56.0426 36.101 58.9199 36.5142 61.4347 38.0791C67.3688 41.7692 66.5021 48.938 64.4864 51.5767C64.6682 47.2357 60.3051 45.4531 55.7584 43.5953ZM34.8665 40.4818C36.2352 40.3498 39.152 39.6333 37.8478 37.3214C37.5672 36.8512 37.1606 36.4702 36.6746 36.2219C36.1886 35.9738 35.643 35.8688 35.1003 35.9189C34.5498 35.9785 34.0305 36.2071 33.6134 36.5739C33.1963 36.9406 32.9011 37.4276 32.7683 37.9689C32.3631 39.4811 32.7924 40.6847 34.8665 40.4818ZM34.4731 22.1903C33.6145 21.1917 32.2821 20.668 30.9759 20.4773C30.9271 20.8049 30.8962 21.1349 30.8833 21.4658C30.8247 24.1915 31.7862 27.1854 33.6467 29.2659C34.2419 29.9385 34.9597 30.4896 35.7612 30.8897C36.2247 31.117 37.4544 31.6812 37.9099 31.1738C37.9445 31.1273 37.9664 31.0723 37.9732 31.0146C37.9799 30.9568 37.9713 30.8983 37.9483 30.8451C37.8727 30.6278 37.727 30.4305 37.5822 30.2348C37.4795 30.096 37.3774 29.958 37.3012 29.8138C37.2242 29.6687 37.1417 29.5269 37.0594 29.3856C36.9047 29.1197 36.7504 28.8544 36.632 28.5656C36.3196 27.8098 36.157 27.0061 35.9948 26.2049C35.9625 26.0448 35.9299 25.8837 35.8963 25.724C35.6484 24.488 35.3319 23.189 34.4731 22.1903ZM52.819 43.9343C51.487 47.6774 53.6353 50.8389 55.7712 53.9818C58.1601 57.4973 60.5333 60.9896 58.0013 65.2462C62.9216 63.2004 65.2578 57.0199 63.2159 52.1162C61.9293 49.0145 58.8283 47.333 55.9498 45.7724C54.8331 45.1669 53.7496 44.5795 52.819 43.9343ZM38.4208 52.8694C37.5291 53.2357 36.6883 53.7167 35.9193 54.3004C37.6679 53.6617 39.5033 53.2971 41.3617 53.2185C41.6984 53.1984 42.0376 53.1827 42.3795 53.1667C42.9702 53.1394 43.5711 53.1116 44.1837 53.0602C45.188 52.9916 46.1786 52.7867 47.1285 52.4512C48.124 52.1006 49.03 51.5321 49.7812 50.787C50.5403 50.0176 51.0726 49.0516 51.3192 47.996C51.5362 46.9988 51.5057 45.9633 51.2305 44.9809C50.9552 43.9984 50.4436 43.0995 49.741 42.3636C50.0799 43.2295 50.2885 44.1413 50.3598 45.0692C50.4211 45.9331 50.3044 46.8003 50.0171 47.6165C49.7365 48.3901 49.2778 49.0857 48.6787 49.6462C48.0597 50.2123 47.3431 50.6593 46.5642 50.9655C45.4817 51.4046 44.2576 51.5842 42.9826 51.7713C42.401 51.8567 41.8088 51.9437 41.2145 52.0575C40.2588 52.2337 39.3228 52.5058 38.4208 52.8694ZM53.8783 68.322L53.7928 68.3912C53.5674 68.5737 53.3385 68.7595 53.0917 68.9262C52.7773 69.1347 52.4479 69.3194 52.1061 69.4782C51.3944 69.8279 50.6121 70.0064 49.8203 69.9998C47.6757 69.9593 46.1598 68.3519 45.2729 66.5351C45.0404 66.0591 44.8356 65.5682 44.6307 65.0773C44.3028 64.2917 43.9749 63.506 43.5333 62.7802C42.5074 61.0936 40.7517 59.7357 38.6958 59.9874C37.8572 60.0929 37.071 60.4724 36.6054 61.2052C35.3798 63.1192 37.1396 65.8005 39.383 65.4208C39.5738 65.3916 39.7605 65.3398 39.9393 65.2667C40.1176 65.1902 40.2839 65.0884 40.4332 64.9642C40.7467 64.7014 40.9827 64.3577 41.1165 63.9697C41.2639 63.5651 41.2966 63.1273 41.2113 62.7052C41.1193 62.2638 40.8604 61.8761 40.4896 61.6233C40.9208 61.8266 41.2568 62.1905 41.427 62.6381C41.6034 63.099 41.6488 63.6 41.5579 64.0854C41.4698 64.5909 41.2485 65.0634 40.9169 65.4534C40.7409 65.6539 40.5372 65.8283 40.3123 65.9709C40.0893 66.1119 39.8505 66.2258 39.6008 66.31C39.0944 66.4841 38.5555 66.5404 38.0244 66.4744C37.2788 66.3673 36.5756 66.0602 35.9887 65.5853C35.8802 65.499 35.7762 65.4086 35.6753 65.3149C35.276 64.968 34.9135 64.5797 34.5938 64.1563C34.4503 63.9973 34.3046 63.8403 34.1523 63.6896C33.4336 62.9302 32.5857 62.3068 31.6487 61.8487C31.0026 61.5629 30.3264 61.3518 29.6332 61.2194C29.2843 61.1463 28.9317 61.0936 28.5789 61.049C28.5406 61.0451 28.4671 61.0321 28.3754 61.0162C28.081 60.9646 27.6012 60.8808 27.5166 60.9596C28.607 59.9489 29.7954 59.0513 31.0642 58.2803C32.367 57.502 33.7659 56.8994 35.2247 56.4882C36.7371 56.0595 38.3192 55.9373 39.8789 56.1289C40.6818 56.226 41.4681 56.4308 42.2171 56.7377C43.0018 57.0535 43.7261 57.5041 44.3578 58.0694C44.9828 58.6623 45.488 59.3716 45.8453 60.1578C46.168 60.8941 46.4085 61.664 46.5629 62.4534C46.6455 62.8783 46.708 63.345 46.7724 63.8282C47.0662 66.03 47.4057 68.5707 49.9232 69.0134C50.0831 69.0447 50.2445 69.0677 50.4069 69.0826L50.9088 69.0946C51.2539 69.0698 51.5968 69.0203 51.9348 68.9464C52.6351 68.7807 53.3177 68.5461 53.9726 68.2463L53.8783 68.322ZM34.7262 64.3044C34.7864 64.3738 34.8474 64.4424 34.9092 64.5105C34.8839 64.4822 34.8588 64.4537 34.8336 64.4254C34.7979 64.385 34.7621 64.3447 34.7262 64.3044Z" fill="white"/>
</svg>
