<svg width="80" height="80" viewBox="0 0 80 80" fill="none" xmlns="http://www.w3.org/2000/svg">
<rect width="80" height="80" rx="12" fill="white"/>
<g clip-path="url(#clip0_162_227)">
<path d="M65.7562 56.3426C65.7176 56.3723 65.679 56.4037 65.6386 56.4315C65.6 56.4611 65.5596 56.4889 65.5192 56.5185C65.4438 56.5723 65.3667 56.6241 65.2877 56.6741C65.2785 56.6797 65.2693 56.6852 65.2601 56.6926C65.1958 56.7334 65.1315 56.7741 65.0653 56.813C64.968 56.8723 64.8724 56.9278 64.7732 56.9834C64.1007 57.3611 63.3934 57.6648 62.6713 57.9334C61.9896 58.1852 61.2988 58.4056 60.6024 58.6019C59.6047 58.8834 58.5942 59.1167 57.5745 59.3204C56.5841 59.5204 55.5901 59.6889 54.5925 59.8352C53.5948 59.9815 52.5934 60.1037 51.5902 60.2093C51.2613 60.2445 50.9325 60.276 50.6036 60.3074C49.944 60.3685 49.2844 60.4204 48.6247 60.4648C48.294 60.4871 47.9633 60.5074 47.6344 60.526C46.894 60.5685 46.1535 60.6 45.4131 60.6241C45.2789 60.6278 45.1448 60.6334 45.0088 60.6371C44.8857 60.6408 44.7626 60.6445 44.6377 60.6482C44.9409 60.2704 45.244 59.8945 45.5215 59.4963C45.5619 59.4463 45.6023 59.3963 45.6409 59.3445C46.2674 58.4963 46.8664 57.6297 47.4397 56.7463C47.4984 56.7426 47.5572 56.7408 47.6142 56.7371C47.978 56.7167 48.3418 56.6926 48.7056 56.6685C48.9812 56.65 49.2568 56.6297 49.5324 56.6074C51.4598 56.4574 53.3798 56.2426 55.2906 55.9408C55.8474 55.8537 56.4004 55.7574 56.9516 55.6556C58.2414 55.4148 59.5202 55.126 60.7806 54.763C61.0581 54.6834 61.3337 54.6 61.6093 54.513C61.7471 54.4685 61.8849 54.4241 62.0227 54.3778C62.2303 54.4148 62.4196 54.5019 62.6143 54.5741C62.7852 54.6371 62.9561 54.7037 63.1269 54.7723C63.6102 54.9648 64.0842 55.1778 64.5435 55.4241C64.7254 55.5204 64.9037 55.6223 65.08 55.7297C65.3134 55.8723 65.5412 56.0223 65.7544 56.1945C65.8168 56.2445 65.8352 56.2648 65.8113 56.2945C65.8003 56.3093 65.7819 56.3241 65.7525 56.3463L65.7562 56.3426Z" fill="#F1ECE2"/>
<path d="M47.8935 65.2889C47.8549 65.313 47.8126 65.313 47.7722 65.2982C47.7832 65.2908 47.7924 65.2871 47.8016 65.2834C47.8182 65.2778 47.8328 65.2778 47.8494 65.2778C47.8641 65.2778 47.8806 65.2815 47.8953 65.2889H47.8935Z" fill="#5E93FF"/>
<path d="M47.73 65.2982C47.6804 65.3204 47.6308 65.3223 47.5775 65.3075C47.6271 65.2778 47.6786 65.2815 47.73 65.2982Z" fill="#5E93FF"/>
<path d="M47.5352 65.3074C47.4856 65.3296 47.436 65.3315 47.3827 65.3166C47.4323 65.2852 47.4819 65.2889 47.5352 65.3074Z" fill="#5E93FF"/>
<path d="M47.3405 65.3166C47.2909 65.3407 47.2413 65.3407 47.1898 65.324C47.1898 65.324 47.1935 65.324 47.1953 65.3222C47.2431 65.2981 47.2927 65.2981 47.3405 65.3166Z" fill="#5E93FF"/>
<path d="M47.0428 65.3148C47.0758 65.3074 47.1108 65.3111 47.1457 65.3241C47.0961 65.3481 47.0446 65.3481 46.9932 65.3333C47.0097 65.3241 47.0262 65.3185 47.0428 65.3148Z" fill="#5E93FF"/>
<path d="M46.8719 65.3185C46.8977 65.3185 46.9234 65.3241 46.951 65.3315C46.9013 65.3537 46.8517 65.3555 46.8003 65.3389C46.8242 65.3241 46.8481 65.3185 46.8719 65.3167V65.3185Z" fill="#5E93FF"/>
<path d="M46.7194 65.3315C46.7323 65.3333 46.7433 65.337 46.7543 65.3407C46.7065 65.3629 46.6551 65.3648 46.6036 65.35C46.6385 65.3278 46.6753 65.3241 46.712 65.3315C46.712 65.3315 46.7139 65.3315 46.7157 65.3315H46.7176H46.7194Z" fill="#5E93FF"/>
<path d="M46.5596 65.35C46.5008 65.376 46.4401 65.3741 46.3795 65.3574C46.4383 65.3297 46.4989 65.3315 46.5596 65.35Z" fill="#5E93FF"/>
<path d="M46.3355 65.3574C46.2859 65.3833 46.2363 65.3796 46.1848 65.3648C46.2326 65.337 46.284 65.337 46.3355 65.3574Z" fill="#5E93FF"/>
<path d="M59.2263 53.537C59.2502 53.5408 59.2777 53.5408 59.3034 53.5445C59.3365 53.5482 59.3696 53.5574 59.3953 53.5852C59.3273 53.5796 59.2612 53.5648 59.2024 53.5315C59.2061 53.5315 59.2116 53.5315 59.2152 53.5333C59.2189 53.5333 59.2226 53.5333 59.2281 53.5352L59.2263 53.537Z" fill="#5E93FF"/>
<path d="M31.2435 69.8704C31.249 69.8815 31.2545 69.8926 31.2581 69.9018L30.2329 69.9055C30.2384 69.8944 30.2439 69.8833 30.2494 69.8722C30.3321 69.8722 30.4148 69.8722 30.4975 69.8722C30.7455 69.8722 30.9936 69.8722 31.2416 69.8722L31.2435 69.8704Z" fill="#3180F4"/>
<path d="M62.0282 54.3759C61.8904 54.4222 61.7545 54.4667 61.6148 54.5111C61.3392 54.5981 61.0636 54.6815 60.7862 54.7611C59.5239 55.1241 58.247 55.4129 56.9571 55.6537C56.4059 55.7574 55.8511 55.8518 55.2962 55.9389C53.3853 56.2407 51.4653 56.4555 49.5379 56.6055C49.2623 56.6278 48.9867 56.6481 48.7111 56.6667C48.3473 56.6907 47.9835 56.7148 47.6197 56.7352C47.5609 56.7389 47.504 56.7407 47.4452 56.7444C47.8402 56.1352 48.2242 55.5185 48.5954 54.8926C49.1319 53.9889 49.6445 53.0722 50.1314 52.1426C51.0611 52.2241 51.989 52.3185 52.9168 52.4333C52.9848 52.4407 53.0528 52.4555 53.1226 52.4667C53.5378 52.4963 53.9494 52.5592 54.3591 52.6204C54.8865 52.6981 55.4138 52.7833 55.9393 52.8722C56.6485 52.9926 57.3577 53.1259 58.0614 53.2796C58.4417 53.3629 58.8202 53.4481 59.2006 53.5315C59.2612 53.5648 59.3255 53.5778 59.3935 53.5852C60.2056 53.7944 61.0159 54.0148 61.8114 54.2796C61.8849 54.3037 61.9694 54.3111 62.0264 54.3741L62.0282 54.3759Z" fill="#FDBF41"/>
<path d="M35.0118 60.4055C35.3389 60.4314 35.6678 60.4574 35.9948 60.4796C35.6659 60.4574 35.3389 60.4314 35.0118 60.4055Z" fill="#F1ECE2"/>
<path d="M24.5224 67.7852C24.4967 67.7852 24.4747 67.7778 24.4581 67.7574C24.4581 67.7574 24.4618 67.7574 24.4636 67.7574C24.4673 67.7574 24.471 67.7574 24.4747 67.7574C24.4783 67.7574 24.4802 67.7593 24.4839 67.7593C24.4857 67.7593 24.4894 67.7593 24.4912 67.7611C24.4949 67.7611 24.4986 67.7649 24.5022 67.7667C24.5022 67.7667 24.5059 67.7667 24.5077 67.7686C24.5114 67.7723 24.5151 67.776 24.5188 67.7797C24.5188 67.7797 24.5188 67.7797 24.5206 67.7797L24.5224 67.7852Z" fill="#404A5A"/>
<path d="M24.4581 67.7574C24.4324 67.7574 24.4085 67.7519 24.3938 67.7278C24.3938 67.7278 24.4067 67.7278 24.4122 67.7278H24.414C24.4305 67.7315 24.4452 67.7389 24.4563 67.7556C24.4563 67.7556 24.4563 67.7556 24.4563 67.7574H24.4581Z" fill="#404A5A"/>
<path d="M24.3938 67.7278C24.3662 67.7278 24.3405 67.7259 24.3295 67.6963C24.3295 67.6963 24.3295 67.6963 24.3295 67.6945H24.3313C24.357 67.6945 24.3809 67.7 24.3938 67.7259V67.7278Z" fill="#404A5A"/>
<path d="M24.3294 67.6927V67.6964C24.3037 67.6964 24.2762 67.7001 24.267 67.6649V67.6612C24.2945 67.6575 24.3184 67.663 24.3313 67.6927H24.3294Z" fill="#404A5A"/>
<path d="M24.0778 67.5315C24.0961 67.5445 24.1182 67.5537 24.1384 67.563C24.1531 67.5704 24.1678 67.5759 24.1825 67.5833C24.2082 67.5963 24.2321 67.613 24.2486 67.637C24.2542 67.6445 24.2597 67.6556 24.2652 67.6667C24.1788 67.6593 24.1035 67.6241 24.0374 67.5685L24.0778 67.5315Z" fill="#404A5A"/>
<path d="M29.9701 64.7408C29.8985 64.7519 29.8268 64.763 29.757 64.7741C29.4814 64.8112 29.2058 64.8334 28.9284 64.8408C28.8365 64.8426 28.7428 64.8445 28.6509 64.8426C28.5572 64.8426 28.4654 64.8389 28.3716 64.8352C28.3312 64.8334 28.2926 64.8278 28.2522 64.8241C28.2136 64.8204 28.1732 64.8149 28.1328 64.8112C28.0813 64.8075 28.0427 64.7852 28.0041 64.7519C27.8939 64.6519 27.7892 64.5482 27.6863 64.4408C28.447 64.5519 29.2076 64.6519 29.9701 64.7426V64.7408Z" fill="#F1ECE2"/>
<path d="M41.9386 51.7944C41.3911 51.7944 40.8436 51.8018 40.296 51.8111C39.3847 53.2352 38.4017 54.6092 37.3287 55.9148C37.1027 56.1889 36.8749 56.4592 36.6415 56.7259C36.0536 57.4018 35.4399 58.0537 34.7968 58.6759C34.2328 59.2204 33.6503 59.7407 33.0422 60.2296C32.5681 60.6129 32.0776 60.9778 31.5686 61.3167C30.6316 61.9426 29.6486 62.4815 28.5903 62.8741C28.0538 63.0722 27.5063 63.2333 26.9404 63.3278C26.9091 63.3333 26.8797 63.3463 26.8485 63.3555C26.8503 63.3648 26.854 63.3759 26.8559 63.3852C26.8577 63.3907 26.8595 63.3963 26.8632 63.4018C26.9036 63.4648 26.9441 63.5259 26.9863 63.5852C27.0708 63.7074 27.159 63.8259 27.2491 63.9407C27.385 64.113 27.5302 64.2796 27.6827 64.4389C28.4433 64.55 29.204 64.65 29.9665 64.7407C30.1704 64.7092 30.3725 64.6685 30.5728 64.6204C31.0376 64.5092 31.4896 64.363 31.9324 64.1907C32.1529 64.1037 32.3715 64.0111 32.5865 63.9111C32.8015 63.8111 33.0146 63.7055 33.2259 63.5926C33.3178 63.5444 33.4078 63.4944 33.4997 63.4444C34.1317 63.0944 34.7381 62.7018 35.3187 62.2796C35.9011 61.8555 36.4597 61.4 37.0017 60.9222C37.0788 60.8537 37.156 60.7852 37.2332 60.7148C37.2901 60.6629 37.3453 60.6111 37.404 60.5574C37.7513 60.237 38.0931 59.9074 38.4256 59.5704C38.5542 59.4389 38.681 59.3074 38.8078 59.1722C39.2249 58.7315 39.6309 58.2815 40.0259 57.8204C40.263 57.5444 40.4945 57.263 40.7223 56.9796C40.7499 56.9463 40.7774 56.9111 40.805 56.8759C40.9612 56.6796 41.1155 56.4815 41.2698 56.2815C41.7531 55.6518 42.2179 55.0092 42.6662 54.3537C42.9087 53.9981 43.1458 53.6407 43.3791 53.2796C43.5096 53.0759 43.6382 52.8722 43.765 52.6685C43.9395 52.3889 44.1104 52.1055 44.2794 51.8222C43.4985 51.8037 42.7195 51.7944 41.9386 51.7944Z" fill="#F1ECE2"/>
<path d="M21.0958 66.2444C21.07 66.25 21.0498 66.2426 21.0406 66.2148C21.0682 66.2093 21.0884 66.2148 21.0958 66.2444Z" fill="#C18B00"/>
<path d="M37.2975 51.9093C36.9061 51.9278 36.5148 51.95 36.1253 51.9741C35.6972 52.5852 35.2544 53.1871 34.7914 53.7741C34.3375 54.3519 33.8727 54.9185 33.3839 55.4685C33.1065 55.7797 32.8272 56.0889 32.5406 56.3926C32.3385 56.6074 32.1327 56.8204 31.9214 57.0278C31.0818 57.8556 30.2017 58.6371 29.2554 59.3426C29.0974 59.4593 28.9394 59.5741 28.7777 59.6871C28.2467 60.0593 27.6974 60.4037 27.126 60.713C26.7126 60.9389 26.2863 61.1389 25.8545 61.3223C25.8582 61.3426 25.8545 61.3648 25.8637 61.3852C25.9243 61.5537 25.9886 61.7185 26.0584 61.8834C26.1264 62.0482 26.1999 62.2093 26.2771 62.3685C26.4314 62.6871 26.6041 62.9982 26.7915 63.3019L26.7952 63.3056C26.8081 63.3241 26.8301 63.3408 26.8467 63.3574C26.8779 63.3482 26.9073 63.3352 26.9385 63.3297C27.5026 63.2352 28.0501 63.0741 28.5885 62.876C29.6468 62.4852 30.6298 61.9445 31.5668 61.3185C32.0758 60.9797 32.5663 60.6148 33.0404 60.2315C33.6485 59.7408 34.231 59.2204 34.795 58.6778C35.4399 58.0556 36.0518 57.4037 36.6397 56.7278C36.8731 56.4611 37.1009 56.1908 37.3269 55.9167C38.3999 54.6111 39.3829 53.2371 40.2942 51.813C39.2947 51.8315 38.2933 51.8611 37.2957 51.9111L37.2975 51.9093Z" fill="#FDBF41"/>
<path d="M57.0591 36.7075C57.0591 36.7075 57.0456 36.7056 57.0398 36.7056C57.0456 36.7056 57.0514 36.7056 57.0591 36.7075Z" fill="#E7AA24"/>
<path d="M56.9498 36.75C56.981 36.75 57.0159 36.75 56.9957 36.7C57.0104 36.7 57.0251 36.7037 57.0417 36.7055C57.0325 36.7055 57.0251 36.7074 57.0196 36.7111C57.0068 36.7203 57.0067 36.7407 57.0104 36.7648C56.9902 36.7648 56.97 36.7629 56.9498 36.7611C56.9388 36.7611 56.9259 36.7592 56.9149 36.7574C56.891 36.7555 56.8653 36.7518 56.8414 36.75C56.7863 36.7425 56.7293 36.7314 56.676 36.7185C56.7697 36.7129 56.8598 36.7463 56.9516 36.7518L56.9498 36.75Z" fill="#E7AA24"/>
<path d="M28.4433 55.8389C28.4838 55.8463 28.5223 55.8518 28.5609 55.8593C27.7947 56.6055 26.99 57.3055 26.1319 57.9463C25.8196 58.1796 25.5072 58.413 25.1691 58.6111C25.1067 58.3389 25.0791 58.0611 25.0479 57.7833C24.9413 56.8981 24.9009 56.0093 24.899 55.1204C25.1122 55.1722 25.3253 55.2222 25.5403 55.2722C26.1668 55.4167 26.7952 55.5444 27.4254 55.6611C27.7653 55.7241 28.1052 55.7833 28.4452 55.8407L28.4433 55.8389Z" fill="#F1ECE2"/>
<path d="M31.9508 52.3333C31.8608 52.3445 31.7689 52.3519 31.6771 52.3611C30.7731 53.5204 29.8085 54.6259 28.7612 55.6611C28.695 55.7278 28.6271 55.7926 28.5609 55.8574C28.5922 55.863 28.6234 55.8685 28.6528 55.8741C28.6216 55.8685 28.5922 55.863 28.5609 55.8593C27.7948 56.6056 26.99 57.3056 26.132 57.9463C25.8196 58.1796 25.5073 58.413 25.1692 58.6111C25.1729 58.6482 25.1747 58.687 25.1784 58.7241C25.1784 58.7352 25.1784 58.7445 25.1821 58.7556C25.1894 58.7982 25.1986 58.8407 25.2059 58.8833C25.2114 58.9185 25.217 58.9519 25.2243 58.987C25.2408 59.0722 25.2574 59.1593 25.2739 59.2463C25.3713 59.7352 25.4871 60.2185 25.6322 60.6945C25.6983 60.9074 25.7516 61.1259 25.8582 61.3259C26.29 61.1426 26.7162 60.9426 27.1296 60.7167C27.7011 60.4056 28.2504 60.0611 28.7814 59.6907C28.9431 59.5796 29.1011 59.4648 29.2591 59.3463C30.2053 58.6426 31.0854 57.8593 31.9251 57.0315C32.1364 56.8241 32.3403 56.6111 32.5443 56.3963C32.8309 56.0926 33.1102 55.7833 33.3876 55.4722C33.8745 54.9222 34.3412 54.3556 34.795 53.7778C35.2562 53.1889 35.7009 52.5889 36.129 51.9778C34.7363 52.063 33.3454 52.1815 31.9563 52.337L31.9508 52.3333Z" fill="#FF1100"/>
<path d="M28.6528 55.8741C28.6215 55.8685 28.5921 55.863 28.5609 55.8593C28.5921 55.8648 28.6234 55.8704 28.6528 55.8741Z" fill="#F1ECE2"/>
<path d="M28.5609 55.8574C28.5224 55.8519 28.4819 55.8444 28.4434 55.837L28.5609 55.8556V55.8574Z" fill="#FF1100"/>
<path d="M27.4236 55.6593C27.7635 55.7223 28.1034 55.7815 28.4433 55.8389C28.1034 55.7815 27.7617 55.7223 27.4236 55.6593Z" fill="#FF1100"/>
<path d="M31.0799 52.4481C31.2765 52.4055 31.4767 52.3833 31.677 52.3629C30.773 53.5222 29.8084 54.6277 28.7611 55.6629C28.695 55.7296 28.627 55.7944 28.5609 55.8592L28.4433 55.8407C28.1034 55.7833 27.7635 55.724 27.4236 55.6611C26.7934 55.5444 26.1632 55.4166 25.5385 55.2722C25.3253 55.2222 25.1103 55.1722 24.8972 55.1203C24.8972 54.7851 24.9009 54.4481 24.9101 54.1111C24.9156 53.9111 24.9248 53.7129 24.9358 53.5148C25.6616 53.3407 26.3928 53.187 27.1259 53.0462C28.379 52.8074 29.6394 52.6129 30.9035 52.4555C30.9237 52.4537 30.9439 52.45 30.9641 52.4481C30.988 52.4444 31.0119 52.4425 31.0358 52.4444C31.0505 52.4444 31.0652 52.4481 31.0799 52.4518V52.4481Z" fill="#FDBF41"/>
<path d="M53.4313 36.2629C54.1625 36.3537 54.8956 36.4426 55.6269 36.5333C55.6232 36.5407 55.6177 36.5481 55.6104 36.5555C55.1565 36.5 54.7009 36.4463 54.2471 36.387C54.1148 36.3703 53.9825 36.3592 53.8502 36.3444C53.7179 36.3296 53.5856 36.3148 53.4552 36.2889C53.4478 36.2796 53.4405 36.2722 53.4313 36.2648V36.2629Z" fill="#007FFF"/>
<path d="M49.8484 38.5537C49.8759 38.45 49.9017 38.3426 49.9292 38.2389C49.9035 38.3444 49.8759 38.45 49.8484 38.5537Z" fill="#F1ECE2"/>
<path d="M70.8677 53.3667C70.8677 52.3519 70.8677 51.3389 70.8677 50.3241C70.8034 50.0408 70.7152 49.7648 70.559 49.5167C70.3073 49.1167 70.0078 48.7593 69.633 48.4667C69.2416 48.1611 68.8411 47.8741 68.4093 47.6297C67.8158 47.2945 67.1985 47.0111 66.5793 46.7315C66.4691 46.6815 66.3551 46.6574 66.2449 46.613C64.8448 46.0611 63.4044 45.6463 61.9455 45.2889C61.0121 45.0593 60.0714 44.863 59.127 44.6852C58.0669 44.4852 57.0012 44.313 55.9337 44.1649C55.1969 44.063 54.4601 43.9704 53.7215 43.8871C53.3926 43.85 53.0638 43.8148 52.7349 43.7815C51.8052 43.6908 50.8736 43.6056 49.9421 43.5389C49.3927 43.4982 48.8415 43.463 48.2922 43.4315C47.8255 43.4056 47.3569 43.3815 46.8884 43.3593C46.1516 43.326 45.4167 43.3 44.6799 43.2834C44.6266 43.2834 44.5734 43.2797 44.5201 43.2797C43.357 43.2537 42.1922 43.2463 41.0291 43.2574C41.0107 43.2574 40.9924 43.2574 40.9722 43.2574C39.7742 43.2686 38.5763 43.2963 37.3801 43.3463C37.3085 43.3482 37.2368 43.3537 37.1652 43.3556C35.7486 43.4167 34.3356 43.5056 32.9227 43.626C30.8484 43.8019 28.7813 44.0408 26.7254 44.3667C26.6758 44.3741 26.628 44.3834 26.5784 44.3908C26.4994 44.6723 26.4277 44.9574 26.3285 45.2334C26.2587 45.5148 26.1889 45.7963 26.1172 46.076C25.928 46.8223 25.7571 47.5723 25.6083 48.3278C25.713 48.3093 25.8177 48.2926 25.9225 48.2741C26.0603 48.25 26.1981 48.2278 26.334 48.2037C26.538 48.1704 26.7419 48.1371 26.9459 48.1037C27.6826 47.9889 28.4231 47.8852 29.1617 47.7908C29.9021 47.6963 30.6426 47.613 31.3849 47.5389C31.8791 47.4889 32.3752 47.4426 32.8713 47.4C33.6209 47.3371 34.3724 47.2834 35.1239 47.2352C35.8313 47.1908 36.5386 47.1556 37.246 47.126C37.4279 47.1186 37.6098 47.1093 37.7917 47.1019C38.0618 47.0908 38.3337 47.0834 38.6038 47.0741C38.7784 47.0686 38.9529 47.0649 39.1293 47.0611C39.7669 47.0445 40.4044 47.0352 41.042 47.0297C41.2827 47.0297 41.5215 47.026 41.7622 47.026C42.1738 47.026 42.5853 47.026 42.9951 47.0297C43.1439 47.0297 43.2927 47.0315 43.4416 47.0352C43.6014 47.0371 43.7613 47.0389 43.9211 47.0408C44.3566 47.0482 44.7902 47.0593 45.2256 47.0723C45.6611 47.0852 46.0947 47.1019 46.5301 47.1186C46.6018 47.1204 46.6735 47.126 46.7451 47.1278C47.2118 47.1482 47.6785 47.1723 48.1433 47.1963C48.5016 47.2167 48.8599 47.2389 49.2182 47.2611C49.7547 47.2963 50.293 47.3352 50.8295 47.3797C51.3238 47.4204 51.818 47.4667 52.3141 47.5167C52.3306 47.5167 52.349 47.5204 52.3656 47.5223C52.7202 47.5574 53.0748 47.5926 53.4294 47.6297C53.9971 47.6871 54.5649 47.7556 55.1326 47.8315C55.6985 47.9074 56.2644 47.9889 56.8303 48.0741C57.0655 48.1093 57.3007 48.1463 57.534 48.1834C58.2377 48.2982 58.9396 48.4241 59.6378 48.563C60.0494 48.6445 60.4591 48.7297 60.8688 48.8186C61.2785 48.9074 61.6864 49.0037 62.0943 49.1037C62.7135 49.2574 63.329 49.4223 63.9372 49.6019C64.7493 49.8426 65.5541 50.113 66.3423 50.4297C66.5407 50.5074 66.7355 50.5908 66.9321 50.6741C67.2297 50.8037 67.5219 50.9463 67.8122 51.0908C67.8838 51.126 67.9555 51.1611 68.0271 51.1982C68.0822 51.226 68.1392 51.2537 68.1943 51.2815C68.2678 51.3186 68.3413 51.3556 68.413 51.3963C68.5048 51.4463 68.5949 51.5 68.6794 51.5593C69.0064 51.7871 69.3427 52.0019 69.6458 52.2611C69.7157 52.3223 69.7836 52.3834 69.8498 52.4482C69.9288 52.5148 70.0041 52.5871 70.0758 52.6593C70.1952 52.7797 70.3054 52.9093 70.4028 53.0445C70.4506 53.1111 70.4947 53.1797 70.5369 53.25C70.5737 53.3111 70.6068 53.3723 70.638 53.4352C70.6692 53.4982 70.6986 53.563 70.7244 53.6315C70.7519 53.6982 70.7758 53.7667 70.7978 53.8352C70.8125 53.8834 70.8291 53.9334 70.8438 53.9815C70.8438 53.9815 70.8438 53.9852 70.8456 53.9871V53.9815C70.8842 53.776 70.8603 53.5686 70.8622 53.3611L70.8677 53.3667Z" fill="#F1ECE2"/>
<path d="M70.8805 49.9223C70.8824 49.1538 70.8824 48.3871 70.8805 47.6186C70.8805 47.2649 70.8769 46.9093 70.875 46.5556C70.8144 46.3556 70.7721 46.15 70.6821 45.9593C70.4524 45.4797 70.1089 45.0945 69.712 44.75C69.2784 44.3723 68.7988 44.0593 68.2954 43.7834C67.566 43.3797 66.809 43.0352 66.0281 42.7445C65.1241 42.4075 64.2073 42.1093 63.2776 41.8538C62.5665 41.6593 61.8518 41.4797 61.1352 41.3149C60.3176 41.1278 59.4963 40.963 58.6714 40.8167C57.8152 40.6667 56.9553 40.5223 56.0936 40.4019C55.6857 40.3445 55.2759 40.2908 54.8662 40.2389C53.9512 40.1204 53.0344 40.0167 52.1157 39.9352C51.9448 39.9186 51.7758 39.8945 51.6049 39.8815C50.9104 39.8278 50.2159 39.776 49.5232 39.726C49.424 39.7186 49.3248 39.7112 49.2255 39.7038C48.7625 39.6704 48.2995 39.6371 47.8365 39.613C47.2339 39.5834 46.6312 39.5612 46.0286 39.5389C46.023 39.5389 46.0175 39.5389 46.012 39.5389C45.3818 39.5167 44.7534 39.4926 44.1232 39.4815C43.5684 39.4723 43.0135 39.4667 42.4568 39.4649C42.2124 39.4649 41.968 39.463 41.7218 39.463C40.748 39.463 39.7761 39.4778 38.8041 39.5056C38.7894 39.5056 38.7765 39.5056 38.7618 39.5056C37.6208 39.5389 36.478 39.5852 35.3389 39.6593C34.4624 39.7149 33.586 39.7649 32.7115 39.8389C32.3568 39.8686 32.0041 39.913 31.6513 39.9482C30.4184 40.0723 29.1893 40.2167 27.9637 40.3908C27.949 40.3926 27.9362 40.3945 27.9215 40.3963C27.4309 41.676 26.9899 42.9723 26.6023 44.2889C26.5931 44.3223 26.5839 44.3538 26.5747 44.3871C26.6225 44.3797 26.6721 44.3704 26.7217 44.363C28.7777 44.0371 30.8447 43.7963 32.9191 43.6223C34.332 43.5038 35.7449 43.413 37.1615 43.3519C37.2332 43.3482 37.3048 43.3445 37.3765 43.3426C38.5726 43.2926 39.7705 43.2649 40.9685 43.2538C40.9869 43.2538 41.0071 43.2538 41.0255 43.2538C42.1903 43.2445 43.3534 43.2519 44.5164 43.276C44.5697 43.276 44.623 43.2797 44.6763 43.2797C45.413 43.2963 46.148 43.3223 46.8848 43.3556C47.3533 43.3778 47.82 43.4019 48.2885 43.4278C48.8379 43.4593 49.3891 43.4945 49.9384 43.5352C50.87 43.6038 51.8015 43.6871 52.7312 43.7778C53.0601 43.8112 53.389 43.8463 53.7179 43.8834C54.4565 43.9667 55.1933 44.0593 55.93 44.1612C56.9975 44.3093 58.0632 44.4815 59.1233 44.6815C60.0677 44.8593 61.0085 45.0556 61.9418 45.2852C63.4007 45.6426 64.8412 46.0575 66.2412 46.6093C66.3515 46.6538 66.4654 46.6778 66.5756 46.7278C67.1948 47.0093 67.8122 47.2908 68.4056 47.626C68.8374 47.8704 69.238 48.1575 69.6293 48.463C70.0041 48.7556 70.3036 49.113 70.5553 49.513C70.7115 49.7612 70.7979 50.0371 70.864 50.3204C70.8897 50.1871 70.875 50.0519 70.875 49.9186L70.8805 49.9223Z" fill="#FDBF41"/>
<path d="M49.2788 20.8908C49.7859 21.6889 50.1534 22.5519 50.4308 23.4556C50.5172 23.7352 50.5944 24.0167 50.6642 24.3C50.7799 24.7723 50.87 25.2519 50.9416 25.7334C50.9618 25.8741 50.982 26.0149 51.0004 26.1574C51.0353 26.4408 51.0666 26.7241 51.0923 27.0074C51.1033 27.15 51.1143 27.2908 51.1253 27.4334C51.1768 28.2074 51.1988 28.9815 51.1786 29.7574C51.1566 30.5685 51.1088 31.3796 51.028 32.1889C50.9471 32.9926 50.8369 33.7926 50.7046 34.587C50.6256 35.0648 50.5374 35.5407 50.4419 36.013C49.6812 35.9519 48.9205 35.9 48.158 35.863C47.7924 35.8463 47.4249 35.8259 47.0575 35.8074C47.3055 34.7333 47.515 33.6519 47.6785 32.5593C47.8585 31.35 47.9872 30.137 48.0349 28.9167C48.0735 27.8797 48.068 26.8408 47.9853 25.8037C47.9155 24.9389 47.7997 24.0834 47.616 23.2352C47.4084 22.2815 47.1162 21.3556 46.6973 20.4723C46.532 20.1223 46.3372 19.7871 46.1425 19.4537C46.3023 19.4019 46.4695 19.3963 46.633 19.3797C46.7194 19.3704 46.8057 19.363 46.8903 19.3574C46.9637 19.3537 47.0372 19.35 47.1107 19.3482C47.2302 19.3463 47.3496 19.3463 47.469 19.3482C47.5517 19.35 47.6362 19.3537 47.7189 19.3574C47.7832 19.3612 47.8475 19.3649 47.9118 19.3704C47.9228 19.3704 47.9339 19.3723 47.9431 19.3741C47.9633 19.3778 47.9816 19.3834 48 19.3908C48.0184 19.3982 48.0349 19.4074 48.0515 19.4186C48.0753 19.4334 48.0992 19.4537 48.1213 19.4741C48.1782 19.526 48.2334 19.5797 48.2866 19.6334C48.395 19.7408 48.4998 19.8537 48.599 19.9686C48.8507 20.2556 49.0767 20.5612 49.2843 20.8871L49.2788 20.8908Z" fill="#F1ECE2"/>
<path d="M47.6105 23.2351C47.7943 24.0814 47.91 24.9388 47.9798 25.8037C48.0644 26.8407 48.0699 27.8796 48.0294 28.9167C47.9835 30.137 47.8549 31.35 47.673 32.5592C47.5095 33.6518 47.3 34.7352 47.052 35.8074C46.7745 35.7944 46.4953 35.7796 46.2178 35.7685C45.5821 35.7444 44.9482 35.7296 44.3125 35.7167C44.0755 35.7111 43.8385 35.7074 43.6033 35.7037C43.8348 34.8241 44.0387 33.937 44.2133 33.0444C44.3456 32.3759 44.4595 31.7037 44.5605 31.0296C44.6267 30.5778 44.6855 30.1259 44.7369 29.6722C44.7902 29.1981 44.8325 28.7222 44.8619 28.2444C44.8931 27.7351 44.9133 27.224 44.9243 26.7148C44.9372 26.0314 44.9151 25.35 44.8655 24.6685C44.8325 24.2185 44.7902 23.7703 44.7332 23.3222C44.6561 22.7092 44.5458 22.1037 44.4007 21.5037C44.2849 21.024 44.1526 20.5462 43.9763 20.0833C44.0975 20.0055 44.2372 19.9666 44.3713 19.9166C44.6432 19.8148 44.917 19.7259 45.1963 19.6481C45.4755 19.5722 45.7566 19.5074 46.0433 19.4592C46.0635 19.4555 46.0819 19.45 46.1021 19.45C46.1149 19.45 46.126 19.45 46.137 19.4537C46.3317 19.787 46.5265 20.1203 46.6919 20.4722C47.1108 21.3555 47.4029 22.2814 47.6105 23.2351Z" fill="#FDBF41"/>
<path d="M55.5978 21.6653C55.5978 21.6653 55.5902 21.6596 55.5902 21.6557C55.5902 21.6538 55.5902 21.6519 55.5902 21.6481L55.5997 21.6538L55.5959 21.6634L55.5978 21.6653Z" fill="#3180F4"/>
<path d="M70.8641 57.637C70.8659 57.5889 70.8696 57.5407 70.8696 57.4926C70.8696 56.7 70.8714 55.9056 70.8714 55.113C70.8714 54.7704 70.8659 54.4278 70.8641 54.0852C70.8641 54.0648 70.8733 54.0426 70.8714 54.0222C70.8659 54.0093 70.8586 54 70.8531 53.9889C70.8531 53.9889 70.8531 53.9907 70.8531 53.9926C70.8531 53.9907 70.8531 53.9889 70.8512 53.987C70.8365 53.937 70.82 53.8889 70.8053 53.8389C70.7832 53.7685 70.7575 53.7 70.7318 53.6352C70.7061 53.5685 70.6767 53.5037 70.6454 53.4389C70.6142 53.3759 70.5793 53.313 70.5444 53.2537C70.5021 53.1833 70.458 53.1148 70.4103 53.0481C70.3129 52.9111 70.2045 52.7833 70.0832 52.663C70.0116 52.5907 69.9362 52.5204 69.8572 52.4519C69.7911 52.3852 69.7231 52.3241 69.6533 52.2648C69.3501 52.0056 69.0139 51.7907 68.6868 51.563C68.6005 51.5037 68.5104 51.45 68.4204 51.4C68.3487 51.3611 68.2753 51.3222 68.2018 51.2852C68.1466 51.2574 68.0897 51.2296 68.0346 51.2019C67.9629 51.1648 67.8912 51.1296 67.8196 51.0944C67.5293 50.95 67.2372 50.8074 66.9395 50.6778C66.7429 50.5944 66.5481 50.5111 66.3497 50.4333C65.5597 50.1185 64.7567 49.8463 63.9446 49.6056C63.3346 49.4241 62.7191 49.2593 62.1018 49.1074C61.6939 49.0074 61.286 48.9111 60.8762 48.8222C60.4665 48.7333 60.0568 48.6481 59.6452 48.5667C58.9452 48.4278 58.2433 48.3 57.5415 48.187C57.3063 48.15 57.0729 48.113 56.8378 48.0778C56.2718 47.9926 55.7078 47.9111 55.14 47.8352C54.5741 47.7593 54.0064 47.6907 53.4368 47.6333C53.0822 47.5981 52.7276 47.5611 52.373 47.5259C52.3565 47.5259 52.3381 47.5222 52.3215 47.5204C51.8273 47.4704 51.3331 47.4241 50.837 47.3833C50.3005 47.3389 49.7621 47.3018 49.2256 47.2648C48.8673 47.2407 48.509 47.2185 48.1508 47.2C47.6841 47.1741 47.2174 47.15 46.7525 47.1315C46.6809 47.1278 46.6092 47.1241 46.5376 47.1222C46.1021 47.1037 45.6685 47.0889 45.2331 47.0759C44.7976 47.063 44.364 47.0518 43.9285 47.0444C43.7687 47.0426 43.6088 47.0407 43.449 47.0389C43.3002 47.037 43.1513 47.0352 43.0025 47.0333C42.5909 47.0296 42.1794 47.0278 41.7697 47.0296C41.529 47.0296 41.2883 47.0315 41.0494 47.0333C40.4119 47.0389 39.7743 47.0481 39.1367 47.0648C38.9622 47.0685 38.7876 47.0741 38.6112 47.0778C38.3412 47.0852 38.0692 47.0944 37.7991 47.1056C37.6172 47.113 37.4353 47.1222 37.2534 47.1296C36.5461 47.1593 35.8387 47.1963 35.1313 47.2389C34.3798 47.287 33.6284 47.3389 32.8787 47.4037C32.3826 47.4463 31.8865 47.4926 31.3923 47.5426C30.65 47.6167 29.9096 47.7 29.1691 47.7944C28.4287 47.8889 27.6901 47.9926 26.9533 48.1074C26.7493 48.1389 26.5454 48.1722 26.3414 48.2074C26.2036 48.2296 26.0677 48.2537 25.9299 48.2778C25.8252 48.2963 25.7204 48.313 25.6157 48.3315C25.7645 47.5759 25.9354 46.8259 26.1246 46.0796C26.1963 45.7981 26.2661 45.5185 26.3359 45.237C26.4352 44.9611 26.5068 44.6759 26.5858 44.3944C26.595 44.3611 26.6042 44.3296 26.6134 44.2963C27.0011 42.9796 27.442 41.6815 27.9326 40.4037C28.2431 39.5926 28.5738 38.7889 28.9247 37.9926C29.1599 37.4593 29.4043 36.9278 29.656 36.4037C30.4883 34.6685 31.4125 32.9815 32.4378 31.35C33.395 29.8204 34.4368 28.3537 35.5778 26.9574C35.6017 26.9296 35.62 26.8963 35.6421 26.8667C35.9857 26.4704 36.3237 26.0704 36.6747 25.6796C37.8175 24.4037 39.0485 23.2222 40.4119 22.187C40.7481 21.9315 41.0953 21.6907 41.4389 21.4444C41.4702 21.4222 41.5087 21.4185 41.5455 21.4167C41.562 21.3667 41.608 21.3444 41.6465 21.3204C42.3503 20.8667 43.0815 20.463 43.8514 20.137C43.8789 20.1259 43.9047 20.1111 43.934 20.1019C43.9414 20.1 43.9506 20.0981 43.9598 20.0963C43.969 20.0963 43.9781 20.0926 43.9873 20.0926C44.1086 20.0148 44.2482 19.9759 44.3824 19.9259C44.6543 19.8241 44.9281 19.7352 45.2073 19.6574C45.4866 19.5815 45.7677 19.5167 46.0543 19.4685C46.0746 19.4648 46.0929 19.4593 46.1131 19.4593C46.126 19.4593 46.137 19.4593 46.1481 19.463C46.3079 19.4111 46.4751 19.4056 46.6386 19.3889C46.725 19.3796 46.8113 19.3722 46.8959 19.3667C46.9693 19.363 47.0428 19.3593 47.1163 19.3574C47.2358 19.3556 47.3552 19.3556 47.4746 19.3574C47.5573 19.3593 47.6418 19.363 47.7245 19.3667C47.7888 19.3704 47.8531 19.3741 47.9174 19.3796C47.9284 19.3796 47.9395 19.3815 47.9487 19.3833C47.9689 19.387 47.9872 19.3926 48.0056 19.4C48.024 19.4074 48.0405 19.4167 48.0571 19.4278C48.0809 19.4426 48.1048 19.463 48.1269 19.4833C48.1838 19.5352 48.239 19.5889 48.2922 19.6426C48.4006 19.75 48.5054 19.863 48.6046 19.9778C48.8563 20.2648 49.0823 20.5704 49.2899 20.8963C49.797 21.6944 50.1645 22.5574 50.4419 23.4611C50.5283 23.7407 50.6055 24.0222 50.6753 24.3056C50.791 24.7778 50.8811 25.2574 50.9527 25.7389C50.9729 25.8796 50.9931 26.0204 51.0115 26.163C51.0464 26.4463 51.0777 26.7296 51.1034 27.013C51.1144 27.1556 51.1254 27.2963 51.1365 27.4389C51.1879 28.213 51.21 28.987 51.1897 29.763C51.1677 30.5741 51.1199 31.3852 51.0391 32.1944C50.9582 32.9981 50.848 33.7981 50.7157 34.5926C50.6367 35.0704 50.5485 35.5463 50.453 36.0185C50.5761 36.0278 50.6992 36.037 50.8223 36.0481C51.706 36.1222 52.588 36.2111 53.4699 36.2926C53.4625 36.2833 53.4552 36.2759 53.446 36.2685C54.1773 36.3593 54.9104 36.4481 55.6416 36.5389C55.638 36.5463 55.6325 36.5537 55.6251 36.5611C55.6692 36.5667 55.7133 36.5741 55.7574 36.5796C55.9044 35.85 56.0367 35.1204 56.1487 34.3852C56.248 33.7259 56.3362 33.0648 56.4041 32.4019C56.4684 31.7815 56.5254 31.1611 56.5548 30.537C56.5695 30.237 56.586 29.9352 56.6044 29.6352C56.6062 29.5963 56.586 29.5444 56.6467 29.5278C56.6467 28.9685 56.643 28.4074 56.6412 27.8481C56.6118 27.8352 56.6099 27.8093 56.6062 27.7815C56.5989 27.6685 56.586 27.5574 56.5824 27.4444C56.5603 26.6315 56.4868 25.8241 56.3784 25.0204C56.259 24.1296 56.0826 23.2519 55.8382 22.387C55.7776 22.1704 55.7262 21.9519 55.6306 21.7463L55.6104 21.6722C55.6104 21.6722 55.6031 21.6667 55.6031 21.663C55.6031 21.6611 55.6031 21.6593 55.6031 21.6556C55.5975 21.6296 55.5939 21.6037 55.5847 21.5778C55.2301 20.5463 54.7671 19.5685 54.1295 18.6796C53.5158 17.8222 52.7754 17.1056 51.8622 16.5722C51.5205 16.3722 51.1493 16.2315 50.7984 16.0519C50.7672 16.0352 50.7267 16.0389 50.69 16.0315C50.6587 15.9907 50.6091 15.9796 50.5669 15.9593C49.7382 15.5889 48.9114 15.2185 48.0809 14.8519C47.9744 14.8037 47.877 14.7333 47.7576 14.7185C47.7374 14.7111 47.7172 14.7056 47.6969 14.6981C47.5555 14.6519 47.4103 14.6185 47.2743 14.5537C47.2615 14.55 47.2505 14.5463 47.2376 14.5407C47.2321 14.5389 47.2247 14.537 47.2192 14.5352C47.2192 14.5352 47.2174 14.5352 47.2156 14.5352C47.2009 14.5444 47.1917 14.537 47.1825 14.5241C46.9161 14.4556 46.6497 14.4037 46.3796 14.3667C46.1848 14.3389 45.99 14.3185 45.7934 14.3074C45.7273 14.3037 45.663 14.3019 45.5969 14.3C45.4003 14.2944 45.2055 14.2963 45.0107 14.3056C44.7517 14.3167 44.4944 14.3407 44.2372 14.3759C43.7889 14.4389 43.3443 14.5333 42.9033 14.6556C42.8408 14.6741 42.7765 14.6907 42.714 14.7111C41.8854 14.9593 41.0953 15.2944 40.3328 15.6907C40.0793 15.8222 39.8276 15.9611 39.5777 16.1074C39.3499 16.2389 39.1257 16.3741 38.9034 16.5167C38.8299 16.563 38.7564 16.6111 38.6829 16.6593C38.6094 16.7074 38.5359 16.7556 38.4643 16.8056C38.3191 16.9037 38.1758 17.0037 38.0343 17.1074C37.9645 17.1593 37.8928 17.2111 37.823 17.263C37.823 17.2685 37.823 17.2722 37.823 17.2778C37.823 17.2815 37.8193 17.2852 37.8175 17.2889C37.812 17.2944 37.8047 17.2963 37.7936 17.2963H37.7918C37.7918 17.2963 37.7918 17.3037 37.7918 17.3056C37.7918 17.313 37.7881 17.3167 37.7844 17.3185C37.7808 17.3204 37.7771 17.3204 37.7697 17.3185C37.7679 17.3185 37.7642 17.3185 37.7624 17.3148C37.45 17.5352 37.1469 17.7648 36.8511 18.0037C36.7188 18.1093 36.5883 18.2185 36.4597 18.3278C36.4395 18.3444 36.4193 18.363 36.3991 18.3796C36.2668 18.4926 36.1345 18.6074 36.004 18.7241C36.004 18.7278 36.004 18.7296 36.004 18.7333C36.004 18.7426 36.0004 18.7481 35.9949 18.7537C35.9949 18.7537 35.9912 18.7556 35.9893 18.7574C35.9857 18.7593 35.9802 18.7611 35.9746 18.7611C35.971 18.7685 35.9655 18.7759 35.96 18.7815C35.9526 18.7889 35.9471 18.7963 35.9379 18.8019C35.9269 18.8093 35.914 18.8167 35.8993 18.8185C35.8993 18.8352 35.8956 18.8444 35.8883 18.8481C35.8773 18.8556 35.8571 18.85 35.8424 18.8519C35.7928 18.9037 35.7413 18.9556 35.6917 19.0056C35.688 19.0093 35.6862 19.013 35.6825 19.0148C35.6825 19.0167 35.6825 19.0204 35.6825 19.0222C35.6825 19.0296 35.6788 19.0333 35.6752 19.0389H35.6733C35.6733 19.0389 35.6623 19.0444 35.6513 19.0444C35.6072 19.0815 35.5594 19.1148 35.5172 19.1537C35.5135 19.1574 35.5098 19.1593 35.5061 19.163C35.3444 19.3167 35.1809 19.4704 35.0211 19.6278C35.01 19.6389 34.999 19.6481 34.9898 19.6574C34.9402 19.7074 34.8888 19.7537 34.8373 19.8019C34.7087 19.9222 34.5764 20.0389 34.4533 20.1648C34.3872 20.2333 34.3192 20.3019 34.2531 20.3685C33.8709 20.7593 33.4924 21.1537 33.1268 21.5611C32.6601 22.0815 32.2062 22.6111 31.7653 23.1519C31.7028 23.2296 31.6385 23.3056 31.576 23.3833C31.5668 23.3944 31.5558 23.4074 31.5485 23.4204C31.5356 23.4389 31.5228 23.4574 31.5099 23.4778C31.4934 23.5037 31.4768 23.5296 31.4603 23.5537C31.4474 23.5722 31.4346 23.5889 31.4199 23.6074C31.4143 23.613 31.4107 23.6185 31.407 23.6222C31.3868 23.6444 31.3666 23.6648 31.3427 23.6815C31.3427 23.687 31.3409 23.6889 31.339 23.6926C31.339 23.6963 31.339 23.7 31.3353 23.7037C31.3353 23.7056 31.3317 23.7074 31.3298 23.7093C31.3262 23.7111 31.3206 23.713 31.317 23.7148C31.3059 23.7667 31.2637 23.7926 31.2288 23.8259C31.2269 23.8259 31.2251 23.8296 31.2233 23.8315C31.2122 23.8407 31.2049 23.8519 31.1975 23.863C31.1939 23.8685 31.1902 23.8741 31.1884 23.8815C31.1865 23.8889 31.1828 23.8944 31.181 23.9019C31.181 23.9056 31.181 23.9074 31.181 23.9111C31.181 23.9204 31.1773 23.9259 31.17 23.9315C31.17 23.9315 31.1663 23.9315 31.1663 23.9333C31.1645 23.9333 31.1608 23.9333 31.159 23.9333C31.1571 23.9333 31.1553 23.9333 31.1516 23.9333C31.0708 24.0352 30.9881 24.137 30.9072 24.2389C30.9036 24.2444 30.8981 24.25 30.8944 24.2556C30.8962 24.2685 30.8962 24.2796 30.8944 24.2907C30.8944 24.3 30.8889 24.3056 30.8852 24.313C30.8852 24.3148 30.8815 24.3185 30.8815 24.3204C30.876 24.3259 30.8687 24.3333 30.8613 24.337C30.8521 24.3426 30.8411 24.3463 30.8301 24.35C30.8172 24.3648 30.8044 24.3778 30.7915 24.3926C30.786 24.3981 30.7823 24.4037 30.7786 24.4074C30.7676 24.4185 30.7584 24.4315 30.7492 24.4426C30.5416 24.7241 30.334 25.0074 30.1264 25.2889C30.1264 25.2981 30.1227 25.3037 30.1172 25.3093C30.1172 25.3093 30.1153 25.3111 30.1135 25.313C30.1098 25.3167 30.1043 25.3185 30.0988 25.3185C29.9555 25.5222 29.8085 25.7241 29.667 25.9296C29.6395 25.9704 29.6119 26.0111 29.5843 26.0519C29.3731 26.3648 29.1746 26.687 28.9615 26.9981C28.8549 27.1537 28.7539 27.313 28.6528 27.4704C28.5499 27.6278 28.447 27.7852 28.335 27.9389C28.1567 28.1852 28.0042 28.4537 27.8481 28.7148C27.7801 28.8278 27.7121 28.9407 27.646 29.0537C26.8908 30.3167 26.1577 31.5926 25.533 32.9278C25.4963 33.0056 25.454 33.0778 25.4117 33.1519C25.3695 33.2241 25.3254 33.2981 25.2887 33.3722C25.0755 33.8037 24.8679 34.237 24.6658 34.6741C24.5905 34.837 24.517 35 24.4416 35.1648C24.3443 35.3778 24.2487 35.5926 24.155 35.8074C24.0356 36.0796 23.9162 36.3537 23.7986 36.6296C23.749 36.7444 23.7012 36.8611 23.6534 36.9778C23.5928 37.1222 23.5321 37.2667 23.4733 37.413C23.2639 37.9259 23.0618 38.4444 22.8652 38.963C22.8082 39.1148 22.7513 39.2667 22.6962 39.4204C22.562 39.7907 22.4316 40.1611 22.3011 40.5333C22.2699 40.6222 22.2386 40.7111 22.2074 40.8C22.1835 40.8685 22.1596 40.9389 22.1376 41.0093C22.077 41.1852 22.02 41.363 21.9649 41.5407C21.8969 41.7574 21.8308 41.9741 21.7646 42.1907C21.7168 42.3463 21.6691 42.5 21.6195 42.6556C21.5074 43.0019 21.3769 43.3444 21.3328 43.7093C21.331 43.7278 21.309 43.7444 21.2979 43.7611C21.2428 43.913 21.2097 44.0685 21.173 44.2241C21.1546 44.2981 21.1326 44.3722 21.1105 44.4463C21.0885 44.5204 21.0664 44.5944 21.0462 44.6685C20.9617 44.987 20.879 45.3074 20.8018 45.6278C20.7302 45.9167 20.6622 46.2093 20.5961 46.5C20.5226 46.8278 20.4527 47.1556 20.3848 47.4833C20.326 47.7704 20.269 48.0593 20.2157 48.3481C20.1735 48.5778 20.1312 48.8056 20.0926 49.0352C20.0577 49.237 20.0265 49.4389 19.9934 49.6407C19.953 49.8981 19.9144 50.1537 19.8795 50.4111C19.8483 50.6426 19.8189 50.8722 19.7895 51.1037C19.7123 51.7389 19.6498 52.3741 19.6002 53.013C19.5873 53.1963 19.5745 53.3778 19.5653 53.5611C19.5543 53.7444 19.5451 53.9259 19.5377 54.1093C19.523 54.4741 19.512 54.8407 19.501 55.2056C19.4992 55.2889 19.4992 55.3722 19.4973 55.4556C19.4973 55.4815 19.4973 55.5056 19.4973 55.5315C19.4955 56 19.5139 56.4667 19.5286 56.9315C19.5286 56.9518 19.5322 56.9741 19.5322 56.9944C19.5359 57.0778 19.5396 57.1611 19.5451 57.2444C19.5616 57.5815 19.5892 57.9185 19.6241 58.2556C19.648 58.4833 19.6737 58.713 19.7031 58.9407C19.7068 58.9741 19.7123 59.0056 19.716 59.0389C19.7785 59.5018 19.8501 59.963 19.9401 60.4204C20.1073 61.2759 20.3297 62.1167 20.6347 62.9333C20.6402 62.9463 20.6457 62.9611 20.6512 62.9759C20.879 63.5796 21.1436 64.1667 21.4688 64.7259C22.0035 65.6463 22.6557 66.4611 23.488 67.1111C23.5873 67.1889 23.6883 67.263 23.7912 67.337C23.8904 67.4056 23.997 67.4685 24.0999 67.5315C24.1183 67.5444 24.1403 67.5537 24.1605 67.563C24.1752 67.5704 24.1899 67.5759 24.2046 67.5833C24.2303 67.5963 24.2542 67.613 24.2708 67.637C24.2763 67.6444 24.2818 67.6556 24.2873 67.6667V67.663C24.3148 67.6593 24.3387 67.6648 24.3516 67.6944H24.3534C24.3792 67.6944 24.4031 67.7019 24.4159 67.7259C24.4233 67.7259 24.4288 67.7259 24.4343 67.7278H24.4361C24.4527 67.7315 24.4674 67.7389 24.4784 67.7556C24.4784 67.7556 24.4784 67.7556 24.4784 67.7574C24.4784 67.7574 24.482 67.7574 24.4839 67.7574C24.4876 67.7574 24.4912 67.7574 24.4949 67.7574C24.4986 67.7574 24.5004 67.7593 24.5059 67.7593C24.5078 67.7593 24.5115 67.7593 24.5133 67.7611C24.517 67.7611 24.5206 67.7648 24.5243 67.7667C24.5243 67.7667 24.528 67.7667 24.5298 67.7685C24.5335 67.7722 24.5372 67.7759 24.5408 67.7796C24.5408 67.7796 24.5408 67.7796 24.5427 67.7796C24.5776 67.8167 24.6254 67.8259 24.6695 67.8463C25.5863 68.2556 26.505 68.6648 27.4218 69.0741C27.8757 69.2759 28.3258 69.4889 28.8053 69.6222C29.2849 69.7556 29.7718 69.8463 30.2697 69.8667C30.3524 69.8667 30.435 69.8667 30.5177 69.8667C30.7658 69.8667 31.0138 69.8667 31.2618 69.8667C31.5025 69.8593 31.7414 69.8278 31.9784 69.7907C32.943 69.6444 33.869 69.3574 34.7638 68.9704C36.4028 68.2611 37.8818 67.2926 39.269 66.1722C39.574 65.9259 39.8717 65.6722 40.1675 65.4148C41.1982 65.4333 42.2271 65.4389 43.2579 65.4278C44.239 65.4167 45.222 65.4 46.2032 65.3611C46.2509 65.3333 46.3024 65.3333 46.3538 65.3537C46.3685 65.3537 46.3832 65.3537 46.3979 65.3537C46.4567 65.3259 46.5174 65.3278 46.578 65.3463H46.6221C46.657 65.3241 46.6937 65.3204 46.7305 65.3278C46.7305 65.3278 46.7323 65.3278 46.7342 65.3278H46.736C46.7489 65.3315 46.7599 65.3352 46.7709 65.3389H46.815C46.8389 65.3241 46.8628 65.3185 46.8867 65.3167C46.9124 65.3167 46.9381 65.3222 46.9657 65.3296C46.9804 65.3296 46.9951 65.3296 47.0098 65.3296C47.0263 65.3204 47.0428 65.3148 47.0594 65.3111C47.0925 65.3037 47.1274 65.3074 47.1623 65.3204C47.177 65.3204 47.1898 65.3204 47.2045 65.3204C47.2045 65.3204 47.2082 65.3204 47.21 65.3185C47.2578 65.2944 47.3074 65.2944 47.3552 65.313C47.3699 65.313 47.3846 65.313 47.3975 65.313C47.4471 65.2815 47.4967 65.2852 47.55 65.3037C47.5646 65.3037 47.5794 65.3037 47.5922 65.3037C47.6418 65.2741 47.6933 65.2778 47.7447 65.2944C47.7594 65.2944 47.7741 65.2944 47.787 65.2944C47.798 65.287 47.8072 65.2833 47.8164 65.2796C47.8329 65.2741 47.8476 65.2741 47.8641 65.2741C47.8788 65.2741 47.8954 65.2778 47.9101 65.2852C48.1342 65.2741 48.3565 65.2667 48.5807 65.2537C50.2968 65.1518 52.0074 65.0148 53.7161 64.8241C56.3104 64.5333 58.8882 64.1426 61.4348 63.5574C63.1693 63.1593 64.8798 62.6815 66.5334 62.0093C67.4209 61.6481 68.2826 61.2352 69.08 60.6944C69.5596 60.3685 70.0042 60.0019 70.3606 59.5333C70.5848 59.2352 70.7667 58.9148 70.8365 58.5407C70.8641 58.5111 70.8751 58.4759 70.8769 58.4389C70.8935 58.1704 70.9027 57.9037 70.8788 57.6352L70.8641 57.637ZM47.8329 51.9722C47.3552 51.9426 46.8793 51.9167 46.4016 51.8963C46.8793 51.9185 47.3552 51.9444 47.8329 51.9722ZM37.2369 60.7148C37.1597 60.7833 37.0826 60.8537 37.0054 60.9222C36.4634 61.4019 35.9048 61.8556 35.3224 62.2796C34.74 62.7018 34.1355 63.0944 33.5034 63.4444C33.4134 63.4944 33.3215 63.5444 33.2297 63.5926C33.0184 63.7037 32.8052 63.8093 32.5903 63.9111C32.3753 64.0111 32.1566 64.1037 31.9362 64.1907C31.4952 64.3648 31.0432 64.5093 30.5765 64.6204C30.3744 64.6685 30.1723 64.7093 29.9702 64.7407C29.8985 64.7519 29.8269 64.763 29.7571 64.7741C29.4815 64.8111 29.2059 64.8333 28.9284 64.8407C28.8365 64.8426 28.7428 64.8444 28.651 64.8426C28.5573 64.8426 28.4654 64.8389 28.3717 64.8352C28.3313 64.8333 28.2927 64.8278 28.2523 64.8241C28.2137 64.8204 28.1733 64.8148 28.1329 64.8111C28.0814 64.8074 28.0428 64.7852 28.0043 64.7519C27.894 64.6519 27.7893 64.5481 27.6864 64.4407C27.5339 64.2815 27.3887 64.1148 27.2528 63.9426C27.1627 63.8278 27.0745 63.7093 26.99 63.587C26.9478 63.5259 26.9074 63.4648 26.8669 63.4037C26.8633 63.3981 26.8614 63.3926 26.8596 63.387C26.8577 63.3778 26.8541 63.3667 26.8522 63.3574C26.8357 63.3407 26.8136 63.3241 26.8008 63.3056L26.7971 63.3018C26.6079 63 26.437 62.6889 26.2827 62.3685C26.2055 62.2074 26.132 62.0481 26.064 61.8833C25.9942 61.7204 25.9299 61.5537 25.8692 61.3852C25.8619 61.3648 25.8638 61.3444 25.8601 61.3222C25.7535 61.1222 25.7002 60.9037 25.6341 60.6907C25.4871 60.2148 25.3713 59.7315 25.2758 59.2426C25.2592 59.1556 25.2427 59.0704 25.2262 58.9833C25.2188 58.9481 25.2152 58.9148 25.2078 58.8796C25.2005 58.837 25.1913 58.7944 25.1839 58.7519C25.1839 58.7407 25.1839 58.7315 25.1802 58.7204C25.1766 58.6833 25.1747 58.6444 25.1711 58.6074C25.1086 58.3352 25.081 58.0574 25.0498 57.7796C24.9432 56.8944 24.9028 56.0056 24.901 55.1167C24.901 54.7815 24.9046 54.4444 24.9138 54.1074C24.9193 53.9074 24.9285 53.7093 24.9395 53.5111C25.6653 53.337 26.3966 53.1833 27.1297 53.0426C28.3827 52.8037 29.6431 52.6093 30.9072 52.4519C30.9275 52.45 30.9477 52.4463 30.9679 52.4444C30.9918 52.4407 31.0156 52.4389 31.0395 52.4407C31.0542 52.4407 31.0689 52.4444 31.0836 52.4481C31.2802 52.4056 31.4805 52.3833 31.6808 52.363C31.7726 52.3537 31.8645 52.3444 31.9545 52.3352C33.3436 52.1796 34.7344 52.0611 36.1271 51.9759C36.5185 51.9519 36.9099 51.9296 37.2994 51.9111C38.2989 51.863 39.2984 51.8315 40.2979 51.813C40.8455 51.8018 41.393 51.7963 41.9405 51.7963C42.7214 51.7963 43.5023 51.8056 44.2813 51.8241C44.1123 52.1074 43.9414 52.3907 43.7668 52.6704C43.6401 52.8759 43.5115 53.0796 43.381 53.2815C43.1477 53.6426 42.9106 54 42.6681 54.3556C42.2198 55.0111 41.755 55.6537 41.2717 56.2833C41.1192 56.4833 40.9649 56.6815 40.8069 56.8778C40.7793 56.913 40.7518 56.9481 40.7242 56.9815C40.4964 57.2667 40.2649 57.5463 40.0278 57.8222C39.6328 58.2833 39.2268 58.7333 38.8097 59.1741C38.6829 59.3074 38.5561 59.4407 38.4275 59.5722C38.0968 59.9093 37.755 60.2389 37.4059 60.5593C37.349 60.6111 37.292 60.6648 37.2351 60.7167L37.2369 60.7148ZM39.0963 60.6259C39.5005 60.6389 39.9066 60.65 40.3108 60.6574C39.9047 60.65 39.5005 60.6389 39.0963 60.6259ZM65.815 56.2889C65.804 56.3037 65.7856 56.3185 65.7562 56.3407C65.7177 56.3704 65.6791 56.4019 65.6387 56.4296C65.6001 56.4593 65.5597 56.487 65.5192 56.5167C65.4439 56.5704 65.3667 56.6222 65.2877 56.6722C65.2785 56.6778 65.2694 56.6833 65.2602 56.6907C65.1959 56.7315 65.1316 56.7722 65.0654 56.8111C64.968 56.8704 64.8725 56.9259 64.7733 56.9815C64.1008 57.3593 63.3934 57.663 62.6713 57.9315C61.9897 58.1833 61.2988 58.4037 60.6025 58.6C59.6048 58.8815 58.5943 59.1148 57.5745 59.3185C56.5842 59.5185 55.5902 59.687 54.5925 59.8333C53.5948 59.9796 52.5935 60.1018 51.5903 60.2074C51.2614 60.2426 50.9325 60.2741 50.6036 60.3056C49.944 60.3667 49.2844 60.4185 48.6248 60.463C48.2941 60.4852 47.9634 60.5056 47.6345 60.5241C46.894 60.5667 46.1536 60.5981 45.4131 60.6222C45.279 60.6259 45.1449 60.6315 45.0089 60.6352C44.8858 60.6389 44.7627 60.6426 44.6378 60.6463C44.9409 60.2685 45.2441 59.8926 45.5215 59.4944C45.5619 59.4444 45.6024 59.3944 45.6409 59.3426C46.2344 58.537 46.804 57.7167 47.3515 56.8815C47.3809 56.8352 47.5334 56.6018 47.5793 56.5296C47.9266 55.9907 48.2628 55.4463 48.5917 54.8944C49.1282 53.9907 49.6409 53.0741 50.1278 52.1444C51.0575 52.2259 51.9853 52.3204 52.9132 52.4352C52.9812 52.4426 53.0491 52.4574 53.119 52.4685C53.5342 52.4981 53.9458 52.5611 54.3555 52.6222C54.8828 52.7 55.4101 52.7852 55.9356 52.8741C56.6448 52.9944 57.354 53.1278 58.0578 53.2815C58.4381 53.3648 58.8166 53.45 59.1969 53.5333C59.2006 53.5333 59.2061 53.5333 59.2098 53.5352C59.2134 53.5352 59.2171 53.5352 59.2226 53.537C59.2465 53.5407 59.2741 53.5407 59.2998 53.5444C59.3329 53.5481 59.3659 53.5574 59.3917 53.5852C60.2038 53.7944 61.0141 54.0148 61.8096 54.2796C61.8831 54.3037 61.9676 54.3111 62.0246 54.3741C62.2322 54.4111 62.4215 54.4981 62.6162 54.5704C62.7871 54.6333 62.958 54.7 63.127 54.7685C63.6102 54.9611 64.0843 55.1741 64.5436 55.4204C64.7255 55.5167 64.9037 55.6185 65.0801 55.7259C65.3134 55.8685 65.5413 56.0185 65.7544 56.1907C65.8169 56.2407 65.8353 56.2611 65.8114 56.2907L65.815 56.2889Z" fill="#007FFF"/>
<path d="M70.8805 42.9426C70.8585 42.5 70.6913 42.1092 70.4359 41.7537C70.0758 41.2481 69.6109 40.8537 69.1075 40.5055C68.2495 39.9129 67.3106 39.4777 66.3496 39.0889C65.815 38.8722 65.2729 38.6796 64.7254 38.5018C63.8913 38.2314 63.0442 38 62.1935 37.7889C61.1297 37.5259 60.0604 37.2981 58.9837 37.1C58.3278 36.9796 57.67 36.8629 57.0104 36.7666C56.9902 36.7666 56.97 36.7648 56.9497 36.7629C56.9387 36.7629 56.9259 36.7611 56.9148 36.7592C56.891 36.7574 56.8652 36.7537 56.8413 36.7518C56.7862 36.7444 56.7293 36.7333 56.676 36.7203C56.4794 36.6889 56.2846 36.6574 56.088 36.624C55.9741 36.6074 55.8602 36.5907 55.7463 36.5759C55.7022 36.5685 55.6581 36.5629 55.614 36.5574C55.1602 36.5018 54.7045 36.4481 54.2507 36.3889C54.1184 36.3722 53.9861 36.3611 53.8538 36.3463C53.7215 36.3333 53.5892 36.3166 53.4588 36.2907C52.5769 36.2074 51.6949 36.1185 50.8112 36.0463C50.6881 36.037 50.565 36.0259 50.4419 36.0166C49.6812 35.9555 48.9205 35.9037 48.158 35.8666C47.7924 35.85 47.4249 35.8296 47.0575 35.8111C46.78 35.7981 46.5007 35.7833 46.2233 35.7722C45.5876 35.7481 44.9537 35.7333 44.318 35.7203C44.081 35.7148 43.8439 35.7111 43.6088 35.7074C43.6088 35.7074 44.0442 33.9407 44.2188 33.0481C44.351 32.3796 44.465 31.7074 44.566 31.0333C44.6322 30.5814 44.691 30.1296 44.7424 29.6759C44.7957 29.2018 44.8379 28.7259 44.8673 28.2481C44.8986 27.7389 44.9188 27.2278 44.9298 26.7185C44.9427 26.0352 44.9206 25.3537 44.871 24.6722C44.8379 24.2222 44.7957 23.7741 44.7387 23.3259C44.6616 22.713 44.5513 22.1074 44.4062 21.5074C44.2904 21.0278 44.1581 20.55 43.9817 20.087C43.9726 20.087 43.9634 20.087 43.9542 20.0907C43.945 20.0907 43.9358 20.0944 43.9285 20.0963C43.8991 20.1056 43.8733 20.1204 43.8458 20.1315C43.0741 20.4574 42.3447 20.863 41.641 21.3148C41.6005 21.3407 41.5564 21.3611 41.5399 21.4111C41.7089 22.487 41.7879 23.5685 41.7971 24.6574C41.8118 26.2148 41.6979 27.763 41.4866 29.3055C41.3268 30.4666 41.1155 31.6185 40.8582 32.7629C40.6359 33.7555 40.3787 34.7389 40.0921 35.7129C39.3994 35.7203 38.7049 35.7426 38.0122 35.7648C37.0898 35.7963 36.1675 35.8389 35.247 35.8981C34.4349 35.95 33.6209 36.0037 32.8088 36.074C31.7542 36.1666 30.7014 36.2703 29.6522 36.4C29.4005 36.9259 29.1562 37.4555 28.921 37.9889C28.5701 38.7851 28.2393 39.5889 27.9288 40.4C27.9435 40.3981 27.9564 40.3963 27.9711 40.3944C29.1966 40.2203 30.4276 40.0759 31.6586 39.9518C32.0114 39.9166 32.3642 39.874 32.7188 39.8426C33.5934 39.7685 34.4698 39.7185 35.3462 39.6629C36.4854 39.5889 37.6263 39.5426 38.7692 39.5092C38.7839 39.5092 38.7967 39.5092 38.8114 39.5092C39.7834 39.4814 40.7554 39.4685 41.7291 39.4666C41.9735 39.4666 42.2179 39.4666 42.4641 39.4685C43.019 39.4703 43.5757 39.4759 44.1306 39.4851C44.7608 39.4963 45.3891 39.5203 46.0194 39.5426C46.0249 39.5426 46.0304 39.5426 46.0359 39.5426C46.6385 39.5648 47.2412 39.587 47.8438 39.6166C48.3069 39.6389 48.7699 39.6722 49.2329 39.7074C49.3321 39.7148 49.4313 39.7222 49.5305 39.7296C50.225 39.7796 50.9177 39.8314 51.6123 39.8851C51.7831 39.8981 51.9522 39.9222 52.123 39.9389C53.0417 40.0203 53.9585 40.124 54.8735 40.2426C55.2833 40.2944 55.6912 40.35 56.1009 40.4055C56.9626 40.5259 57.8225 40.6703 58.6787 40.8203C59.5037 40.9666 60.3268 41.1314 61.1426 41.3185C61.861 41.4833 62.5757 41.6629 63.2849 41.8574C64.2165 42.1129 65.1315 42.4111 66.0354 42.7481C66.8163 43.0407 67.5715 43.3851 68.3027 43.787C68.8062 44.0648 69.2839 44.3759 69.7193 44.7537C70.1144 45.0963 70.4598 45.4814 70.6894 45.9629C70.7813 46.1537 70.8236 46.3592 70.8824 46.5592C70.8842 46.1611 70.8879 45.7629 70.8897 45.3648C70.8897 44.774 70.8897 44.1814 70.8897 43.5907C70.8897 43.3759 70.8971 43.1592 70.886 42.9463L70.8805 42.9426Z" fill="#FF1100"/>
<path d="M47.6877 14.6926C47.5462 14.6463 47.4011 14.6129 47.2651 14.5481C47.2651 14.5296 47.267 14.5111 47.2688 14.4926C47.4378 14.5444 47.5977 14.6166 47.7465 14.7129C47.7263 14.7055 47.7061 14.7 47.6859 14.6926H47.6877Z" fill="#404A5A"/>
<path d="M47.1934 14.5185C47.1934 14.5185 47.2063 14.5241 47.21 14.5296C47.21 14.5296 47.2081 14.5296 47.2063 14.5296C47.1916 14.5389 47.1824 14.5315 47.1732 14.5185C47.1806 14.5166 47.1861 14.5148 47.1934 14.5185Z" fill="#404A5A"/>
<path d="M30.1126 25.2908C30.1126 25.2908 30.1088 25.3061 30.1031 25.3118C30.1031 25.3118 30.1012 25.3137 30.0993 25.3156C30.0955 25.3195 30.0898 25.3214 30.0841 25.3214C30.0841 25.3195 30.0841 25.3176 30.0841 25.3156V25.3099C30.0841 25.3099 30.0955 25.2984 30.1012 25.2946C30.105 25.2946 30.1088 25.2908 30.1126 25.2908Z" fill="#404A5A"/>
<path d="M30.8686 24.3185C30.8686 24.3185 30.8557 24.3315 30.8484 24.3352C30.8392 24.3407 30.83 24.3444 30.8171 24.3481C30.8171 24.3407 30.8171 24.3352 30.8171 24.3296C30.8171 24.3241 30.8171 24.3185 30.819 24.3148C30.8226 24.3055 30.8263 24.2963 30.8318 24.2889C30.8373 24.2815 30.8465 24.2759 30.8539 24.2685C30.8631 24.2629 30.8723 24.2574 30.8814 24.2518C30.8833 24.2648 30.8833 24.2759 30.8814 24.287C30.8814 24.2963 30.8759 24.3018 30.8723 24.3092C30.8723 24.3111 30.8686 24.3148 30.8686 24.3166V24.3185Z" fill="#404A5A"/>
<path d="M31.157 23.9277C31.157 23.9277 31.1534 23.9277 31.1534 23.9296C31.1515 23.9296 31.1479 23.9296 31.146 23.9296C31.1442 23.9296 31.1423 23.9296 31.1387 23.9296C31.1479 23.9185 31.157 23.9055 31.1662 23.8944C31.1662 23.8981 31.1662 23.9 31.1662 23.9037C31.1662 23.9129 31.1626 23.9185 31.1552 23.924L31.157 23.9277Z" fill="#215CB5"/>
<path d="M31.3059 23.7C31.3059 23.6907 31.3133 23.6833 31.3206 23.6796C31.3243 23.6796 31.328 23.6778 31.3316 23.6759C31.3316 23.6815 31.3298 23.6833 31.328 23.687C31.328 23.6907 31.328 23.6944 31.3243 23.6981C31.3243 23.7 31.3206 23.7018 31.3188 23.7037C31.3151 23.7055 31.3096 23.7074 31.3059 23.7092C31.3059 23.7055 31.3059 23.7037 31.3059 23.7Z" fill="#215CB5"/>
<path d="M44.3492 13.2092C44.3842 13.1944 44.4062 13.2092 44.4264 13.237C44.3952 13.2444 44.3621 13.2518 44.3492 13.2111V13.2092Z" fill="#FEC35E"/>
<path d="M44.3474 13.2092H44.3502L44.3474 13.212V13.2092Z" fill="#FDBF41"/>
<path d="M35.6421 19.0371C35.6531 19.0278 35.6623 19.0186 35.6733 19.0074C35.6733 19.0093 35.6733 19.013 35.6733 19.0149C35.6733 19.0223 35.6697 19.026 35.666 19.0315H35.6641C35.6641 19.0315 35.6531 19.0371 35.6421 19.0371Z" fill="#404A5A"/>
<path d="M35.857 18.8185C35.8662 18.8129 35.8772 18.8092 35.8901 18.8092C35.8901 18.8259 35.8864 18.8351 35.8791 18.8388C35.868 18.8462 35.8478 18.8407 35.8331 18.8425C35.8405 18.8314 35.8478 18.824 35.857 18.8185Z" fill="#404A5A"/>
<path d="M35.9948 18.7259C35.9948 18.7259 35.9912 18.7407 35.9857 18.7463C35.9857 18.7463 35.982 18.7481 35.9802 18.75C35.9765 18.7518 35.971 18.7537 35.9655 18.7537C35.9746 18.7426 35.9857 18.7296 35.9948 18.7185C35.9948 18.7222 35.9948 18.7241 35.9948 18.7278V18.7259Z" fill="#404A5A"/>
<path d="M37.8157 17.2704C37.8157 17.2704 37.812 17.2778 37.8101 17.2815C37.8046 17.2871 37.7973 17.2889 37.7863 17.2889C37.7954 17.2778 37.8065 17.2686 37.8175 17.2574C37.8175 17.263 37.8175 17.2667 37.8175 17.2723L37.8157 17.2704Z" fill="#404A5A"/>
<path d="M37.7826 17.2908C37.7826 17.2908 37.7826 17.2963 37.7826 17.2982C37.7826 17.3056 37.7789 17.3093 37.7752 17.3111C37.7715 17.313 37.7679 17.313 37.7605 17.3111C37.7587 17.3111 37.755 17.3111 37.7532 17.3074C37.7642 17.3019 37.7734 17.2963 37.7844 17.2908H37.7826Z" fill="#404A5A"/>
<path d="M47.2559 14.4833C46.3483 14.0759 45.4388 13.6704 44.5311 13.2611C44.4944 13.2444 44.4576 13.2574 44.4246 13.237C44.3933 13.2444 44.3603 13.2519 44.3474 13.2111C44.3107 13.2278 44.2758 13.2111 44.2408 13.1981C43.4453 12.9574 42.6313 12.8833 41.8027 12.9259C40.7058 12.9833 39.6548 13.2537 38.6333 13.6519C38.3117 13.7759 37.9957 13.913 37.687 14.0593C37.6098 14.0963 37.5327 14.1333 37.4555 14.1722C37.3655 14.2167 37.2755 14.2611 37.1873 14.3093C37.0678 14.3704 36.9502 14.4333 36.8308 14.4981C36.2116 14.8389 35.6108 15.2185 35.0284 15.6259C34.9071 15.7111 34.7858 15.7963 34.6664 15.8833L34.5948 15.9352C34.3081 16.1463 34.027 16.3611 33.7514 16.5833C33.0606 17.137 32.3973 17.7259 31.7561 18.3426C29.9757 20.0556 28.3937 21.9463 26.9459 23.95C26.9092 24.0019 26.8724 24.0556 26.8357 24.1074C26.8357 24.1074 26.832 24.1204 26.8283 24.1241C26.8246 24.1278 26.8191 24.1296 26.8118 24.1315C26.6813 24.3185 26.5527 24.5037 26.4223 24.6907C26.2055 25.0019 25.9923 25.313 25.7829 25.6296C25.5844 25.9296 25.3878 26.2333 25.1949 26.537C25.0406 26.7778 24.8899 27.0204 24.7411 27.2648C24.6088 27.4833 24.4765 27.7 24.3461 27.9185C24.1623 28.2278 23.9804 28.5389 23.8004 28.8537C23.7103 29.0111 23.6221 29.1666 23.534 29.3259C23.5248 29.3444 23.5119 29.3611 23.5009 29.3796C23.5009 29.4 23.4935 29.4166 23.4862 29.4333C23.4788 29.4444 23.4715 29.4574 23.466 29.4685C23.3833 29.6166 23.3024 29.7666 23.2216 29.9166C22.9166 30.4777 22.619 31.0444 22.3323 31.6148C22.2111 31.8555 22.0916 32.0981 21.974 32.3407C21.3383 33.6518 20.7485 34.9833 20.2065 36.3333C19.918 37.05 19.6443 37.7722 19.3834 38.4981C19.2456 38.8833 19.1096 39.2703 18.9792 39.6592C18.7385 40.3777 18.518 41.1018 18.303 41.8277C18.2148 42.1259 18.1285 42.4259 18.0458 42.7259C18.0439 42.7333 18.0421 42.7407 18.0403 42.7481C17.9098 43.2185 17.7886 43.6907 17.6746 44.1648C17.5699 44.5907 17.4689 45.0185 17.3752 45.4481C17.2943 45.8148 17.2208 46.1833 17.1473 46.5518C17.1308 46.6389 17.1143 46.7259 17.0977 46.8148C17.0904 46.85 17.0849 46.8851 17.0775 46.9203C17.0757 46.9333 17.072 46.9463 17.0702 46.9611C17.0573 47.0314 17.0426 47.1 17.0297 47.1703C16.925 47.7463 16.8313 48.324 16.7505 48.9055C16.6714 49.4666 16.6016 50.0259 16.5428 50.5889C16.53 50.7148 16.5189 50.8407 16.5061 50.9666C16.5061 50.9759 16.5043 50.9851 16.5043 50.9944C16.4951 51.0907 16.4896 51.1592 16.4822 51.2277C16.4565 51.5407 16.4344 51.8555 16.4161 52.1685C16.3977 52.4833 16.383 52.7981 16.3738 53.1129C16.3738 53.1537 16.3738 53.1944 16.3701 53.2351C16.3518 53.8407 16.3481 54.4444 16.3664 55.0481C16.3848 55.6185 16.4161 56.187 16.4693 56.7555C16.5208 57.3222 16.5924 57.887 16.6898 58.4518C16.7376 58.7277 16.789 59.0018 16.8478 59.274C17.0426 60.1926 17.3053 61.0926 17.6655 61.9629C17.6912 62.024 17.7151 62.0833 17.7426 62.1444C17.7683 62.2037 17.7959 62.2648 17.8216 62.324C17.8841 62.4648 17.9502 62.6037 18.0182 62.7407C18.1321 62.9703 18.2534 63.1944 18.382 63.4129C18.7348 64.0129 19.15 64.5703 19.6424 65.074C19.7711 65.2074 19.9052 65.3333 20.043 65.4537C20.3021 65.6814 20.5777 65.8907 20.8716 66.0777C20.9268 66.1129 20.9911 66.1333 21.0315 66.187C21.037 66.1944 21.0425 66.2037 21.0462 66.2129C21.0737 66.2074 21.094 66.2129 21.1013 66.2426C21.2152 66.2703 21.3071 66.3481 21.4118 66.3944C21.9704 66.6444 22.5271 66.8944 23.0856 67.1444C23.4035 67.287 23.7232 67.4259 24.0429 67.5666L24.0833 67.5296C23.9804 67.4648 23.8739 67.4037 23.7746 67.3351C23.6699 67.2629 23.5707 67.187 23.4715 67.1092C22.6392 66.4574 21.9869 65.6444 21.4522 64.724C21.127 64.1648 20.8624 63.5777 20.6346 62.974C20.6291 62.9592 20.6236 62.9463 20.6181 62.9314C20.3131 62.1148 20.0908 61.274 19.9236 60.4185C19.8335 59.9611 19.7619 59.5 19.6994 59.037C19.6957 59.0037 19.6902 58.9722 19.6865 58.9388C19.6571 58.7111 19.6314 58.4814 19.6075 58.2537C19.5726 57.9166 19.5469 57.5814 19.5285 57.2426C19.5249 57.1592 19.5193 57.0759 19.5157 56.9926C19.5157 56.9722 19.5138 56.95 19.512 56.9296C19.4955 56.4629 19.4789 55.9963 19.4808 55.5296C19.4808 55.5037 19.4808 55.4777 19.4808 55.4537C19.4808 55.3703 19.4808 55.287 19.4844 55.2037C19.4955 54.837 19.5065 54.4722 19.5212 54.1074C19.5285 53.924 19.5377 53.7426 19.5487 53.5592C19.5598 53.3759 19.5708 53.1944 19.5836 53.0111C19.6314 52.3722 19.6957 51.737 19.7729 51.1018C19.8005 50.8703 19.8299 50.6407 19.8629 50.4092C19.8978 50.1518 19.9364 49.8944 19.9768 49.6389C20.0081 49.437 20.0411 49.2351 20.0761 49.0333C20.1146 48.8037 20.1569 48.5759 20.1992 48.3463C20.2524 48.0574 20.3094 47.7703 20.3682 47.4814C20.4362 47.1537 20.506 46.824 20.5795 46.4981C20.6456 46.2074 20.7136 45.9166 20.7853 45.6259C20.8643 45.3055 20.9451 44.9851 21.0296 44.6666C21.0499 44.5926 21.0719 44.5185 21.0939 44.4444C21.116 44.3703 21.138 44.2963 21.1564 44.2222C21.195 44.0666 21.2262 43.9111 21.2814 43.7592C21.2942 43.7426 21.3144 43.7259 21.3163 43.7074C21.3604 43.3407 21.4908 42.9981 21.6029 42.6537C21.6525 42.5 21.7003 42.3444 21.748 42.1889C21.8142 41.9722 21.8803 41.7555 21.9483 41.5389C22.0034 41.3611 22.0604 41.1833 22.121 41.0074C22.1449 40.9389 22.167 40.8685 22.1908 40.7981C22.2221 40.7092 22.2533 40.6203 22.2846 40.5314C22.4168 40.1611 22.5455 39.7889 22.6796 39.4185C22.7347 39.2666 22.7917 39.1129 22.8486 38.9611C23.0452 38.4407 23.2473 37.924 23.4568 37.4111C23.5156 37.2648 23.5762 37.1203 23.6368 36.9759C23.6865 36.8592 23.7342 36.7444 23.782 36.6277C23.8996 36.3537 24.019 36.0796 24.1384 35.8055C24.2321 35.5907 24.3277 35.3777 24.4251 35.1629C24.4986 34.9981 24.5739 34.837 24.6492 34.6722C24.8513 34.2351 25.0571 33.8018 25.2721 33.3703C25.3088 33.2944 25.3529 33.2222 25.3952 33.15C25.4374 33.0777 25.4797 33.0037 25.5165 32.9259C26.1412 31.5907 26.8743 30.3148 27.6294 29.0518C27.6974 28.9389 27.7635 28.8259 27.8315 28.7129C27.9895 28.45 28.1402 28.1833 28.3184 27.937C28.4305 27.7833 28.5333 27.6278 28.6362 27.4685C28.7391 27.3111 28.8402 27.1519 28.9449 26.9963C29.158 26.6852 29.3565 26.363 29.5678 26.05C29.5953 26.0093 29.6229 25.9685 29.6504 25.9278C29.7919 25.7222 29.9389 25.5204 30.0822 25.3167C30.0822 25.3148 30.0822 25.313 30.0822 25.3111V25.3056C30.0822 25.3056 30.0933 25.2944 30.0988 25.2907C30.1024 25.2907 30.1061 25.287 30.1098 25.287C30.3174 25.0056 30.525 24.7222 30.7326 24.4407C30.7418 24.4278 30.7529 24.4167 30.762 24.4056C30.7676 24.4 30.7712 24.3944 30.7749 24.3907C30.7878 24.3759 30.8006 24.363 30.8135 24.3481C30.8135 24.3407 30.8135 24.3352 30.8135 24.3296C30.8135 24.3241 30.8135 24.3185 30.8153 24.3148C30.819 24.3037 30.8227 24.2963 30.8282 24.2889C30.8337 24.2815 30.8429 24.2759 30.8502 24.2685C30.8594 24.263 30.8686 24.2574 30.8778 24.2519C30.8833 24.2463 30.887 24.2407 30.8907 24.2352C30.9715 24.1333 31.0542 24.0315 31.135 23.9296C31.1442 23.9185 31.1534 23.9056 31.1626 23.8944C31.1626 23.887 31.1663 23.8815 31.1699 23.8741C31.1718 23.8685 31.1754 23.8611 31.1791 23.8556C31.1865 23.8444 31.1957 23.8333 31.2048 23.8241C31.2048 23.8222 31.2085 23.8204 31.2104 23.8185C31.2453 23.7852 31.2894 23.7574 31.2986 23.7074C31.2986 23.7037 31.2986 23.7019 31.2986 23.6981C31.2986 23.6889 31.3059 23.6815 31.3133 23.6778C31.3169 23.6778 31.3206 23.6759 31.3243 23.6741C31.3482 23.6556 31.3702 23.637 31.3886 23.6148C31.3941 23.6093 31.3978 23.6037 31.4014 23.6C31.4161 23.5833 31.429 23.5648 31.4419 23.5463C31.4584 23.5222 31.4749 23.4963 31.4915 23.4704C31.5043 23.4519 31.5172 23.4315 31.5301 23.413C31.5392 23.4 31.5484 23.387 31.5576 23.3759C31.6201 23.2981 31.6844 23.2204 31.7469 23.1444C32.1878 22.6019 32.6417 22.0722 33.1083 21.5537C33.474 21.1463 33.8525 20.7519 34.2346 20.3611C34.3008 20.2926 34.3688 20.2241 34.4349 20.1574C34.5598 20.0315 34.6903 19.9148 34.8189 19.7944C34.8704 19.7463 34.9218 19.7 34.9714 19.65C34.9824 19.6407 34.9916 19.6296 35.0026 19.6204C35.1625 19.4648 35.326 19.3093 35.4877 19.1556C35.4914 19.1519 35.4951 19.15 35.4987 19.1463C35.541 19.1074 35.5888 19.0722 35.6329 19.037C35.6439 19.0278 35.6531 19.0185 35.6641 19.0074C35.6678 19.0037 35.6696 19.0019 35.6733 18.9981C35.7229 18.9463 35.7743 18.8963 35.8239 18.8444C35.8313 18.8333 35.8386 18.8259 35.8478 18.8204C35.857 18.8148 35.868 18.8111 35.8809 18.8111C35.8956 18.8093 35.9085 18.8019 35.9195 18.7944C35.9268 18.7889 35.9342 18.7815 35.9415 18.7741C35.947 18.7685 35.9507 18.7611 35.9562 18.7537C35.9654 18.7426 35.9764 18.7296 35.9856 18.7185C36.1161 18.6019 36.2465 18.487 36.3807 18.3741C36.4009 18.3574 36.4211 18.3407 36.4413 18.3222C36.5699 18.213 36.7004 18.1056 36.8326 17.9981C37.1285 17.7593 37.4335 17.5278 37.744 17.3093C37.755 17.3037 37.7642 17.2981 37.7752 17.2926H37.777C37.7862 17.2796 37.7973 17.2685 37.8083 17.2593C37.8781 17.2074 37.9498 17.1537 38.0196 17.1037C38.1611 17 38.3062 16.9 38.4495 16.8019C38.5212 16.7537 38.5947 16.7037 38.6682 16.6574C38.7417 16.6093 38.8151 16.5611 38.8886 16.5148C39.111 16.3741 39.3351 16.237 39.5629 16.1056C39.811 15.9611 40.0645 15.8222 40.3181 15.6889C41.0824 15.2926 41.8725 14.9574 42.6993 14.7093C42.7618 14.6907 42.8261 14.6722 42.8886 14.6537C43.3295 14.5296 43.7723 14.4352 44.2225 14.3741C44.4779 14.3389 44.7369 14.3148 44.996 14.3037C45.1908 14.2944 45.3855 14.2926 45.5821 14.2981C45.6483 14.3 45.7126 14.3019 45.7787 14.3056C45.9753 14.3167 46.1701 14.337 46.3648 14.3648C46.6349 14.4019 46.9013 14.4537 47.1677 14.5222C47.1751 14.5204 47.1806 14.5185 47.1879 14.5222C47.1953 14.5222 47.2008 14.5278 47.2045 14.5333C47.21 14.5352 47.2173 14.537 47.2229 14.5389C47.2357 14.5426 47.2467 14.5463 47.2596 14.5519C47.2596 14.5333 47.2614 14.5148 47.2633 14.4963C47.2596 14.4926 47.2559 14.4889 47.2504 14.487L47.2559 14.4833Z" fill="#F1ECE2"/>
<path d="M44.3492 13.2092C44.3364 13.1518 44.2813 13.1463 44.2408 13.1277C43.4581 12.7777 42.6754 12.4259 41.889 12.0796C41.6796 11.987 41.4775 11.8796 41.2607 11.8055C41.2368 11.8203 41.2111 11.8185 41.1853 11.8092C40.647 11.6314 40.0884 11.5425 39.5262 11.5074C39.0099 11.4759 38.4918 11.5074 37.9792 11.5759C37.5566 11.6333 37.1413 11.7222 36.7298 11.8333C35.9305 12.05 35.1625 12.3444 34.422 12.7129C34.1373 12.8555 33.8617 13.0166 33.5805 13.1666C33.4868 13.2166 33.3895 13.2611 33.2994 13.3148C32.4947 13.7981 31.7138 14.3185 30.9733 14.8981C30.7878 15.0426 30.5985 15.1833 30.4258 15.3407C30.3137 15.4426 30.2053 15.5463 30.0841 15.6351C30.062 15.6518 30.0381 15.6685 30.0106 15.6851C29.9904 15.7037 29.9702 15.7203 29.9499 15.737V15.7407C29.9408 15.7648 29.9316 15.787 29.9169 15.8C29.9077 15.8074 29.8985 15.8111 29.8875 15.8129C29.882 15.8129 29.8746 15.8129 29.8691 15.8129H29.8654C29.8654 15.8129 29.8544 15.8092 29.847 15.8074C29.8415 15.8111 29.836 15.8148 29.8324 15.8185C29.768 15.8648 29.7331 15.9444 29.6743 15.9907C29.6652 15.9981 29.656 16.0037 29.6468 16.0092C29.4924 16.0907 29.3987 16.237 29.2609 16.337C29.1286 16.4333 29.0184 16.5611 28.8971 16.674C28.2963 17.2314 27.7285 17.8222 27.1663 18.4185C26.9936 18.6018 26.8393 18.7981 26.6739 18.9888C26.5784 19.0981 26.4718 19.1944 26.3781 19.3018C26.1227 19.5963 25.8747 19.8981 25.6229 20.1944C25.4355 20.4148 25.2592 20.6426 25.092 20.8777C24.9597 21.0648 24.8017 21.2314 24.6602 21.4111C24.2321 21.9648 23.826 22.5351 23.42 23.1036C23.0194 23.6648 22.652 24.2481 22.2716 24.824C21.9299 25.3407 21.6157 25.8759 21.2905 26.4055C21.171 26.6018 21.0645 26.8055 20.9432 27.0018C20.7356 27.3389 20.5427 27.6851 20.3608 28.037C20.2469 28.174 20.1789 28.3407 20.0925 28.4944C19.9125 28.8167 19.7398 29.1426 19.5836 29.4778C19.534 29.5852 19.4623 29.6759 19.4109 29.7833C19.2657 30.0815 19.1187 30.3796 18.9662 30.6759C18.5859 31.4204 18.2515 32.1852 17.9042 32.9463C17.5276 33.7685 17.1932 34.6111 16.8625 35.4537C16.6383 36.0259 16.4123 36.5981 16.2341 37.187C16.2047 37.2833 16.1496 37.3704 16.1165 37.4648C15.9438 37.9722 15.7711 38.4778 15.6076 38.987C15.4551 39.4555 15.3117 39.9278 15.1739 40.4C15.0417 40.8555 14.9149 41.3111 14.7936 41.7685C14.5566 42.6555 14.3398 43.5481 14.1542 44.4463C14.1064 44.6852 14.0587 44.9241 14.0127 45.1629C13.8547 45.9759 13.7151 46.7944 13.6012 47.6167C13.4946 48.3981 13.4064 49.1815 13.3366 49.9667C13.3311 50.0389 13.3256 50.1111 13.3201 50.1833C13.287 50.6129 13.2613 51.0444 13.2447 51.4778C13.2245 51.9722 13.2208 52.4667 13.2172 52.9611C13.2172 53.1963 13.241 53.4333 13.2392 53.6704C13.2355 54.0315 13.2668 54.3907 13.287 54.75C13.2943 54.8815 13.2998 55.0148 13.3127 55.1481C13.3145 55.1704 13.3182 55.1944 13.3201 55.2167C13.3623 55.5629 13.3899 55.9111 13.4376 56.2555C13.4836 56.5907 13.5295 56.9259 13.5901 57.2574C13.6783 57.7204 13.761 58.1833 13.9025 58.6333C13.9466 58.7741 13.9705 58.9222 14.0109 59.0666C14.0954 59.3815 14.1965 59.6926 14.3067 59.9981C14.4666 60.437 14.6503 60.8666 14.8487 61.2889C15.1556 61.937 15.5359 62.5407 15.9824 63.1C16.405 63.6315 16.8882 64.1 17.4412 64.4926C17.4633 64.5092 17.4872 64.5241 17.511 64.5389C17.5515 64.5648 17.5919 64.5907 17.6323 64.6166C17.6544 64.6315 17.6782 64.6463 17.7021 64.6611C17.7793 64.7092 17.8546 64.7592 17.9281 64.8129C17.9281 64.8129 17.93 64.8129 17.9318 64.8148C17.9538 64.8315 17.9759 64.8481 17.9979 64.8667C17.9979 64.8704 18.0016 64.8741 18.0035 64.8778C18.0163 64.8963 18.042 64.8981 18.0623 64.9074C19.0177 65.3333 19.9713 65.7592 20.9267 66.1852C20.9653 66.2018 21.002 66.2278 21.0479 66.2167C21.0424 66.2074 21.0388 66.2 21.0332 66.1907C20.9928 66.137 20.9285 66.1167 20.8734 66.0815C20.5813 65.8944 20.3038 65.6852 20.0448 65.4574C19.907 65.337 19.7728 65.2092 19.6442 65.0778C19.1518 64.5741 18.7366 64.0148 18.3838 63.4167C18.2552 63.1981 18.1339 62.9741 18.02 62.7444C17.952 62.6074 17.8859 62.4685 17.8234 62.3278C17.7958 62.2667 17.7701 62.2074 17.7444 62.1463C17.7187 62.0852 17.6929 62.0259 17.6672 61.9648C17.3071 61.0944 17.0462 60.1944 16.8496 59.2759C16.7908 59.0037 16.7394 58.7296 16.6916 58.4537C16.596 57.8907 16.5244 57.3259 16.4711 56.7574C16.4178 56.1907 16.3866 55.6204 16.3682 55.05C16.3498 54.4463 16.3535 53.8407 16.3719 53.237C16.3737 53.1963 16.3737 53.1555 16.3756 53.1148C16.3866 52.8 16.4013 52.4852 16.4178 52.1704C16.4362 51.8574 16.4582 51.5426 16.484 51.2296C16.4895 51.1611 16.4968 51.0926 16.506 50.9963C16.506 50.987 16.5079 50.9778 16.5079 50.9685C16.5189 50.8426 16.5299 50.7167 16.5446 50.5907C16.6016 50.0278 16.6732 49.4667 16.7522 48.9074C16.8349 48.3259 16.9286 47.7481 17.0315 47.1722C17.0444 47.1018 17.0591 47.0333 17.0719 46.9629C17.0738 46.95 17.0774 46.937 17.0793 46.9222C17.0866 46.887 17.0921 46.8518 17.0995 46.8166C17.116 46.7278 17.1326 46.6407 17.1491 46.5537C17.2207 46.1852 17.2961 45.8166 17.3769 45.45C17.4706 45.0204 17.5717 44.5926 17.6764 44.1667C17.7922 43.6926 17.9134 43.2204 18.042 42.75C18.042 42.7426 18.0457 42.7352 18.0476 42.7278C18.1302 42.4278 18.2166 42.1278 18.3048 41.8296C18.5198 41.1037 18.7421 40.3796 18.9809 39.6611C19.1114 39.2722 19.2473 38.8852 19.3851 38.5C19.646 37.7722 19.9198 37.05 20.2083 36.3352C20.7503 34.9852 21.3382 33.6537 21.9758 32.3426C22.0934 32.1 22.2128 31.8574 22.3341 31.6167C22.6207 31.0463 22.9184 30.4796 23.2234 29.9185C23.3042 29.7685 23.3869 29.6185 23.4677 29.4704C23.4751 29.4592 23.4824 29.4463 23.4879 29.4352C23.4971 29.4185 23.5045 29.4018 23.5026 29.3815C23.5137 29.3629 23.5265 29.3444 23.5357 29.3278C23.6239 29.1704 23.7121 29.0129 23.8021 28.8555C23.9822 28.5426 24.1623 28.2314 24.3478 27.9203C24.4783 27.7018 24.6106 27.4833 24.7429 27.2666C24.8917 27.0222 25.0423 26.7796 25.1967 26.5389C25.3896 26.2351 25.5862 25.9314 25.7846 25.6314C25.9941 25.3148 26.2072 25.0037 26.424 24.6926C26.5526 24.5055 26.6831 24.3203 26.8135 24.1333C26.8135 24.1296 26.8135 24.1259 26.8135 24.1222C26.8135 24.1203 26.8154 24.1166 26.8172 24.1148C26.8209 24.1092 26.8282 24.1074 26.8356 24.1074C26.8723 24.0555 26.9073 24.0018 26.9458 23.95C28.3937 21.9463 29.9757 20.0574 31.7561 18.3426C32.3973 17.7259 33.0587 17.137 33.7514 16.5833C34.027 16.3611 34.3081 16.1463 34.5948 15.9351L34.6664 15.8833C34.7858 15.7963 34.9071 15.7111 35.0284 15.6259C35.6127 15.2185 36.2116 14.8389 36.8308 14.4981C36.9484 14.4333 37.0678 14.3703 37.1873 14.3092C37.2773 14.2629 37.3655 14.2166 37.4555 14.1722C37.5327 14.1333 37.6099 14.0963 37.687 14.0592C37.9975 13.9129 38.3117 13.7759 38.6333 13.6518C39.6548 13.2555 40.7058 12.9851 41.8027 12.9259C42.6295 12.8814 43.4434 12.9555 44.2408 13.1981C44.2758 13.2092 44.3107 13.2259 44.3474 13.2111L44.3492 13.2092Z" fill="#FDBF41"/>
<path d="M26.8175 24.1132C26.8175 24.1132 26.8288 24.1056 26.8364 24.1056C26.8364 24.1132 26.8326 24.119 26.8288 24.1228C26.8251 24.1266 26.8194 24.1286 26.8118 24.1305C26.8118 24.1266 26.8118 24.1228 26.8118 24.119C26.8118 24.1171 26.8137 24.1132 26.8156 24.1113L26.8175 24.1132Z" fill="#C18B00"/>
<path d="M29.8636 15.7555C29.8746 15.7425 29.8875 15.7351 29.9059 15.7333C29.9169 15.7333 29.9316 15.7333 29.9463 15.737V15.7407C29.9371 15.7648 29.9279 15.787 29.9132 15.7999C29.904 15.8074 29.8948 15.8111 29.8838 15.8129C29.8783 15.8129 29.8709 15.8129 29.8654 15.8129H29.8618C29.8618 15.8129 29.8507 15.8092 29.8434 15.8074C29.8471 15.7851 29.8544 15.7666 29.8654 15.7555H29.8636Z" fill="#C18B00"/>
<path d="M41.0879 11.7296C40.3769 11.4093 39.664 11.0982 38.9566 10.7741C38.1463 10.4019 37.3048 10.1722 36.4137 10.1296C36.1896 10.1296 35.9636 10.1296 35.7394 10.1315C35.6512 10.1315 35.563 10.1315 35.4767 10.1315C35.0283 10.1556 34.5855 10.2222 34.1464 10.3167C32.8511 10.5945 31.6458 11.1056 30.4901 11.7463C29.3271 12.3908 28.2467 13.1611 27.2197 14.0056C27.0892 14.113 26.9477 14.2111 26.8338 14.3408C26.8246 14.3445 26.8154 14.3519 26.8099 14.3611V14.3722C26.8099 14.3722 26.8062 14.3722 26.8044 14.3722C26.8007 14.3722 26.7989 14.3722 26.7989 14.3722C26.7695 14.3963 26.7401 14.4185 26.7107 14.4426C25.5734 15.4241 24.5169 16.4889 23.5174 17.613C22.3305 18.95 21.2354 20.3611 20.212 21.8278C18.687 24.013 17.3365 26.3056 16.1331 28.6852C15.321 30.2889 14.5824 31.9278 13.9172 33.6C13.2246 35.3444 12.5888 37.1111 12.0781 38.9203C12.0211 39.1203 11.9513 39.3185 11.8943 39.5185C11.4754 41.0092 11.1134 42.5129 10.8287 44.0352C10.5861 45.3259 10.3932 46.6222 10.2664 47.9296C10.1727 48.8778 10.1084 49.8277 10.1121 50.7815C10.1121 51.2148 10.1139 51.6481 10.1158 52.0815C10.1213 52.1407 10.1231 52.2 10.1249 52.2592C10.1268 52.3518 10.125 52.4426 10.1213 52.5352C10.125 53.0629 10.169 53.587 10.2187 54.1129C10.3013 54.9703 10.4299 55.8185 10.6192 56.6574C10.8544 57.7092 11.1759 58.7296 11.6334 59.7055C12.124 60.75 12.7468 61.7 13.5884 62.4944C14.0789 62.9574 14.6191 63.3481 15.2273 63.6352C15.7675 63.8907 16.315 64.1296 16.8625 64.3722C17.2373 64.5389 17.6085 64.7185 17.9906 64.8666C17.9686 64.85 17.9465 64.8315 17.9245 64.8148C17.9245 64.8148 17.9227 64.8148 17.9208 64.8129C17.8473 64.7592 17.772 64.7092 17.6948 64.6611C17.6709 64.6463 17.6489 64.6315 17.625 64.6166C17.5846 64.5907 17.5442 64.5666 17.5037 64.5389C17.4799 64.524 17.4578 64.5074 17.4339 64.4926C16.8809 64.0981 16.3995 63.6315 15.9751 63.1C15.5286 62.5407 15.1483 61.937 14.8414 61.2889C14.6412 60.8666 14.4574 60.437 14.2994 59.9981C14.1892 59.6926 14.0881 59.3815 14.0036 59.0666C13.965 58.924 13.9393 58.7759 13.8952 58.6333C13.7537 58.1833 13.6692 57.7203 13.5828 57.2574C13.5204 56.9259 13.4763 56.5907 13.4303 56.2555C13.3826 55.9111 13.3532 55.5629 13.3128 55.2166C13.3109 55.1944 13.3072 55.1703 13.3054 55.1481C13.2925 55.0166 13.287 54.8833 13.2797 54.75C13.2613 54.3907 13.2301 54.0315 13.2319 53.6703C13.2319 53.4352 13.208 53.1981 13.2099 52.9611C13.2135 52.4666 13.219 51.9722 13.2374 51.4777C13.254 51.0463 13.2797 50.6148 13.3128 50.1833C13.3183 50.1111 13.3238 50.0389 13.3293 49.9666C13.3991 49.1815 13.4873 48.3981 13.5939 47.6166C13.7078 46.7944 13.8474 45.9759 14.0054 45.1629C14.0514 44.924 14.0991 44.6852 14.1469 44.4463C14.3306 43.5463 14.5493 42.6555 14.7863 41.7685C14.9076 41.3111 15.0343 40.8537 15.1666 40.4C15.3044 39.9259 15.4478 39.4555 15.6003 38.987C15.7656 38.4777 15.9383 37.9703 16.1092 37.4648C16.1404 37.3685 16.1974 37.2815 16.2268 37.187C16.4068 36.5981 16.631 36.0259 16.8552 35.4537C17.1859 34.6111 17.5203 33.7703 17.8969 32.9463C18.2442 32.187 18.5786 31.4203 18.9589 30.6759C19.1096 30.3796 19.2584 30.0815 19.4036 29.7833C19.455 29.6778 19.5285 29.5852 19.5763 29.4778C19.7325 29.1426 19.9052 28.8166 20.0852 28.4945C20.1716 28.3408 20.2396 28.1741 20.3535 28.037C20.5354 27.6852 20.7283 27.3389 20.9359 27.0019C21.0572 26.8074 21.1637 26.6019 21.2832 26.4056C21.6065 25.8759 21.9207 25.3426 22.2643 24.8241C22.6446 24.2482 23.0121 23.6648 23.4127 23.1037C23.8187 22.5352 24.2248 21.9648 24.6529 21.4111C24.7925 21.2296 24.9505 21.0648 25.0846 20.8778C25.2518 20.6426 25.4282 20.4148 25.6156 20.1945C25.8674 19.8963 26.1154 19.5945 26.3708 19.3019C26.4645 19.1945 26.5711 19.0982 26.6666 18.9889C26.832 18.8 26.9863 18.6019 27.159 18.4185C27.7212 17.8222 28.289 17.2315 28.8898 16.6741C29.011 16.5611 29.1213 16.4333 29.2536 16.337C29.3914 16.237 29.4832 16.0908 29.6394 16.0093C29.6486 16.0037 29.6596 15.9982 29.667 15.9908C29.7258 15.9445 29.7607 15.8648 29.825 15.8185C29.8305 15.8148 29.836 15.8111 29.8397 15.8074C29.8433 15.7852 29.8507 15.7667 29.8617 15.7556C29.8727 15.7426 29.8856 15.7352 29.904 15.7333C29.915 15.7333 29.9297 15.7333 29.9444 15.737C29.9646 15.7204 29.9848 15.7019 30.005 15.6852C30.0326 15.6667 30.0546 15.6519 30.0785 15.6352C30.1998 15.5463 30.3082 15.4445 30.4203 15.3408C30.593 15.1815 30.7841 15.0426 30.9678 14.8982C31.7083 14.3185 32.4891 13.7982 33.2939 13.3148C33.3858 13.2611 33.4813 13.2167 33.575 13.1667C33.8561 13.0148 34.1317 12.8537 34.4165 12.713C35.157 12.3445 35.9268 12.05 36.7242 11.8333C37.1358 11.7222 37.551 11.6352 37.9736 11.5759C38.4862 11.5056 39.0044 11.4759 39.5207 11.5074C40.0847 11.5426 40.6415 11.6315 41.1798 11.8093C41.2074 11.8185 41.2312 11.8204 41.2551 11.8056C41.2092 11.7556 41.1394 11.7556 41.0824 11.7296H41.0879Z" fill="#FF1100"/>
<path d="M29.8846 15.5487C29.8846 15.5487 29.8749 15.5409 29.871 15.5389C29.8768 15.5429 29.8807 15.5448 29.8846 15.5487Z" fill="#FF1100"/>
<path d="M36.4138 10.1277H35.7395C35.6513 10.1314 35.5631 10.1314 35.4767 10.1314C35.4731 10.1203 35.4675 10.1092 35.4639 10.0981C35.7836 10.0981 36.1051 10.0981 36.4248 10.0944C36.4211 10.1055 36.4175 10.1166 36.4138 10.1277Z" fill="#FEC35E"/>
<path d="M26.8048 14.3748H26.799V14.363H26.8125V14.3768C26.8125 14.3768 26.8087 14.3768 26.8067 14.3768L26.8048 14.3748Z" fill="#C18B00"/>
<path opacity="0.48" d="M65.7874 56.3149C65.8793 56.2427 65.8793 56.2352 65.7874 56.163C65.5743 55.9908 65.3465 55.8408 65.1131 55.6982C64.3341 55.2223 63.5018 54.8593 62.6492 54.5445C62.4545 54.4723 62.2652 54.3852 62.0576 54.3482C62.0006 54.2834 61.9161 54.2778 61.8426 54.2538C61.0471 53.9871 60.2368 53.7686 59.4247 53.5593C59.3567 53.5538 59.2906 53.5389 59.2318 53.5056C58.8514 53.4223 58.4711 53.3371 58.0926 53.2538C57.3889 53.1001 56.6815 52.9667 55.9723 52.8464C55.4468 52.7575 54.9195 52.6741 54.3922 52.5945C53.9806 52.5334 53.569 52.4704 53.1538 52.4408C53.0858 52.4297 53.0178 52.4167 52.948 52.4075C51.4947 52.2278 50.0395 52.0927 48.5788 51.9908C47.6252 51.926 46.6716 51.8741 45.7162 51.8371C44.4687 51.7889 43.2193 51.7667 41.9699 51.7667C40.421 51.7667 38.8739 51.8056 37.3287 51.8815C35.5428 51.9686 33.7606 52.1056 31.9839 52.3056C31.6936 52.3389 31.3996 52.3575 31.113 52.4204C31.0542 52.4038 30.9972 52.4204 30.9384 52.426C29.6725 52.5834 28.4121 52.7778 27.159 53.0167C26.4186 53.1575 25.6818 53.313 24.9505 53.4889L24.9358 53.513C24.9358 53.513 24.7466 56.2575 25.1655 58.9371C25.8876 59.1093 26.6133 59.263 27.3409 59.4001C27.9913 59.5223 28.6436 59.6389 29.2995 59.7334C30.2182 59.8667 31.1387 60.0019 32.0629 60.0982C32.9613 60.1927 33.858 60.2908 34.7583 60.3575C35.2911 60.3964 35.8221 60.4427 36.3549 60.4741C37.1431 60.5204 37.9332 60.5593 38.7214 60.5871C39.4417 60.613 40.1619 60.6334 40.8821 60.6427C42.0342 60.6575 43.188 60.6519 44.34 60.6278C45.4498 60.6038 46.5596 60.5612 47.6675 60.4982C48.9885 60.4241 50.3078 60.3186 51.6251 60.1815C53.6334 59.9723 55.6306 59.6908 57.6094 59.2926C59.3383 58.9445 61.0471 58.5186 62.7043 57.9038C63.4264 57.6371 64.1338 57.3315 64.8063 56.9538C65.148 56.763 65.4787 56.5556 65.7874 56.313V56.3149Z" fill="url(#paint0_linear_162_227)"/>
</g>
<defs>
<linearGradient id="paint0_linear_162_227" x1="45.465" y1="52.7869" x2="45.2058" y2="59.4297" gradientUnits="userSpaceOnUse">
<stop offset="0.16" stop-color="#191919"/>
<stop offset="0.97" stop-color="#191919" stop-opacity="0"/>
</linearGradient>
<clipPath id="clip0_162_227">
<rect width="61" height="60" fill="white" transform="translate(10 10)"/>
</clipPath>
</defs>
</svg>
