<svg width="80" height="80" viewBox="0 0 80 80" fill="none" xmlns="http://www.w3.org/2000/svg">
<g clip-path="url(#clip0_6722_89769)">
<path d="M68 1.48619e-06L12 2.62268e-07C5.37258 1.17422e-07 -1.17422e-07 5.37258 -2.62268e-07 12L-1.48619e-06 68C-1.63103e-06 74.6274 5.37258 80 12 80L68 80C74.6274 80 80 74.6274 80 68L80 12C80 5.37259 74.6274 1.63103e-06 68 1.48619e-06Z" fill="black"/>
<path d="M40 72C57.6731 72 72 57.6731 72 40C72 22.3269 57.6731 8 40 8C22.3269 8 8 22.3269 8 40C8 57.6731 22.3269 72 40 72Z" fill="black"/>
<path d="M40.0002 69.5991C56.3472 69.5991 69.5991 56.3472 69.5991 40.0002C69.5991 23.6532 56.3472 10.4014 40.0002 10.4014C23.6532 10.4014 10.4014 23.6532 10.4014 40.0002C10.4014 56.3472 23.6532 69.5991 40.0002 69.5991Z" fill="black"/>
<path d="M25.524 45.4952C25.1546 46.9959 25.0854 48.5428 25.2701 50.0666C25.247 50.5976 25.1315 51.1056 24.9007 51.5673C24.5082 52.0522 24.8083 52.6294 24.6698 53.1373C24.6236 53.3451 24.462 53.5991 24.6698 53.7145C24.7159 54.7535 24.8314 55.7693 24.993 56.8083C25.0161 57.0392 25.2239 57.2239 25.4779 57.1777C25.6164 57.1546 25.7549 57.0623 25.8242 56.9468L26.2859 55.3768C26.563 54.8689 27.094 54.8689 27.5789 54.7304C27.8328 55.677 27.8328 55.677 28.3639 55.2152C28.8256 54.3379 28.4793 53.3913 28.5716 52.4908L28.8025 51.3826C29.0796 51.0594 29.2412 50.69 29.2643 50.2744C29.8415 49.0276 29.6106 47.7347 29.4721 46.4418C29.5644 45.9108 29.6337 45.3797 29.703 44.8718V44.4562C30.0955 44.2715 30.1185 43.879 30.1416 43.5327C30.3494 43.3018 30.4418 42.9786 30.3956 42.6553C30.7419 42.1705 30.511 41.5933 30.6496 41.0854L31.0652 40.1849C31.2268 40.0926 31.3191 39.931 31.3191 39.7463C31.5962 39.423 31.8271 39.0536 31.9425 38.638C32.2657 38.3148 32.4966 37.9454 32.6351 37.5298C32.9584 37.2296 33.1662 36.8372 33.2816 36.3985C33.6972 35.9598 33.9973 35.4057 34.1359 34.8054C35.2672 33.3047 35.9598 31.5731 36.8602 29.9569C37.322 29.1258 37.6222 28.5255 36.4216 28.2946C36.3292 27.8559 37.068 27.6712 36.6525 27.2787C36.3754 27.0017 36.006 27.094 35.6135 27.1633C34.6669 27.3942 33.7665 27.7174 32.8891 28.133C32.2196 28.2946 31.6654 28.7102 31.3191 29.2874C30.5572 30.8112 29.7491 32.335 28.9411 33.8588C28.8256 34.1128 28.7102 34.3667 28.6178 34.6438C28.5255 34.967 28.8487 35.4288 28.2946 35.5442C27.8559 35.6366 27.7174 35.2441 27.4172 35.0132C26.9093 33.7203 26.0551 32.589 25.4779 31.3653C24.9699 30.2802 24.3927 30.3725 23.5385 30.7188C23.0998 30.9266 22.6842 31.1806 22.2917 31.4807C21.9223 31.7578 21.5067 32.2196 21.7145 32.589C22.4071 33.7895 22.2686 35.4519 23.7232 36.2138L24.2542 36.8602C24.5312 37.4374 24.8314 38.0608 25.1315 38.6611L25.4086 39.7693C25.4086 40.3004 25.2701 40.9237 25.6626 41.3162C26.055 41.6395 26.2859 42.1243 26.2859 42.6323C26.1243 42.9093 26.032 43.2094 26.0551 43.5327C25.6856 44.0637 25.524 44.7794 25.524 45.4952ZM59.8559 23.4923C58.84 23.9309 56.8083 25.1546 56.3696 26.1705C56.1849 26.563 55.9079 26.8862 55.5616 27.1171C54.7073 27.7405 54.0839 28.6178 53.8069 29.6337C53.6914 30.0724 53.4605 30.5572 53.045 30.6957C51.5673 31.1344 51.4519 32.589 50.7823 33.6048C50.5514 34.2282 50.3206 34.8054 50.0897 35.3826C49.8357 35.7289 49.651 36.1214 49.6279 36.537C49.374 36.8833 49.2354 37.2758 49.2123 37.6914L49.0046 37.9223C48.8891 38.0146 48.8198 38.1763 48.8429 38.3379L48.9122 38.4764C48.7275 38.5457 48.5197 38.5457 48.335 38.5226C48.5428 38.3148 48.5659 37.9916 48.4273 37.7376L48.2888 37.6452V36.9988L48.3812 36.9526C48.4735 36.5139 48.4504 36.0522 48.2888 35.6135C48.2657 35.0594 48.1041 34.5283 47.8271 34.0666C47.7116 33.5587 48.1965 32.866 47.5269 32.5659C47.0882 32.335 46.5341 32.4043 46.1647 32.7275C45.4721 33.2585 45.0103 34.0204 44.8718 34.8747C44.6178 35.1979 44.4562 35.5673 44.4331 35.9829C44.2022 36.3292 44.0637 36.7448 43.9944 37.1373C43.6019 37.7607 43.3018 38.4533 43.094 39.169C42.6784 39.7924 42.3783 40.462 42.1936 41.1777C41.8242 41.5702 41.8934 42.2167 41.2701 42.7477V37.853C41.4086 37.6683 41.1777 37.576 41.1546 37.4374C41.7318 36.7448 41.5009 35.6135 40.6929 34.8285L40.716 34.7592L40.6698 34.7361C40.3465 33.9512 39.5385 33.9281 38.9151 33.5817C38.5226 33.2816 37.9454 33.3509 37.6452 33.7664C37.576 33.8588 37.5298 33.9511 37.5067 34.0666C37.3913 34.2051 37.3913 34.3898 37.5067 34.5053V34.69C37.4605 35.3133 37.4374 35.9367 37.4605 36.5832C37.4374 36.9526 37.4836 37.322 37.576 37.6683C37.576 38.2455 37.576 38.8227 37.5529 39.4461V40.993C37.4836 40.993 37.4375 41.0161 37.3913 41.0623C37.3913 42.9324 37.2758 44.8256 37.7145 46.6727C37.7145 46.7419 37.7607 46.8112 37.8069 46.8574C37.7145 47.2729 37.1604 47.296 37.1142 47.7347L37.1604 47.7809L37.1142 47.7347C36.8141 48.3119 37.2066 48.8198 37.3451 49.3278L37.1142 52.4677C36.9295 53.068 36.9064 53.6914 37.0219 54.2917C36.9064 54.4995 36.9526 54.7765 37.1142 54.9613C37.576 55.7924 37.5991 56.8314 38.361 57.524C38.6149 57.2701 38.7535 56.9007 38.7304 56.5312L39.3768 56.0695C40.1618 55.4692 40.7159 54.5919 40.9237 53.5991C41.3393 53.0219 41.1315 52.2138 41.4779 51.5904L41.6626 51.1286C41.9165 50.8747 42.0551 50.5745 42.1243 50.2282C42.3552 49.9742 42.4937 49.651 42.5399 49.3278C42.817 49.0045 42.9786 48.6351 43.0478 48.2196C43.3018 47.9887 43.4403 47.6654 43.4634 47.3422L43.3942 47.296L43.4403 47.3422C43.6943 46.9959 43.8559 46.6034 43.9021 46.1878C44.133 45.8415 44.2715 45.449 44.2946 45.0334C44.4562 44.664 44.5947 44.2946 44.7564 43.9483C45.2874 43.8559 45.3336 44.1791 45.3336 44.6178C45.3336 45.1258 45.3797 45.6568 45.3797 46.1647L45.3336 47.2268C45.2412 47.7578 45.1488 48.2888 45.0334 48.8429C44.8718 49.0507 44.8487 49.3047 44.918 49.5356C44.7794 49.8357 44.7333 50.182 44.8256 50.5053C44.8025 51.221 44.8487 51.9136 44.9872 52.6063C45.0103 53.1604 45.4259 53.5991 45.98 53.6452C46.4418 53.8069 46.9497 53.6222 47.2037 53.1835C47.7578 52.3523 48.1965 51.4519 48.4966 50.5053C48.8198 50.1359 48.9584 49.6279 48.9353 49.1431C49.2354 48.1734 49.8357 47.296 49.8126 46.234L50.0435 45.7953C50.2744 45.5413 50.4591 45.2412 50.5284 44.8949C50.9208 44.3869 51.0825 43.7405 50.967 43.094L51.0594 42.2167C51.7289 41.778 51.9598 41.0623 52.3061 40.3927C52.5139 40.2311 52.6063 39.9771 52.537 39.7232C52.6986 39.1921 52.8603 38.6842 53.0219 38.1532C53.2066 37.9916 53.2989 37.7376 53.2758 37.4836C53.4144 37.4144 53.4836 37.2527 53.4605 37.0911C53.8069 36.6063 54.0377 36.0291 54.1532 35.4519C54.4764 34.8054 54.7073 34.1359 54.8227 33.4201C55.3538 32.1272 56.5312 31.2499 57.0161 29.9338C57.4779 28.7102 58.2628 27.625 59.2787 26.817C60.3639 25.8703 60.4331 25.0161 59.7867 23.4692M41.2701 51.752C41.3162 51.7289 41.3393 51.7058 41.3855 51.7058L41.2701 51.752ZM40.0002 10.4014C23.6539 10.4014 10.4014 23.6539 10.4014 40.0002C10.4014 56.3465 23.6539 69.5991 40.0002 69.5991C56.3465 69.5991 69.5991 56.3465 69.5991 40.0002C69.5991 23.6539 56.3465 10.4014 40.0002 10.4014ZM40.0002 67.4288C24.8545 67.4288 12.5716 55.146 12.5716 39.9771C12.5716 24.8083 24.8545 12.5486 40.0233 12.5486C55.1691 12.5486 67.4519 24.8314 67.4519 40.0002C67.4519 55.146 55.1921 67.4288 40.0233 67.4519C40.0233 67.4519 40.0002 67.4519 40.0002 67.4288Z" fill="url(#paint0_linear_6722_89769)"/>
</g>
<defs>
<linearGradient id="paint0_linear_6722_89769" x1="39.9944" y1="11.5608" x2="39.9944" y2="70.7472" gradientUnits="userSpaceOnUse">
<stop offset="0.3" stop-color="#EFE149"/>
<stop offset="0.38" stop-color="#EFDC47"/>
<stop offset="0.48" stop-color="#F0CD42"/>
<stop offset="0.59" stop-color="#F2B43A"/>
<stop offset="0.7" stop-color="#F5922F"/>
<stop offset="0.82" stop-color="#F86621"/>
<stop offset="0.94" stop-color="#FC310F"/>
<stop offset="1" stop-color="#FE1406"/>
</linearGradient>
<clipPath id="clip0_6722_89769">
<rect width="80" height="80" fill="white"/>
</clipPath>
</defs>
</svg>
