<svg width="24" height="24" viewBox="0 0 24 24" fill="none" xmlns="http://www.w3.org/2000/svg">
<path d="M11.9999 0.444336C5.61891 0.444336 0.444336 5.61891 0.444336 11.9999C0.444336 18.3809 5.61891 23.5554 11.9999 23.5554C18.3809 23.5554 23.5554 18.3809 23.5554 11.9999C23.5554 5.61891 18.3809 0.444336 11.9999 0.444336ZM15.0159 16.359C15.0159 16.359 14.6025 15.8913 14.3081 15.483C15.736 15.0731 16.2703 14.2531 16.2703 14.2531C15.8017 14.5483 15.3742 14.7235 15.0273 14.8987C14.4938 15.1335 13.9595 15.2491 13.426 15.3674C10.8996 15.7774 9.4814 15.0914 8.14114 14.5475L7.683 14.3145C7.683 14.3145 8.21647 15.1344 9.5874 15.5444C9.22736 15.9552 8.87082 16.4221 8.87082 16.4221C6.43029 16.3643 5.54029 14.8401 5.54029 14.8401C5.54029 11.4447 7.14598 8.6906 7.14598 8.6906C8.75167 7.52202 10.24 7.57811 10.24 7.57811L10.36 7.69638C8.39514 8.16505 7.50425 9.04278 7.50425 9.04278C7.50425 9.04278 7.74251 8.92629 8.1586 8.74847C10.805 7.7078 13.6949 7.78314 16.3702 9.1006C16.3702 9.1006 15.4775 8.2798 13.6336 7.7542L13.7965 7.59389C14.0514 7.59478 15.4005 7.64207 16.8441 8.69762C16.8441 8.69762 18.4594 11.457 18.4594 14.8471C18.406 14.7822 17.4573 16.3065 15.0159 16.359Z" fill="#D0D0DA"/>
<path d="M13.9884 13.7881C14.6113 13.7881 15.1185 13.2625 15.1185 12.6143C15.1185 11.9704 14.6139 11.4448 13.9884 11.4448V11.4474C13.3682 11.4474 12.8602 11.9713 12.8584 12.6195C12.8584 13.2625 13.3656 13.7881 13.9884 13.7881Z" fill="#D0D0DA"/>
<path d="M9.94303 13.7881C10.5659 13.7881 11.0731 13.2625 11.0731 12.6143C11.0731 11.9704 10.5694 11.4448 9.94654 11.4448L9.94303 11.4474C9.32019 11.4474 8.81299 11.9713 8.81299 12.6195C8.81303 13.2625 9.32023 13.7881 9.94303 13.7881Z" fill="#D0D0DA"/>
</svg>
