<svg width="24" height="24" viewBox="0 0 24 24" fill="none" xmlns="http://www.w3.org/2000/svg">
<path d="M11.9999 0.925781C5.61545 0.925781 0.444336 6.01023 0.444336 12.281C0.444336 17.299 3.755 21.5544 8.34545 23.0547C8.92322 23.1616 9.13509 22.8101 9.13509 22.5087C9.13509 22.239 9.12545 21.5245 9.12065 20.5779C5.90629 21.2626 5.22834 19.0545 5.22834 19.0545C4.70256 17.7439 3.94278 17.3934 3.94278 17.3934C2.89602 16.6895 4.02367 16.7039 4.02367 16.7039C5.18402 16.7829 5.79358 17.8739 5.79358 17.8739C6.82394 19.6101 8.49856 19.1085 9.15913 18.8186C9.26313 18.0838 9.56069 17.5841 9.891 17.3C7.32469 17.0159 4.62745 16.0395 4.62745 11.6888C4.62745 10.4495 5.07522 9.43645 5.81669 8.64201C5.68669 8.35503 5.29669 7.20045 5.9178 5.63658C5.9178 5.63658 6.88558 5.33227 9.09558 6.80081C10.02 6.5485 11.0022 6.42334 11.9845 6.41756C12.9667 6.42334 13.9489 6.54854 14.8734 6.80081C17.0689 5.33227 18.0367 5.63658 18.0367 5.63658C18.6578 7.20045 18.2678 8.35503 18.1522 8.64201C18.8889 9.43645 19.3367 10.4495 19.3367 11.6888C19.3367 16.051 16.6356 17.0111 14.0645 17.2904C14.4689 17.6313 14.8445 18.3275 14.8445 19.3916C14.8445 20.9111 14.83 22.1322 14.83 22.501C14.83 22.7986 15.0322 23.1539 15.6245 23.0402C20.2477 21.5496 23.5554 17.2913 23.5554 12.281C23.5554 6.01023 18.3814 0.925781 11.9999 0.925781Z" fill="#D0D0DA"/>
</svg>
