<svg xmlns="http://www.w3.org/2000/svg" xml:space="preserve" fill-rule="evenodd" stroke-linejoin="round" stroke-miterlimit="2" clip-rule="evenodd" viewBox="0 0 24 24"><path fill="#d0d0da" d="M14.976 16.548c-.857.856-2.485.912-2.962.912-.477 0-2.119-.07-2.961-.912a.332.332 0 0 1 0-.464.33.33 0 0 1 .463 0c.533.534 1.684.73 2.512.73.828 0 1.965-.196 2.513-.73a.33.33 0 0 1 .463 0 .363.363 0 0 1-.028.464ZM8 13.249C8 12.562 8.562 12 9.249 12c.688 0 1.249.562 1.249 1.249 0 .688-.561 1.249-1.249 1.249A1.252 1.252 0 0 1 8 13.249Zm6.751 1.25a1.253 1.253 0 0 1-1.249-1.25c0-.687.561-1.249 1.249-1.249.688 0 1.249.562 1.249 1.249 0 .688-.561 1.249-1.249 1.249Z"/><path fill="#d0d0da" d="M12 24c6.627 0 12-5.373 12-12S18.627 0 12 0 0 5.373 0 12s5.373 12 12 12Zm8-12c0-.968-.786-1.754-1.754-1.754-.477 0-.898.182-1.207.491-1.193-.856-2.849-1.417-4.674-1.488l.8-3.747 2.597.547a1.25 1.25 0 0 0 2.498-.056c0-.687-.561-1.249-1.249-1.249-.491 0-.912.281-1.109.702l-2.905-.618a.35.35 0 0 0-.239.042.346.346 0 0 0-.14.197l-.884 4.182c-1.867.057-3.537.604-4.744 1.488a1.77 1.77 0 0 0-1.207-.491c-.969 0-1.755.786-1.755 1.754 0 .716.421 1.32 1.039 1.6a3.301 3.301 0 0 0-.042.534c0 2.694 3.13 4.87 7.003 4.87 3.874 0 7.004-2.176 7.004-4.87 0-.183-.014-.351-.042-.52A1.815 1.815 0 0 0 20 12Z"/></svg>