<svg width="24" height="24" viewBox="0 0 24 24" fill="none" xmlns="http://www.w3.org/2000/svg">
<path d="M11.9999 23.5554C18.3834 23.5554 23.5554 18.3834 23.5554 11.9999C23.5554 5.61642 18.3834 0.444336 11.9999 0.444336C5.61642 0.444336 0.444336 5.61642 0.444336 11.9999C0.444336 18.3834 5.61642 23.5554 11.9999 23.5554ZM6.30327 11.0818L17.4447 6.78602C17.9618 6.59922 18.4135 6.91216 18.2459 7.69411L18.2469 7.69314L16.3499 16.6304C16.2093 17.264 15.8328 17.4181 15.306 17.1196L12.4171 14.9905L11.0237 16.3328C10.8696 16.4869 10.7396 16.6169 10.4411 16.6169L10.6462 13.677L16.0003 8.84002C16.2334 8.63491 15.9483 8.51936 15.6411 8.72349L9.0246 12.8893L6.17229 11.9995C5.55314 11.8031 5.53967 11.3803 6.30327 11.0818Z" fill="#D0D0DA"/>
</svg>
