<svg width="24" height="24" viewBox="0 0 24 24" fill="none" xmlns="http://www.w3.org/2000/svg">
<path d="M11.9999 0.925781C5.61545 0.925781 0.444336 6.01023 0.444336 12.281C0.444336 17.299 3.755 21.5544 8.34545 23.0547C8.92322 23.1616 9.13509 22.8101 9.13509 22.5087C9.13509 22.239 9.12545 21.5245 9.12065 20.5779C5.90629 21.2626 5.22834 19.0545 5.22834 19.0545C4.70256 17.7439 3.94278 17.3934 3.94278 17.3934C2.89602 16.6895 4.02367 16.7039 4.02367 16.7039C5.18402 16.7829 5.79358 17.8739 5.79358 17.8739C6.82394 19.6101 8.49856 19.1085 9.15913 18.8186C9.26313 18.0838 9.56069 17.5841 9.891 17.3C7.32469 17.0159 4.62745 16.0395 4.62745 11.6888C4.62745 10.4495 5.07522 9.43645 5.81669 8.64201C5.68669 8.35503 5.29669 7.20045 5.9178 5.63658C5.9178 5.63658 6.88558 5.33227 9.09558 6.80081C10.02 6.5485 11.0022 6.42334 11.9845 6.41756C12.9667 6.42334 13.9489 6.54854 14.8734 6.80081C17.0689 5.33227 18.0367 5.63658 18.0367 5.63658C18.6578 7.20045 18.2678 8.35503 18.1522 8.64201C18.8889 9.43645 19.3367 10.4495 19.3367 11.6888C19.3367 16.051 16.6356 17.0111 14.0645 17.2904C14.4689 17.6313 14.8445 18.3275 14.8445 19.3916C14.8445 20.9111 14.83 22.1322 14.83 22.501C14.83 22.7986 15.0322 23.1539 15.6245 23.0402C20.2477 21.5496 23.5554 17.2913 23.5554 12.281C23.5554 6.01023 18.3814 0.925781 11.9999 0.925781Z" fill="#D0D0DA"/>
<path d="M11.9999 0.444336C5.61891 0.444336 0.444336 5.61891 0.444336 11.9999C0.444336 18.3809 5.61891 23.5554 11.9999 23.5554C18.3809 23.5554 23.5554 18.3809 23.5554 11.9999C23.5554 5.61891 18.3809 0.444336 11.9999 0.444336ZM17.1373 9.36554C17.1424 9.47918 17.1449 9.59336 17.1449 9.70807C17.1449 13.2106 14.4788 17.2496 9.60322 17.2498H9.6034H9.60322C8.10629 17.2498 6.71336 16.811 5.54034 16.0591C5.74776 16.0836 5.95882 16.0958 6.1726 16.0958C7.41456 16.0958 8.55745 15.6722 9.46478 14.9611C8.30442 14.9396 7.32611 14.1733 6.98847 13.1201C7.15007 13.1511 7.3162 13.168 7.4866 13.168C7.72856 13.168 7.96291 13.1354 8.18562 13.0746C6.97278 12.8318 6.05909 11.7599 6.05909 10.4764C6.05909 10.4644 6.05909 10.4537 6.05945 10.4426C6.41665 10.6411 6.82509 10.7606 7.25998 10.774C6.54825 10.2991 6.08042 9.48731 6.08042 8.56767C6.08042 8.08202 6.21171 7.62705 6.43936 7.23531C7.74651 8.83918 9.69998 9.89398 11.903 10.0048C11.8575 9.81065 11.8341 9.60834 11.8341 9.40042C11.8341 7.93718 13.0212 6.75002 14.485 6.75002C15.2474 6.75002 15.9361 7.07234 16.4198 7.58754C17.0237 7.46842 17.5907 7.2478 18.103 6.9442C17.9047 7.56287 17.4846 8.08198 16.9373 8.41029C17.4735 8.34616 17.9846 8.20394 18.4594 7.99282C18.1047 8.52447 17.6549 8.99145 17.1373 9.36554Z" fill="#D0D0DA"/>
</svg>
