<svg width="1153" height="400" viewBox="0 0 1153 400" fill="none" xmlns="http://www.w3.org/2000/svg">
<g clip-path="url(#clip0_203_1022)">
<path d="M588.484 193.791C589.268 194.658 590.32 195.215 591.475 195.4C606.04 199.876 616.953 212.026 619.841 226.98C623.39 242.409 621.079 256.828 610.579 269.286C605.813 274.794 599.892 279.167 593.208 282.075C582.997 286.799 571.877 289.274 560.613 289.336C531.278 289.563 501.942 289.336 472.607 289.336C471.781 289.336 470.977 289.233 470.213 289.171C469.223 285.582 468.976 116.089 469.925 110.21C471.472 109.695 473.102 109.55 474.711 109.798H554.321C568.411 109.447 582.336 112.83 594.694 119.616C620.564 134.447 619.615 164.46 607.691 179.806C603.771 184.942 598.655 189.026 592.775 191.708L588.484 193.791ZM515.063 252.248C515.578 252.475 516.135 252.62 516.692 252.702H552.877C576.127 251.98 576.54 216.894 553.31 215.821H518.962C517.683 215.821 516.3 215.47 515.125 216.584L515.063 252.248ZM515.063 180.899C515.847 181.064 516.631 181.167 517.415 181.229H549.556C551.701 181.188 553.826 180.879 555.889 180.342C564.203 178.692 569.917 170.998 569.092 162.562C568.68 154.105 563.419 148.515 554.528 147.133C552.898 146.885 551.247 146.782 549.597 146.803H518.467C517.373 146.803 516.135 146.452 515.063 147.669V180.899Z" fill="black"/>
<path d="M1051.48 152.908C1060.74 179.146 1069.94 205.281 1079.12 231.291C1079.64 232.735 1081.23 233.498 1082.67 233.003H1082.71C1083.5 232.735 1084.14 232.096 1084.41 231.312C1088.99 219.286 1092.53 207.054 1096.41 194.926C1100.87 180.982 1105.22 167.017 1109.66 152.929C1109.99 151.733 1111.08 150.887 1112.34 150.866H1150.24C1151.76 150.866 1153 152.104 1153 153.63V153.672C1153 154.043 1152.94 154.394 1152.79 154.724C1134.52 203.507 1116.24 252.29 1097.94 301.031C1095.4 308.024 1091.94 314.625 1087.62 320.689C1079.6 332.054 1066.99 339.315 1053.13 340.553C1037.54 342.285 1022.91 339.501 1009.91 330.136L1007.13 328.073L1005.19 326.609L1022.06 297.422C1022.85 296.081 1024.56 295.627 1025.9 296.411L1026.29 296.679C1026.77 297.071 1027.2 297.504 1027.67 297.834C1031.14 300.392 1035.25 301.96 1039.54 302.372C1046.26 303.197 1052.8 299.835 1056.04 293.894C1056.29 293.482 1056.47 293.028 1056.7 292.616C1059.07 288.243 1059.3 283.045 1057.34 278.486C1041.12 239.212 1025.03 199.876 1009.07 160.458C1008.03 157.9 1007 155.342 1005.95 152.785C1005.72 152.186 1005.54 151.361 1006.07 151.011C1006.32 150.887 1006.59 150.825 1006.86 150.846H1048.72C1050.02 150.825 1051.15 151.691 1051.48 152.929V152.908Z" fill="black"/>
<path d="M881.407 244.967L899.417 263.655C900.902 265.161 900.902 267.595 899.417 269.101C887.885 281.126 872.433 288.634 855.847 290.285C844.005 291.914 831.957 291.151 820.425 288.057C794.886 281.332 776.257 259.385 773.781 233.086C772.275 219.823 772.667 206.683 777.02 193.894C785.85 168.42 804.19 153.981 830.885 149.856C841.179 148.329 851.68 148.762 861.829 151.134C879.262 154.785 893.971 166.44 901.521 182.57C908.762 197.009 910.454 212.438 910.082 228.733C910.041 230.817 908.35 232.488 906.266 232.508C902.305 232.611 898.447 232.508 894.59 232.508H833.773C830.245 232.508 826.738 232.384 823.004 232.508C820.859 232.55 819.146 234.344 819.188 236.489C819.188 236.964 819.291 237.417 819.456 237.851C821.086 242.1 823.706 245.895 827.13 248.886C836.744 257.281 847.76 257.797 859.292 254.455C864.986 252.743 870.246 249.814 874.702 245.854L876.064 244.699C877.632 243.358 879.984 243.482 881.407 244.967ZM862.84 207.24C865.006 207.24 866.76 205.487 866.76 203.321V202.95C865.955 192.801 858.59 184.365 848.626 182.199C832.122 178.589 821.086 190.45 818.053 202.475C817.558 204.538 818.816 206.621 820.9 207.137C821.209 207.199 821.539 207.199 821.849 207.137L862.84 207.24Z" fill="black"/>
<path d="M738.009 244.864L756.04 263.676C757.422 265.14 757.422 267.45 756.04 268.915C750.037 275.392 742.796 280.59 734.729 284.179C722.29 289.563 708.736 291.873 695.223 290.903C687.157 290.656 679.173 289.13 671.582 286.366C649.074 277.908 635.789 261.427 631.25 238.098C628.011 222.999 629.002 207.302 634.097 192.719C643.504 167.079 662.216 153.238 689.034 149.856C699.37 148.515 709.87 149.113 719.979 151.65C737.948 156.085 750.738 166.894 758.763 183.457C766.004 198.432 767.448 214.398 766.706 230.755C766.561 231.374 766.334 231.993 766.025 232.55H679.545C677.461 232.55 675.769 234.22 675.749 236.304C675.749 236.881 675.872 237.438 676.12 237.954C676.429 238.593 676.76 239.212 677.048 239.831C682.33 250.866 693.924 257.446 706.095 256.333C716.039 255.672 725.467 251.568 732.728 244.74C734.234 243.337 736.586 243.399 738.009 244.864ZM673.438 206.951C680.122 208.127 720.577 207.776 723.837 206.58C723.465 198.123 720.784 190.677 713.522 185.788C706.24 180.59 696.667 179.95 688.766 184.138C679.441 188.758 675.419 197.174 673.438 206.951Z" fill="black"/>
<path d="M1012.1 104.868C1010.43 114.913 1008.84 124.587 1007.21 134.406C1006.96 135.87 1005.58 136.881 1004.11 136.654H1003.87C1001.31 135.994 998.997 135.396 996.686 134.736C996.232 134.612 995.778 134.488 995.324 134.406C986.701 133.086 978.635 138.985 977.294 147.607C977.15 148.474 977.088 149.361 977.108 150.248V154.559C977.129 156.023 978.325 157.199 979.79 157.219H1003.1C1004.46 157.219 1005.6 158.23 1005.78 159.571C1006.53 168.131 1006.63 176.733 1006.11 185.293C1006.01 186.675 1004.88 187.748 1003.49 187.789C995.758 187.974 987.918 187.789 979.708 187.789C978.243 187.83 977.088 189.026 977.067 190.491V286.427C977.067 287.913 975.85 289.109 974.365 289.109H935.869C934.384 289.109 933.187 287.913 933.187 286.427V190.594C933.187 189.191 932.094 188.036 930.691 187.913C926.318 187.521 922.109 187.913 917.88 187.706C916.436 187.603 915.343 186.366 915.384 184.922V160.045C915.384 158.581 916.56 157.385 918.025 157.343C922.377 157.034 926.607 157.343 930.753 157.219C932.053 157.137 933.126 156.126 933.249 154.827C933.187 153.795 933.187 152.785 933.249 151.753C933.126 146.638 933.311 141.543 933.806 136.448C936.777 116.852 948.969 103.734 968.217 99.0306C982.41 95.5858 996.191 97.1535 1010.3 101.856C1011.56 102.29 1012.3 103.569 1012.1 104.868Z" fill="black"/>
<path d="M130.048 231.374C130.048 221.225 130.007 211.077 130.089 200.908C130.089 198.907 129.573 197.215 128.521 195.586C127.139 193.461 125.447 191.605 123.57 189.893C121.301 187.789 118.99 185.747 116.742 183.622C113.853 180.899 110.924 178.197 108.118 175.392C103.662 170.936 100.176 165.8 97.5146 160.087C95.6167 156.002 94.0695 151.836 93.5125 147.36C93.1618 144.596 93.203 141.832 93.9044 139.109C95.266 133.911 99.9696 131.786 103.539 131.807C115.256 131.848 126.974 131.807 138.712 131.807C139.207 131.807 139.723 131.807 140.218 131.807C141.353 131.766 141.477 131.663 141.477 130.466C141.477 126.877 141.456 123.288 141.477 119.678C141.497 117.347 141.559 115.016 142.116 112.727C144.241 104.022 149.646 98.5354 158.29 96.2665C161.219 95.5033 164.252 95.2557 167.285 95.5445C173.04 96.0602 177.93 98.4323 181.849 102.702C184.779 105.899 186.656 109.612 187.296 113.923C187.419 114.728 187.481 115.553 187.502 116.357C187.522 120.833 187.522 125.309 187.543 129.785C187.543 131.745 187.543 131.745 189.565 131.745C196.682 131.745 203.82 131.745 210.937 131.745C211.371 131.745 211.824 131.745 212.258 131.704C212.629 131.683 212.835 131.436 212.877 131.106C212.938 130.611 212.938 130.095 212.938 129.6C212.938 126.011 212.938 122.422 212.938 118.812C212.938 116.79 213.083 114.769 213.557 112.809C215.662 104.125 221.087 98.618 229.669 96.2458C232.784 95.3795 235.982 95.2351 239.221 95.7302C240.52 95.9158 241.841 96.0602 243.12 96.4109C250.216 98.3704 257.437 104.703 258.675 113.676C258.84 114.872 258.984 116.048 258.984 117.244C258.984 120.71 258.984 124.175 259.005 127.64C259.005 128.589 258.984 129.538 259.005 130.487C259.025 131.621 259.17 131.745 260.346 131.786C260.841 131.786 261.357 131.786 261.852 131.786C271.878 131.786 281.883 131.786 291.909 131.786C293.312 131.786 294.653 132.013 295.973 132.508C298.882 133.622 300.698 135.747 301.688 138.655C302.575 141.275 302.699 143.997 302.286 146.7C300.76 156.621 296.572 165.285 289.929 172.813C285.535 177.785 280.687 182.281 275.756 186.716C274.291 188.016 272.827 189.315 271.403 190.635C269.588 192.306 268.02 194.204 266.844 196.39C266.246 197.525 265.916 198.721 265.916 200.021V201.341C265.916 214.15 265.916 226.939 265.916 239.748C265.916 246.493 265.813 253.238 265.792 259.983C265.771 266.502 264.389 272.752 261.852 278.713C259.108 285.169 255.23 290.883 250.175 295.751C243.12 302.558 234.827 307.116 225.193 309.138C221.355 309.942 217.477 310.355 213.557 310.375C202.789 310.437 191.999 310.561 181.23 310.375C170.297 310.21 160.271 306.951 151.4 300.474C141.807 293.461 135.432 284.179 132.131 272.752C131.286 269.843 130.708 266.873 130.399 263.882C130.13 261.324 130.068 258.725 130.068 256.147C130.027 247.896 130.068 239.625 130.068 231.374H129.986H130.048ZM151.874 227.125C151.874 237.397 151.874 247.69 151.874 257.962C151.874 260.54 152.08 263.098 152.72 265.635C154.474 272.545 158.166 278.177 163.798 282.529C169.389 286.861 175.846 288.738 182.819 288.799C192.845 288.882 202.85 288.841 212.877 288.799C215.455 288.799 218.055 288.614 220.551 287.995C229.772 285.767 236.663 280.466 241.016 272.009C243.182 267.822 244.275 263.325 244.234 258.56C244.213 255.28 244.234 252.001 244.234 248.721C244.234 246.803 244.811 246.431 241.944 245.545C233.836 243.007 226.265 239.315 219.169 234.674C211.309 229.538 204.295 223.412 198.291 216.192C191.422 207.921 186.285 198.639 182.695 188.49C180.859 183.313 179.601 177.991 178.899 172.566C178.487 169.451 178.301 166.295 178.157 163.16C178.033 160.705 177.971 158.251 177.826 155.796C177.682 153.259 177.826 153.465 175.413 153.465H138.733C138.238 153.465 137.722 153.424 137.227 153.486C134.834 153.816 132.936 155.136 132.42 157.632C132.09 159.22 132.111 160.912 132.441 162.521C133.493 167.43 135.7 171.762 139.352 175.289C141.972 177.826 144.612 180.384 147.212 182.941C147.934 183.643 148.615 184.385 149.234 185.169C150.636 186.922 151.544 188.903 151.75 191.172C151.833 192.182 151.915 193.172 151.915 194.183V227.104L151.874 227.125ZM242.728 212.087C242.666 206.766 238.457 202.001 232.619 202.001C227.544 202.001 222.573 205.693 222.511 212.067C222.428 217.946 227.07 222.277 232.722 222.215C238.829 222.153 242.687 217.285 242.748 212.067L242.728 212.087Z" fill="black"/>
<path d="M171.536 221.865C166.853 222.112 161.737 218.111 161.758 212.046C161.779 207.488 165.1 202.413 171.516 202.352C176.962 202.31 181.129 206.353 181.274 212.005C181.418 217.471 177.024 221.844 171.536 221.844V221.865Z" fill="black"/>
<path d="M397.474 231.724C397.454 231.972 397.371 232.219 397.392 232.467C397.64 234.241 397.268 235.974 396.959 237.706C396.134 242.347 395.061 246.947 393.864 251.506C392.317 257.343 390.481 263.098 388.397 268.771C385.241 277.351 381.486 285.644 377.175 293.709C373.193 301.155 368.758 308.333 363.869 315.223C361.022 319.224 358.051 323.144 354.936 326.939C352.893 329.414 350.789 331.828 348.644 334.22C345.178 338.057 341.547 341.728 337.813 345.297C333.666 349.257 329.334 352.991 324.837 356.559C319.556 360.767 314.068 364.645 308.416 368.317C300.865 373.226 292.985 377.558 284.815 381.374C277.038 384.983 269.075 388.078 260.905 390.656C228.454 400.887 193.528 402.764 160.149 396.101C149.958 394.059 139.87 391.254 130.133 387.603C125.367 385.809 120.664 383.87 116.022 381.724C109.379 378.672 102.963 375.206 96.6919 371.452C90.3173 367.615 84.1902 363.428 78.3107 358.89C74.2673 355.776 70.3476 352.537 66.5518 349.134C61.58 344.678 56.8351 339.975 52.3172 335.066C48.48 330.899 44.8286 326.568 41.3628 322.071C37.5875 317.182 34.0392 312.149 30.7178 306.951C25.4159 298.659 20.7742 290.016 16.7514 281.044C13.7807 274.443 11.1814 267.677 8.97397 260.788C7.07602 254.868 5.44627 248.845 4.10533 242.76C3.3214 239.191 2.64062 235.623 2.04235 232.013C1.67101 229.847 1.42346 227.661 1.13464 225.474C0.928341 223.927 0.680784 222.36 0.557005 220.792C0.371337 218.296 0 215.8 0 213.284C0 211.696 0.103149 210.148 0.474486 208.601C0.618894 208.333 0.783933 208.065 0.928341 207.776C1.85668 205.941 3.36266 204.785 5.32249 204.229C12.0891 202.331 17.7416 206.044 23.4561 210.025C24.8383 211.056 26.1999 212.108 27.5408 213.181C28.1184 213.655 28.7167 214.109 29.315 214.583C30.0989 215.202 30.8828 215.842 31.6874 216.44C33.5234 217.842 35.4214 219.204 37.2162 220.689C39.1966 222.339 41.3215 223.804 43.3226 225.433C45.1999 227.001 47.2216 228.403 49.1608 229.909C50.9969 231.332 52.8742 232.714 54.6896 234.158C57.1033 236.077 59.5789 237.892 62.0338 239.748C63.8905 241.151 65.7472 242.554 67.5626 243.997C69.5843 245.606 71.6886 247.092 73.6897 248.7C76.0002 250.536 78.3933 252.269 80.7451 254.063C83.9839 256.539 87.1403 259.447 89.1827 263.016C91.6789 267.409 92.0915 272.133 90.1316 277.166C89.0382 281.167 84.9329 284.509 81.1989 285.953C75.7733 288.057 70.0795 286.799 65.2727 283.828C62.5908 282.178 60.0534 280.322 57.5778 278.383C55.1435 276.506 52.6679 274.67 50.2748 272.731C48.2325 271.081 46.1076 269.493 44.0034 267.904C42.7862 266.997 41.5278 266.172 40.3106 265.285C39.5886 264.748 38.7428 264.48 37.897 264.233C37.505 264.109 37.1543 264.253 36.8655 264.521C36.5766 264.79 36.3703 265.099 36.3703 265.512C36.3703 265.821 36.3497 266.151 36.4322 266.44C36.7004 267.409 36.9274 268.399 37.2987 269.328C37.8351 270.668 38.4127 271.988 39.0522 273.288C40.5995 276.444 42.2086 279.6 43.7764 282.756C44.0034 283.21 44.2303 283.663 44.4779 284.096C45.1999 285.355 45.9632 286.572 46.644 287.851C47.9024 290.181 49.3465 292.389 50.77 294.616C52.771 297.813 54.9372 300.908 57.1858 303.94C58.8981 306.25 60.6929 308.54 62.4671 310.829C63.0859 311.634 63.7048 312.417 64.4063 313.139C65.644 314.48 66.6962 315.986 68.0371 317.244C68.2228 317.409 68.3259 317.636 68.491 317.842C68.7798 318.172 69.048 318.523 69.3574 318.853C71.5648 321.101 73.7516 323.37 76.0002 325.578C78.2489 327.785 80.3531 330.115 82.8493 332.054C84.5409 333.746 86.4389 335.21 88.2543 336.737C89.6984 337.954 91.1631 339.15 92.6485 340.285C94.3401 341.584 96.0111 342.925 97.7853 344.121C99.8689 345.524 101.911 346.988 104.036 348.35C107.151 350.351 110.287 352.331 113.526 354.167C116.001 355.569 118.498 356.869 120.994 358.21C122.768 359.158 124.625 359.922 126.44 360.809C128.586 361.861 130.793 362.809 133 363.717C137.003 365.367 141.067 366.914 145.193 368.276C148.122 369.245 151.031 370.256 154.022 371.019C187.442 379.724 223.462 379.93 256.614 369.307C257.13 369.142 257.646 368.977 258.141 368.812C261.111 367.801 264.103 366.832 267.032 365.677C269.549 364.686 272.066 363.676 274.541 362.603C277.079 361.489 279.575 360.293 282.071 359.138C283.68 358.395 285.228 357.57 286.754 356.683C288.322 355.776 289.973 354.971 291.561 354.084C293.81 352.826 296.017 351.464 298.183 350.082C301.793 347.793 305.321 345.379 308.808 342.884C309.922 342.079 311.015 341.233 312.108 340.388C313.243 339.501 314.378 338.593 315.492 337.686C316.42 336.943 317.348 336.2 318.235 335.396C319.679 334.076 321.268 332.921 322.588 331.498C322.712 331.353 322.877 331.25 323.022 331.147C323.496 330.734 324.012 330.363 324.445 329.93C327.663 326.733 330.861 323.515 334.058 320.318C334.368 320.008 334.719 319.719 334.966 319.348C335.564 318.461 336.369 317.739 337.07 316.935C337.772 316.13 338.453 315.305 339.154 314.501C340.041 313.449 340.969 312.417 341.836 311.345C343.012 309.88 344.146 308.375 345.281 306.869C347.076 304.517 348.809 302.145 350.48 299.691C352.625 296.576 354.647 293.399 356.566 290.161C357.824 288.057 359.041 285.932 360.176 283.746C361.867 280.507 363.456 277.228 365.086 273.948C365.313 273.494 365.54 273.04 365.725 272.587C366.262 271.308 366.757 270.029 367.334 268.771C368.634 265.842 369.769 262.83 370.841 259.818C371.955 256.724 372.966 253.61 373.936 250.474C374.864 247.483 375.524 244.307 376.659 241.398C377.587 238.985 378.681 236.592 380.187 234.468C382.208 231.621 384.973 229.497 388.315 228.465C389.841 227.991 391.389 227.743 392.977 227.908C394.648 228.094 395.948 228.857 396.752 230.363C396.979 230.817 397.206 231.271 397.433 231.704L397.474 231.724Z" fill="black"/>
<path d="M3.07573 166.275C2.99321 164.769 2.86944 163.263 3.03447 161.757C3.09636 161.139 3.17888 160.52 3.30266 159.901C4.37541 154.476 5.71635 149.092 7.28421 143.791C8.54263 139.501 9.94546 135.272 11.4927 131.085C14.1952 123.824 17.2897 116.729 20.8174 109.839C26.3049 99.1131 32.6795 88.9439 39.9825 79.3317C43.0769 75.2682 46.2745 71.3078 49.6785 67.5124C53.6188 63.0982 57.7241 58.8284 62.1182 54.8474C63.7893 53.321 65.4603 51.7739 67.1313 50.2682C71.4017 46.4315 75.8577 42.8631 80.4581 39.4183C85.8631 35.3754 91.4332 31.6213 97.2302 28.156C103.295 24.5462 109.484 21.2046 115.9 18.2343C123.616 14.6659 131.517 11.5924 139.645 9.03467C172.343 -1.19635 207.682 -2.6815 241.206 4.29045C250.819 6.29127 260.309 8.97279 269.51 12.3969C275.534 14.6452 281.413 17.1824 287.189 19.9876C293.358 22.9992 299.34 26.3408 305.22 29.8886C311.203 33.519 316.958 37.4588 322.508 41.7079C325.808 44.2244 329.027 46.8647 332.183 49.5668C336.825 53.5479 341.219 57.797 345.448 62.1906C349.698 66.5842 353.7 71.2046 357.496 75.9901C361.333 80.8375 364.943 85.8292 368.306 91.0066C373.566 99.0924 378.188 107.529 382.21 116.295C385.697 123.845 388.647 131.601 391.143 139.521C393.144 145.875 394.836 152.331 396.197 158.87C397.064 163.057 397.848 167.265 398.467 171.493C399.168 176.176 399.828 180.858 399.973 185.602C400.096 189.769 398.343 193.936 393.722 194.389C390.132 194.74 386.666 193.503 383.551 191.79C381.014 190.388 378.683 188.614 376.372 186.861C375.959 186.861 374.907 185.747 374.557 185.479C373.876 184.963 373.174 184.427 372.494 183.911C371.111 182.859 369.729 181.807 368.347 180.776C365.686 178.754 363.045 176.733 360.405 174.691C358.961 173.577 357.496 172.484 356.052 171.39C354.504 170.215 352.895 169.101 351.41 167.842C349.43 166.192 347.305 164.728 345.304 163.098C342.869 161.118 340.311 159.282 337.836 157.364C335.463 155.507 333.049 153.692 330.677 151.836C328.057 149.794 325.355 147.834 322.755 145.751C322.26 145.359 321.765 144.967 321.27 144.596C320.362 143.915 319.537 143.131 318.65 142.43C316.917 141.048 315.39 139.48 314.029 137.748C312.523 135.829 311.471 133.705 310.872 131.374C310.563 130.157 310.274 128.94 310.336 127.661C310.377 126.588 310.295 125.516 310.687 124.484C311.141 121.246 312.791 118.606 314.957 116.254C315.514 115.656 316.195 115.202 316.834 114.686C319.207 112.727 323.003 111.613 325.953 111.531C327.356 111.489 328.717 111.737 330.058 112.005C331.544 112.314 332.946 112.809 334.329 113.49C336.02 114.336 337.65 115.285 339.177 116.399C342.168 118.585 345.139 120.813 348.109 123.04C349.615 124.175 351.101 125.33 352.607 126.465C353.762 127.331 354.938 128.177 356.052 129.105C357.455 130.281 358.919 131.374 360.466 132.343C361.271 132.838 362.117 133.251 362.963 133.663C363.375 133.87 363.809 133.87 364.262 133.808C364.675 133.746 365.088 133.375 365.129 132.941C365.211 132.24 365.232 131.559 365.005 130.879C364.716 130.054 364.448 129.208 364.139 128.383C363.025 125.433 361.436 122.71 360.219 119.802C359.868 118.998 359.352 118.276 358.94 117.492C357.558 114.728 356.093 112.026 354.484 109.385C353.246 107.343 352.008 105.301 350.729 103.28C349.326 101.114 347.862 98.9893 346.397 96.8853C343.983 93.4406 341.384 90.1196 338.743 86.8399C337.34 85.0866 335.835 83.3746 334.349 81.6626C333.07 80.198 331.605 78.8985 330.429 77.3309C327.335 74.2987 324.406 71.0602 321.084 68.255C319.702 67.0792 318.444 65.7591 317.02 64.604C315.803 63.6139 314.668 62.5206 313.451 61.5305C311.842 60.2104 310.212 58.9522 308.562 57.6939C306.416 56.0644 304.271 54.3936 302.043 52.8878C297.855 50.0825 293.708 47.2772 289.335 44.7607C286.55 43.1518 283.744 41.6048 280.918 40.099C277.308 38.1807 273.574 36.5099 269.819 34.8598C266.353 33.354 262.846 31.972 259.298 30.6931C255.873 29.4348 252.387 28.3622 248.901 27.3309C247.931 27.0421 246.961 26.7739 245.992 26.5264C213.706 18.1931 178.408 18.3994 146.391 28.4035C145.071 28.816 143.73 29.1667 142.43 29.6411C141.069 30.1568 139.707 30.6312 138.345 31.085C137.809 31.2706 137.273 31.4563 136.757 31.6832C133.724 32.9208 130.671 34.0759 127.68 35.3961C125.617 36.3036 123.554 37.2525 121.491 38.2013C119.222 39.2739 116.994 40.4291 114.786 41.6461C112.517 42.8837 110.268 44.1213 108.04 45.4208C105.915 46.6584 103.852 47.9579 101.789 49.2781C98.241 51.547 94.8165 54.0017 91.4332 56.4975C88.7101 58.519 86.0488 60.623 83.4495 62.8094C82.1498 63.9027 80.7882 64.9134 79.6123 66.1716C79.406 66.3985 79.1378 66.5842 78.9109 66.7904C78.3952 67.2442 77.8382 67.6568 77.343 68.1518C74.0835 71.3903 70.8034 74.6081 67.5851 77.8878C66.0792 79.4142 64.697 81.0437 63.2529 82.6114C63.1704 82.6939 63.0878 82.797 63.026 82.9002C62.634 83.5602 62.077 84.0759 61.5612 84.6328C61.3137 84.9216 61.0455 85.1898 60.7979 85.4786C59.1269 87.6031 57.4559 89.7277 55.8261 91.873C54.1345 94.0594 52.5254 96.3078 50.9575 98.5974C48.7295 101.815 46.7284 105.136 44.7273 108.498C42.9532 111.469 41.2821 114.501 39.7555 117.616C38.2289 120.73 36.5992 123.783 35.2376 126.96C34.4124 128.857 33.546 130.755 32.7827 132.673C32.3701 133.725 31.9575 134.777 31.5655 135.85C30.9053 137.624 30.2246 139.377 29.6057 141.151C28.2854 144.946 27.1713 148.804 25.9955 152.64C24.7989 156.539 23.7674 160.252 21.3537 163.614C19.4352 166.275 17.0009 168.255 13.927 169.41C11.9672 170.153 9.92483 170.441 7.84122 170.132C6.06706 169.864 4.70549 168.956 3.79778 167.389C3.59148 167.017 3.52959 166.543 3.15825 166.275H3.07573Z" fill="black"/>
</g>
<defs>
<clipPath id="clip0_203_1022">
<rect width="1153" height="400" fill="white"/>
</clipPath>
</defs>
</svg>
